<svg width="24" height="25" viewBox="0 0 24 25" fill="none" xmlns="http://www.w3.org/2000/svg">
<path d="M9.5 10.5C8.6097 10.5 7.73941 10.2359 6.99924 9.74115C6.25908 9.24639 5.6823 8.54319 5.34191 7.72053C5.00151 6.89788 4.91278 5.99274 5.08696 5.11964C5.26113 4.24655 5.69038 3.44474 6.32038 2.81567C6.95038 2.1866 7.75282 1.75854 8.62618 1.58566C9.49953 1.41278 10.4045 1.50284 11.2267 1.84446C12.0488 2.18607 12.7512 2.76388 13.2448 3.50478C13.7385 4.24568 14.0013 5.11636 14 6.00666C13.9965 7.19844 13.521 8.3403 12.6777 9.18239C11.8343 10.0245 10.6918 10.4982 9.5 10.5ZM9.5 2.83802C8.8733 2.83802 8.26067 3.02386 7.73959 3.37203C7.21851 3.72021 6.81238 4.21508 6.57256 4.79407C6.33273 5.37306 6.26998 6.01017 6.39224 6.62483C6.5145 7.23948 6.81629 7.80408 7.25943 8.24722C7.70257 8.69036 8.26717 8.99215 8.88183 9.11441C9.49648 9.23667 10.1336 9.17392 10.7126 8.9341C11.2916 8.69427 11.7864 8.28814 12.1346 7.76706C12.4828 7.24598 12.6686 6.63336 12.6686 6.00666C12.6686 5.16628 12.3348 4.36033 11.7406 3.76609C11.1463 3.17186 10.3404 2.83802 9.5 2.83802Z" fill="#2F3A4F"/>
<path d="M10.8095 22.2791C10.6608 22.1281 10.5462 21.9463 10.4733 21.7461C10.4005 21.5459 10.3713 21.332 10.3878 21.1192H2.36054V17.1288C3.3251 16.0843 4.49504 15.2569 5.79462 14.7004C7.0942 14.1438 8.49446 13.8704 9.90476 13.8978H10.3946C10.3633 13.6663 10.3851 13.4307 10.4583 13.2091C10.5314 12.9876 10.654 12.7862 10.8163 12.6206L10.898 12.5446C10.5782 12.5446 10.2177 12.5032 9.90476 12.5032C8.24517 12.4632 6.59756 12.798 5.08107 13.4833C3.56458 14.1687 2.21709 15.1875 1.13605 16.466C1.04774 16.5855 1 16.7309 1 16.8803V21.1192C1 21.4854 1.14334 21.8366 1.39849 22.0956C1.65365 22.3545 1.99971 22.5 2.36054 22.5H11L10.8095 22.2791Z" fill="#2F3A4F"/>
<path d="M23.8918 16.0296L22.566 15.591C22.4713 15.2392 22.3424 14.8994 22.1816 14.5772L22.8444 13.2398C22.866 13.1863 22.8712 13.1267 22.8593 13.0698C22.8473 13.0129 22.8189 12.9616 22.7782 12.9235L21.817 11.8809C21.7807 11.8382 21.7321 11.81 21.6792 11.8009C21.6263 11.7918 21.5721 11.8022 21.5253 11.8306L20.3057 12.5496C20.0054 12.3664 19.6875 12.2194 19.3578 12.111L18.9534 10.673C18.9363 10.62 18.9037 10.5746 18.8607 10.5435C18.8177 10.5123 18.7665 10.4972 18.7148 10.5004H17.3559C17.3037 10.4998 17.2528 10.5177 17.2109 10.5515C17.169 10.5852 17.1384 10.633 17.1239 10.6874L16.7196 12.1254C16.3876 12.2301 16.0674 12.3748 15.7651 12.5568L14.5587 11.8378C14.5129 11.81 14.4598 11.7998 14.4081 11.809C14.3563 11.8181 14.3089 11.846 14.2736 11.8881L13.2926 12.9235C13.2562 12.965 13.2328 13.0179 13.2257 13.0747C13.2185 13.1315 13.228 13.1892 13.2528 13.2398L13.9157 14.5484C13.7404 14.8725 13.6002 15.2175 13.4981 15.5766L12.1724 16.008C12.1222 16.0237 12.0782 16.0568 12.0471 16.1023C12.0159 16.1477 11.9994 16.203 12 16.2596V17.7336C12.0039 17.7855 12.0226 17.8349 12.0535 17.8748C12.0844 17.9147 12.1259 17.9433 12.1724 17.9565L13.4981 18.3951C13.5961 18.7478 13.7294 19.0877 13.8958 19.4089L13.2329 20.7822C13.2076 20.8314 13.1978 20.8882 13.205 20.944C13.2122 20.9998 13.236 21.0515 13.2727 21.0913L14.2339 22.1339C14.2714 22.1745 14.3198 22.2013 14.3722 22.2103C14.4245 22.2193 14.4782 22.2102 14.5255 22.1842L15.7651 21.4652C16.0601 21.6373 16.3712 21.7747 16.6931 21.8751L17.0908 23.3131C17.1071 23.3663 17.1381 23.4128 17.1796 23.4462C17.2211 23.4797 17.2711 23.4984 17.3228 23.5H18.6817C18.7336 23.4995 18.7841 23.4811 18.8258 23.4475C18.8674 23.4139 18.8982 23.3669 18.9137 23.3131L19.318 21.8391C19.6357 21.7387 19.9424 21.6013 20.2328 21.4293L21.4856 22.1483C21.5316 22.1748 21.5844 22.1843 21.6359 22.1752C21.6874 22.1661 21.7347 22.139 21.7706 22.0979L22.7782 21.1201C22.8052 21.0779 22.8198 21.0277 22.8198 20.9763C22.8198 20.9249 22.8052 20.8747 22.7782 20.8325L22.1153 19.4808C22.2762 19.1636 22.4051 18.8285 22.4998 18.4814L23.8255 18.0428C23.8756 18.027 23.9196 17.9939 23.9508 17.9485C23.9819 17.903 23.9984 17.8477 23.9978 17.7911V16.2812C24.0039 16.2327 23.9972 16.1833 23.9784 16.1387C23.9596 16.0942 23.9296 16.0563 23.8918 16.0296ZM18.0387 19.3945C17.6003 19.3959 17.1713 19.2561 16.8062 18.9928C16.4411 18.7294 16.1563 18.3545 15.9879 17.9153C15.8195 17.4762 15.7751 16.9928 15.8603 16.5263C15.9455 16.0598 16.1565 15.6312 16.4666 15.2949C16.7766 14.9586 17.1717 14.7298 17.6018 14.6374C18.0319 14.5449 18.4776 14.5931 18.8824 14.7757C19.2872 14.9584 19.6329 15.2673 19.8757 15.6633C20.1184 16.0593 20.2473 16.5246 20.246 17.0002C20.2443 17.6346 20.0112 18.2425 19.5976 18.6911C19.184 19.1397 18.6236 19.3926 18.0387 19.3945Z" fill="#2F3A4F"/>
</svg>
