<svg width="25" height="24" viewBox="0 0 25 24" fill="none" xmlns="http://www.w3.org/2000/svg">
<path d="M17.9696 9.98798C17.9696 9.28198 18.5416 8.70998 19.2486 8.70998C19.9556 8.70998 20.5276 9.28198 20.5276 9.98798V14.518C20.5276 15.227 19.9556 15.798 19.2486 15.798C18.5416 15.798 17.9696 15.227 17.9696 14.518V9.98798Z" fill="#2F3A4F"/>
<path d="M4.58105 9.98798C4.58105 9.28198 5.15305 8.70998 5.86005 8.70998C6.56705 8.70998 7.14005 9.28198 7.13905 9.98798V14.518C7.13905 15.227 6.56705 15.798 5.86005 15.798C5.15305 15.798 4.58105 15.227 4.58105 14.518V9.98798Z" fill="#2F3A4F"/>
<path d="M15.8516 3.51298L15.0836 4.90098C16.4666 5.69098 17.0396 7 17.0396 8.453V8.507L8.03858 8.513V8.512C8.03858 8.506 8.03858 8.499 8.04058 8.493C8.03858 8.48 8.03858 8.47 8.03858 8.459C8.03858 7 8.61059 5.68998 9.99359 4.90198L9.22559 3.51398C9.13159 3.34698 9.19259 3.13698 9.35859 3.04398C9.52859 2.94998 9.73959 3.01098 9.82959 3.17898L10.6186 4.59698C11.2066 4.36198 11.8546 4.22998 12.5386 4.22998C13.2226 4.22998 13.8706 4.36298 14.4586 4.59798L15.2476 3.17798C15.3396 3.00998 15.5506 2.94898 15.7186 3.04298C15.8846 3.13598 15.9476 3.34598 15.8516 3.51298ZM10.1988 7.12393C10.5434 7.12393 10.8227 6.84459 10.8227 6.5C10.8227 6.15541 10.5434 5.87607 10.1988 5.87607C9.85419 5.87607 9.57485 6.15541 9.57485 6.5C9.57485 6.84459 9.85419 7.12393 10.1988 7.12393ZM14.9213 7.12393C15.2658 7.12393 15.5452 6.84459 15.5452 6.5C15.5452 6.15541 15.2658 5.87607 14.9213 5.87607C14.5767 5.87607 14.2973 6.15541 14.2973 6.5C14.2973 6.84459 14.5767 7.12393 14.9213 7.12393Z" fill="#2F3A4F"/>
<path d="M8.86059 17.291C8.21159 17.291 8.03858 16.772 8.03858 16.126V9.506L17.0386 9.5V16.12C17.0386 16.767 16.8626 17.291 16.2146 17.291H15.6286V19.692C15.6286 20.399 15.0566 20.97 14.3476 20.97C13.6426 20.97 13.0706 20.399 13.0706 19.692V17.291H12.0046V19.692C12.0046 20.399 11.4306 20.97 10.7256 20.97C10.0206 20.97 9.44659 20.399 9.44659 19.692V17.291H8.86059Z" fill="#2F3A4F"/>
</svg>
