<svg width="24" height="25" viewBox="0 0 24 25" fill="none" xmlns="http://www.w3.org/2000/svg">
<path d="M18.344 9.21001C17.637 9.21001 17.065 9.78201 17.065 10.488V15.018C17.065 15.727 17.637 16.298 18.344 16.298C19.051 16.298 19.623 15.727 19.623 15.018V10.488C19.623 9.78201 19.051 9.21001 18.344 9.21001ZM5.65595 9.21001C4.94895 9.21001 4.37695 9.78201 4.37695 10.488V15.018C4.37695 15.727 4.94895 16.298 5.65595 16.298C6.36295 16.298 6.93495 15.727 6.93495 15.018V10.488C6.93595 9.78201 6.36295 9.21001 5.65595 9.21001ZM14.545 5.40101L15.313 4.01301C15.409 3.84601 15.346 3.63601 15.18 3.54301C15.012 3.44901 14.801 3.51001 14.709 3.67801L13.92 5.09801C13.332 4.86301 12.684 4.73001 12 4.73001C11.316 4.73001 10.668 4.86201 10.08 5.09701L9.29095 3.67901C9.20095 3.51101 8.98995 3.45001 8.81995 3.54401C8.65395 3.63701 8.59295 3.84701 8.68695 4.01401L9.45495 5.40201C8.07195 6.19001 7.14795 7.59901 7.14795 9.21001C7.14795 9.22101 7.14795 9.23101 7.14995 9.24401C7.14795 9.25001 7.14795 9.25701 7.14795 9.26301V9.26401H16.851V9.26301C16.851 9.25701 16.851 9.25001 16.851 9.24401C16.851 9.23101 16.851 9.22101 16.851 9.21001C16.852 7.59901 15.928 6.19101 14.545 5.40101ZM9.75995 7.36901C9.57095 7.36901 9.41595 7.21301 9.41595 7.02301C9.41595 6.83301 9.56995 6.67701 9.75995 6.67701C9.95095 6.67701 10.108 6.83201 10.108 7.02301C10.107 7.21301 9.95095 7.36901 9.75995 7.36901ZM14.24 7.36901C14.049 7.36901 13.894 7.21301 13.894 7.02301C13.894 6.83301 14.048 6.67701 14.24 6.67701C14.429 6.67701 14.584 6.83201 14.584 7.02301C14.584 7.21301 14.43 7.36901 14.24 7.36901ZM7.14795 16.62C7.14795 17.266 7.67295 17.791 8.32195 17.791H8.90795V20.192C8.90795 20.899 9.48195 21.47 10.187 21.47C10.892 21.47 11.466 20.899 11.466 20.192V17.791H12.532V20.192C12.532 20.899 13.104 21.47 13.809 21.47C14.518 21.47 15.09 20.899 15.09 20.192V17.791H15.676C16.324 17.791 16.85 17.267 16.85 16.62V9.52801H7.14795V16.62Z" fill="#2F3A4F"/>
</svg>
