<svg width="24" height="25" viewBox="0 0 24 25" fill="none" xmlns="http://www.w3.org/2000/svg">
<path d="M18.344 9.21002C19.051 9.21002 19.623 9.78202 19.623 10.488V15.018C19.623 15.727 19.051 16.298 18.344 16.298C17.637 16.298 17.065 15.727 17.065 15.018V10.488C17.065 9.78202 17.637 9.21002 18.344 9.21002ZM5.65595 9.21002C6.36295 9.21002 6.93595 9.78202 6.93495 10.488V15.018C6.93495 15.727 6.36295 16.298 5.65595 16.298C4.94895 16.298 4.37695 15.727 4.37695 15.018V10.488C4.37695 9.78202 4.94895 9.21002 5.65595 9.21002ZM7.14795 16.62V9.52802H16.85V16.62C16.85 17.267 16.324 17.791 15.676 17.791H15.09V20.192C15.09 20.899 14.518 21.47 13.809 21.47C13.104 21.47 12.532 20.899 12.532 20.192V17.791H11.466V20.192C11.466 20.899 10.892 21.47 10.187 21.47C9.48195 21.47 8.90795 20.899 8.90795 20.192V17.791H8.32195C7.67295 17.791 7.14795 17.266 7.14795 16.62Z" fill="#F03D3E"/>
<path d="M14.545 5.40101C15.928 6.19101 16.852 7.59901 16.851 9.21001C16.851 9.22101 16.851 9.23101 16.851 9.24401C16.851 9.25001 16.851 9.25701 16.851 9.26301V9.26401H7.14795V9.26301C7.14795 9.25701 7.14795 9.25001 7.14995 9.24401C7.14795 9.23101 7.14795 9.22101 7.14795 9.21001C7.14795 7.59901 8.07195 6.19001 9.45495 5.40201L8.68695 4.01401C8.59295 3.84701 8.65395 3.63701 8.81995 3.54401C8.98995 3.45001 9.20095 3.51101 9.29095 3.67901L10.08 5.09701C10.668 4.86201 11.316 4.73001 12 4.73001C12.684 4.73001 13.332 4.86301 13.92 5.09801L14.709 3.67801C14.801 3.51001 15.012 3.44901 15.18 3.54301C15.346 3.63601 15.409 3.84601 15.313 4.01301L14.545 5.40101ZM9.75995 7.36901C9.95095 7.36901 10.107 7.21301 10.108 7.02301C10.108 6.83201 9.95095 6.67701 9.75995 6.67701C9.56995 6.67701 9.41595 6.83301 9.41595 7.02301C9.41595 7.21301 9.57095 7.36901 9.75995 7.36901ZM14.24 7.36901C14.43 7.36901 14.584 7.21301 14.584 7.02301C14.584 6.83201 14.429 6.67701 14.24 6.67701C14.048 6.67701 13.894 6.83301 13.894 7.02301C13.894 7.21301 14.049 7.36901 14.24 7.36901Z" fill="#F03D3E"/>
</svg>
