<svg width="24" height="25" viewBox="0 0 24 25" fill="none" xmlns="http://www.w3.org/2000/svg">
<path d="M17.6 9.98L19.44 6.8C19.6 6.49 19.48 6.11 19.18 5.95C19.0391 5.87657 18.8759 5.85843 18.7224 5.89913C18.5688 5.93983 18.436 6.03644 18.35 6.17L16.47 9.41C15.0558 8.81113 13.5357 8.50254 12 8.50254C10.4643 8.50254 8.94417 8.81113 7.53 9.41L5.65 6.17C5.55909 6.03051 5.41763 5.93172 5.25536 5.89442C5.0931 5.85712 4.92269 5.88421 4.78 5.97C4.5 6.15 4.41 6.51 4.56 6.8L6.4 9.98C4.87336 10.8521 3.5832 12.0844 2.64198 13.5694C1.70076 15.0545 1.13706 16.7472 1 18.5H23C22.8629 16.7472 22.2992 15.0545 21.358 13.5694C20.4168 12.0844 19.1266 10.8521 17.6 9.98ZM7 15.75C6.66848 15.75 6.35054 15.6183 6.11612 15.3839C5.8817 15.1495 5.75 14.8315 5.75 14.5C5.75 14.1685 5.8817 13.8505 6.11612 13.6161C6.35054 13.3817 6.66848 13.25 7 13.25C7.33152 13.25 7.64946 13.3817 7.88388 13.6161C8.1183 13.8505 8.25 14.1685 8.25 14.5C8.25 14.8315 8.1183 15.1495 7.88388 15.3839C7.64946 15.6183 7.33152 15.75 7 15.75ZM17 15.75C16.6685 15.75 16.3505 15.6183 16.1161 15.3839C15.8817 15.1495 15.75 14.8315 15.75 14.5C15.75 14.1685 15.8817 13.8505 16.1161 13.6161C16.3505 13.3817 16.6685 13.25 17 13.25C17.3315 13.25 17.6495 13.3817 17.8839 13.6161C18.1183 13.8505 18.25 14.1685 18.25 14.5C18.25 14.8315 18.1183 15.1495 17.8839 15.3839C17.6495 15.6183 17.3315 15.75 17 15.75Z" fill="#2F3A4F"/>
</svg>
