<svg width="24" height="24" viewBox="0 0 24 24" fill="none" xmlns="http://www.w3.org/2000/svg">
<path d="M6.85206 6.90909C6.85206 5.85473 7.70679 5 8.76115 5H15.1248C16.1792 5 17.0339 5.85473 17.0339 6.90909V17.0909C17.0339 18.1453 16.1792 19 15.1248 19H8.76115C7.70679 19 6.85206 18.1453 6.85206 17.0909V14.548L8.12479 15.7185V17.0909C8.12479 17.4424 8.4097 17.7273 8.76115 17.7273H15.1248C15.4762 17.7273 15.7612 17.4424 15.7612 17.0909V6.90909C15.7612 6.55764 15.4762 6.27273 15.1248 6.27273H8.76115C8.4097 6.27273 8.12479 6.55764 8.12479 6.90909V10.5793L6.85206 9.40875V6.90909Z" fill="#2F3A4F"/>
<path d="M13.6439 9.354C13.8924 9.60252 13.8924 10.0054 13.6439 10.254L9.49166 14.7469C9.24314 14.9954 8.84022 14.9954 8.5917 14.7469L6.04625 12.2014C5.79773 11.9529 5.79773 11.55 6.04625 11.3015C6.29477 11.053 6.69769 11.053 6.9462 11.3015L9.04168 13.397L12.744 9.354C12.9925 9.10549 13.3954 9.10549 13.6439 9.354Z" fill="#2F3A4F"/>
</svg>
