<svg width="24" height="24" viewBox="0 0 24 24" fill="none" xmlns="http://www.w3.org/2000/svg">
<path d="M14.4961 11.3147C15.9794 10.4397 16.8999 8.8248 16.8999 7.1V6.4H17.5999V5H6.3999V6.4H7.0999V7.1C7.0999 8.8248 8.0204 10.4397 9.5037 11.3147C9.7515 11.4603 9.8999 11.6962 9.8999 11.9447V12.0553C9.8999 12.3031 9.7515 12.5383 9.5037 12.6853C8.0204 13.5603 7.0999 15.1752 7.0999 16.9V17.6H6.3999V19H17.5999V17.6H16.8999V16.9C16.8999 15.1752 15.9794 13.5603 14.4968 12.686C14.2483 12.539 14.0999 12.3031 14.0999 12.0553V11.9447C14.0999 11.6962 14.2483 11.4603 14.4961 11.3147ZM13.7856 13.8914C14.8433 14.5158 15.4999 15.668 15.4999 16.9V17.6H8.4999V16.9C8.4999 15.668 9.1565 14.5158 10.2149 13.8907C10.8946 13.4896 11.2999 12.8029 11.2999 12.0553V11.9447C11.2999 11.1964 10.8939 10.509 10.2142 10.1086C9.1565 9.4842 8.4999 8.332 8.4999 7.1V6.4H15.4999V7.1C15.4999 8.332 14.8433 9.4842 13.7856 10.1086C13.1059 10.509 12.6999 11.1964 12.6999 11.9447V12.0553C12.6999 12.8029 13.1052 13.4896 13.7856 13.8914Z" fill="#2F3A4F"/>
</svg>
