<svg width="24" height="24" viewBox="0 0 24 24" fill="none" xmlns="http://www.w3.org/2000/svg">
<path d="M17.0908 14.494L15.818 13.2213V6.90909C15.818 6.55764 15.5331 6.27273 15.1817 6.27273H8.86952L7.85635 5.25956C8.13876 5.09455 8.46736 5 8.81805 5H15.1817C16.236 5 17.0908 5.85473 17.0908 6.90909V14.494Z" fill="#2F3A4F"/>
<path d="M6.90896 7.80905L5.82262 6.7227C5.5741 6.47419 5.5741 6.07127 5.82262 5.82275C6.07113 5.57424 6.47406 5.57424 6.72257 5.82275L18.1771 17.2773C18.4256 17.5258 18.4256 17.9287 18.1771 18.1772C17.9286 18.4258 17.5257 18.4258 17.2772 18.1772L16.9387 17.8388C16.6478 18.5215 15.9706 19 15.1817 19H8.81805C7.76369 19 6.90896 18.1453 6.90896 17.0909V7.80905ZM15.818 16.7181L8.18168 9.08177V17.0909C8.18168 17.4424 8.46659 17.7273 8.81805 17.7273H15.1817C15.5331 17.7273 15.818 17.4424 15.818 17.0909V16.7181Z" fill="#2F3A4F"/>
</svg>
