<svg width="24" height="25" viewBox="0 0 24 25" fill="none" xmlns="http://www.w3.org/2000/svg">
<path d="M19.6649 17.311C19.3779 17.975 19.0379 18.586 18.6439 19.148C18.1069 19.915 17.6659 20.445 17.3279 20.74C16.8029 21.222 16.2389 21.47 15.6359 21.484C15.2039 21.484 14.6819 21.361 14.0739 21.111C13.4639 20.862 12.9039 20.74 12.3909 20.74C11.8539 20.74 11.2779 20.862 10.6609 21.111C10.0449 21.361 9.5469 21.492 9.1659 21.504C8.5889 21.529 8.0119 21.275 7.4369 20.74C7.0699 20.42 6.6109 19.87 6.0599 19.092C5.4699 18.263 4.9849 17.298 4.6049 16.201C4.1979 15.014 3.9939 13.866 3.9939 12.754C3.9939 11.481 4.2689 10.382 4.8199 9.46199C5.2539 8.72199 5.8299 8.13899 6.5499 7.71099C7.2709 7.28199 8.0509 7.06299 8.8899 7.04899C9.3499 7.04899 9.9529 7.19099 10.6999 7.47099C11.4469 7.75099 11.9269 7.89299 12.1359 7.89299C12.2939 7.89299 12.8249 7.72599 13.7289 7.39499C14.5819 7.08799 15.3019 6.96099 15.8919 7.01099C17.4919 7.13999 18.6929 7.76999 19.4919 8.90599C18.0619 9.77299 17.3549 10.986 17.3689 12.543C17.3809 13.756 17.8219 14.765 18.6859 15.566C19.0779 15.938 19.5149 16.225 20.0009 16.429C19.8949 16.736 19.7829 17.029 19.6649 17.311ZM15.9979 2.87999C15.9979 3.82999 15.6499 4.71799 14.9589 5.53899C14.1229 6.51499 13.1129 7.07999 12.0179 6.99099C12.0039 6.87699 11.9969 6.75699 11.9969 6.63099C11.9969 5.71799 12.3929 4.74199 13.0999 3.94299C13.4519 3.53899 13.8999 3.20199 14.4429 2.93399C14.9849 2.66999 15.4969 2.52399 15.9789 2.49899C15.9919 2.62699 15.9979 2.75399 15.9979 2.87999Z" fill="#2F3A4F"/>
</svg>
