<svg width="24" height="24" viewBox="0 0 24 24" fill="none" xmlns="http://www.w3.org/2000/svg">
<path d="M10.197 11.6893C10.6212 11.053 10.8333 10.3107 10.8333 9.46225C10.8333 7.23516 8.92438 5.53833 6.80334 5.53833H0.65233C0.334174 5.53833 0.12207 5.75043 0.12207 6.06859V19.5372C0.12207 19.8553 0.334174 20.0674 0.65233 20.0674H7.43965C9.9849 20.0674 12.1059 18.0524 12.1059 15.5072C12.1059 13.9164 11.3636 12.5378 10.197 11.6893ZM2.77337 8.29568H6.80334C7.5457 8.29568 8.07596 8.93199 8.07596 9.5683C8.07596 10.3107 7.43965 10.8409 6.80334 10.8409H2.77337V8.29568ZM7.5457 17.4161H2.77337V13.5983H7.5457C8.60622 13.5983 9.45464 14.4467 9.45464 15.5072C9.45464 16.5677 8.60622 17.4161 7.5457 17.4161Z" fill="#2F3A4F"/>
<path d="M23.8777 14.5527C23.8777 11.3712 21.4385 8.82594 18.363 8.82594C15.2875 8.82594 12.8483 11.3712 12.8483 14.5527C12.8483 17.7343 15.2875 20.2795 18.363 20.2795C20.1659 20.2795 21.8627 19.3251 22.9232 17.7343C23.0293 17.5222 23.1353 17.3101 23.2414 17.098C23.3474 16.9919 23.2414 16.7798 23.0293 16.7798H20.378C20.2719 16.7798 20.2719 16.7798 20.1659 16.8859C19.6356 17.4161 18.9993 17.6282 18.363 17.6282C16.9843 17.6282 15.9238 16.6738 15.6056 15.2951H23.3474C23.6656 15.2951 23.8777 15.083 23.8777 14.7648V14.5527ZM18.363 11.5833C19.3175 11.5833 20.1659 12.1136 20.6961 12.962H16.0299C16.4541 12.1136 17.4085 11.5833 18.363 11.5833Z" fill="#2F3A4F"/>
<path d="M20.5901 8.18964H15.7117C15.4996 8.18964 15.2875 7.97754 15.2875 7.76543V6.59886C15.2875 6.38676 15.4996 6.17466 15.7117 6.17466H20.5901C20.8022 6.17466 21.0143 6.38676 21.0143 6.59886V7.87148C21.0143 7.97754 20.9082 8.18964 20.5901 8.18964Z" fill="#2F3A4F"/>
</svg>
