<svg width="24" height="24" viewBox="0 0 24 24" fill="none" xmlns="http://www.w3.org/2000/svg">
<path d="M11.4573 11.3318C11.687 10.9871 11.8019 10.585 11.8019 10.1255C11.8019 8.91911 10.7679 8 9.61902 8H6.28722C6.11489 8 6 8.11489 6 8.28722V15.5827C6 15.755 6.11489 15.8699 6.28722 15.8699H9.96369C11.3424 15.8699 12.4913 14.7785 12.4913 13.3998C12.4913 12.5381 12.0891 11.7914 11.4573 11.3318ZM7.43612 9.49356H9.61902C10.0211 9.49356 10.3084 9.83823 10.3084 10.1829C10.3084 10.585 9.96369 10.8722 9.61902 10.8722H7.43612V9.49356ZM10.0211 14.4338H7.43612V12.3658H10.0211C10.5956 12.3658 11.0551 12.8254 11.0551 13.3998C11.0551 13.9743 10.5956 14.4338 10.0211 14.4338Z" fill="#2F3A4F"/>
<path d="M18.8676 12.8828C18.8676 11.1595 17.5464 9.78079 15.8805 9.78079C14.2146 9.78079 12.8934 11.1595 12.8934 12.8828C12.8934 14.6062 14.2146 15.9848 15.8805 15.9848C16.8571 15.9848 17.7762 15.4678 18.3506 14.6062C18.4081 14.4913 18.4655 14.3764 18.523 14.2615C18.5804 14.204 18.523 14.0892 18.4081 14.0892H16.9719C16.9145 14.0892 16.9145 14.0891 16.8571 14.1466C16.5698 14.4338 16.2252 14.5487 15.8805 14.5487C15.1337 14.5487 14.5593 14.0317 14.3869 13.2849H18.5804C18.7527 13.2849 18.8676 13.17 18.8676 12.9977V12.8828ZM15.8805 11.2744C16.3975 11.2744 16.8571 11.5616 17.1443 12.0211H14.6167C14.8465 11.5616 15.3635 11.2744 15.8805 11.2744Z" fill="#2F3A4F"/>
<path d="M17.0868 9.43613H14.4444C14.3295 9.43613 14.2146 9.32124 14.2146 9.20635V8.57446C14.2146 8.45957 14.3295 8.34468 14.4444 8.34468H17.0868C17.2017 8.34468 17.3166 8.45957 17.3166 8.57446V9.26379C17.3166 9.32124 17.2592 9.43613 17.0868 9.43613Z" fill="#2F3A4F"/>
</svg>
