<svg width="24" height="25" viewBox="0 0 24 25" fill="none" xmlns="http://www.w3.org/2000/svg">
<path fill-rule="evenodd" clip-rule="evenodd" d="M7.05033 3.55025C8.36309 2.2375 10.1436 1.5 12.0001 1.5C13.8566 1.5 15.6371 2.2375 16.9498 3.55025C18.2626 4.86301 19.0001 6.64349 19.0001 8.5C19.0001 11.8527 19.7171 13.9346 20.378 15.1461C20.7098 15.7544 21.0329 16.1535 21.2573 16.3904C21.3698 16.5091 21.4581 16.5878 21.5114 16.6322C21.538 16.6544 21.5558 16.668 21.5635 16.6737C21.5647 16.6746 21.5657 16.6753 21.5664 16.6758C21.9249 16.9221 22.0835 17.3725 21.9572 17.7898C21.8295 18.2115 21.4407 18.5 21.0001 18.5H3.00008C2.55941 18.5 2.17068 18.2115 2.04299 17.7898C1.91664 17.3725 2.07528 16.9221 2.43377 16.6758C2.43447 16.6753 2.43542 16.6746 2.43663 16.6737C2.44432 16.668 2.46218 16.6544 2.4888 16.6322C2.54202 16.5878 2.6304 16.5091 2.74288 16.3904C2.9673 16.1535 3.29039 15.7544 3.62218 15.1461C4.28301 13.9346 5.00008 11.8527 5.00008 8.5C5.00008 6.64348 5.73758 4.86301 7.05033 3.55025ZM2.44388 16.669C2.44395 16.6689 2.44403 16.6688 2.44411 16.6688H2.4441L2.44388 16.669ZM5.1494 16.5H18.8508C18.7747 16.3753 18.6983 16.2434 18.6222 16.1039C17.783 14.5654 17.0001 12.1473 17.0001 8.5C17.0001 7.17392 16.4733 5.90215 15.5356 4.96447C14.5979 4.02678 13.3262 3.5 12.0001 3.5C10.674 3.5 9.40223 4.02678 8.46454 4.96447C7.52686 5.90215 7.00008 7.17392 7.00008 8.5C7.00008 12.1473 6.21715 14.5654 5.37797 16.1039C5.30188 16.2434 5.22549 16.3753 5.1494 16.5ZM9.76831 20.635C10.246 20.3579 10.858 20.5205 11.1351 20.9982C11.223 21.1498 11.3492 21.2756 11.501 21.363C11.6528 21.4504 11.8249 21.4965 12.0001 21.4965C12.1753 21.4965 12.3474 21.4504 12.4992 21.363C12.651 21.2756 12.7772 21.1498 12.8651 20.9982C13.1422 20.5205 13.7541 20.3579 14.2318 20.635C14.7096 20.9121 14.8722 21.524 14.5951 22.0018C14.3314 22.4564 13.9528 22.8337 13.4974 23.0961C13.042 23.3584 12.5256 23.4965 12.0001 23.4965C11.4745 23.4965 10.9582 23.3584 10.5027 23.0961C10.0473 22.8337 9.66879 22.4564 9.40508 22.0018C9.12796 21.524 9.29058 20.9121 9.76831 20.635Z" fill="#2F3A4F"/>
</svg>
