<svg width="24" height="25" viewBox="0 0 24 25" fill="none" xmlns="http://www.w3.org/2000/svg">
<g clip-path="url(#clip0)">
<path d="M12 4.544L11.4652 4.472L4.70718 15.98C4.9989 16.232 5.19337 16.556 5.27845 16.916H18.7215C18.8066 16.556 19.0011 16.232 19.2928 15.98L12.5348 4.472L12 4.544ZM5.43646 17.936L10.6387 20.972C10.9912 20.648 11.4773 20.456 12 20.456C12.5227 20.456 13.0088 20.648 13.3613 20.972L18.5635 17.936H5.43646ZM12 24.5C11.4584 24.5 10.939 24.2876 10.5561 23.9095C10.1731 23.5315 9.95801 23.0187 9.95801 22.484L10.0674 21.812L4.84088 18.752C4.46409 19.184 3.91713 19.448 3.29724 19.448C2.75567 19.448 2.23628 19.2356 1.85333 18.8575C1.47039 18.4795 1.25525 17.9667 1.25525 17.432C1.25525 16.484 1.89945 15.692 2.78674 15.464V9.332C1.7779 9.2 1 8.348 1 7.316C1 6.78132 1.21514 6.26855 1.59808 5.89047C1.98103 5.5124 2.50042 5.3 3.04199 5.3C3.7105 5.3 4.29392 5.612 4.67072 6.092L10.0309 3.056L9.95801 2.516C9.95801 1.4 10.8696 0.5 12 0.5C13.1304 0.5 14.042 1.4 14.042 2.516L13.9691 3.056L19.3293 6.092C19.7061 5.612 20.2895 5.3 20.958 5.3C21.4996 5.3 22.019 5.5124 22.4019 5.89047C22.7849 6.26855 23 6.78132 23 7.316C23 8.348 22.2221 9.2 21.2133 9.332V15.464C22.1006 15.692 22.7448 16.484 22.7448 17.432C22.7448 17.9667 22.5296 18.4795 22.1467 18.8575C21.7637 19.2356 21.2443 19.448 20.7028 19.448C20.0829 19.448 19.5359 19.184 19.1591 18.752L13.9326 21.812L14.042 22.484C14.042 23.0187 13.8269 23.5315 13.4439 23.9095C13.061 24.2876 12.5416 24.5 12 24.5ZM10.5414 3.932L5.07182 7.028L5.09613 7.316C5.09613 8.168 4.56133 8.9 3.80774 9.2L3.8442 15.5L10.5414 3.932ZM13.4586 3.932L20.1558 15.5L20.1923 9.2C19.4387 8.9 18.9039 8.168 18.9039 7.316L18.9282 7.028L13.4586 3.932Z" fill="#2F3A4F"/>
</g>
<defs>
<clipPath id="clip0">
<rect width="24" height="24" fill="white" transform="translate(0 0.5)"/>
</clipPath>
</defs>
</svg>
