<svg width="21" height="22" viewBox="0 0 21 22" fill="none" xmlns="http://www.w3.org/2000/svg">
<path d="M5.75431 5.82633C6.19365 5.38699 6.90596 5.38699 7.3453 5.82633L10.5 8.98103L13.6547 5.82633C14.094 5.38699 14.8063 5.38699 15.2457 5.82633C15.685 6.26567 15.685 6.97798 15.2457 7.41732L12.091 10.572L15.2457 13.7267C15.685 14.1661 15.685 14.8784 15.2457 15.3177C14.8063 15.757 14.094 15.757 13.6547 15.3177L10.5 12.163L7.3453 15.3177C6.90596 15.757 6.19365 15.757 5.75431 15.3177C5.31497 14.8784 5.31497 14.1661 5.75431 13.7267L8.90901 10.572L5.75431 7.41732C5.31497 6.97798 5.31497 6.26567 5.75431 5.82633Z" fill="#2F3A4F"/>
</svg>
