<svg width="24" height="25" viewBox="0 0 24 25" fill="none" xmlns="http://www.w3.org/2000/svg">
<path fill-rule="evenodd" clip-rule="evenodd" d="M8 5.5C8 3.84315 9.34739 2.5 10.9969 2.5H14.0031C15.3075 2.5 16.4172 3.33627 16.829 4.5H18.4769C20.3937 4.5 21.949 6.05442 21.949 7.9692V9.92419C21.949 11.8434 20.3998 13.3934 18.4745 13.3934H16.8644C16.4833 14.6139 15.3429 15.5 14.0031 15.5H10.9969C9.69251 15.5 8.58278 14.6637 8.171 13.5H6.47205C5.65963 13.5 5 14.1593 5 14.9692V16.9242C5 17.739 5.65403 18.3934 6.4745 18.3934H8.21119C8.65247 17.2842 9.73648 16.5 10.9969 16.5H14.0031C15.6583 16.5 17 17.8465 17 19.5C17 21.1569 15.6526 22.5 14.0031 22.5H10.9969C9.65301 22.5 8.51575 21.6123 8.13552 20.3934H6.4745C4.54923 20.3934 3 18.8434 3 16.9242V14.9692C3 13.0544 4.55532 11.5 6.47205 11.5H8.17113C8.58382 10.3348 9.69647 9.5 10.9969 9.5H14.0031C15.2673 9.5 16.3487 10.2855 16.789 11.3934H18.4745C19.295 11.3934 19.949 10.739 19.949 9.92419V7.9692C19.949 7.15925 19.2894 6.5 18.4769 6.5H16.8289C16.4162 7.66519 15.3035 8.5 14.0031 8.5H10.9969C9.34174 8.5 8 7.15348 8 5.5ZM10 5.5C10 6.05089 10.4483 6.5 10.9969 6.5H14.0031C14.5501 6.5 15 6.05022 15 5.5C15 4.94911 14.5517 4.5 14.0031 4.5H10.9969C10.4499 4.5 10 4.94978 10 5.5ZM10.9969 13.5C10.4483 13.5 10 13.0509 10 12.5C10 11.9498 10.4499 11.5 10.9969 11.5H14.0031C14.5517 11.5 15 11.9491 15 12.5C15 13.0502 14.5501 13.5 14.0031 13.5H10.9969ZM10.9969 20.5C10.4483 20.5 10 20.0509 10 19.5C10 18.9498 10.4499 18.5 10.9969 18.5H14.0031C14.5517 18.5 15 18.9491 15 19.5C15 20.0502 14.5501 20.5 14.0031 20.5H10.9969Z" fill="#2F3A4F"/>
</svg>
