<svg width="24" height="24" viewBox="0 0 24 24" fill="none" xmlns="http://www.w3.org/2000/svg"><path d="M4 3.98999L0 7.98999H3V19.99H5V7.98999H8L4 3.98999Z" fill="#2F3A4F"/><path d="M13.6667 5.51667C14.0257 5.51667 14.3167 5.80768 14.3167 6.16667V6.68333H17.6833V6.16667C17.6833 5.80768 17.9743 5.51667 18.3333 5.51667C18.6923 5.51667 18.9833 5.80768 18.9833 6.16667V6.68333H20.0833C21.0866 6.68333 21.9 7.49668 21.9 8.5V16.6667C21.9 17.67 21.0866 18.4833 20.0833 18.4833H11.9167C10.9133 18.4833 10.1 17.67 10.1 16.6667V8.5C10.1 7.49668 10.9133 6.68333 11.9167 6.68333H13.0167V6.16667C13.0167 5.80768 13.3077 5.51667 13.6667 5.51667ZM13.0167 7.98333H11.9167C11.6313 7.98333 11.4 8.21465 11.4 8.5V10.1833H20.6V8.5C20.6 8.21465 20.3687 7.98333 20.0833 7.98333H18.9833V8.5C18.9833 8.85899 18.6923 9.15 18.3333 9.15C17.9743 9.15 17.6833 8.85899 17.6833 8.5V7.98333H14.3167V8.5C14.3167 8.85899 14.0257 9.15 13.6667 9.15C13.3077 9.15 13.0167 8.85899 13.0167 8.5V7.98333ZM20.6 11.4833H11.4V16.6667C11.4 16.952 11.6313 17.1833 11.9167 17.1833H20.0833C20.3687 17.1833 20.6 16.952 20.6 16.6667V11.4833Z" fill="#2F3A4F"/><path d="M13.0061 13.3452C13.0061 13.0092 13.2829 12.7368 13.6189 12.7368C13.9549 12.7368 14.2317 13.0092 14.2317 13.3452C14.2317 13.6812 13.9549 13.9536 13.6189 13.9536C13.2829 13.9536 13.0061 13.6812 13.0061 13.3452Z" fill="#2F3A4F"/><path d="M15.3872 13.3452C15.3872 13.0092 15.664 12.7368 16 12.7368C16.336 12.7368 16.6129 13.0092 16.6129 13.3452C16.6129 13.6812 16.336 13.9536 16 13.9536C15.664 13.9536 15.3872 13.6812 15.3872 13.3452Z" fill="#2F3A4F"/><path d="M17.7679 13.3452C17.7679 13.0092 18.0447 12.7368 18.3807 12.7368C18.7167 12.7368 18.9935 13.0092 18.9935 13.3452C18.9935 13.6812 18.7167 13.9536 18.3807 13.9536C18.0447 13.9536 17.7679 13.6812 17.7679 13.3452Z" fill="#2F3A4F"/><path d="M13.0061 15.1975C13.0061 14.8615 13.2829 14.5891 13.6189 14.5891C13.9549 14.5891 14.2317 14.8615 14.2317 15.1975C14.2317 15.5335 13.9549 15.8059 13.6189 15.8059C13.2829 15.8059 13.0061 15.5335 13.0061 15.1975Z" fill="#2F3A4F"/><path d="M15.3872 15.1975C15.3872 14.8615 15.664 14.5891 16 14.5891C16.336 14.5891 16.6129 14.8615 16.6129 15.1975C16.6129 15.5335 16.336 15.8059 16 15.8059C15.664 15.8059 15.3872 15.5335 15.3872 15.1975Z" fill="#2F3A4F"/><path d="M17.7679 15.1975C17.7679 14.8615 18.0447 14.5891 18.3807 14.5891C18.7167 14.5891 18.9935 14.8615 18.9935 15.1975C18.9935 15.5335 18.7167 15.8059 18.3807 15.8059C18.0447 15.8059 17.7679 15.5335 17.7679 15.1975Z" fill="#2F3A4F"/></svg>
