<svg width="24" height="24" viewBox="0 0 24 24" fill="none" xmlns="http://www.w3.org/2000/svg">
<path d="M9.33332 11.25H10.5V12.4167H9.33332V11.25ZM9.33332 13.5833H10.5V14.75H9.33332V13.5833ZM11.6666 11.25H12.8333V12.4167H11.6666V11.25ZM11.6666 13.5833H12.8333V14.75H11.6666V13.5833ZM14 11.25H15.1666V12.4167H14V11.25ZM14 13.5833H15.1666V14.75H14V13.5833Z" fill="#2F3A4F"/>
<path d="M8.16667 17.6667H16.3333C16.9767 17.6667 17.5 17.1434 17.5 16.5V8.33333C17.5 7.68992 16.9767 7.16667 16.3333 7.16667H15.1667V6H14V7.16667H10.5V6H9.33333V7.16667H8.16667C7.52325 7.16667 7 7.68992 7 8.33333V16.5C7 17.1434 7.52325 17.6667 8.16667 17.6667ZM16.3333 9.5L16.3339 16.5H8.16667V9.5H16.3333Z" fill="#2F3A4F"/>
</svg>
