<svg width="24" height="25" viewBox="0 0 24 25" fill="none" xmlns="http://www.w3.org/2000/svg">
<path fill-rule="evenodd" clip-rule="evenodd" d="M8.16795 2.9453C8.35342 2.6671 8.66565 2.5 9 2.5H15C15.3344 2.5 15.6466 2.6671 15.8321 2.9453L17.5352 5.5H21C21.7957 5.5 22.5587 5.81607 23.1213 6.37868C23.6839 6.94129 24 7.70435 24 8.5V19.5C24 20.2957 23.6839 21.0587 23.1213 21.6213C22.5587 22.1839 21.7957 22.5 21 22.5H3C2.20435 22.5 1.44129 22.1839 0.87868 21.6213C0.316071 21.0587 0 20.2957 0 19.5V8.5C0 7.70435 0.316071 6.94129 0.87868 6.37868C1.44129 5.81607 2.20435 5.5 3 5.5H6.46482L8.16795 2.9453ZM9.53518 4.5L7.83205 7.0547C7.64658 7.3329 7.33435 7.5 7 7.5H3C2.73478 7.5 2.48043 7.60536 2.29289 7.79289C2.10536 7.98043 2 8.23478 2 8.5V19.5C2 19.7652 2.10536 20.0196 2.29289 20.2071C2.48043 20.3946 2.73478 20.5 3 20.5H21C21.2652 20.5 21.5196 20.3946 21.7071 20.2071C21.8946 20.0196 22 19.7652 22 19.5V8.5C22 8.23478 21.8946 7.98043 21.7071 7.79289C21.5196 7.60536 21.2652 7.5 21 7.5H17C16.6656 7.5 16.3534 7.3329 16.1679 7.0547L14.4648 4.5H9.53518ZM12 10.5C10.3431 10.5 9 11.8431 9 13.5C9 15.1569 10.3431 16.5 12 16.5C13.6569 16.5 15 15.1569 15 13.5C15 11.8431 13.6569 10.5 12 10.5ZM7 13.5C7 10.7386 9.23858 8.5 12 8.5C14.7614 8.5 17 10.7386 17 13.5C17 16.2614 14.7614 18.5 12 18.5C9.23858 18.5 7 16.2614 7 13.5Z" fill="#2F3A4F"/>
</svg>
