<svg width="16" height="17" viewBox="0 0 16 17" fill="none" xmlns="http://www.w3.org/2000/svg">
<path fill-rule="evenodd" clip-rule="evenodd" d="M8 2.16669C8.55228 2.16669 9 2.6144 9 3.16669V13.8334C9 14.3856 8.55228 14.8334 8 14.8334C7.44772 14.8334 7 14.3856 7 13.8334V3.16669C7 2.6144 7.44772 2.16669 8 2.16669ZM12 6.16669C12.5523 6.16669 13 6.6144 13 7.16669V13.8334C13 14.3856 12.5523 14.8334 12 14.8334C11.4477 14.8334 11 14.3856 11 13.8334V7.16669C11 6.6144 11.4477 6.16669 12 6.16669ZM4 8.83335C4.55228 8.83335 5 9.28107 5 9.83335V13.8334C5 14.3856 4.55228 14.8334 4 14.8334C3.44772 14.8334 3 14.3856 3 13.8334V9.83335C3 9.28107 3.44772 8.83335 4 8.83335Z" fill="#2F3A4F"/>
</svg>
