<svg width="21" height="22" viewBox="0 0 21 22" fill="none" xmlns="http://www.w3.org/2000/svg">
<path d="M15.7474 5.9116C16.2118 6.32439 16.2536 7.03547 15.8408 7.49985L9.84084 14.2499C9.63499 14.4814 9.34275 14.6179 9.03304 14.627C8.72334 14.6361 8.42359 14.517 8.2045 14.2979L5.5795 11.6729C5.14017 11.2336 5.14017 10.5213 5.5795 10.0819C6.01884 9.64261 6.73116 9.64261 7.1705 10.0819L8.95183 11.8633L14.1592 6.00503C14.5719 5.54065 15.283 5.49882 15.7474 5.9116Z" fill="#2F3A4F"/>
<path d="M18 1.5C18.8284 1.5 19.5 2.17157 19.5 3V18C19.5 18.8284 18.8284 19.5 18 19.5H3C2.17157 19.5 1.5 18.8284 1.5 18V3C1.5 2.17157 2.17157 1.5 3 1.5H18ZM3 0C1.34315 0 0 1.34315 0 3V18C0 19.6569 1.34315 21 3 21H18C19.6569 21 21 19.6569 21 18V3C21 1.34315 19.6569 0 18 0H3Z" fill="#2F3A4F"/>
</svg>
