<svg width="24" height="24" viewBox="0 0 24 24" fill="none" xmlns="http://www.w3.org/2000/svg">
<path d="M11.9842 3.03386L11.8668 2.92908C11.5251 2.624 11.1137 2.40742 10.6688 2.29833C10.2239 2.18924 9.75907 2.19097 9.31499 2.30337C8.87091 2.41578 8.46119 2.63541 8.12176 2.94303C7.78233 3.25064 7.52356 3.63684 7.36813 4.06774L7.32047 4.19988H7C6.25739 4.19988 5.5452 4.49488 5.0201 5.01998C4.495 5.54509 4.2 6.25728 4.2 6.99988V7.00857L4.19924 7.01722C4.1852 7.17869 4.1852 7.34108 4.19924 7.50255L4.21039 7.6307L4.09841 7.694C3.55925 7.99875 3.10274 8.43067 2.76864 8.95215C2.43453 9.47363 2.23295 10.0689 2.18144 10.6861C2.12993 11.3032 2.23005 11.9237 2.47309 12.4933C2.71613 13.063 3.09472 13.5646 3.57591 13.9545L3.70441 14.0586L3.62626 14.2044C3.31492 14.7851 3.15992 15.4368 3.17648 16.0955C3.19304 16.7542 3.38058 17.3972 3.72071 17.9615C4.06084 18.5259 4.54186 18.9921 5.11655 19.3143C5.69125 19.6366 6.33987 19.804 6.99876 19.7999L7 19.7999L7.32047 19.7999L7.36813 19.932C7.52356 20.3629 7.78233 20.7491 8.12176 21.0567C8.46119 21.3644 8.87091 21.584 9.31499 21.6964C9.75907 21.8088 10.2239 21.8105 10.6688 21.7014C11.1137 21.5923 11.5251 21.3758 11.8668 21.0707L11.9842 20.9659L12.1015 21.0707C12.4432 21.3758 12.8546 21.5923 13.2995 21.7014C13.7444 21.8105 14.2093 21.8088 14.6533 21.6964C15.0974 21.584 15.5071 21.3644 15.8466 21.0567C16.186 20.7491 16.4448 20.3629 16.6002 19.932L16.6479 19.7999L16.9683 19.7999L16.9696 19.7999C17.6284 19.804 18.2771 19.6366 18.8518 19.3143C19.4265 18.9921 19.9075 18.5259 20.2476 17.9615C20.5877 17.3972 20.7753 16.7542 20.7918 16.0955C20.8084 15.4368 20.6534 14.7851 20.3421 14.2044L20.2639 14.0586L20.3924 13.9545C20.8736 13.5646 21.2522 13.063 21.4952 12.4933C21.7383 11.9237 21.8384 11.3032 21.7869 10.6861C21.7354 10.0689 21.5338 9.47363 21.1997 8.95215C20.8656 8.43067 20.4091 7.99875 19.8699 7.694L19.7579 7.6307L19.7691 7.50255C19.7831 7.34108 19.7831 7.17869 19.7691 7.01722L19.7683 7.00857V6.99988C19.7683 6.25728 19.4733 5.54509 18.9482 5.01998C18.4231 4.49488 17.7109 4.19988 16.9683 4.19988H16.6479L16.6002 4.06774C16.4448 3.63684 16.186 3.25064 15.8466 2.94303C15.5071 2.63541 15.0974 2.41578 14.6533 2.30337C14.2093 2.19097 13.7444 2.18924 13.2995 2.29833C12.8546 2.40742 12.4432 2.624 12.1015 2.92908L11.9842 3.03386ZM10.9007 8.72349C10.6932 8.60481 10.4766 8.50278 10.253 8.41835C10.0521 8.35164 9.83304 8.36695 9.6434 8.46103C9.45274 8.5556 9.30747 8.72204 9.23953 8.92373C9.1716 9.12542 9.18656 9.34583 9.28114 9.53648C9.37571 9.72714 9.54215 9.87241 9.74384 9.94035L9.74801 9.94175C10.1714 10.0948 10.5377 10.3742 10.7974 10.742C11.057 11.1099 11.1975 11.5485 11.2 11.9988L11.2 11.9999L11.2 13.8947L10.9007 13.7235C10.6932 13.6048 10.4766 13.5028 10.253 13.4184C10.0521 13.3516 9.83304 13.3669 9.6434 13.461C9.45274 13.5556 9.30747 13.722 9.23953 13.9237C9.1716 14.1254 9.18656 14.3458 9.28114 14.5365C9.37571 14.7271 9.54215 14.8724 9.74384 14.9403L9.74801 14.9418C10.1714 15.0948 10.5377 15.3742 10.7974 15.742C11.057 16.1099 11.1975 16.5485 11.2 16.9988L11.2 16.9999L11.2 18.9999C11.2 19.3181 11.0736 19.6234 10.8485 19.8484C10.6235 20.0735 10.3183 20.1999 10 20.1999H9.99869C9.76653 20.1984 9.5398 20.1295 9.34597 20.0017C9.15215 19.8739 8.99955 19.6927 8.90669 19.4799L8.8357 19.3172L8.98877 19.2274L9.01066 19.2144C9.03681 19.1989 9.06277 19.183 9.08854 19.1668C9.2115 19.0896 9.33004 19.0055 9.44359 18.9149C9.52387 18.8478 9.59025 18.7657 9.63898 18.6732C9.688 18.5801 9.7182 18.4782 9.72786 18.3734C9.73752 18.2687 9.72645 18.163 9.69528 18.0625C9.66411 17.962 9.61345 17.8686 9.54619 17.7877C9.47893 17.7068 9.39639 17.6399 9.30329 17.5909C9.23246 17.5536 9.15658 17.5272 9.0782 17.5125C9.05354 17.5078 9.02863 17.5043 9.00356 17.502C8.89878 17.4924 8.79313 17.5034 8.69263 17.5346C8.59233 17.5657 8.49913 17.6162 8.41832 17.6833C8.403 17.6962 8.38752 17.7089 8.37188 17.7213C7.98242 18.0313 7.49875 18.2004 6.9998 18.1999C6.4164 18.1998 5.8569 17.9681 5.44436 17.5555C5.03178 17.1429 4.8 16.5834 4.8 15.9999V15.9973C4.80526 15.5833 4.92729 15.1791 5.15201 14.8313L5.22427 14.7195L5.35531 14.743C5.56798 14.7812 5.78364 14.8002 5.9997 14.7999C6.21188 14.7999 6.41565 14.7156 6.56568 14.5656C6.71571 14.4155 6.8 14.2121 6.8 13.9999C6.8 13.7877 6.71571 13.5842 6.56568 13.4342C6.41579 13.2843 6.21254 13.2 6.00057 13.1999C5.73995 13.2013 5.48147 13.1528 5.23913 13.0569C4.84476 12.9141 4.49944 12.6614 4.24388 12.3287C3.98768 11.9952 3.83244 11.5952 3.79655 11.1762C3.76067 10.7572 3.84565 10.3366 4.04141 9.96442C4.23718 9.5922 4.53554 9.28389 4.90114 9.07602L5.02801 9.00389L5.13541 9.1027C5.26744 9.22418 5.41045 9.33313 5.56261 9.42817C5.74674 9.53296 5.96486 9.5608 6.16948 9.50554C6.3752 9.44998 6.55042 9.31498 6.65659 9.13023C6.76277 8.94548 6.79121 8.72612 6.73565 8.5204C6.68023 8.31519 6.54575 8.14032 6.3617 8.03407C6.19039 7.93918 6.04751 7.80026 5.94784 7.63167L5.94667 7.62969C5.8354 7.43648 5.78438 7.21449 5.80002 6.9922C5.80204 6.67671 5.92824 6.37459 6.15147 6.15136C6.37328 5.92954 6.67299 5.80353 6.9863 5.79996C7.06977 5.78956 7.15427 5.79017 7.23763 5.8018L7.36098 5.81901L7.39995 5.9373C7.4494 6.08737 7.50854 6.23408 7.577 6.37648C7.62889 6.46581 7.69761 6.54425 7.77937 6.60747C7.86284 6.67202 7.95827 6.71941 8.06014 6.74692C8.16201 6.77444 8.26832 6.78152 8.37294 6.76778C8.47702 6.7541 8.57739 6.72008 8.66832 6.66765C8.74081 6.62383 8.8052 6.5692 8.85963 6.50624C8.92396 6.43183 8.97438 6.34578 9.00782 6.25216C9.01503 6.23197 9.02145 6.21143 9.02706 6.19059C9.05863 6.07304 9.0627 5.95099 9.04036 5.83353C9.03203 5.78972 9.02002 5.74655 9.0044 5.70449C8.99067 5.66753 8.97416 5.63143 8.95489 5.59651C8.85515 5.41417 8.80171 5.20935 8.8 5.00152L8.79999 4.99988C8.8 4.68162 8.92642 4.3764 9.15147 4.15136C9.37651 3.92631 9.68174 3.79988 10 3.79988C10.3183 3.79988 10.6235 3.92631 10.8485 4.15136C11.0736 4.3764 11.2 4.68162 11.2 4.99988V8.89468L10.9007 8.72349ZM13.0676 8.72349L12.7683 8.89468V4.99988C12.7683 4.68162 12.8948 4.3764 13.1198 4.15136C13.3448 3.92631 13.6501 3.79988 13.9683 3.79988C14.2866 3.79988 14.5918 3.92631 14.8169 4.15136C15.0419 4.3764 15.1683 4.68162 15.1683 4.99988L15.1683 5.00152C15.1666 5.20935 15.1132 5.41417 15.0134 5.59651C14.9942 5.63143 14.9776 5.66753 14.9639 5.70449C14.9483 5.74655 14.9363 5.78972 14.928 5.83353C14.9056 5.95099 14.9097 6.07304 14.9413 6.19059C14.9469 6.21143 14.9533 6.23197 14.9605 6.25216C14.9939 6.34578 15.0444 6.43183 15.1087 6.50624C15.1631 6.5692 15.2275 6.62383 15.3 6.66765C15.3909 6.72008 15.4913 6.7541 15.5954 6.76778C15.7 6.78152 15.8063 6.77444 15.9082 6.74692C16.0101 6.71941 16.1055 6.67202 16.189 6.60747C16.2707 6.54425 16.3394 6.46581 16.3913 6.37648C16.4598 6.23408 16.5189 6.08737 16.5684 5.9373L16.6073 5.81901L16.7307 5.8018C16.814 5.79017 16.8985 5.78956 16.982 5.79996C17.2953 5.80353 17.595 5.92954 17.8169 6.15136C18.0401 6.37459 18.1663 6.67671 18.1683 6.9922C18.1839 7.21449 18.1329 7.43648 18.0217 7.62969L18.0205 7.63167C17.9208 7.80026 17.7779 7.93918 17.6066 8.03407C17.4226 8.14032 17.2881 8.31519 17.2327 8.5204C17.1771 8.72612 17.2056 8.94548 17.3117 9.13023C17.4179 9.31498 17.5931 9.44998 17.7988 9.50554C18.0035 9.5608 18.2216 9.53296 18.4057 9.42817C18.5579 9.33313 18.7009 9.22418 18.8329 9.1027L18.9403 9.00389L19.0672 9.07602C19.4328 9.28389 19.7311 9.5922 19.9269 9.96442C20.1227 10.3366 20.2077 10.7572 20.1718 11.1762C20.1359 11.5952 19.9806 11.9952 19.7244 12.3287C19.4689 12.6614 19.1236 12.9141 18.7292 13.0569C18.4868 13.1528 18.2284 13.2013 17.9678 13.1999C17.7558 13.2 17.5525 13.2843 17.4026 13.4342C17.2526 13.5842 17.1683 13.7877 17.1683 13.9999C17.1683 14.2121 17.2526 14.4155 17.4026 14.5656C17.5527 14.7156 17.7564 14.7999 17.9686 14.7999C18.1847 14.8002 18.4003 14.7812 18.613 14.743L18.7441 14.7195L18.8163 14.8313C19.041 15.1791 19.1631 15.5833 19.1683 15.9973V15.9999C19.1683 16.5834 18.9365 17.1429 18.524 17.5555C18.1114 17.9681 17.5519 18.1998 16.9685 18.1999C16.4696 18.2004 15.9859 18.0313 15.5964 17.7213C15.5808 17.7089 15.5653 17.6962 15.55 17.6833C15.4692 17.6162 15.376 17.5657 15.2757 17.5346C15.1752 17.5034 15.0695 17.4924 14.9648 17.502C14.9397 17.5043 14.9148 17.5078 14.8901 17.5125C14.8117 17.5272 14.7359 17.5536 14.665 17.5909C14.5719 17.6399 14.4894 17.7068 14.4221 17.7877C14.3549 17.8686 14.3042 17.962 14.273 18.0625C14.2419 18.163 14.2308 18.2687 14.2405 18.3734C14.2501 18.4782 14.2803 18.5801 14.3293 18.6732C14.3781 18.7657 14.4445 18.8478 14.5247 18.9149C14.6383 19.0055 14.7568 19.0896 14.8798 19.1668C14.9055 19.183 14.9315 19.1989 14.9577 19.2144L14.9795 19.2274L15.1326 19.3172L15.0616 19.4799C14.9688 19.6927 14.8162 19.8739 14.6224 20.0017C14.4285 20.1295 14.2018 20.1984 13.9696 20.1999H13.9683C13.6501 20.1999 13.3448 20.0735 13.1198 19.8484C12.8948 19.6234 12.7683 19.3181 12.7683 18.9999L12.7683 16.9999L12.7683 16.9988C12.7708 16.5485 12.9113 16.1099 13.171 15.742C13.4306 15.3742 13.7969 15.0948 14.2203 14.9418L14.2245 14.9403C14.4262 14.8724 14.5926 14.7271 14.6872 14.5365C14.7818 14.3458 14.7967 14.1254 14.7288 13.9237C14.6609 13.722 14.5156 13.5556 14.3249 13.461C14.1353 13.3669 13.9162 13.3516 13.7154 13.4184C13.4917 13.5028 13.2751 13.6048 13.0676 13.7235L12.7683 13.8947L12.7683 11.9999L12.7683 11.9988C12.7708 11.5485 12.9113 11.1099 13.171 10.742C13.4306 10.3742 13.7969 10.0948 14.2203 9.94175L14.2245 9.94035C14.4262 9.87241 14.5926 9.72714 14.6872 9.53648C14.7818 9.34583 14.7967 9.12542 14.7288 8.92373C14.6609 8.72204 14.5156 8.5556 14.3249 8.46103C14.1353 8.36695 13.9162 8.35164 13.7154 8.41835C13.4917 8.50278 13.2751 8.60481 13.0676 8.72349Z" fill="#2F3A4F"/>
</svg>
