<svg width="7" height="8" viewBox="0 0 7 8" fill="none" xmlns="http://www.w3.org/2000/svg">
<path d="M5.612 1.82811C5.036 1.25211 4.332 0.964111 3.5 0.964111C2.668 0.964111 1.956 1.25211 1.364 1.82811C0.788 2.40411 0.5 3.12411 0.5 3.98811C0.5 4.85211 0.788 5.58011 1.364 6.17211C1.956 6.74811 2.668 7.03611 3.5 7.03611C4.332 7.03611 5.036 6.74811 5.612 6.17211C6.204 5.58011 6.5 4.85211 6.5 3.98811C6.5 3.12411 6.204 2.40411 5.612 1.82811ZM2.07124 5.46495C1.69223 5.07095 1.5 4.59986 1.5 3.98811C1.5 3.3741 1.69325 2.91534 2.06631 2.54003C2.46892 2.15042 2.92869 1.96411 3.5 1.96411C4.07314 1.96411 4.52088 2.1512 4.90489 2.53522L4.90483 2.53528L4.91465 2.54484C5.30341 2.92309 5.5 3.38017 5.5 3.98811C5.5 4.59638 5.30275 5.06714 4.90489 5.465C4.52088 5.84902 4.07314 6.03611 3.5 6.03611C2.93102 6.03611 2.47267 5.85131 2.07124 5.46495Z" fill="#2F3A4F"/>
</svg>
