<svg width="24" height="25" viewBox="0 0 24 25" fill="none" xmlns="http://www.w3.org/2000/svg">
<path d="M11.9999 3.44272C6.99774 3.44272 2.94272 7.49774 2.94272 12.4999C2.94272 17.502 6.99774 21.557 11.9999 21.557C17.002 21.557 21.057 17.502 21.057 12.4999C21.057 7.49774 17.002 3.44272 11.9999 3.44272ZM1.05701 12.4999C1.05701 6.45629 5.95629 1.55701 11.9999 1.55701C18.0434 1.55701 22.9427 6.45629 22.9427 12.4999C22.9427 18.5434 18.0434 23.4427 11.9999 23.4427C5.95629 23.4427 1.05701 18.5434 1.05701 12.4999Z" fill="#2F3A4F"/>
<path d="M11.9999 5.55708C12.5207 5.55708 12.9428 5.97921 12.9428 6.49993V11.9172L16.4216 13.6566C16.8873 13.8895 17.0761 14.4558 16.8433 14.9216C16.6104 15.3873 16.044 15.5761 15.5783 15.3432L11.5783 13.3433C11.2589 13.1835 11.0571 12.8571 11.0571 12.4999V6.49993C11.0571 5.97921 11.4792 5.55708 11.9999 5.55708Z" fill="#2F3A4F"/>
</svg>
