<svg width="24" height="24" viewBox="0 0 24 24" fill="none" xmlns="http://www.w3.org/2000/svg">
<path d="M20 9H4V10.5H20V9Z" fill="#2F3A4F"/>
<path d="M20 5H4V6.5H20V5Z" fill="#2F3A4F"/>
<path d="M8.59752 13.0783C8.42077 12.9016 8.20917 12.8 7.95952 12.8C7.71287 12.8 7.51123 12.8983 7.32798 13.0763L7.32419 13.08L4.03176 16.4516C3.88429 16.6048 3.80005 16.7942 3.80005 17.0166C3.80005 17.4689 4.16112 17.8319 4.61089 17.8319C4.8405 17.8319 5.04254 17.7367 5.19796 17.5869L5.20262 17.5824L7.96381 14.7417L10.7229 17.5843C10.8824 17.7438 11.091 17.8319 11.3125 17.8319C11.7623 17.8319 12.1234 17.4689 12.1234 17.0166C12.1234 16.7952 12.0398 16.6045 11.89 16.4543L8.59752 13.0783Z" fill="#2F3A4F"/>
</svg>
