<svg width="24" height="25" viewBox="0 0 24 25" fill="none" xmlns="http://www.w3.org/2000/svg">
<path fill-rule="evenodd" clip-rule="evenodd" d="M5 2.5C4.20435 2.5 3.44129 2.81607 2.87868 3.37868C2.31607 3.94129 2 4.70435 2 5.5V19.5C2 20.2957 2.31607 21.0587 2.87868 21.6213C3.44129 22.1839 4.20435 22.5 5 22.5H19C19.7957 22.5 20.5587 22.1839 21.1213 21.6213C21.6839 21.0587 22 20.2957 22 19.5V5.5C22 4.70435 21.6839 3.94129 21.1213 3.37868C20.5587 2.81607 19.7957 2.5 19 2.5H5ZM4.29289 4.79289C4.48043 4.60536 4.73478 4.5 5 4.5H8L8 20.5H5C4.73478 20.5 4.48043 20.3946 4.29289 20.2071C4.10536 20.0196 4 19.7652 4 19.5V5.5C4 5.23478 4.10536 4.98043 4.29289 4.79289ZM10 20.5H14V4.5H10L10 20.5ZM16 4.5V20.5H19C19.2652 20.5 19.5196 20.3946 19.7071 20.2071C19.8946 20.0196 20 19.7652 20 19.5V5.5C20 5.23478 19.8946 4.98043 19.7071 4.79289C19.5196 4.60536 19.2652 4.5 19 4.5H16Z" fill="#2F3A4F"/>
</svg>
