<svg width="24" height="24" viewBox="0 0 24 24" fill="none" xmlns="http://www.w3.org/2000/svg">
<path d="M8.25107 3.00652C9.56843 2.34149 11.0241 1.99667 12.4998 2.00007C12.5569 2.00007 12.6142 1.99938 12.6714 1.9987C12.8107 1.99702 12.9502 1.99535 13.0888 2.00349C15.4065 2.13965 17.594 3.12162 19.2362 4.7638C20.8784 6.40599 21.8604 8.59355 21.9965 10.9112C21.9988 10.9502 22 10.9894 22 11.0285C22 12.5394 21.7933 14.1647 20.9935 15.749C19.4004 18.917 16.0668 20.9978 12.5027 21.0001L12.5049 21L12.5015 20.9848V21.0001C11.1668 21.0034 9.84847 20.7219 8.63398 20.1762L3.31625 21.9488C2.95692 22.0685 2.56075 21.975 2.29292 21.7072C2.02509 21.4394 1.93157 21.0432 2.05134 20.6838L3.82392 15.3661C3.27825 14.1516 2.99671 12.8333 3.00003 11.4986C3.00091 9.73507 3.49266 8.00657 4.42024 6.50666C5.34764 5.00704 6.67407 3.79512 8.25107 3.00652ZM9.15088 4.79267L9.14709 4.79459C7.90143 5.41715 6.8537 6.37421 6.12125 7.5586C5.3888 8.74298 5.00057 10.1079 5.00003 11.5005L5.00002 11.5027C4.99699 12.665 5.26857 13.8117 5.79263 14.8492C5.91284 15.0872 5.93303 15.3634 5.84871 15.6163L4.58117 19.4189L8.3838 18.1514C8.63674 18.0671 8.91289 18.0873 9.15088 18.2075C10.0577 18.6655 11.0478 18.9307 12.059 18.9882C12.2063 18.9968 12.3538 19.0003 12.5015 19.0001C15.3035 18.9983 17.9508 17.3492 19.2074 14.8492C19.8165 13.6432 20 12.3613 20 11.0285C19.8926 9.19981 19.1178 7.47375 17.822 6.17802C16.5263 4.88228 14.8002 4.10748 12.9716 4.00005L12.5013 4.00005V4.00664L12.4974 4.00007C11.3351 3.99704 10.1884 4.26862 9.15088 4.79267Z" fill="#2F3A4F"/>
</svg>
