<svg width="24" height="24" viewBox="0 0 24 24" fill="none" xmlns="http://www.w3.org/2000/svg">
<path d="M12.4998 2.00007C11.0241 1.99667 9.56843 2.34149 8.25107 3.00652C6.67407 3.79512 5.34764 5.00704 4.42024 6.50666C3.49266 8.00657 3.00091 9.73507 3.00003 11.4986C2.99671 12.8333 3.27825 14.1516 3.82392 15.3661L2.05134 20.6838C1.93157 21.0432 2.02509 21.4394 2.29292 21.7072C2.56075 21.975 2.95692 22.0685 3.31625 21.9488L8.63398 20.1762C9.84847 20.7219 11.1668 21.0034 12.5015 21.0001V20.9848L12.5049 21L12.5027 21.0001C16.0668 20.9978 19.4004 18.917 20.9935 15.749C21.7933 14.1647 22 12.5394 22 11.0285C22 10.9894 21.9988 10.9502 21.9965 10.9112C21.8604 8.59355 20.8784 6.40599 19.2362 4.7638C17.594 3.12162 15.4065 2.13965 13.0888 2.00349C12.8931 1.992 12.6957 2.00006 12.4998 2.00007ZM12.4974 4.00007L12.5013 4.00664V4.00005L12.9716 4.00005C14.8002 4.10748 16.5263 4.88228 17.822 6.17802C19.1178 7.47375 19.8926 9.19981 20 11.0285C20 12.3613 19.8165 13.6432 19.2074 14.8492C17.9508 17.3492 15.3035 18.9983 12.5015 19.0001C12.3538 19.0003 12.2063 18.9968 12.059 18.9882C11.0478 18.9307 10.0577 18.6655 9.15088 18.2075C8.91289 18.0873 8.63674 18.0671 8.3838 18.1514L4.58117 19.4189L5.84871 15.6163C5.93303 15.3634 5.91284 15.0872 5.79263 14.8492C5.26857 13.8117 4.99699 12.665 5.00002 11.5027L5.00003 11.5005C5.00057 10.1079 5.3888 8.74298 6.12125 7.5586C6.8537 6.37421 7.90143 5.41715 9.14709 4.79459L9.15088 4.79267C10.1884 4.26862 11.3351 3.99704 12.4974 4.00007Z" fill="#2F3A4F"/>
</svg>
