<svg width="24" height="25" viewBox="0 0 24 25" fill="none" xmlns="http://www.w3.org/2000/svg">
<path d="M6.01001 2.5C4.08001 2.5 2.51001 4.07 2.51001 6C2.51001 7.58 3.57001 8.903 5.01001 9.337V16.497C5.00901 16.676 5.03701 18.278 6.18401 19.428C6.89201 20.14 7.84001 20.5 9.00001 20.5V22.5L13 19.5L9.00001 16.5V18.5C7.17701 18.5 7.01601 16.966 7.01001 16.5V9.337C8.45001 8.903 9.51001 7.58 9.51001 6C9.51001 4.07 7.93901 2.5 6.01001 2.5ZM6.01001 7.5C5.18301 7.5 4.51001 6.827 4.51001 6C4.51001 5.173 5.18301 4.5 6.01001 4.5C6.83701 4.5 7.51001 5.173 7.51001 6C7.51001 6.827 6.83701 7.5 6.01001 7.5ZM19.01 15.663V8.497C19.005 6.891 17.933 4.5 15 4.5V2.5L11 5.5L15 8.5V6.5C16.829 6.5 17.001 8.039 17.01 8.5V15.663C15.57 16.097 14.51 17.42 14.51 19C14.51 20.93 16.08 22.5 18.01 22.5C19.94 22.5 21.51 20.93 21.51 19C21.51 17.42 20.45 16.097 19.01 15.663ZM18.01 20.5C17.183 20.5 16.51 19.827 16.51 19C16.51 18.173 17.183 17.5 18.01 17.5C18.837 17.5 19.51 18.173 19.51 19C19.51 19.827 18.837 20.5 18.01 20.5Z" fill="#2F3A4F"/>
</svg>
