<svg width="24" height="24" viewBox="0 0 24 24" fill="none" xmlns="http://www.w3.org/2000/svg">
<path d="M13.2 6.19995H15.8V8.79995H13.2V6.19995Z" fill="#2F3A4F"/>
<path d="M8.20001 11.2H10.8V13.8H8.20001V11.2Z" fill="#2F3A4F"/>
<path d="M13.2 11.2H15.8V13.8H13.2V11.2Z" fill="#2F3A4F"/>
<path d="M8.20001 6.19995H10.8V8.79995H8.20001V6.19995Z" fill="#2F3A4F"/>
<path d="M6.00001 2.19995H18C18.4774 2.19995 18.9352 2.38959 19.2728 2.72716C19.6104 3.06472 19.8 3.52256 19.8 3.99995V21.7999H4.20001V3.99995C4.20001 3.52256 4.38965 3.06472 4.72722 2.72716C5.06479 2.38959 5.52262 2.19995 6.00001 2.19995ZM5.80001 3.79995V20.2H10.2V16.2H13.8V20.2H18.2V3.79995H5.80001Z" fill="#2F3A4F"/>
</svg>
