<svg width="24" height="24" viewBox="0 0 24 24" fill="none" xmlns="http://www.w3.org/2000/svg">
<path d="M18.2573 4.95717C18.4743 4.95717 18.6824 5.04337 18.8358 5.19681C18.9893 5.35025 19.0755 5.55835 19.0755 5.77535V13.139C19.0755 13.356 18.9893 13.5641 18.8358 13.7175C18.6824 13.871 18.4743 13.9572 18.2573 13.9572H17.4391C16.9872 13.9572 16.6209 14.3235 16.6209 14.7753C16.6209 15.2272 16.9872 15.5935 17.4391 15.5935H18.2573C18.9083 15.5935 19.5326 15.3349 19.9929 14.8746C20.4532 14.4143 20.7118 13.79 20.7118 13.139V5.77535C20.7118 5.12436 20.4532 4.50004 19.9929 4.03972C19.5326 3.57941 18.9083 3.3208 18.2573 3.3208H10.8936C10.2427 3.3208 9.61834 3.57941 9.15802 4.03972C8.69771 4.50004 8.4391 5.12436 8.4391 5.77535V6.59353C8.4391 7.0454 8.80541 7.41171 9.25728 7.41171C9.70915 7.41171 10.0755 7.0454 10.0755 6.59353V5.77535C10.0755 5.55836 10.1617 5.35025 10.3151 5.19681C10.4685 5.04337 10.6767 4.95717 10.8936 4.95717H18.2573Z" fill="#2F3A4F"/>
<path d="M15.5609 10.861C15.5609 9.5054 14.462 8.40647 13.1063 8.40647H5.74271C4.3871 8.40647 3.28816 9.5054 3.28816 10.861V18.2246C3.28816 19.5803 4.3871 20.6792 5.74271 20.6792H13.1063C14.462 20.6792 15.5609 19.5803 15.5609 18.2246V10.861ZM13.1063 10.0428C13.5582 10.0428 13.9245 10.4091 13.9245 10.861V18.2246C13.9245 18.6765 13.5582 19.0428 13.1063 19.0428H5.74271C5.29084 19.0428 4.92453 18.6765 4.92453 18.2246V10.861C4.92453 10.4091 5.29084 10.0428 5.74271 10.0428H13.1063Z" fill="#2F3A4F"/>
</svg>
