<svg width="24" height="25" viewBox="0 0 24 25" fill="none" xmlns="http://www.w3.org/2000/svg">
<path fill-rule="evenodd" clip-rule="evenodd" d="M23 12.5C23 18.5751 18.0751 23.5 12 23.5C5.92487 23.5 1 18.5751 1 12.5C1 6.42487 5.92487 1.5 12 1.5C18.0751 1.5 23 6.42487 23 12.5ZM13 3.55493V6.5C13 7.05228 12.5523 7.5 12 7.5C11.4477 7.5 11 7.05228 11 6.5V3.55493C6.82838 4.01608 3.51608 7.32838 3.05493 11.5H6C6.55228 11.5 7 11.9477 7 12.5C7 13.0523 6.55228 13.5 6 13.5H3.05493C3.51608 17.6716 6.82838 20.9839 11 21.4451V18.5C11 17.9477 11.4477 17.5 12 17.5C12.5523 17.5 13 17.9477 13 18.5V21.4451C17.1716 20.9839 20.4839 17.6716 20.9451 13.5H18C17.4477 13.5 17 13.0523 17 12.5C17 11.9477 17.4477 11.5 18 11.5H20.9451C20.4839 7.32838 17.1716 4.01608 13 3.55493Z" fill="#2F3A4F"/>
</svg>
