<svg width="24" height="24" viewBox="0 0 24 24" fill="none" xmlns="http://www.w3.org/2000/svg">
<path d="M20.5636 3.31573C20.3201 3.10665 20.0082 2.99428 19.6872 2.99996L19.6695 3.00027L17.9995 3.00012V12.0001H19.6872C20.0082 12.0058 20.3201 11.8936 20.5636 11.6845C20.7925 11.488 20.9462 11.219 20.9995 10.9233V4.07698C20.9462 3.78126 20.7925 3.51222 20.5636 3.31573ZM15.9995 12.7879V3.00012H5.70824C5.46707 2.99739 5.23305 3.08185 5.04929 3.23805C4.86552 3.39425 4.7444 3.6116 4.70824 3.85005L4.70799 3.85168L3.32822 12.8502C3.32819 12.8504 3.32825 12.85 3.32822 12.8502C3.30659 12.9933 3.31619 13.14 3.35655 13.2791C3.39697 13.4183 3.46717 13.547 3.56229 13.6564C3.65741 13.7658 3.77518 13.8532 3.90743 13.9126C4.03968 13.9719 4.18326 14.0018 4.32822 14.0002L4.33954 14.0001L9.99954 14.0001C10.5518 14.0001 10.9995 14.4478 10.9995 15.0001V19.0001C10.9995 19.5305 11.2103 20.0393 11.5853 20.4143C11.8132 20.6422 12.0903 20.8094 12.3917 20.9055L15.9995 12.7879ZM17.6494 14.0001L13.9134 22.4063C13.7529 22.7674 13.3947 23.0001 12.9995 23.0001C11.9387 23.0001 10.9213 22.5787 10.1711 21.8285C9.42097 21.0784 8.99954 20.061 8.99954 19.0001V16.0001H4.34469C3.91193 16.0041 3.48339 15.9145 3.08851 15.7372C2.69175 15.5592 2.33844 15.2969 2.05308 14.9688C1.76771 14.6406 1.55711 14.2543 1.43586 13.8367C1.3146 13.419 1.2856 12.98 1.35087 12.5501L2.73085 3.55018C2.73089 3.54988 2.7308 3.55048 2.73085 3.55018C2.8395 2.83517 3.20293 2.18258 3.75399 1.71417C4.3037 1.24692 5.00333 0.993458 5.72462 1.00012H19.6615C20.4691 0.988184 21.2533 1.27194 21.8663 1.79814C22.4817 2.32643 22.8818 3.0623 22.9905 3.86607C22.9965 3.9105 22.9995 3.95528 22.9995 4.00012V11.0001C22.9995 11.0449 22.9965 11.0897 22.9905 11.1342C22.8818 11.9379 22.4817 12.6738 21.8663 13.2021C21.2533 13.7283 20.4691 14.012 19.6615 14.0001H17.6494Z" fill="#445370"/>
</svg>
