<svg width="24" height="24" viewBox="0 0 24 24" fill="none" xmlns="http://www.w3.org/2000/svg"><path fill-rule="evenodd" clip-rule="evenodd" d="M4 6.44657C4 6.2287 4.16031 6.04403 4.37603 6.01341L15.501 4.4346C15.7645 4.39721 16 4.60168 16 4.86776V19.1344C16 19.3998 15.7655 19.6041 15.5026 19.5678L4.37759 18.0299C4.16118 18 4 17.815 4 17.5965V6.44657ZM17 7.00023H19.5C19.7761 7.00023 20 7.22409 20 7.50023V16.5002C20 16.7764 19.7761 17.0002 19.5 17.0002H17V7.00023ZM8.68652 16.0002L10.0049 11.3371H10.083L11.416 16.0002H12.7979L14.668 8.95431H13.1445L12.0557 13.9201H11.9775L10.6689 8.95431H9.42383L8.13965 13.9201H8.06152L6.96289 8.95431H5.42969L7.29492 16.0002H8.68652Z" fill="white"/><path fill-rule="evenodd" clip-rule="evenodd" d="M4 6.44657C4 6.2287 4.16031 6.04403 4.37603 6.01341L15.501 4.4346C15.7645 4.39721 16 4.60168 16 4.86776V19.1344C16 19.3998 15.7655 19.6041 15.5026 19.5678L4.37759 18.0299C4.16118 18 4 17.815 4 17.5965V6.44657ZM17 7.00023H19.5C19.7761 7.00023 20 7.22409 20 7.50023V16.5002C20 16.7764 19.7761 17.0002 19.5 17.0002H17V7.00023ZM8.68652 16.0002L10.0049 11.3371H10.083L11.416 16.0002H12.7979L14.668 8.95431H13.1445L12.0557 13.9201H11.9775L10.6689 8.95431H9.42383L8.13965 13.9201H8.06152L6.96289 8.95431H5.42969L7.29492 16.0002H8.68652Z" fill="white"/></svg>
