<svg width="24" height="25" viewBox="0 0 24 25" fill="none" xmlns="http://www.w3.org/2000/svg">
<path fill-rule="evenodd" clip-rule="evenodd" d="M12 0.5C12.5523 0.5 13 0.947715 13 1.5V4.5H17C17.5523 4.5 18 4.94772 18 5.5C18 6.05228 17.5523 6.5 17 6.5H13V11.5H14.5C15.6935 11.5 16.8381 11.9741 17.682 12.818C18.5259 13.6619 19 14.8065 19 16C19 17.1935 18.5259 18.3381 17.682 19.182C16.8381 20.0259 15.6935 20.5 14.5 20.5H13V23.5C13 24.0523 12.5523 24.5 12 24.5C11.4477 24.5 11 24.0523 11 23.5V20.5H6C5.44772 20.5 5 20.0523 5 19.5C5 18.9477 5.44772 18.5 6 18.5H11V13.5H9.5C8.30653 13.5 7.16193 13.0259 6.31802 12.182C5.47411 11.3381 5 10.1935 5 9C5 7.80653 5.47411 6.66193 6.31802 5.81802C7.16193 4.97411 8.30653 4.5 9.5 4.5H11V1.5C11 0.947715 11.4477 0.5 12 0.5ZM11 6.5H9.5C8.83696 6.5 8.20107 6.76339 7.73223 7.23223C7.26339 7.70107 7 8.33696 7 9C7 9.66304 7.26339 10.2989 7.73223 10.7678C8.20107 11.2366 8.83696 11.5 9.5 11.5H11V6.5ZM13 13.5V18.5H14.5C15.163 18.5 15.7989 18.2366 16.2678 17.7678C16.7366 17.2989 17 16.663 17 16C17 15.337 16.7366 14.7011 16.2678 14.2322C15.7989 13.7634 15.163 13.5 14.5 13.5H13Z" fill="#2F3A4F"/>
</svg>
