<svg width="24" height="25" viewBox="0 0 24 25" fill="none" xmlns="http://www.w3.org/2000/svg">
<path d="M11.9978 14.5C12.1886 14.5 12.3527 14.4355 12.4992 14.3102L15.8225 11.3956C15.9379 11.297 16 11.1755 16 11.0313C16 10.7353 15.7249 10.5 15.3833 10.5C15.2146 10.5 15.0549 10.5569 14.9307 10.6632L12.0022 13.2438L9.06933 10.6632C8.94509 10.5607 8.78979 10.5 8.61675 10.5C8.2751 10.5 8 10.7353 8 11.0313C8 11.1755 8.06212 11.297 8.17748 11.3994L11.5008 14.3102C11.6561 14.4393 11.8114 14.5 11.9978 14.5Z" fill="#2F3A4F"/>
</svg>
