<svg width="24" height="25" viewBox="0 0 24 25" fill="none" xmlns="http://www.w3.org/2000/svg">
<path d="M12.0225 15.3643C12.2744 15.3643 12.4912 15.2646 12.6846 15.0713L17.0732 10.5713C17.2256 10.4189 17.3076 10.2314 17.3076 10.0088C17.3076 9.55176 16.9443 9.18848 16.4932 9.18848C16.2705 9.18848 16.0596 9.27637 15.8955 9.44043L12.0283 13.4248L8.15527 9.44043C7.99121 9.28223 7.78613 9.18848 7.55762 9.18848C7.10645 9.18848 6.74316 9.55176 6.74316 10.0088C6.74316 10.2314 6.8252 10.4189 6.97754 10.5771L11.3662 15.0713C11.5713 15.2705 11.7764 15.3643 12.0225 15.3643Z" fill="#2F3A4F"/>
</svg>
