<svg width="24" height="24" viewBox="0 0 24 24" fill="none" xmlns="http://www.w3.org/2000/svg">
<path d="M11.9998 6.68335C12.3588 6.68335 12.6498 6.97436 12.6498 7.33335L12.6498 13.3667L14.2764 12.1467C14.5636 11.9313 14.971 11.9895 15.1864 12.2767C15.4018 12.5639 15.3436 12.9713 15.0564 13.1867L12.3898 15.1867C12.1587 15.36 11.8409 15.36 11.6098 15.1867L8.94311 13.1867C8.65592 12.9713 8.59772 12.5639 8.81311 12.2767C9.0285 11.9895 9.43592 11.9313 9.72311 12.1467L11.3498 13.3667L11.3498 7.33335C11.3498 6.97436 11.6408 6.68335 11.9998 6.68335ZM7.68311 16.6667C7.68311 16.3077 7.97412 16.0167 8.33311 16.0167L15.6664 16.0167C16.0254 16.0167 16.3164 16.3077 16.3164 16.6667C16.3164 17.0257 16.0254 17.3167 15.6664 17.3167L8.33311 17.3167C7.97412 17.3167 7.68311 17.0257 7.68311 16.6667Z" fill="#2F3A4F"/>
</svg>
