<svg width="24" height="25" viewBox="0 0 24 25" fill="none" xmlns="http://www.w3.org/2000/svg">
<path fill-rule="evenodd" clip-rule="evenodd" d="M12 6.5C12.5523 6.5 13 6.94772 13 7.5L13 16.0858L14.2929 14.7929C14.6834 14.4024 15.3166 14.4024 15.7071 14.7929C16.0976 15.1834 16.0976 15.8166 15.7071 16.2071L12.7071 19.2071C12.5196 19.3946 12.2652 19.5 12 19.5C11.7348 19.5 11.4804 19.3946 11.2929 19.2071L8.29289 16.2071C7.90237 15.8166 7.90237 15.1834 8.29289 14.7929C8.68342 14.4024 9.31658 14.4024 9.70711 14.7929L11 16.0858L11 7.5C11 6.94772 11.4477 6.5 12 6.5Z" fill="#2F3A4F"/>
</svg>
