<svg width="24" height="25" viewBox="0 0 24 25" fill="none" xmlns="http://www.w3.org/2000/svg">
<path d="M12 5.5C12.2652 5.5 12.5196 5.60536 12.7071 5.79289L15.7071 8.79289C16.0976 9.18342 16.0976 9.81658 15.7071 10.2071C15.3166 10.5976 14.6834 10.5976 14.2929 10.2071L13 8.91421V17.5C13 18.0523 12.5523 18.5 12 18.5C11.4477 18.5 11 18.0523 11 17.5V8.91421L9.70711 10.2071C9.31658 10.5976 8.68342 10.5976 8.29289 10.2071C7.90237 9.81658 7.90237 9.18342 8.29289 8.79289L11.2929 5.79289C11.4804 5.60536 11.7348 5.5 12 5.5Z" fill="#F03D3E"/>
</svg>
