<svg width="24" height="25" viewBox="0 0 24 25" fill="none" xmlns="http://www.w3.org/2000/svg">
<path fill-rule="evenodd" clip-rule="evenodd" d="M18 4.37866C17.7026 4.37866 17.4174 4.4968 17.2071 4.70708L4.90299 17.0112L4.37439 19.1256L6.48877 18.597L18.7929 6.29287C18.897 6.18875 18.9796 6.06513 19.036 5.92909C19.0923 5.79304 19.1213 5.64723 19.1213 5.49998C19.1213 5.35272 19.0923 5.20691 19.036 5.07087C18.9796 4.93482 18.897 4.81121 18.7929 4.70708C18.6888 4.60296 18.5652 4.52036 18.4291 4.46401C18.2931 4.40766 18.1473 4.37866 18 4.37866ZM15.7929 3.29287C16.3783 2.70751 17.1722 2.37866 18 2.37866C18.4099 2.37866 18.8158 2.45939 19.1945 2.61625C19.5732 2.77311 19.9173 3.00303 20.2071 3.29287C20.497 3.58271 20.7269 3.9268 20.8837 4.3055C21.0406 4.6842 21.1213 5.09008 21.1213 5.49998C21.1213 5.90988 21.0406 6.31576 20.8837 6.69446C20.7269 7.07315 20.497 7.41724 20.2071 7.70708L7.70713 20.2071C7.57897 20.3353 7.41839 20.4262 7.24256 20.4701L3.24256 21.4701C2.90178 21.5553 2.54129 21.4555 2.29291 21.2071C2.04453 20.9587 1.94468 20.5982 2.02988 20.2575L3.02988 16.2575C3.07384 16.0816 3.16476 15.9211 3.29291 15.7929L15.7929 3.29287ZM11 20.5C11 19.9477 11.4477 19.5 12 19.5H21C21.5523 19.5 22 19.9477 22 20.5C22 21.0523 21.5523 21.5 21 21.5H12C11.4477 21.5 11 21.0523 11 20.5Z" fill="#2F3A4F"/>
</svg>
