<svg width="24" height="25" viewBox="0 0 24 25" fill="none" xmlns="http://www.w3.org/2000/svg">
<path fill-rule="evenodd" clip-rule="evenodd" d="M18.0008 4.37866C17.7034 4.37866 17.4181 4.4968 17.2079 4.70709L4.90372 17.0112L4.37512 19.1256L6.4895 18.597L18.7936 6.29288C18.8978 6.18875 18.9804 6.06514 19.0367 5.92909C19.0931 5.79305 19.1221 5.64724 19.1221 5.49998C19.1221 5.35273 19.0931 5.20692 19.0367 5.07087C18.9804 4.93483 18.8978 4.81121 18.7936 4.70709C18.6895 4.60296 18.5659 4.52037 18.4299 4.46402C18.2938 4.40767 18.148 4.37866 18.0008 4.37866ZM15.7936 3.29288C16.379 2.70751 17.1729 2.37866 18.0008 2.37866C18.4107 2.37866 18.8165 2.4594 19.1952 2.61626C19.5739 2.77312 19.918 3.00303 20.2079 3.29288C20.4977 3.58272 20.7276 3.92681 20.8845 4.3055C21.0413 4.6842 21.1221 5.09008 21.1221 5.49998C21.1221 5.90988 21.0413 6.31576 20.8845 6.69446C20.7276 7.07316 20.4977 7.41725 20.2079 7.70709L7.70786 20.2071C7.5797 20.3352 7.41912 20.4262 7.24329 20.4701L3.24329 21.4701C2.90251 21.5553 2.54203 21.4555 2.29365 21.2071C2.04527 20.9587 1.94542 20.5982 2.03061 20.2574L3.03061 16.2574C3.07457 16.0816 3.16549 15.921 3.29365 15.7929L15.7936 3.29288ZM11.0008 20.5C11.0008 19.9477 11.4485 19.5 12.0008 19.5H21.0008C21.553 19.5 22.0008 19.9477 22.0008 20.5C22.0008 21.0523 21.553 21.5 21.0008 21.5H12.0008C11.4485 21.5 11.0008 21.0523 11.0008 20.5Z" fill="#2F3A4F"/>
</svg>
