<svg width="24" height="24" viewBox="0 0 24 24" fill="none" xmlns="http://www.w3.org/2000/svg">
<path d="M17.25 16.144C17.25 16.3246 17.1526 16.4912 16.9951 16.5798L12.2451 19.2516C12.0929 19.3373 11.9071 19.3373 11.7549 19.2516L7.00487 16.5798C6.84743 16.4912 6.75 16.3246 6.75 16.144V13.6105C6.75 13.4289 6.65156 13.2616 6.49282 13.1734L5.99282 12.8957C5.65956 12.7105 5.25 12.9515 5.25 13.3327V17.0212C5.25 17.2018 5.34743 17.3684 5.50487 17.457L11.7549 20.9726C11.9071 21.0582 12.0929 21.0582 12.2451 20.9726L18.4951 17.457C18.6526 17.3684 18.75 17.2018 18.75 17.0212V13.3327C18.75 12.9515 18.3404 12.7105 18.0072 12.8957L17.5072 13.1734C17.3484 13.2616 17.25 13.4289 17.25 13.6105V16.144Z" fill="#2F3A4F"/>
<path d="M12.2302 2.27451C12.0858 2.19968 11.9142 2.19968 11.7698 2.27451L1.76984 7.45968C1.60406 7.54564 1.5 7.71682 1.5 7.90356V8.60543C1.5 8.78701 1.59845 8.95433 1.75718 9.04251L11.7572 14.5979C11.9082 14.6818 12.0918 14.6818 12.2428 14.5979L20.2572 10.1456C20.5905 9.9605 21 10.2015 21 10.5827V13.375C21 13.6511 21.2239 13.875 21.5 13.875H22C22.2761 13.875 22.5 13.6511 22.5 13.375V7.90356C22.5 7.71682 22.3959 7.54564 22.2302 7.45968L12.2302 2.27451ZM12.2428 12.8823C12.0918 12.9662 11.9082 12.9662 11.7572 12.8823L3.9488 8.54414C3.73966 8.42795 3.74401 8.1257 3.9564 8.01557L11.7698 3.96416C11.9142 3.88933 12.0858 3.88933 12.2302 3.96416L20.0436 8.01557C20.256 8.1257 20.2603 8.42795 20.0512 8.54414L12.2428 12.8823Z" fill="#2F3A4F"/>
</svg>
