<svg width="24" height="24" viewBox="0 0 24 24" fill="none" xmlns="http://www.w3.org/2000/svg">
<path d="M12.0384 6C13.1898 6 14.2175 6.23881 15.1215 6.71642C16.0256 7.1855 16.7292 7.84648 17.2324 8.69936C17.7441 9.55224 18 10.5245 18 11.6162C18 12.7079 17.7996 13.565 17.3987 14.1876C16.9979 14.8102 16.4392 15.1215 15.7228 15.1215C15.3134 15.1215 14.9723 15.0192 14.6994 14.8145C14.435 14.6013 14.2644 14.2985 14.1876 13.9062C13.9318 14.2985 13.5949 14.6013 13.177 14.8145C12.7676 15.0192 12.2942 15.1215 11.7569 15.1215C11.1599 15.1215 10.6226 14.9808 10.145 14.6994C9.66738 14.4179 9.29211 14.0299 9.01919 13.5352C8.7548 13.032 8.6226 12.4648 8.6226 11.8337C8.6226 11.2111 8.7548 10.6525 9.01919 10.1578C9.29211 9.65458 9.66738 9.26652 10.145 8.9936C10.6226 8.71215 11.1599 8.57143 11.7569 8.57143C12.2516 8.57143 12.6994 8.66525 13.1002 8.85288C13.5011 9.03198 13.8337 9.30064 14.0981 9.65885V8.6226H15.2111V13.2281C15.2111 13.5437 15.2793 13.7783 15.4158 13.9318C15.5522 14.0768 15.7271 14.1493 15.9403 14.1493C16.3156 14.1493 16.6055 13.9318 16.8102 13.4968C17.0235 13.0533 17.1301 12.4307 17.1301 11.629C17.1301 10.6823 16.9168 9.85075 16.4904 9.13433C16.064 8.40938 15.4627 7.84648 14.6866 7.44563C13.919 7.04478 13.0362 6.84435 12.0384 6.84435C11.032 6.84435 10.1407 7.0533 9.36461 7.47122C8.59701 7.88913 8 8.47335 7.57356 9.22388C7.14712 9.97441 6.9339 10.8316 6.9339 11.7953C6.9339 12.7676 7.14286 13.629 7.56077 14.3795C7.98721 15.1301 8.57996 15.7143 9.33902 16.1322C10.1066 16.5586 10.9893 16.7719 11.9872 16.7719C12.4051 16.7719 12.8316 16.7249 13.2665 16.6311C13.7015 16.5373 14.0981 16.3966 14.4563 16.209L14.7377 17.0277C14.3625 17.2239 13.9275 17.3731 13.4328 17.4755C12.9382 17.5778 12.4563 17.629 11.9872 17.629C10.8188 17.629 9.77825 17.3774 8.86567 16.8742C7.96162 16.3795 7.258 15.6887 6.7548 14.8017C6.2516 13.9147 6 12.9126 6 11.7953C6 10.678 6.2516 9.68017 6.7548 8.80171C7.26652 7.92324 7.97868 7.23667 8.89126 6.742C9.81237 6.24733 10.8614 6 12.0384 6ZM11.936 14.1237C12.3539 14.1237 12.7249 14.0299 13.049 13.8422C13.3817 13.6546 13.6418 13.3902 13.8294 13.049C14.0256 12.6994 14.1237 12.2942 14.1237 11.8337C14.1237 11.3731 14.0256 10.9723 13.8294 10.6311C13.6418 10.2815 13.3817 10.0171 13.049 9.83795C12.7249 9.65032 12.3539 9.5565 11.936 9.5565C11.2878 9.5565 10.7633 9.76546 10.3625 10.1834C9.96162 10.5928 9.76119 11.1429 9.76119 11.8337C9.76119 12.5245 9.96162 13.0789 10.3625 13.4968C10.7719 13.9147 11.2964 14.1237 11.936 14.1237Z" fill="#2F3A4F"/>
</svg>
