<svg width="24" height="24" viewBox="0 0 24 24" fill="none" xmlns="http://www.w3.org/2000/svg">
<g clip-path="url(#clip0)">
<path d="M12.0767 0C14.3795 0 16.4349 0.477611 18.243 1.43283C20.0511 2.371 21.4584 3.69295 22.4648 5.39871C23.4882 7.10446 23.9999 9.04901 23.9999 11.2324C23.9999 13.4157 23.5991 15.13 22.7974 16.3752C21.9957 17.6204 20.8784 18.243 19.4456 18.243C18.6268 18.243 17.9445 18.0383 17.3987 17.6289C16.8699 17.2025 16.5287 16.597 16.3752 15.8123C15.8635 16.597 15.1897 17.2025 14.3539 17.6289C13.5351 18.0383 12.5884 18.243 11.5138 18.243C10.3198 18.243 9.24518 17.9616 8.28995 17.3987C7.33473 16.8358 6.5842 16.0597 6.03836 15.0703C5.50958 14.0639 5.24519 12.9296 5.24519 11.6673C5.24519 10.4221 5.50958 9.30488 6.03836 8.31554C6.5842 7.30915 7.33473 6.53303 8.28995 5.98719C9.24518 5.42429 10.3198 5.14284 11.5138 5.14284C12.5032 5.14284 13.3987 5.33047 14.2004 5.70574C15.0021 6.06395 15.6673 6.60126 16.1961 7.31768V5.24519H18.4221V14.4563C18.4221 15.0874 18.5586 15.5565 18.8315 15.8635C19.1044 16.1535 19.4541 16.2985 19.8805 16.2985C20.6311 16.2985 21.211 15.8635 21.6204 14.9936C22.0468 14.1066 22.2601 12.8614 22.2601 11.258C22.2601 9.36458 21.8336 7.70147 20.9807 6.26864C20.1279 4.81875 18.9253 3.69295 17.3731 2.89125C15.8379 2.08955 14.0725 1.68869 12.0767 1.68869C10.0639 1.68869 8.28143 2.1066 6.72919 2.94242C5.19401 3.77824 3.99999 4.94668 3.14711 6.44774C2.29424 7.94881 1.8678 9.66309 1.8678 11.5906C1.8678 13.5351 2.28571 15.258 3.12153 16.759C3.9744 18.2601 5.1599 19.4285 6.67802 20.2643C8.2132 21.1172 9.97865 21.5437 11.9744 21.5437C12.8102 21.5437 13.6631 21.4498 14.533 21.2622C15.4029 21.0746 16.1961 20.7931 16.9125 20.4179L17.4754 22.0554C16.7249 22.4477 15.855 22.7462 14.8656 22.9509C13.8763 23.1556 12.9125 23.2579 11.9744 23.2579C9.6375 23.2579 7.55648 22.7547 5.73133 21.7483C3.92323 20.759 2.51598 19.3773 1.50959 17.6034C0.503197 15.8294 0 13.8251 0 11.5906C0 9.35605 0.503197 7.36032 1.50959 5.6034C2.53304 3.84647 3.95734 2.47334 5.7825 1.484C7.62471 0.494668 9.72279 0 12.0767 0ZM11.872 16.2473C12.7079 16.2473 13.4499 16.0597 14.098 15.6844C14.7633 15.3091 15.2835 14.7803 15.6588 14.098C16.0511 13.3987 16.2473 12.5885 16.2473 11.6673C16.2473 10.7462 16.0511 9.94454 15.6588 9.26223C15.2835 8.56288 14.7633 8.03409 14.098 7.67589C13.4499 7.30062 12.7079 7.11299 11.872 7.11299C10.5757 7.11299 9.52662 7.5309 8.72492 8.36671C7.92322 9.18548 7.52237 10.2857 7.52237 11.6673C7.52237 13.049 7.92322 14.1577 8.72492 14.9936C9.54368 15.8294 10.5927 16.2473 11.872 16.2473Z" fill="#2F3A4F"/>
</g>
<defs>
<clipPath id="clip0">
<rect width="24" height="23.9999" fill="white"/>
</clipPath>
</defs>
</svg>
