<svg width="12" height="12" viewBox="0 0 12 12" fill="none" xmlns="http://www.w3.org/2000/svg">
<path d="M4.59977 4.05626C4.99557 3.717 5.47619 3.54737 6.04162 3.54737C6.61648 3.54737 7.0971 3.717 7.48348 4.05626C7.86986 4.39552 8.10074 4.83844 8.17613 5.38503H3.89298C3.97779 4.82902 4.21339 4.3861 4.59977 4.05626Z" fill="#2F3A4F"/>
<path d="M6 12C9.31371 12 12 9.31371 12 6C12 2.68629 9.31371 0 6 0C2.68629 0 0 2.68629 0 6C0 9.31371 2.68629 12 6 12ZM9.83002 6.5583H3.90711C4.01078 7.11431 4.27936 7.55723 4.71286 7.88707C5.15578 8.20748 5.70236 8.36769 6.35261 8.36769C7.18191 8.36769 7.86514 8.09439 8.40231 7.54781L9.34941 8.63627C9.01015 9.04149 8.58136 9.34777 8.06305 9.5551C7.54473 9.76242 6.96045 9.86608 6.3102 9.86608C5.4809 9.86608 4.75055 9.70117 4.11915 9.37133C3.48775 9.04149 2.99771 8.58444 2.64903 8.00015C2.30977 7.40645 2.14014 6.73735 2.14014 5.99287C2.14014 5.25781 2.30505 4.59813 2.63489 4.01385C2.97415 3.42015 3.44063 2.95838 4.03434 2.62854C4.62804 2.29871 5.29714 2.13379 6.04162 2.13379C6.77669 2.13379 7.43165 2.29871 8.0065 2.62854C8.59078 2.94895 9.04313 3.40601 9.36354 3.99972C9.69338 4.584 9.8583 5.26252 9.8583 6.03528C9.8583 6.15779 9.84887 6.33213 9.83002 6.5583Z" fill="#2F3A4F"/>
</svg>
