<svg width="20" height="21" viewBox="0 0 20 21" fill="none" xmlns="http://www.w3.org/2000/svg">
<path fill-rule="evenodd" clip-rule="evenodd" d="M8.81428 2.47518C9.17621 2.27142 9.58455 2.16437 9.9999 2.16437C10.4152 2.16437 10.8236 2.27142 11.1855 2.47518C11.5474 2.67895 11.8507 2.97256 12.0661 3.32768L12.0683 3.33125L19.1328 15.1249C19.3438 15.4903 19.4554 15.9047 19.4566 16.3267C19.4578 16.7486 19.3484 17.1636 19.1395 17.5302C18.9305 17.8968 18.6292 18.2023 18.2655 18.4163C17.9018 18.6303 17.4884 18.7453 17.0665 18.7499L17.0582 18.75H2.93332C2.51137 18.7454 2.09798 18.6303 1.7343 18.4163C1.37061 18.2023 1.0693 17.8968 0.860334 17.5302C0.651371 17.1636 0.542041 16.7486 0.543222 16.3267C0.544404 15.9047 0.656056 15.4904 0.867069 15.1249L0.873079 15.1145L7.93364 3.32768C8.14905 2.97256 8.45236 2.67895 8.81428 2.47518ZM9.9999 3.66437C9.84235 3.66437 9.68746 3.70497 9.55018 3.78226C9.41341 3.85927 9.29871 3.97009 9.21706 4.10411C9.21676 4.10462 9.21645 4.10512 9.21615 4.10563L2.1635 15.8795C2.08511 16.017 2.04366 16.1725 2.04322 16.3309C2.04277 16.4909 2.08424 16.6483 2.1635 16.7874C2.24276 16.9264 2.35706 17.0423 2.495 17.1235C2.63196 17.2041 2.78749 17.2476 2.94633 17.25H17.0535C17.2123 17.2476 17.3678 17.2041 17.5048 17.1235C17.6427 17.0423 17.757 16.9264 17.8363 16.7874C17.9156 16.6483 17.957 16.4909 17.9566 16.3309C17.9561 16.1725 17.9147 16.017 17.8363 15.8795L10.7836 4.10563C10.7833 4.10512 10.783 4.10462 10.7827 4.10411C10.7011 3.97009 10.5864 3.85927 10.4496 3.78226C10.3123 3.70497 10.1574 3.66437 9.9999 3.66437ZM9.9999 7.24999C10.4141 7.24999 10.7499 7.58577 10.7499 7.99999V11.3333C10.7499 11.7475 10.4141 12.0833 9.9999 12.0833C9.58569 12.0833 9.2499 11.7475 9.2499 11.3333V7.99999C9.2499 7.58577 9.58569 7.24999 9.9999 7.24999ZM9.9999 13.0833C10.4141 13.0833 10.7499 13.4191 10.7499 13.8333V14.25C10.7499 14.6642 10.4141 15 9.9999 15C9.58569 15 9.2499 14.6642 9.2499 14.25V13.8333C9.2499 13.4191 9.58569 13.0833 9.9999 13.0833Z" fill="#2F3A4F"/>
</svg>
