<svg width="24" height="25" viewBox="0 0 24 25" fill="none" xmlns="http://www.w3.org/2000/svg">
<path fill-rule="evenodd" clip-rule="evenodd" d="M10.5282 2.78313C10.9775 2.53017 11.4844 2.39728 12 2.39728C12.5156 2.39728 13.0225 2.53017 13.4718 2.78313C13.9211 3.03608 14.2976 3.40056 14.565 3.8414L14.5679 3.84615L23.0379 17.9861L23.046 17.9999C23.308 18.4536 23.4466 18.9679 23.448 19.4917C23.4495 20.0155 23.3138 20.5306 23.0544 20.9857C22.795 21.4408 22.4209 21.8201 21.9694 22.0857C21.518 22.3514 21.0048 22.4942 20.481 22.4999L20.47 22.5001L3.51903 22.5C2.99522 22.4942 2.48206 22.3514 2.03059 22.0857C1.57912 21.8201 1.20507 21.4408 0.94567 20.9857C0.686267 20.5306 0.550547 20.0155 0.552014 19.4917C0.55348 18.9679 0.692083 18.4536 0.95403 17.9999L0.962153 17.9861L9.43501 3.84139C9.70241 3.40055 10.0789 3.03608 10.5282 2.78313ZM12 4.39728C11.8282 4.39728 11.6592 4.44158 11.5094 4.5259C11.3603 4.60984 11.2353 4.73061 11.1462 4.87667L2.68271 19.0058C2.59753 19.1556 2.55249 19.3249 2.55201 19.4973C2.55152 19.6719 2.59676 19.8436 2.68322 19.9953C2.76969 20.147 2.89438 20.2734 3.04487 20.362C3.19404 20.4498 3.36342 20.4973 3.53642 20.5H20.4636C20.6366 20.4973 20.806 20.4498 20.9552 20.362C21.1057 20.2734 21.2303 20.147 21.3168 19.9953C21.4033 19.8436 21.4485 19.6719 21.448 19.4973C21.4476 19.3249 21.4025 19.1557 21.3174 19.0059L12.855 4.87866C12.8546 4.87799 12.8542 4.87733 12.8538 4.87667C12.7648 4.73061 12.6397 4.60984 12.4906 4.5259C12.3409 4.44158 12.1719 4.39728 12 4.39728ZM12 8.50003C12.5523 8.50003 13 8.94774 13 9.50003V13.5C13 14.0523 12.5523 14.5 12 14.5C11.4477 14.5 11 14.0523 11 13.5V9.50003C11 8.94774 11.4477 8.50003 12 8.50003ZM12 15.5C12.5523 15.5 13 15.9477 13 16.5V17C13 17.5523 12.5523 18 12 18C11.4477 18 11 17.5523 11 17V16.5C11 15.9477 11.4477 15.5 12 15.5Z" fill="#2F3A4F"/>
</svg>
