<svg width="24" height="24" viewBox="0 0 24 24" fill="none" xmlns="http://www.w3.org/2000/svg">
<path d="M20 17H4V18.5H20V17Z" fill="#2F3A4F"/>
<path d="M20 13H12.5V14.5H20V13Z" fill="#2F3A4F"/>
<path d="M20 9H12.5V10.5H20V9Z" fill="#2F3A4F"/>
<path d="M20 5H4V6.5H20V5Z" fill="#2F3A4F"/>
<path d="M7.01686 13.8318C7.26651 13.8318 7.47811 13.7303 7.65487 13.5535L10.9473 10.1776C11.0971 10.0273 11.1807 9.83666 11.1807 9.61522C11.1807 9.16293 10.8197 8.79999 10.3699 8.79999C10.1484 8.79999 9.9397 8.88802 9.78021 9.04752L7.02115 11.8902L4.25996 9.04948L4.2553 9.04498C4.09988 8.89512 3.89784 8.79999 3.66823 8.79999C3.21846 8.79999 2.85739 9.16293 2.85739 9.61522C2.85739 9.83768 2.94163 10.0271 3.0891 10.1802L6.38154 13.5519L6.38532 13.5556C6.56857 13.7336 6.77021 13.8318 7.01686 13.8318Z" fill="#2F3A4F"/>
</svg>
