<svg width="24" height="25" viewBox="0 0 24 25" fill="none" xmlns="http://www.w3.org/2000/svg"><path d="M7.99983 12.5C7.99983 10.2909 9.7907 8.5 11.9999 8.5C14.209 8.5 15.9999 10.2909 15.9999 12.5C15.9999 14.7091 14.209 16.5 11.9999 16.5C9.7907 16.5 7.99983 14.7091 7.99983 12.5ZM13.9999 12.5C13.9999 11.3954 13.1044 10.5 11.9999 10.5C10.8953 10.5 9.99987 11.3954 9.99987 12.5C9.99987 13.6046 10.8953 14.5 11.9999 14.5C13.1044 14.5 13.9999 13.6046 13.9999 12.5Z" fill="#27AE60"/><path d="M23.8939 12.0521C23.9644 12.193 23.9997 12.3465 23.9997 12.5C23.9997 12.661 23.9598 12.8141 23.8889 12.958C23.8238 13.0847 23.7557 13.2098 23.6859 13.334C23.5541 13.5684 23.36 13.8985 23.1055 14.2925C22.5978 15.0787 21.843 16.1294 20.8544 17.1839C18.8954 19.2736 15.8994 21.5 11.9999 21.5C8.10033 21.5 5.10432 19.2736 3.1453 17.1839C2.15667 16.1294 1.4019 15.0787 0.89417 14.2925C0.639685 13.8985 0.445626 13.5684 0.313806 13.334C0.2427 13.2076 0.173104 13.0804 0.107374 12.9511C-0.0300599 12.6786 -0.0498733 12.3206 0.106205 12.0512C0.172324 11.9212 0.242277 11.7931 0.313806 11.666C0.445626 11.4316 0.639685 11.1015 0.89417 10.7075C1.4019 9.92131 2.15667 8.8706 3.1453 7.81606C5.10432 5.72644 8.10033 3.5 11.9999 3.5C15.8994 3.5 18.8954 5.72644 20.8544 7.81606C21.843 8.8706 22.5978 9.92131 23.1055 10.7075C23.36 11.1015 23.5541 11.4316 23.6859 11.666C23.7568 11.7922 23.8282 11.9189 23.8923 12.0489L23.8939 12.0521ZM2.57425 13.2075C3.03527 13.9213 3.718 14.8706 4.60437 15.8161C6.39535 17.7264 8.89934 19.5 11.9999 19.5C15.1004 19.5 17.6043 17.7264 19.3953 15.8161C20.2817 14.8706 20.9644 13.9213 21.4254 13.2075C21.6049 12.9296 21.7498 12.6889 21.8591 12.5C21.7498 12.3111 21.6049 12.0704 21.4254 11.7925C20.9644 11.0787 20.2817 10.1294 19.3953 9.18394C17.6043 7.27356 15.1004 5.5 11.9999 5.5C8.89934 5.5 6.39535 7.27356 4.60437 9.18394C3.718 10.1294 3.03527 11.0787 2.57425 11.7925C2.39476 12.0704 2.24987 12.3111 2.14058 12.5C2.24987 12.6889 2.39476 12.9296 2.57425 13.2075Z" fill="#27AE60"/></svg>
