<svg width="24" height="25" viewBox="0 0 24 25" fill="none" xmlns="http://www.w3.org/2000/svg">
<g clip-path="url(#clip0)">
<path fill-rule="evenodd" clip-rule="evenodd" d="M23.8925 12.0489L23.8891 12.042L23.8777 12.0198C23.8682 12.0013 23.8547 11.9753 23.8373 11.9424C23.8025 11.8767 23.752 11.7832 23.6861 11.666C23.5543 11.4316 23.3602 11.1015 23.1057 10.7075C22.598 9.92131 21.8432 8.8706 20.8546 7.81606C18.8956 5.72644 15.8996 3.5 12.0001 3.5C8.10056 3.5 5.10455 5.72644 3.14553 7.81606C2.1569 8.8706 1.40213 9.92131 0.8944 10.7075C0.639915 11.1015 0.445856 11.4316 0.314036 11.666C0.248088 11.7832 0.197605 11.8767 0.162818 11.9424C0.145421 11.9753 0.13194 12.0013 0.122402 12.0198L0.111055 12.042L0.107604 12.0489L0.106435 12.0512L0.105508 12.0528C-0.0352555 12.3343 -0.0351264 12.6657 0.105637 12.9472L0.107604 12.9511L0.111055 12.958L0.122402 12.9802C0.13194 12.9987 0.145421 13.0247 0.162818 13.0576C0.197605 13.1233 0.248088 13.2168 0.314036 13.334C0.445856 13.5684 0.639915 13.8985 0.8944 14.2925C1.40213 15.0787 2.1569 16.1294 3.14553 17.1839C5.10455 19.2736 8.10056 21.5 12.0001 21.5C15.8996 21.5 18.8956 19.2736 20.8546 17.1839C21.8432 16.1294 22.598 15.0787 23.1057 14.2925C23.3602 13.8985 23.5543 13.5684 23.6861 13.334C23.752 13.2168 23.8025 13.1233 23.8373 13.0576C23.8547 13.0247 23.8682 12.9987 23.8777 12.9802L23.8891 12.958L23.8925 12.9511L23.8937 12.9488L23.8945 12.9472C23.9648 12.8066 23.9999 12.6533 23.9999 12.5C23.9999 12.3465 23.9646 12.193 23.8941 12.0521L23.8925 12.0489ZM2.14081 12.5C2.2501 12.6889 2.39499 12.9296 2.57448 13.2075C3.0355 13.9213 3.71823 14.8706 4.6046 15.8161C6.39558 17.7264 8.89957 19.5 12.0001 19.5C15.1006 19.5 17.6045 17.7264 19.3955 15.8161C20.2819 14.8706 20.9646 13.9213 21.4256 13.2075C21.6051 12.9296 21.75 12.6889 21.8593 12.5C21.75 12.3111 21.6051 12.0704 21.4256 11.7925C20.9646 11.0787 20.2819 10.1294 19.3955 9.18394C17.6045 7.27356 15.1006 5.5 12.0001 5.5C8.89957 5.5 6.39558 7.27356 4.6046 9.18394C3.71823 10.1294 3.0355 11.0787 2.57448 11.7925C2.39499 12.0704 2.2501 12.3111 2.14081 12.5Z" fill="#2F3A4F"/>
<path fill-rule="evenodd" clip-rule="evenodd" d="M12.0001 8.5C9.79093 8.5 8.00006 10.2909 8.00006 12.5C8.00006 14.7091 9.79093 16.5 12.0001 16.5C14.2092 16.5 16.0001 14.7091 16.0001 12.5C16.0001 10.2909 14.2092 8.5 12.0001 8.5ZM12.0001 10.5C10.8955 10.5 10.0001 11.3954 10.0001 12.5C10.0001 13.6046 10.8955 14.5 12.0001 14.5C13.1046 14.5 14.0001 13.6046 14.0001 12.5C14.0001 11.3954 13.1046 10.5 12.0001 10.5Z" fill="#2F3A4F"/>
</g>
<defs>
<clipPath id="clip0">
<rect width="24" height="24" fill="white" transform="translate(0 0.5)"/>
</clipPath>
</defs>
</svg>
