<svg width="24" height="25" viewBox="0 0 24 25" fill="none" xmlns="http://www.w3.org/2000/svg"><path d="M23.7071 22.7929C24.0976 23.1834 24.0976 23.8166 23.7071 24.2071C23.3166 24.5976 22.6834 24.5976 22.2929 24.2071L17.8261 19.7403C16.0962 20.8536 14.0848 21.4661 12.0163 21.4999L12 21.5C8.10049 21.5 5.10448 19.2736 3.14546 17.184C2.15683 16.1294 1.40207 15.0787 0.894336 14.2926C0.63985 13.8985 0.445792 13.5684 0.313971 13.334C0.242572 13.2071 0.170182 13.0798 0.10637 12.9488C-0.0400374 12.6622 -0.0330032 12.3102 0.118844 12.0272C1.25036 9.91852 2.7597 8.03968 4.56849 6.4827L0.292893 2.20711C-0.097631 1.81658 -0.097631 1.18342 0.292893 0.792893C0.683417 0.402369 1.31658 0.402369 1.70711 0.792893L23.7071 22.7929ZM14.0497 15.964C13.891 16.0635 13.7251 16.152 13.5531 16.2286C13.0625 16.4472 12.5328 16.5648 11.9957 16.5742C11.4586 16.5837 10.9252 16.4849 10.4271 16.2837C9.92902 16.0826 9.47657 15.7831 9.09674 15.4033C8.71691 15.0235 8.41747 14.571 8.21629 14.0729C8.01511 13.5749 7.91631 13.0414 7.92579 12.5043C7.93527 11.9672 8.05282 11.4375 8.27145 10.9469C8.34805 10.7749 8.43652 10.609 8.53604 10.4503L5.9871 7.90134C4.45031 9.2014 3.14935 10.7582 2.14257 12.5032C2.25165 12.6916 2.39592 12.9311 2.57441 13.2075C3.03543 13.9213 3.71817 14.8706 4.60454 15.8161C6.39395 17.7248 8.89512 19.4969 11.9918 19.5C13.5373 19.4734 15.0437 19.0524 16.3714 18.2856L14.0497 15.964ZM9.92548 12.5396C9.92074 12.8081 9.97014 13.0749 10.0707 13.3239C10.1713 13.5729 10.321 13.7992 10.511 13.9891C10.7009 14.179 10.9271 14.3287 11.1761 14.4293C11.4252 14.5299 11.6919 14.5793 11.9604 14.5745C12.164 14.571 12.3655 14.5363 12.5579 14.4721L10.0279 11.9421C9.96372 12.1346 9.92907 12.336 9.92548 12.5396Z" fill="#27AE60"/><path d="M10.1279 5.71371C9.59016 5.83958 9.05219 5.50568 8.92632 4.96794C8.80045 4.43018 9.13434 3.89222 9.67209 3.76634C10.4355 3.58765 11.2171 3.49828 12.0012 3.50003C15.9001 3.50046 18.8957 5.72667 20.8545 7.81608C21.8432 8.87062 22.5979 9.92134 23.1057 10.7075C23.3601 11.1015 23.5542 11.4317 23.686 11.666C23.7571 11.7924 23.8268 11.9196 23.8925 12.0489L23.8936 12.0512L23.8944 12.0528C24.0395 12.3429 24.0348 12.6854 23.8819 12.9714C23.2421 14.1684 22.479 15.2953 21.6052 16.3339C21.2496 16.7565 20.6187 16.8108 20.1962 16.4552C19.7736 16.0996 19.7193 15.4688 20.0748 15.0462C20.7439 14.2511 21.3406 13.3982 21.858 12.4978C21.7488 12.3093 21.6044 12.0694 21.4256 11.7926C20.9646 11.0787 20.2818 10.1294 19.3955 9.18397C17.6045 7.27359 15.1005 5.50002 12 5.50002H11.9977C11.3682 5.49854 10.7408 5.57025 10.1279 5.71371Z" fill="#27AE60"/></svg>
