<svg width="24" height="25" viewBox="0 0 24 25" fill="none" xmlns="http://www.w3.org/2000/svg">
<path fill-rule="evenodd" clip-rule="evenodd" d="M10.8282 3.32808C11.9346 2.22161 13.4353 1.60001 15.0001 1.60001H18.0001C18.4972 1.60001 18.9001 2.00295 18.9001 2.50001V6.50001C18.9001 6.99706 18.4972 7.40001 18.0001 7.40001H15.0001C14.9736 7.40001 14.9481 7.41054 14.9294 7.4293C14.9106 7.44805 14.9001 7.47348 14.9001 7.50001V9.60001H18.0001C18.2772 9.60001 18.5389 9.72769 18.7095 9.94613C18.88 10.1646 18.9404 10.4494 18.8732 10.7183L17.8732 14.7183C17.7731 15.1189 17.4131 15.4 17.0001 15.4H14.9001V22.5C14.9001 22.9971 14.4972 23.4 14.0001 23.4H10.0001C9.50304 23.4 9.1001 22.9971 9.1001 22.5V15.4H7.0001C6.50304 15.4 6.1001 14.9971 6.1001 14.5V10.5C6.1001 10.0029 6.50304 9.60001 7.0001 9.60001H9.1001V7.50001C9.1001 5.93523 9.7217 4.43454 10.8282 3.32808ZM15.0001 3.40001C13.9127 3.40001 12.8699 3.83197 12.101 4.60087C11.3321 5.36977 10.9001 6.41262 10.9001 7.50001V10.5C10.9001 10.9971 10.4972 11.4 10.0001 11.4H7.9001V13.6H10.0001C10.4972 13.6 10.9001 14.0029 10.9001 14.5V21.6H13.1001V14.5C13.1001 14.0029 13.503 13.6 14.0001 13.6H16.2974L16.8474 11.4H14.0001C13.503 11.4 13.1001 10.9971 13.1001 10.5V7.50001C13.1001 6.99609 13.3003 6.51282 13.6566 6.1565C14.0129 5.80018 14.4962 5.60001 15.0001 5.60001H17.1001V3.40001H15.0001Z" fill="#2F3A4F"/>
</svg>
