<svg width="24" height="24" viewBox="0 0 24 24" fill="none" xmlns="http://www.w3.org/2000/svg">
<path d="M10.955 15.833L7.28802 12.119L8.71202 10.715L10.969 13.001L15.296 8.70703L16.704 10.127L10.955 15.833Z" fill="#2F3A4F"/>
<path d="M19.965 8.521C19.988 8.347 20 8.173 20 8C20 5.621 17.857 3.712 15.479 4.035C14.786 2.802 13.466 2 12 2C10.534 2 9.214 2.802 8.521 4.035C6.138 3.712 4 5.621 4 8C4 8.173 4.012 8.347 4.035 8.521C2.802 9.215 2 10.535 2 12C2 13.465 2.802 14.785 4.035 15.479C4.012 15.653 4 15.827 4 16C4 18.379 6.138 20.283 8.521 19.965C9.214 21.198 10.534 22 12 22C13.466 22 14.786 21.198 15.479 19.965C17.857 20.283 20 18.379 20 16C20 15.827 19.988 15.653 19.965 15.479C21.198 14.785 22 13.465 22 12C22 10.535 21.198 9.215 19.965 8.521ZM18.3788 8.31133L18.237 9.3844L19.1802 9.91531C19.9201 10.3317 20.4 11.1248 20.4 12C20.4 12.8752 19.9201 13.6683 19.1802 14.0847L18.237 14.6156L18.3788 15.6887C18.3931 15.7971 18.4 15.9009 18.4 16C18.4 17.4212 17.0997 18.5675 15.6911 18.3791L14.6158 18.2353L14.0842 19.1811C13.669 19.9198 12.8766 20.4 12 20.4C11.1234 20.4 10.331 19.9198 9.91579 19.1811L9.3844 18.2356L8.30936 18.3791C6.89635 18.5676 5.6 17.4221 5.6 16C5.6 15.9009 5.60688 15.7971 5.6212 15.6887L5.76304 14.6156L4.81979 14.0847C4.07994 13.6683 3.6 12.8752 3.6 12C3.6 11.1248 4.07994 10.3317 4.81979 9.91531L5.76304 9.3844L5.6212 8.31133C5.60688 8.20295 5.6 8.09906 5.6 8C5.6 6.57444 6.89879 5.42975 8.3061 5.6205L9.38322 5.7665L9.91579 4.81893C10.331 4.08023 11.1234 3.6 12 3.6C12.8766 3.6 13.669 4.08023 14.0842 4.81893L14.6169 5.76678L15.6943 5.62044C17.0973 5.42989 18.4 6.57537 18.4 8C18.4 8.09906 18.3931 8.20295 18.3788 8.31133Z" fill="#2F3A4F"/>
</svg>
