<svg width="24" height="25" viewBox="0 0 24 25" fill="none" xmlns="http://www.w3.org/2000/svg">
<path fill-rule="evenodd" clip-rule="evenodd" d="M3.87868 2.37868C4.44129 1.81607 5.20435 1.5 6 1.5H13C13.2652 1.5 13.5196 1.60536 13.7071 1.79289L20.7071 8.79289C20.8946 8.98043 21 9.23478 21 9.5V20.5C21 21.2957 20.6839 22.0587 20.1213 22.6213C19.5587 23.1839 18.7957 23.5 18 23.5H6C5.20435 23.5 4.44129 23.1839 3.87868 22.6213C3.31607 22.0587 3 21.2957 3 20.5V4.5C3 3.70435 3.31607 2.94129 3.87868 2.37868ZM6 3.5C5.73478 3.5 5.48043 3.60536 5.29289 3.79289C5.10536 3.98043 5 4.23478 5 4.5V20.5C5 20.7652 5.10536 21.0196 5.29289 21.2071C5.48043 21.3946 5.73478 21.5 6 21.5H18C18.2652 21.5 18.5196 21.3946 18.7071 21.2071C18.8946 21.0196 19 20.7652 19 20.5V10.5H13C12.4477 10.5 12 10.0523 12 9.5V3.5H6ZM14 4.91421L17.5858 8.5H14V4.91421Z" fill="#2F3A4F"/>
</svg>
