<svg width="24" height="25" viewBox="0 0 24 25" fill="none" xmlns="http://www.w3.org/2000/svg">
<path d="M3.87868 2.37868C4.44129 1.81607 5.20435 1.5 6 1.5H14C14.2652 1.5 14.5196 1.60536 14.7071 1.79289L20.7071 7.79289C20.8946 7.98043 21 8.23478 21 8.5V20.5C21 21.2957 20.6839 22.0587 20.1213 22.6213C19.5587 23.1839 18.7957 23.5 18 23.5H6C5.20435 23.5 4.44129 23.1839 3.87868 22.6213C3.31607 22.0587 3 21.2957 3 20.5V4.5C3 3.70435 3.31607 2.94129 3.87868 2.37868ZM6 3.5C5.73478 3.5 5.48043 3.60536 5.29289 3.79289C5.10536 3.98043 5 4.23478 5 4.5V20.5C5 20.7652 5.10536 21.0196 5.29289 21.2071C5.48043 21.3946 5.73478 21.5 6 21.5H18C18.2652 21.5 18.5196 21.3946 18.7071 21.2071C18.8946 21.0196 19 20.7652 19 20.5V9.5H14C13.4477 9.5 13 9.05228 13 8.5V3.5H6ZM15 4.91421V7.5H17.5858L15 4.91421ZM7 9.5C7 8.94772 7.44772 8.5 8 8.5H10C10.5523 8.5 11 8.94772 11 9.5C11 10.0523 10.5523 10.5 10 10.5H8C7.44772 10.5 7 10.0523 7 9.5ZM7 13.5C7 12.9477 7.44772 12.5 8 12.5H16C16.5523 12.5 17 12.9477 17 13.5C17 14.0523 16.5523 14.5 16 14.5H8C7.44772 14.5 7 14.0523 7 13.5ZM7 17.5C7 16.9477 7.44772 16.5 8 16.5H16C16.5523 16.5 17 16.9477 17 17.5C17 18.0523 16.5523 18.5 16 18.5H8C7.44772 18.5 7 18.0523 7 17.5Z" fill="#2F3A4F"/>
</svg>
