<svg width="24" height="24" viewBox="0 0 24 24" fill="none" xmlns="http://www.w3.org/2000/svg">
<path d="M6.59751 5.26425C6.96945 4.89231 7.47392 4.68335 7.99993 4.68335H13.3333C13.5057 4.68335 13.671 4.75183 13.7929 4.87373L17.7929 8.87373C17.9148 8.99563 17.9833 9.16096 17.9833 9.33335V17.3333C17.9833 17.8594 17.7743 18.3638 17.4024 18.7358C17.0304 19.1077 16.5259 19.3167 15.9999 19.3167H7.99993C7.47392 19.3167 6.96945 19.1077 6.59751 18.7358C6.22556 18.3638 6.0166 17.8594 6.0166 17.3333V6.66668C6.0166 6.14067 6.22556 5.6362 6.59751 5.26425ZM7.99993 5.98335C7.8187 5.98335 7.64489 6.05534 7.51675 6.18349C7.3886 6.31164 7.3166 6.48545 7.3166 6.66668V17.3333C7.3166 17.5146 7.3886 17.6884 7.51675 17.8165C7.6449 17.9447 7.8187 18.0167 7.99993 18.0167H15.9999C16.1812 18.0167 16.355 17.9447 16.4831 17.8165C16.6113 17.6884 16.6833 17.5146 16.6833 17.3333V9.98335H13.3333C12.9743 9.98335 12.6833 9.69233 12.6833 9.33335V5.98335H7.99993ZM13.9833 6.90259V8.68335H15.764L13.9833 6.90259ZM8.68327 10C8.68327 9.64103 8.97428 9.35002 9.33327 9.35002H10.6666C11.0256 9.35002 11.3166 9.64103 11.3166 10C11.3166 10.359 11.0256 10.65 10.6666 10.65H9.33327C8.97428 10.65 8.68327 10.359 8.68327 10ZM8.68327 12.6667C8.68327 12.3077 8.97428 12.0167 9.33327 12.0167H14.6666C15.0256 12.0167 15.3166 12.3077 15.3166 12.6667C15.3166 13.0257 15.0256 13.3167 14.6666 13.3167H9.33327C8.97428 13.3167 8.68327 13.0257 8.68327 12.6667ZM8.68327 15.3333C8.68327 14.9744 8.97428 14.6833 9.33327 14.6833H14.6666C15.0256 14.6833 15.3166 14.9744 15.3166 15.3333C15.3166 15.6923 15.0256 15.9833 14.6666 15.9833H9.33327C8.97428 15.9833 8.68327 15.6923 8.68327 15.3333Z" fill="#2F3A4F"/>
</svg>
