<svg width="24" height="25" viewBox="0 0 24 25" fill="none" xmlns="http://www.w3.org/2000/svg">
<path fill-rule="evenodd" clip-rule="evenodd" d="M1.0929 3.07912C1.25675 2.72596 1.61069 2.5 2.00001 2.5H22C22.3893 2.5 22.7433 2.72596 22.9071 3.07912C23.071 3.43229 23.015 3.84845 22.7636 4.14573L15 13.3261V21.5C15 21.8466 14.8206 22.1684 14.5257 22.3507C14.2309 22.5329 13.8628 22.5494 13.5528 22.3944L9.5528 20.3944C9.21402 20.225 9.00001 19.8788 9.00001 19.5V13.3261L1.23644 4.14573C0.985045 3.84845 0.929036 3.43229 1.0929 3.07912ZM4.15532 4.5L10.7636 12.3143C10.9162 12.4948 11 12.7236 11 12.96V18.882L13 19.882V12.96C13 12.7236 13.0838 12.4948 13.2364 12.3143L19.8447 4.5H4.15532Z" fill="#2F3A4F"/>
</svg>
