<svg width="21" height="22" viewBox="0 0 21 22" fill="none" xmlns="http://www.w3.org/2000/svg">
<path d="M6.5 2.07202C7.05228 2.07202 7.5 2.51974 7.5 3.07202V4.71696C8.94574 5.14724 10 6.48651 10 8.07202C10 9.65753 8.94574 10.9968 7.5 11.4271V19.072C7.5 19.6243 7.05228 20.072 6.5 20.072C5.94772 20.072 5.5 19.6243 5.5 19.072V11.4271C4.05426 10.9968 3 9.65753 3 8.07202C3 6.48651 4.05426 5.14724 5.5 4.71696V3.07202C5.5 2.51974 5.94772 2.07202 6.5 2.07202ZM14.5 2.07202C15.0523 2.07202 15.5 2.51974 15.5 3.07202V8.71696C16.9457 9.14724 18 10.4865 18 12.072C18 13.6575 16.9457 14.9968 15.5 15.4271V19.072C15.5 19.6243 15.0523 20.072 14.5 20.072C13.9477 20.072 13.5 19.6243 13.5 19.072V15.4271C12.0543 14.9968 11 13.6575 11 12.072C11 10.4865 12.0543 9.14724 13.5 8.71696V3.07202C13.5 2.51974 13.9477 2.07202 14.5 2.07202ZM6.5 6.57202C5.67157 6.57202 5 7.24359 5 8.07202C5 8.90045 5.67157 9.57202 6.5 9.57202C7.32843 9.57202 8 8.90045 8 8.07202C8 7.24359 7.32843 6.57202 6.5 6.57202ZM14.5 10.572C13.6716 10.572 13 11.2436 13 12.072C13 12.9004 13.6716 13.572 14.5 13.572C15.3284 13.572 16 12.9004 16 12.072C16 11.2436 15.3284 10.572 14.5 10.572Z" fill="#2F3A4F"/>
</svg>
