<svg width="24" height="24" viewBox="0 0 24 24" fill="none" xmlns="http://www.w3.org/2000/svg">
<path d="M12.0122 22.7431C6.08571 22.7431 1.28131 17.9387 1.28131 12.0122C1.28131 6.08565 6.08571 1.28125 12.0122 1.28125C17.9388 1.28125 22.7432 6.08565 22.7432 12.0122C22.7432 17.9387 17.9388 22.7431 12.0122 22.7431ZM10.3749 2.86655C6.25611 3.59897 3.07612 7.04572 2.75032 11.2915H7.31784C7.51583 8.24295 8.58023 5.32124 10.3749 2.86655ZM2.75033 12.7329C3.07613 16.9787 6.25612 20.4254 10.375 21.1578C8.58024 18.7031 7.51584 15.7814 7.31784 12.7329H2.75033ZM21.2742 12.7329H16.7067C16.5087 15.7814 15.4443 18.7031 13.6495 21.1578C17.7684 20.4254 20.9484 16.9787 21.2742 12.7329ZM21.2742 11.2915C20.9484 7.04572 17.7684 3.59897 13.6495 2.86655C15.4443 5.32124 16.5087 8.24295 16.7067 11.2915H21.2742ZM12.0122 3.1043C10.1122 5.43279 8.97675 8.29254 8.76265 11.2915H15.2618C15.0477 8.29254 13.9123 5.43279 12.0122 3.1043ZM12.0122 20.9201C13.9123 18.5916 15.0477 15.7318 15.2618 12.7329H8.76265C8.97676 15.7318 10.1122 18.5916 12.0122 20.9201Z" fill="#2F3A4F"/>
</svg>
