<svg width="24" height="24" viewBox="0 0 24 24" fill="none" xmlns="http://www.w3.org/2000/svg">
<path d="M11.0299 2.10613C11.2135 2.21913 11.4194 2.38236 11.6495 2.59706C11.8702 2.82056 12.0855 3.09678 12.2977 3.42324C12.4992 3.73085 12.6778 4.09497 12.8342 4.51559C12.9629 4.93495 13.0272 5.42589 13.0272 5.98462C13.0099 7.01294 12.7792 7.83409 12.3344 8.44932C12.1169 8.74815 11.8853 9.02312 11.6417 9.2755C11.3711 9.52787 11.0839 9.78526 10.7788 10.0464C10.6046 10.2235 10.4432 10.4244 10.2951 10.6491C10.1205 10.8814 10.0339 11.1526 10.0339 11.4602C10.0339 11.759 10.1227 12.0064 10.3023 12.2023C10.4533 12.3893 10.6017 12.5526 10.7449 12.6932L11.7371 13.4905C12.3533 13.9852 12.8941 14.5314 13.3593 15.129C13.7975 15.7355 14.0254 16.529 14.0433 17.5096C14.0433 18.8995 13.4171 20.1325 12.1659 21.206C10.8676 22.3172 8.99459 22.891 6.54715 22.9287C4.49836 22.9098 2.96875 22.4817 1.95832 21.643C0.938477 20.8595 0.428711 19.9228 0.428711 18.833C0.428711 18.3019 0.594448 17.7105 0.926235 17.0576C1.24798 16.4059 1.83119 15.8321 2.67432 15.3387C3.62165 14.8076 4.61701 14.4548 5.65977 14.2765C6.69249 14.1283 7.54974 14.0442 8.23246 14.0254C8.02121 13.7529 7.83318 13.4616 7.66807 13.1527C7.47597 12.8526 7.3796 12.491 7.3796 12.0679C7.3796 11.8155 7.41664 11.6046 7.48947 11.4351L7.66807 10.9429C7.33629 10.9793 7.02302 10.9982 6.72859 10.9982C5.17167 10.9793 3.98483 10.4997 3.16839 9.55675C2.31334 8.67909 1.88675 7.65705 1.88675 6.49062C1.88675 5.0806 2.49194 3.80242 3.70264 2.65356C4.53446 1.98183 5.39798 1.54363 6.29478 1.33772C7.18216 1.16068 8.01399 1.07153 8.78993 1.07153H14.64L12.8335 2.10613H11.0299ZM11.4332 16.7274C10.9203 16.2126 10.1199 15.5835 9.02975 14.8365C8.84392 14.8176 8.62483 14.8076 8.37308 14.8076C8.2243 14.79 7.84229 14.8076 7.22768 14.8641C6.62218 14.9482 6.00317 15.0838 5.36973 15.2696C5.22063 15.3261 5.01095 15.4103 4.74132 15.522C4.47074 15.6438 4.19671 15.8171 3.91671 16.0406C3.64708 16.2741 3.41825 16.5629 3.23242 16.9094C3.01772 17.2735 2.91068 17.7117 2.91068 18.2253C2.91068 19.2335 3.3765 20.0647 4.30783 20.7189C5.19238 21.3718 6.4037 21.7083 7.93991 21.7271C9.31916 21.7083 10.3713 21.4094 11.0977 20.8306C11.8055 20.2606 12.1593 19.5286 12.1593 18.6321C12.1593 17.9038 11.917 17.2685 11.4332 16.7274ZM8.08116 10.2159C8.85146 10.1883 9.49306 9.9171 10.0066 9.40231C10.2539 9.03819 10.4131 8.66277 10.4837 8.27982C10.5258 7.89687 10.5474 7.57418 10.5474 7.31177C10.5474 6.18049 10.2524 5.03791 9.66225 3.8878C9.38602 3.3366 9.02222 2.8871 8.57021 2.54182C8.10941 2.21411 7.57924 2.04084 6.9797 2.02201C6.18712 2.04084 5.52762 2.35474 5.00248 2.96244C4.55926 3.59776 4.34738 4.30967 4.36684 5.09441C4.36684 6.13278 4.67634 7.21383 5.29534 8.33632C5.5948 8.8599 5.98183 9.30437 6.45612 9.66849C6.92979 10.0339 7.47158 10.2159 8.08116 10.2159Z" fill="#2F3A4F"/>
<path d="M23.5716 11.2643H20.6787V8.32251H19.2323V11.2643H16.3394V12.7359H19.2323V15.6777H20.6787V12.7359H23.5716V11.2643Z" fill="#2F3A4F"/>
</svg>
