<svg width="24" height="24" viewBox="0 0 24 24" fill="none" xmlns="http://www.w3.org/2000/svg">
<path d="M11.434 6.60352C11.5411 6.66943 11.6613 6.76465 11.7955 6.88989C11.9242 7.02026 12.0498 7.1814 12.1736 7.37183C12.2911 7.55127 12.3953 7.76367 12.4865 8.00903C12.5616 8.25366 12.5991 8.54004 12.5991 8.86597C12.5891 9.46582 12.4545 9.94482 12.195 10.3037C12.0681 10.478 11.933 10.6384 11.7909 10.7856C11.6331 10.9329 11.4655 11.083 11.2875 11.2354C11.1859 11.3386 11.0918 11.4558 11.0054 11.5869C10.9036 11.7224 10.853 11.8806 10.853 12.0601C10.853 12.2344 10.9048 12.3787 11.0096 12.4929C11.0977 12.6021 11.1843 12.6973 11.2678 12.7793L11.8466 13.2444C12.206 13.533 12.5215 13.8516 12.7928 14.2002C13.0485 14.554 13.1814 15.0168 13.1918 15.5889C13.1918 16.3997 12.8265 17.1189 12.0967 17.7451C11.3394 18.3933 10.2468 18.728 8.81909 18.75C7.62396 18.739 6.73169 18.4893 6.14227 18C5.54736 17.543 5.25 16.9966 5.25 16.3608C5.25 16.051 5.34668 15.7061 5.54022 15.3252C5.72791 14.9451 6.06812 14.6104 6.55994 14.3225C7.11255 14.0127 7.69318 13.8069 8.30145 13.7029C8.90387 13.6165 9.40393 13.5674 9.80219 13.5564C9.67896 13.3975 9.56927 13.2275 9.47296 13.0474C9.3609 12.8723 9.30469 12.6614 9.30469 12.4146C9.30469 12.2673 9.32629 12.1443 9.36877 12.0454L9.47296 11.7583C9.27942 11.7795 9.09668 11.7905 8.92493 11.7905C8.01672 11.7795 7.3244 11.4998 6.84814 10.9497C6.34937 10.4377 6.10052 9.84155 6.10052 9.16113C6.10052 8.33862 6.45355 7.59302 7.15979 6.92285C7.64502 6.53101 8.14874 6.27539 8.67188 6.15527C9.18951 6.052 9.67474 6 10.1274 6H13.5399L12.4861 6.60352H11.434ZM11.6693 15.1326C11.3701 14.8323 10.9032 14.4653 10.2673 14.0295C10.1589 14.0186 10.0311 14.0127 9.88422 14.0127C9.79742 14.0024 9.57458 14.0127 9.21606 14.0457C8.86285 14.0947 8.50177 14.1738 8.13226 14.2822C8.04529 14.3152 7.92297 14.3643 7.76569 14.4294C7.60785 14.5005 7.448 14.6016 7.28467 14.7319C7.12738 14.8682 6.9939 15.0366 6.8855 15.2388C6.76025 15.4512 6.69781 15.7068 6.69781 16.0063C6.69781 16.5945 6.96954 17.0793 7.51282 17.4609C8.02881 17.8418 8.73541 18.0381 9.63153 18.0491C10.4361 18.0381 11.0499 17.8638 11.4736 17.5261C11.8865 17.1936 12.0928 16.7666 12.0928 16.2437C12.0928 15.8188 11.9515 15.4482 11.6693 15.1326ZM9.71393 11.3342C10.1633 11.3181 10.5375 11.1599 10.8371 10.8596C10.9814 10.6472 11.0742 10.4282 11.1154 10.2048C11.14 9.98145 11.1526 9.79321 11.1526 9.64014C11.1526 8.98022 10.9805 8.31372 10.6362 7.64282C10.4751 7.32129 10.2629 7.05908 9.99921 6.85767C9.73041 6.6665 9.42114 6.56543 9.07141 6.55444C8.60907 6.56543 8.22437 6.74854 7.91803 7.10303C7.65948 7.47363 7.53589 7.88892 7.54724 8.34668C7.54724 8.95239 7.72778 9.58301 8.08887 10.2378C8.26355 10.5432 8.48932 10.8025 8.76599 11.0149C9.0423 11.228 9.35834 11.3342 9.71393 11.3342Z" fill="#2F3A4F"/>
<path d="M18.75 11.9458H17.0625V10.2297H16.2188V11.9458H14.5312V12.8042H16.2188V14.5203H17.0625V12.8042H18.75V11.9458Z" fill="#2F3A4F"/>
</svg>
