<svg width="24" height="25" viewBox="0 0 24 25" fill="none" xmlns="http://www.w3.org/2000/svg">
<path d="M19.2005 12.7001V10.3138L14.9071 14.6072C14.5166 14.9977 13.8834 14.9977 13.4929 14.6072L10.6 11.7143L6.50704 15.8072C6.11651 16.1978 5.48334 16.1978 5.09281 15.8072C4.70228 15.4167 4.70228 14.7835 5.09281 14.393L9.89286 9.59294C10.2834 9.20241 10.9166 9.20241 11.3071 9.59294L14.2 12.4859L17.7859 8.90003H15.4005C14.8482 8.90003 14.4004 8.45231 14.4004 7.90002C14.4004 7.34773 14.8482 6.90001 15.4005 6.90001H20.2005C20.7528 6.90001 21.2005 7.34773 21.2005 7.90002V12.7001C21.2005 13.2524 20.7528 13.7001 20.2005 13.7001C19.6482 13.7001 19.2005 13.2524 19.2005 12.7001Z" fill="#2F3A4F"/>
<path d="M3.39415 18.9002H22.6003C23.1526 18.9002 23.6003 19.3479 23.6003 19.9002C23.6003 20.4525 23.1526 20.9002 22.6003 20.9002H3.39415C1.51969 20.9002 0 19.3702 0 17.4899V5.50001C0 4.94772 0.447721 4.5 1.00001 4.5C1.55231 4.5 2.00003 4.94772 2.00003 5.50001V17.4899C2.00003 18.2665 2.62518 18.9002 3.39415 18.9002Z" fill="#2F3A4F"/>
</svg>
