<svg width="24" height="25" viewBox="0 0 24 25" fill="none" xmlns="http://www.w3.org/2000/svg">
<path fill-rule="evenodd" clip-rule="evenodd" d="M6 8.5C4.93913 8.5 3.92172 8.92143 3.17157 9.67157C2.42143 10.4217 2 11.4391 2 12.5C2 13.5609 2.42143 14.5783 3.17157 15.3284C3.54301 15.6999 3.98396 15.9945 4.46927 16.1955C4.95457 16.3965 5.47471 16.5 6 16.5H9C9.55229 16.5 10 16.9477 10 17.5C10 18.0523 9.55229 18.5 9 18.5H6C5.21207 18.5 4.43185 18.3448 3.7039 18.0433C2.97595 17.7417 2.31451 17.2998 1.75736 16.7426C0.632141 15.6174 0 14.0913 0 12.5C0 10.9087 0.632141 9.38258 1.75736 8.25736C2.88258 7.13214 4.4087 6.5 6 6.5H9C9.55229 6.5 10 6.94772 10 7.5C10 8.05228 9.55229 8.5 9 8.5H6ZM14 7.5C14 6.94772 14.4477 6.5 15 6.5H18C18.7879 6.5 19.5681 6.65519 20.2961 6.95672C21.0241 7.25825 21.6855 7.70021 22.2426 8.25736C22.7998 8.81451 23.2417 9.47595 23.5433 10.2039C23.8448 10.9319 24 11.7121 24 12.5C24 13.2879 23.8448 14.0681 23.5433 14.7961C23.2417 15.5241 22.7998 16.1855 22.2426 16.7426C21.6855 17.2998 21.0241 17.7417 20.2961 18.0433C19.5681 18.3448 18.7879 18.5 18 18.5H15C14.4477 18.5 14 18.0523 14 17.5C14 16.9477 14.4477 16.5 15 16.5H18C18.5253 16.5 19.0454 16.3965 19.5307 16.1955C20.016 15.9945 20.457 15.6999 20.8284 15.3284C21.1999 14.957 21.4945 14.516 21.6955 14.0307C21.8965 13.5454 22 13.0253 22 12.5C22 11.9747 21.8965 11.4546 21.6955 10.9693C21.4945 10.484 21.1999 10.043 20.8284 9.67157C20.457 9.30014 20.016 9.0055 19.5307 8.80448C19.0454 8.60346 18.5253 8.5 18 8.5H15C14.4477 8.5 14 8.05228 14 7.5ZM7 12.5C7 11.9477 7.44772 11.5 8 11.5H16C16.5523 11.5 17 11.9477 17 12.5C17 13.0523 16.5523 13.5 16 13.5H8C7.44772 13.5 7 13.0523 7 12.5Z" fill="#2F3A4F"/>
</svg>
