<svg width="24" height="25" viewBox="0 0 24 25" fill="none" xmlns="http://www.w3.org/2000/svg">
<path fill-rule="evenodd" clip-rule="evenodd" d="M14.462 2.99324C15.2508 2.6664 16.0963 2.49817 16.9501 2.49817C17.804 2.49817 18.6495 2.6664 19.4383 2.99324C20.2269 3.32003 20.9435 3.79897 21.5471 4.40272C22.1508 5.00627 22.6301 5.72318 22.9569 6.51185C23.2837 7.30066 23.4519 8.14614 23.4519 8.99999C23.4519 9.85384 23.2837 10.6993 22.9569 11.4881C22.6301 12.2769 22.1511 12.9935 21.5472 13.5971C21.5472 13.5972 21.5473 13.597 21.5472 13.5971L12.7072 22.4371C12.3167 22.8276 11.6835 22.8276 11.293 22.4371L2.45301 13.5971C1.23378 12.3779 0.548828 10.7242 0.548828 8.99999C0.548828 7.27574 1.23378 5.62212 2.45301 4.40289C3.67224 3.18366 5.32587 2.4987 7.05012 2.4987C8.77437 2.4987 10.428 3.18366 11.6472 4.40289L12.0001 4.75578L12.3528 4.40305C12.3529 4.403 12.3528 4.40311 12.3528 4.40305C12.9564 3.79923 13.6732 3.32006 14.462 2.99324ZM16.9501 4.49817C16.359 4.49817 15.7737 4.61463 15.2276 4.84091C14.6815 5.06719 14.1853 5.39885 13.7674 5.81694L12.7072 6.8771C12.3167 7.26763 11.6835 7.26763 11.293 6.8771L10.233 5.8171C9.38886 4.97295 8.24394 4.4987 7.05012 4.4987C5.8563 4.4987 4.71138 4.97295 3.86723 5.8171C3.02307 6.66126 2.54883 7.80618 2.54883 8.99999C2.54883 10.1938 3.02307 11.3387 3.86723 12.1829L12.0001 20.3158L20.133 12.1829C20.5511 11.765 20.8829 11.2687 21.1092 10.7226C21.3355 10.1765 21.4519 9.59112 21.4519 8.99999C21.4519 8.40887 21.3355 7.82353 21.1092 7.27743C20.8829 6.73133 20.5513 6.23516 20.1332 5.81727C19.7153 5.39918 19.2188 5.06719 18.6727 4.84091C18.1266 4.61463 17.5412 4.49817 16.9501 4.49817Z" fill="#2F3A4F"/>
</svg>
