<svg width="24" height="25" viewBox="0 0 24 25" fill="none" xmlns="http://www.w3.org/2000/svg">
<path fill-rule="evenodd" clip-rule="evenodd" d="M14.462 2.99324C15.2508 2.6664 16.0963 2.49817 16.9501 2.49817C17.804 2.49817 18.6495 2.6664 19.4383 2.99324C20.2269 3.32003 20.9435 3.79897 21.5471 4.40272C22.1508 5.00627 22.6301 5.72318 22.9569 6.51185C23.2837 7.30066 23.4519 8.14614 23.4519 8.99999C23.4519 9.85384 23.2837 10.6993 22.9569 11.4881C22.6301 12.2769 22.1511 12.9935 21.5472 13.5971L12.7072 22.4371C12.3167 22.8276 11.6835 22.8276 11.293 22.4371L2.45301 13.5971C1.23378 12.3779 0.548828 10.7242 0.548828 8.99999C0.548828 7.27574 1.23378 5.62212 2.45301 4.40289C3.67224 3.18366 5.32587 2.4987 7.05012 2.4987C8.77437 2.4987 10.428 3.18366 11.6472 4.40289L12.0001 4.75578L12.3528 4.40305C12.9564 3.79923 13.6732 3.32006 14.462 2.99324Z" fill="#2F3A4F"/>
</svg>
