<svg width="24" height="25" viewBox="0 0 24 25" fill="none" xmlns="http://www.w3.org/2000/svg">
<path fill-rule="evenodd" clip-rule="evenodd" d="M12 3.5C7.02944 3.5 3 7.52944 3 12.5C3 17.4706 7.02944 21.5 12 21.5C16.9706 21.5 21 17.4706 21 12.5C21 7.52944 16.9706 3.5 12 3.5ZM1 12.5C1 6.42487 5.92487 1.5 12 1.5C18.0751 1.5 23 6.42487 23 12.5C23 18.5751 18.0751 23.5 12 23.5C5.92487 23.5 1 18.5751 1 12.5ZM12.2581 8.52432C11.7926 8.44447 11.3138 8.53195 10.9066 8.77127C10.4994 9.01058 10.1901 9.38629 10.0333 9.83184C9.85006 10.3528 9.27915 10.6266 8.75816 10.4433C8.23717 10.2601 7.96339 9.68915 8.14667 9.16816C8.46014 8.27705 9.07887 7.52563 9.89327 7.047C10.7077 6.56837 11.6652 6.39341 12.5962 6.55311C13.5273 6.7128 14.3718 7.19686 14.9801 7.91953C15.5883 8.64205 15.9213 9.55648 15.92 10.5009C15.9195 12.0313 14.7849 13.0419 13.9747 13.5821C13.5391 13.8725 13.1106 14.086 12.7949 14.2263C12.6356 14.2971 12.5015 14.3508 12.4049 14.3876C12.3565 14.4061 12.3173 14.4203 12.2887 14.4305L12.254 14.4427L12.2429 14.4464L12.239 14.4478L12.2375 14.4483C12.2372 14.4484 12.2362 14.4487 11.92 13.5L12.2362 14.4487C11.7123 14.6233 11.146 14.3402 10.9713 13.8162C10.7967 13.2925 11.0796 12.7263 11.6032 12.5515L11.6187 12.5461C11.6341 12.5406 11.6593 12.5314 11.6929 12.5186C11.7603 12.4929 11.8606 12.4529 11.9826 12.3987C12.2294 12.289 12.5509 12.1275 12.8653 11.9179C13.5549 11.4582 13.92 10.9691 13.92 10.5V10.4985C13.9207 10.0262 13.7542 9.56886 13.4501 9.20753C13.1459 8.84619 12.7236 8.60417 12.2581 8.52432ZM12 15.5C12.5523 15.5 13 15.9477 13 16.5V17C13 17.5523 12.5523 18 12 18C11.4477 18 11 17.5523 11 17V16.5C11 15.9477 11.4477 15.5 12 15.5Z" fill="#2F3A4F"/>
</svg>
