<svg width="24" height="24" viewBox="0 0 24 24" fill="none" xmlns="http://www.w3.org/2000/svg">
<path d="M12 8.00011V13.0001H17V11.0001H14V8.00011H12Z" fill="#2F3A4F"/>
<path d="M21.292 8.49711C21.066 7.96211 20.787 7.44711 20.463 6.96811C20.141 6.49011 19.772 6.04211 19.364 5.63511C18.956 5.22811 18.51 4.86011 18.032 4.53711C17.55 4.21111 17.035 3.93311 16.504 3.70811C15.959 3.47811 15.39 3.30111 14.814 3.18311C13.633 2.94011 12.37 2.93911 11.188 3.18311C10.609 3.30111 10.041 3.47811 9.498 3.70711C8.967 3.93211 8.453 4.21011 7.969 4.53711C7.492 4.85911 7.043 5.22911 6.636 5.63611C6.229 6.04311 5.859 6.49211 5.537 6.96811C5.211 7.45211 4.932 7.96611 4.708 8.49611C4.478 9.04011 4.301 9.60911 4.183 10.1861C4.062 10.7781 4 11.3881 4 12.0001C4 12.0081 4.001 12.0171 4.001 12.0251H2L5 16.0001L8 12.0251H6.001C6.001 12.0171 6 12.0081 6 12.0001C6 11.5231 6.048 11.0481 6.142 10.5881C6.234 10.1391 6.371 9.69811 6.55 9.27511C6.724 8.86311 6.941 8.46211 7.195 8.08711C7.445 7.71611 7.733 7.36811 8.05 7.05011C8.367 6.73211 8.716 6.44511 9.086 6.19511C9.462 5.94111 9.863 5.72411 10.276 5.54911C10.697 5.37011 11.139 5.23311 11.589 5.14111C12.508 4.95211 13.493 4.95311 14.412 5.14111C14.859 5.23311 15.302 5.37011 15.725 5.54911C16.138 5.72311 16.538 5.94111 16.913 6.19311C17.283 6.44411 17.633 6.73211 17.95 7.04911C18.267 7.36511 18.554 7.71411 18.805 8.08611C19.057 8.45811 19.274 8.85811 19.45 9.27511C19.628 9.69211 19.764 10.1331 19.858 10.5861C19.952 11.0491 20 11.5241 20 12.0001C20 12.4761 19.952 12.9511 19.858 13.4101C19.764 13.8651 19.628 14.3061 19.45 14.7241C19.274 15.1401 19.057 15.5391 18.804 15.9131C18.554 16.2841 18.267 16.6331 17.95 16.9491C17.633 17.2661 17.283 17.5541 16.914 17.8041C16.538 18.0571 16.139 18.2751 15.725 18.4501C15.302 18.6291 14.86 18.7661 14.412 18.8581C13.494 19.0461 12.51 19.0471 11.589 18.8581C11.14 18.7661 10.699 18.6291 10.276 18.4501C9.864 18.2761 9.463 18.0591 9.088 17.8051C8.717 17.5551 8.369 17.2671 8.051 16.9501L6.637 18.3641C7.044 18.7721 7.492 19.1411 7.969 19.4631C8.452 19.7891 8.967 20.0681 9.497 20.2921C10.041 20.5221 10.61 20.6991 11.187 20.8171C11.778 20.9381 12.388 21.0001 13 21.0001C13.612 21.0001 14.223 20.9381 14.813 20.8171C15.39 20.6991 15.959 20.5231 16.503 20.2931C17.035 20.0681 17.55 19.7891 18.034 19.4621C18.51 19.1401 18.957 18.7711 19.364 18.3641C19.771 17.9571 20.14 17.5091 20.462 17.0331C20.787 16.5531 21.066 16.0381 21.292 15.5041C21.52 14.9661 21.697 14.3981 21.817 13.8121C21.938 13.2201 22 12.6101 22 12.0001C22 11.3901 21.938 10.7801 21.817 10.1861C21.697 9.60211 21.52 9.03411 21.292 8.49711Z" fill="#2F3A4F"/>
</svg>
