<svg width="24" height="25" viewBox="0 0 24 25" fill="none" xmlns="http://www.w3.org/2000/svg">
<path d="M21.292 9.28099C21.066 8.74599 20.787 8.23099 20.463 7.75199C20.141 7.27399 19.772 6.82599 19.364 6.41899C18.956 6.01199 18.51 5.64399 18.032 5.32099C17.55 4.99499 17.035 4.71699 16.504 4.49199C15.959 4.26199 15.39 4.08499 14.814 3.96699C13.633 3.72399 12.37 3.72299 11.188 3.96699C10.609 4.08499 10.041 4.26199 9.498 4.49099C8.967 4.71599 8.453 4.99399 7.969 5.32099C7.492 5.64299 7.043 6.01299 6.636 6.41999C6.229 6.82699 5.859 7.27599 5.537 7.75199C5.211 8.23599 4.932 8.74999 4.708 9.27999C4.478 9.82399 4.301 10.393 4.183 10.97C4.062 11.562 4 12.172 4 12.784C4 12.788 4.00025 12.7922 4.0005 12.7965C4.00075 12.8007 4.001 12.805 4.001 12.809H2L4.52109 16.1494C4.76114 16.4675 5.23886 16.4675 5.47891 16.1494L8 12.809H6.001C6.001 12.805 6.00075 12.8008 6.0005 12.7965C6.00025 12.7923 6 12.788 6 12.784C6 12.307 6.048 11.832 6.142 11.372C6.234 10.923 6.371 10.482 6.55 10.059C6.724 9.64699 6.941 9.24599 7.195 8.87099C7.445 8.49999 7.733 8.15199 8.05 7.83399C8.367 7.51599 8.716 7.22899 9.086 6.97899C9.462 6.72499 9.863 6.50799 10.276 6.33299C10.697 6.15399 11.139 6.01699 11.589 5.92499C12.508 5.73599 13.493 5.73699 14.412 5.92499C14.859 6.01699 15.302 6.15399 15.725 6.33299C16.138 6.50699 16.538 6.72499 16.913 6.97699C17.283 7.22799 17.633 7.51599 17.95 7.83299C18.267 8.14899 18.554 8.49799 18.805 8.86999C19.057 9.24199 19.274 9.64199 19.45 10.059C19.628 10.476 19.764 10.917 19.858 11.37C19.952 11.833 20 12.308 20 12.784C20 13.26 19.952 13.735 19.858 14.194C19.764 14.649 19.628 15.09 19.45 15.508C19.274 15.924 19.057 16.323 18.804 16.697C18.554 17.068 18.267 17.417 17.95 17.733C17.633 18.05 17.283 18.338 16.914 18.588C16.538 18.841 16.139 19.059 15.725 19.234C15.302 19.413 14.86 19.55 14.412 19.642C13.494 19.83 12.51 19.831 11.589 19.642C11.14 19.55 10.699 19.413 10.276 19.234C9.864 19.06 9.463 18.843 9.088 18.589C8.99201 18.5243 8.89757 18.4571 8.80478 18.3875C8.3635 18.0564 7.73421 18.0508 7.34412 18.4409C6.95394 18.8311 6.94968 19.4693 7.38055 19.8141C7.57091 19.9664 7.76737 20.1109 7.969 20.247C8.452 20.573 8.967 20.852 9.497 21.076C10.041 21.306 10.61 21.483 11.187 21.601C11.778 21.722 12.388 21.784 13 21.784C13.612 21.784 14.223 21.722 14.813 21.601C15.39 21.483 15.959 21.307 16.503 21.077C17.035 20.852 17.55 20.573 18.034 20.246C18.51 19.924 18.957 19.555 19.364 19.148C19.771 18.741 20.14 18.293 20.462 17.817C20.787 17.337 21.066 16.822 21.292 16.288C21.52 15.75 21.697 15.182 21.817 14.596C21.938 14.004 22 13.394 22 12.784C22 12.174 21.938 11.564 21.817 10.97C21.697 10.386 21.52 9.81799 21.292 9.28099Z" fill="#2F3A4F"/>
<path d="M12.8089 8.07444C12.2566 8.07444 11.8089 8.52216 11.8089 9.07444V14.0744H16.8089C17.3612 14.0744 17.8089 13.6267 17.8089 13.0744C17.8089 12.5222 17.3612 12.0744 16.8089 12.0744H13.8089V9.07444C13.8089 8.52216 13.3612 8.07444 12.8089 8.07444Z" fill="#2F3A4F"/>
</svg>
