<svg width="24" height="24" viewBox="0 0 24 24" fill="none" xmlns="http://www.w3.org/2000/svg">
<path d="M16.543 8.02798C16.52 9.53098 16.02 11.566 13.676 12.355C14.41 10.609 14.522 8.93798 14.002 7.37598C13.307 5.27898 10.988 3.64098 9.445 2.74898C8.918 2.44298 8.242 2.82298 8.252 3.43198C8.272 4.54398 7.934 6.16898 6.293 7.80998C4.107 9.99398 3 12.251 3 14.517C3 17.362 5 21 9 21C4.959 16.959 8 13.517 8 13.517C8.846 19.431 12.988 21 15 21C16.711 21 20 19.75 20 14.552C20 11.419 18.668 9.04098 17.615 7.65298C17.268 7.19498 16.551 7.45498 16.543 8.02798Z" fill="#2F3A4F"/>
</svg>
