<svg width="26" height="25" viewBox="0 0 26 25" fill="none" xmlns="http://www.w3.org/2000/svg">
<path fill-rule="evenodd" clip-rule="evenodd" d="M20.8142 9.79777C20.8142 5.47123 17.2853 1.8994 12.999 1.93972C12.7159 1.94318 12.4284 1.95951 12.1391 1.99477C12.1335 1.99437 12.1192 1.9935 12.1029 1.99603C8.57985 2.40485 5.7803 5.27609 5.29368 8.81037C4.90472 11.6576 6.06857 14.2392 8.00623 15.9011C8.7694 16.5584 9.28649 17.4597 9.47133 18.455V21.6808C9.47133 22.7963 10.3603 23.7041 11.4684 23.7344C11.7889 24.2522 12.3501 24.6 12.9999 24.6C13.6497 24.6 14.2109 24.2522 14.5313 23.7344C15.6446 23.7044 16.5434 22.8031 16.5635 21.683L16.609 19.1499V19.1481C16.609 17.9144 17.2455 16.661 18.2917 15.6811L18.2944 15.6784C19.7286 14.2296 20.8142 12.1686 20.8142 9.79777ZM16.8765 14.3644C15.7791 15.4169 15.0877 16.8354 14.8664 18.3467H11.2918C11.0874 16.876 10.4495 15.4524 9.2601 14.4242C7.76862 13.1467 6.88207 11.2247 7.17869 9.05461C7.54726 6.37382 9.70337 4.21997 12.3407 3.92513L12.3435 3.92474C12.5614 3.89409 12.7808 3.87592 13.0007 3.87033L13.0232 3.86975L13.0243 3.8692C16.2686 3.83625 18.8999 6.52061 18.8999 9.79777C18.8999 11.5773 18.0829 13.148 16.9463 14.294L16.8765 14.3644ZM14.6142 20.2764V21.8062H11.3856V20.2764H14.6142Z" fill="#2F3A4F"/>
<path fill-rule="evenodd" clip-rule="evenodd" d="M5.80422 2.04328C5.43026 1.66576 4.82025 1.66547 4.44592 2.04264C4.07596 2.41541 4.07582 3.01678 4.44561 3.38973L5.03504 3.9842C5.40916 4.36153 6.01917 4.36146 6.39321 3.98404C6.76252 3.61139 6.76259 3.01077 6.39337 2.63804L5.80422 2.04328Z" fill="#2F3A4F"/>
<path fill-rule="evenodd" clip-rule="evenodd" d="M21.5544 2.04365C21.1804 1.66597 20.5702 1.66578 20.1959 2.04325L19.6065 2.63771C19.2368 3.01053 19.2368 3.61165 19.6065 3.98443C19.9807 4.36166 20.5906 4.36162 20.9646 3.98435L21.554 3.38988C21.9235 3.01725 21.9237 2.4165 21.5544 2.04365Z" fill="#2F3A4F"/>
<path fill-rule="evenodd" clip-rule="evenodd" d="M1.86479 9.69777C1.3319 9.69777 0.899902 10.1298 0.899902 10.6627C0.899902 11.1956 1.3319 11.6276 1.86479 11.6276H2.70644C3.23934 11.6276 3.67133 11.1956 3.67133 10.6627C3.67133 10.1298 3.23934 9.69777 2.70644 9.69777H1.86479Z" fill="#2F3A4F"/>
<path fill-rule="evenodd" clip-rule="evenodd" d="M23.2934 9.69777C22.7605 9.69777 22.3285 10.1298 22.3285 10.6627C22.3285 11.1956 22.7605 11.6276 23.2934 11.6276H24.135C24.6679 11.6276 25.0999 11.1956 25.0999 10.6627C25.0999 10.1298 24.6679 9.69777 24.135 9.69777H23.2934Z" fill="#2F3A4F"/>
<path fill-rule="evenodd" clip-rule="evenodd" d="M6.39309 17.3416C6.01917 16.964 5.40911 16.9638 5.03497 17.3412L4.44597 17.9352C4.07641 18.308 4.07634 18.9089 4.44581 19.2817C4.82007 19.6593 5.43051 19.6592 5.8046 19.2814L6.39317 18.6869C6.76206 18.3143 6.76203 17.7141 6.39309 17.3416Z" fill="#2F3A4F"/>
<path fill-rule="evenodd" clip-rule="evenodd" d="M20.9648 17.3411C20.5906 16.9638 19.9806 16.9639 19.6066 17.3413C19.2373 17.7139 19.2372 18.3146 19.6064 18.6873L20.1952 19.2816C20.5693 19.6593 21.1797 19.6594 21.5539 19.2818C21.9234 18.9089 21.9234 18.3079 21.5538 17.9352L20.9648 17.3411Z" fill="#2F3A4F"/>
</svg>
