<svg width="24" height="25" viewBox="0 0 24 25" fill="none" xmlns="http://www.w3.org/2000/svg">
<path d="M12 5.25C11.738 5.25 11.5377 5.394 11.2911 5.628L7.81849 8.88C7.61815 9.066 7.5 9.336 7.5 9.624C7.5 10.212 7.92123 10.626 8.35274 10.626C8.57363 10.626 8.78425 10.518 8.98459 10.338L12 7.542L15.0205 10.338C15.2158 10.518 15.4315 10.626 15.6473 10.626C16.0788 10.626 16.5 10.212 16.5 9.624C16.5 9.336 16.3818 9.066 16.1866 8.88L12.7089 5.628C12.4623 5.394 12.262 5.25 12 5.25Z" fill="#2F3A4F"/>
</svg>
