<svg width="24" height="25" viewBox="0 0 24 25" fill="none" xmlns="http://www.w3.org/2000/svg">
<path d="M12 5.25C11.738 5.25 11.5377 5.394 11.2911 5.622L7.81336 8.88C7.61815 9.066 7.5 9.336 7.5 9.618C7.5 10.206 7.92123 10.62 8.35274 10.62C8.56849 10.62 8.78425 10.518 8.97945 10.332L12 7.536L15.0154 10.332C15.2158 10.518 15.4264 10.62 15.6473 10.62C16.0788 10.62 16.5 10.206 16.5 9.618C16.5 9.336 16.3818 9.066 16.1815 8.88L12.7089 5.622C12.4623 5.388 12.262 5.25 12 5.25ZM12 19.75C12.262 19.75 12.4623 19.606 12.7089 19.372L16.1815 16.12C16.3818 15.934 16.5 15.664 16.5 15.376C16.5 14.788 16.0788 14.374 15.6473 14.374C15.4264 14.374 15.2158 14.482 15.0154 14.662L12 17.458L8.97945 14.662C8.78425 14.482 8.56849 14.374 8.35274 14.374C7.92123 14.374 7.5 14.788 7.5 15.376C7.5 15.664 7.61815 15.934 7.81336 16.12L11.2911 19.372C11.5377 19.606 11.738 19.75 12 19.75Z" fill="#2F3A4F"/>
</svg>
