<svg width="24" height="25" viewBox="0 0 24 25" fill="none" xmlns="http://www.w3.org/2000/svg">
<path d="M12 19.75C12.262 19.75 12.4623 19.606 12.7089 19.372L16.1815 16.12C16.3818 15.934 16.5 15.664 16.5 15.376C16.5 14.788 16.0788 14.374 15.6473 14.374C15.4264 14.374 15.2158 14.482 15.0154 14.662L12 17.458L8.97945 14.662C8.78425 14.482 8.56849 14.374 8.35274 14.374C7.92123 14.374 7.5 14.788 7.5 15.376C7.5 15.664 7.61815 15.934 7.81336 16.12L11.2911 19.372C11.5377 19.606 11.738 19.75 12 19.75Z" fill="#2F3A4F"/>
</svg>
