<svg width="24" height="24" viewBox="0 0 24 24" fill="none" xmlns="http://www.w3.org/2000/svg">
<path d="M0.609375 7.20874C0.609375 3.59732 3.53701 0.669678 7.14844 0.669678H16.8516C20.463 0.669678 23.3906 3.59732 23.3906 7.20874V16.7913C23.3906 20.4028 20.463 23.3304 16.8516 23.3304H7.14844C3.53701 23.3304 0.609375 20.4028 0.609375 16.7913V7.20874ZM7.14844 2.77905C4.70199 2.77905 2.71875 4.76229 2.71875 7.20874V16.7913C2.71875 19.2378 4.70199 21.221 7.14844 21.221H16.8516C19.298 21.221 21.2813 19.2378 21.2813 16.7913V7.20874C21.2813 4.76229 19.298 2.77905 16.8516 2.77905H7.14844Z" fill="#2F3A4F"/>
<path d="M6.03348 12.0904C6.03348 8.77858 8.71827 6.09378 12.0301 6.09378C15.342 6.09378 18.0268 8.77858 18.0268 12.0904C18.0268 15.4023 15.342 18.0871 12.0301 18.0871C8.71827 18.0871 6.03348 15.4023 6.03348 12.0904ZM12.0301 8.20316C9.88325 8.20316 8.14286 9.94355 8.14286 12.0904C8.14286 14.2373 9.88325 15.9777 12.0301 15.9777C14.177 15.9777 15.9174 14.2373 15.9174 12.0904C15.9174 9.94355 14.177 8.20316 12.0301 8.20316Z" fill="#2F3A4F"/>
<path d="M18.0871 7.38954C18.8859 7.38954 19.5335 6.74196 19.5335 5.94311C19.5335 5.14427 18.8859 4.49669 18.0871 4.49669C17.2882 4.49669 16.6406 5.14427 16.6406 5.94311C16.6406 6.74196 17.2882 7.38954 18.0871 7.38954Z" fill="#2F3A4F"/>
</svg>
