<svg width="24" height="25" viewBox="0 0 24 25" fill="none" xmlns="http://www.w3.org/2000/svg">
<path fill-rule="evenodd" clip-rule="evenodd" d="M7.0001 3.40004C4.73573 3.40004 2.9001 5.23567 2.9001 7.50004V17.5C2.9001 19.7644 4.73573 21.6 7.0001 21.6H17.0001C19.2645 21.6 21.1001 19.7644 21.1001 17.5V7.50004C21.1001 5.23567 19.2645 3.40004 17.0001 3.40004H7.0001ZM1.1001 7.50004C1.1001 4.24156 3.74162 1.60004 7.0001 1.60004H17.0001C20.2586 1.60004 22.9001 4.24156 22.9001 7.50004V17.5C22.9001 20.7585 20.2586 23.4 17.0001 23.4H7.0001C3.74162 23.4 1.1001 20.7585 1.1001 17.5V7.50004ZM16.6001 7.00004C16.6001 6.50298 17.003 6.10004 17.5001 6.10004H17.5101C18.0072 6.10004 18.4101 6.50298 18.4101 7.00004C18.4101 7.49709 18.0072 7.90004 17.5101 7.90004H17.5001C17.003 7.90004 16.6001 7.49709 16.6001 7.00004ZM12.4981 9.3903C11.8531 9.29466 11.1944 9.40483 10.6156 9.70514C10.0368 10.0054 9.56749 10.4806 9.27434 11.063C8.98118 11.6454 8.87914 12.3055 8.98273 12.9492C9.08632 13.593 9.39027 14.1877 9.85133 14.6488C10.3124 15.1098 10.9071 15.4138 11.5509 15.5174C12.1946 15.621 12.8547 15.5189 13.4371 15.2258C14.0195 14.9326 14.4947 14.4633 14.795 13.8845C15.0953 13.3057 15.2055 12.647 15.1098 12.002C15.0123 11.3441 14.7057 10.735 14.2354 10.2647C13.7651 9.79443 13.156 9.48786 12.4981 9.3903ZM9.78657 8.10742C10.7014 7.63273 11.7426 7.45859 12.7621 7.60977C13.802 7.76398 14.7648 8.24856 15.5082 8.99195C16.2516 9.73533 16.7362 10.6981 16.8904 11.738C17.0415 12.7575 16.8674 13.7987 16.3927 14.7135C15.918 15.6284 15.167 16.3702 14.2464 16.8336C13.3257 17.297 12.2825 17.4582 11.2649 17.2945C10.2473 17.1308 9.30732 16.6503 8.57854 15.9216C7.84976 15.1928 7.36934 14.2528 7.2056 13.2352C7.04186 12.2176 7.20314 11.1744 7.66651 10.2537C8.12988 9.33317 8.87174 8.5821 9.78657 8.10742Z" fill="#2F3A4F"/>
</svg>
