<svg width="24" height="24" viewBox="0 0 24 24" fill="none" xmlns="http://www.w3.org/2000/svg">
<path d="M5 9.20508C5 7.09841 6.70779 5.39062 8.81445 5.39062H14.4746C16.5813 5.39062 18.2891 7.09841 18.2891 9.20508V14.7949C18.2891 16.9016 16.5813 18.6094 14.4746 18.6094H8.81445C6.70779 18.6094 5 16.9016 5 14.7949V9.20508ZM8.81445 6.62109C7.38736 6.62109 6.23047 7.77798 6.23047 9.20508V14.7949C6.23047 16.222 7.38736 17.3789 8.81445 17.3789H14.4746C15.9017 17.3789 17.0586 16.222 17.0586 14.7949V9.20508C17.0586 7.77798 15.9017 6.62109 14.4746 6.62109H8.81445Z" fill="#2F3A4F"/>
<path d="M8.16406 12.0527C8.16406 10.1208 9.73019 8.55469 11.6621 8.55469C13.594 8.55469 15.1602 10.1208 15.1602 12.0527C15.1602 13.9847 13.594 15.5508 11.6621 15.5508C9.73019 15.5508 8.16406 13.9847 8.16406 12.0527ZM11.6621 9.78516C10.4098 9.78516 9.39453 10.8004 9.39453 12.0527C9.39453 13.3051 10.4098 14.3203 11.6621 14.3203C12.9145 14.3203 13.9297 13.3051 13.9297 12.0527C13.9297 10.8004 12.9145 9.78516 11.6621 9.78516Z" fill="#2F3A4F"/>
<path d="M15.1953 9.31055C15.6613 9.31055 16.0391 8.93279 16.0391 8.4668C16.0391 8.00081 15.6613 7.62305 15.1953 7.62305C14.7293 7.62305 14.3516 8.00081 14.3516 8.4668C14.3516 8.93279 14.7293 9.31055 15.1953 9.31055Z" fill="#2F3A4F"/>
</svg>
