<svg width="24" height="25" viewBox="0 0 24 25" fill="none" xmlns="http://www.w3.org/2000/svg">
<path d="M9.13574 12.5225C9.13574 12.7744 9.23535 12.9912 9.42871 13.1846L13.9287 17.5732C14.0811 17.7256 14.2686 17.8076 14.4912 17.8076C14.9482 17.8076 15.3115 17.4443 15.3115 16.9932C15.3115 16.7705 15.2236 16.5596 15.0596 16.3955L11.0752 12.5283L15.0596 8.65527C15.2178 8.49121 15.3115 8.28613 15.3115 8.05762C15.3115 7.60645 14.9482 7.24316 14.4912 7.24316C14.2686 7.24316 14.0811 7.3252 13.9229 7.47754L9.42871 11.8662C9.22949 12.0713 9.13574 12.2764 9.13574 12.5225Z" fill="#2F3A4F"/>
</svg>
