<svg width="24" height="24" viewBox="0 0 24 24" fill="none" xmlns="http://www.w3.org/2000/svg">
<path d="M10.0862 1.59386C10.2467 1.23273 10.6048 1 11 1C12.0609 1 13.0783 1.42143 13.8284 2.17157C14.5786 2.92172 15 3.93913 15 5V8H19.6549C20.0876 7.996 20.5162 8.08567 20.911 8.26289C21.3078 8.44096 21.6611 8.70317 21.9465 9.03134C22.2318 9.35951 22.4424 9.7458 22.5637 10.1634C22.6849 10.5811 22.7139 11.0201 22.6487 11.4501L21.2687 20.4499C21.1601 21.165 20.7966 21.8175 20.2456 22.2859C19.6958 22.7532 18.9961 23.0067 18.2748 23H4C3.20435 23 2.44129 22.6839 1.87868 22.1213C1.31607 21.5587 1 20.7957 1 20V13C1 12.2044 1.31607 11.4413 1.87868 10.8787C2.44129 10.3161 3.20435 10 4 10H6.35013L10.0862 1.59386ZM6 21V12H4C3.73478 12 3.48043 12.1054 3.29289 12.2929C3.10536 12.4804 3 12.7348 3 13V20C3 20.2652 3.10536 20.5196 3.29289 20.7071C3.48043 20.8946 3.73478 21 4 21H6Z" fill="#2F3A4F"/>
</svg>
