<svg width="24" height="24" viewBox="0 0 24 24" fill="none" xmlns="http://www.w3.org/2000/svg">
<path d="M3.90846 16.1523C3.90846 15.1075 4.32349 14.1055 5.06225 13.3668L7.13838 11.2907C7.51103 10.918 7.51103 10.3138 7.13838 9.94117C6.76573 9.56852 6.16155 9.56852 5.7889 9.94117L3.71276 12.0173C2.6161 13.114 2 14.6014 2 16.1523C2 17.7032 2.6161 19.1906 3.71276 20.2872C4.80942 21.3839 6.29682 22 7.84773 22C8.61566 22 9.37608 21.8487 10.0856 21.5549C10.795 21.261 11.4397 20.8303 11.9827 20.2872L14.0588 18.2111C14.4315 17.8385 14.4315 17.2343 14.0588 16.8616C13.6862 16.489 13.082 16.489 12.7093 16.8616L10.6332 18.9378C10.2674 19.3035 9.83315 19.5937 9.35522 19.7917C8.87729 19.9896 8.36504 20.0915 7.84773 20.0915C6.80297 20.0915 5.801 19.6765 5.06225 18.9378C4.32349 18.199 3.90846 17.197 3.90846 16.1523Z" fill="#2F3A4F"/>
<path d="M9.94117 5.7889C9.56852 6.16155 9.56851 6.76573 9.94117 7.13838C10.3138 7.51103 10.918 7.51103 11.2907 7.13838L13.3668 5.06225C13.7326 4.69645 14.1668 4.40629 14.6448 4.20832C15.1227 4.01036 15.635 3.90846 16.1523 3.90846C16.6696 3.90846 17.1818 4.01036 17.6598 4.20832C18.1377 4.40629 18.572 4.69645 18.9378 5.06225C19.3035 5.42804 19.5937 5.8623 19.7917 6.34024C19.9896 6.81817 20.0915 7.33042 20.0915 7.84773C20.0915 8.36504 19.9896 8.87729 19.7917 9.35522C19.5937 9.83315 19.3035 10.2674 18.9378 10.6332L16.8616 12.7093C16.489 13.082 16.489 13.6862 16.8616 14.0588C17.2343 14.4315 17.8385 14.4315 18.2111 14.0588L20.2872 11.9827C20.8303 11.4397 21.261 10.795 21.5549 10.0856C21.8487 9.37608 22 8.61566 22 7.84773C22 7.0798 21.8487 6.31938 21.5549 5.6099C21.261 4.90042 20.8303 4.25577 20.2872 3.71276C19.7442 3.16975 19.0996 2.73901 18.3901 2.44513C17.6806 2.15126 16.9202 2 16.1523 2C15.3843 2 14.6239 2.15126 13.9144 2.44513C13.205 2.73901 12.5603 3.16975 12.0173 3.71276L9.94117 5.7889Z" fill="#2F3A4F"/>
<path d="M8.55708 14.0934C8.18443 14.4661 8.18443 15.0703 8.55708 15.4429C8.92973 15.8156 9.53391 15.8156 9.90656 15.4429L15.4429 9.90656C15.8156 9.53391 15.8156 8.92973 15.4429 8.55708C15.0703 8.18442 14.4661 8.18442 14.0934 8.55708L8.55708 14.0934Z" fill="#2F3A4F"/>
</svg>
