<svg width="23" height="24" viewBox="0 0 23 24" fill="none" xmlns="http://www.w3.org/2000/svg">
<path fill-rule="evenodd" clip-rule="evenodd" d="M14.1419 6.48842C13.7895 6.48842 13.4406 6.55782 13.115 6.69267C12.7895 6.82752 12.4937 7.02517 12.2445 7.27435L10.8303 8.68856C10.5764 8.9424 10.1649 8.9424 9.91104 8.68856C9.6572 8.43472 9.6572 8.02316 9.91104 7.76932L11.3253 6.35511C11.6951 5.98522 12.1343 5.69181 12.6175 5.49163C13.1008 5.29145 13.6188 5.18842 14.1419 5.18842C14.665 5.18842 15.183 5.29145 15.6663 5.49163C16.1495 5.69181 16.5886 5.98522 16.9585 6.35511C17.3284 6.72499 17.6218 7.16411 17.822 7.64739C18.0222 8.13067 18.1252 8.64865 18.1252 9.17175C18.1252 9.69485 18.0222 10.2128 17.822 10.6961C17.6218 11.1794 17.3284 11.6185 16.9585 11.9884L15.5443 13.4026C15.2905 13.6564 14.8789 13.6564 14.6251 13.4026C14.3712 13.1488 14.3712 12.7372 14.6251 12.4834L16.0393 11.0692C16.2885 10.82 16.4861 10.5242 16.621 10.1986C16.7558 9.87306 16.8252 9.52413 16.8252 9.17175C16.8252 8.81937 16.7558 8.47044 16.621 8.14488C16.4861 7.81932 16.2885 7.52352 16.0393 7.27435C15.7901 7.02517 15.4943 6.82752 15.1688 6.69267C14.8432 6.55782 14.4943 6.48842 14.1419 6.48842ZM13.6587 9.65494C13.9125 9.90878 13.9125 10.3203 13.6587 10.5742L9.88747 14.3454C9.63363 14.5993 9.22207 14.5993 8.96823 14.3454C8.71439 14.0916 8.71439 13.68 8.96823 13.4262L12.7395 9.65494C12.9933 9.4011 13.4049 9.4011 13.6587 9.65494ZM8.00185 10.5977C8.25569 10.8516 8.25569 11.2631 8.00185 11.517L6.58764 12.9312C6.08442 13.4344 5.80171 14.1169 5.80171 14.8286C5.80171 15.5403 6.08442 16.2228 6.58764 16.726C7.09086 17.2292 7.77338 17.5119 8.48504 17.5119C8.83742 17.5119 9.18635 17.4425 9.51191 17.3077C9.83747 17.1728 10.1333 16.9752 10.3824 16.726L11.7967 15.3118C12.0505 15.058 12.4621 15.058 12.7159 15.3118C12.9697 15.5656 12.9697 15.9772 12.7159 16.231L11.3017 17.6452C10.9318 18.0151 10.4927 18.3085 10.0094 18.5087C9.52612 18.7089 9.00814 18.8119 8.48504 18.8119C7.4286 18.8119 6.41542 18.3923 5.6684 17.6452C4.92138 16.8982 4.50171 15.885 4.50171 14.8286C4.50171 13.7722 4.92138 12.759 5.6684 12.012L7.08261 10.5977C7.33645 10.3439 7.74801 10.3439 8.00185 10.5977Z" fill="#2F3A4F"/>
</svg>
