<svg width="24" height="25" viewBox="0 0 24 25" fill="none" xmlns="http://www.w3.org/2000/svg">
<path fill-rule="evenodd" clip-rule="evenodd" d="M12.7752 3.25071C13.9069 2.15776 15.4225 1.55299 16.9956 1.56666C18.5688 1.58033 20.0737 2.21135 21.1862 3.3238C22.2986 4.43624 22.9296 5.94112 22.9433 7.5143C22.957 9.08748 22.3522 10.6031 21.2592 11.7347L21.2471 11.7471L18.2472 14.747C18.2471 14.747 18.2472 14.7469 18.2472 14.747C17.639 15.3554 16.9069 15.826 16.1008 16.1267C15.2947 16.4274 14.4333 16.5512 13.5752 16.4898C12.717 16.4283 11.8821 16.183 11.1271 15.7705C10.372 15.358 9.71453 14.7879 9.19919 14.099C8.86838 13.6567 8.95873 13.03 9.40098 12.6992C9.84323 12.3684 10.4699 12.4588 10.8007 12.901C11.1443 13.3603 11.5826 13.7404 12.086 14.0154C12.5893 14.2904 13.1459 14.4539 13.718 14.4949C14.2902 14.5359 14.8644 14.4533 15.4018 14.2528C15.9392 14.0524 16.4272 13.7387 16.8327 13.333L19.8264 10.3393C20.5514 9.58557 20.9525 8.57771 20.9434 7.53168C20.9343 6.48289 20.5136 5.47964 19.7719 4.73801C19.0303 3.99638 18.0271 3.5757 16.9783 3.56659C15.9318 3.55749 14.9235 3.9589 14.1696 4.68455L12.455 6.38916C12.0633 6.77855 11.4302 6.7767 11.0408 6.38504C10.6514 5.99338 10.6533 5.36021 11.0449 4.97083L12.7649 3.26083L12.7752 3.25071ZM7.89911 8.87328C8.70522 8.57258 9.56657 8.44876 10.4247 8.51022C11.2829 8.57168 12.1178 8.81698 12.8729 9.22949C13.6279 9.642 14.2854 10.2121 14.8007 10.901C15.1315 11.3433 15.0412 11.97 14.5989 12.3008C14.1567 12.6316 13.53 12.5412 13.1992 12.099C12.8556 11.6397 12.4173 11.2596 11.9139 10.9846C11.4106 10.7096 10.854 10.5461 10.2819 10.5051C9.70976 10.4641 9.13552 10.5467 8.59811 10.7471C8.06071 10.9476 7.5727 11.2613 7.16719 11.667L4.17355 14.6606C3.44851 15.4144 3.04746 16.4223 3.05655 17.4683C3.06566 18.5171 3.48634 19.5203 4.22797 20.262C4.9696 21.0036 5.97285 21.4243 7.02164 21.4334C8.0677 21.4425 9.07557 21.0414 9.82935 20.3164L11.5328 18.6129C11.9234 18.2224 12.5565 18.2224 12.9471 18.6129C13.3376 19.0034 13.3376 19.6366 12.9471 20.0271L11.2371 21.7371L11.2247 21.7493C10.0931 22.8422 8.57744 23.447 7.00426 23.4333C5.43108 23.4197 3.9262 22.7886 2.81376 21.6762C1.70131 20.5637 1.07029 19.0589 1.05662 17.4857C1.04295 15.9125 1.64772 14.3969 2.74067 13.2653L2.75285 13.2529L5.75272 10.253C5.75276 10.253 5.75268 10.2531 5.75272 10.253C6.36096 9.64459 7.09305 9.17396 7.89911 8.87328Z" fill="#2F3A4F"/>
</svg>
