<svg width="24" height="24" viewBox="0 0 24 24" fill="none" xmlns="http://www.w3.org/2000/svg">
<path d="M6.36965 3.58694C6.36965 4.93188 5.35727 6.00806 3.73173 6.00806H3.70194C2.13682 6.00806 1.125 4.93188 1.125 3.58694C1.125 2.21354 2.16764 1.16748 3.76246 1.16748C5.35727 1.16748 6.3394 2.21354 6.36965 3.58694ZM6.06231 7.91989V21.9271H1.40038V7.91989H6.06231ZM22.875 21.9271L22.8752 13.8958C22.8752 9.5934 20.5753 7.59099 17.5075 7.59099C15.0323 7.59099 13.9242 8.95054 13.3054 9.90428V7.92028H8.64291C8.70436 9.23464 8.64291 21.9275 8.64291 21.9275H13.3054V14.1047C13.3054 13.6861 13.3357 13.2685 13.4589 12.9687C13.7959 12.1324 14.563 11.2665 15.851 11.2665C17.5386 11.2665 18.2132 12.5509 18.2132 14.4332V21.9271H22.875Z" fill="#2F3A4F"/>
</svg>
