<svg width="24" height="24" viewBox="0 0 24 24" fill="none" xmlns="http://www.w3.org/2000/svg">
<path d="M8.65948 7.41135C8.65948 8.1959 8.06892 8.82367 7.12069 8.82367H7.10331C6.19033 8.82367 5.6001 8.1959 5.6001 7.41135C5.6001 6.6102 6.2083 6 7.13861 6C8.06892 6 8.64183 6.6102 8.65948 7.41135ZM8.4802 9.9389V18.1098H5.76073V9.9389H8.4802ZM18.2876 18.1098L18.2877 13.4249C18.2877 10.9151 16.9461 9.74705 15.1566 9.74705C13.7127 9.74705 13.0663 10.5401 12.7053 11.0965V9.93913H9.98555C10.0214 10.7058 9.98555 18.11 9.98555 18.11H12.7053V13.5467C12.7053 13.3025 12.723 13.0589 12.7949 12.8841C12.9914 12.3962 13.4389 11.8911 14.1902 11.8911C15.1747 11.8911 15.5682 12.6404 15.5682 13.7384V18.1098H18.2876Z" fill="#2F3A4F"/>
</svg>
