<svg width="24" height="24" viewBox="0 0 24 24" fill="none" xmlns="http://www.w3.org/2000/svg">
<path d="M20 9H4V10.5H20V9Z" fill="#2F3A4F"/>
<path d="M20 5H4V6.5H20V5Z" fill="#2F3A4F"/>
<path d="M8.59953 13.0801L11.8902 16.4543C12.04 16.6046 12.1236 16.7952 12.1236 17.0167C12.1236 17.4689 11.7626 17.8319 11.3128 17.8319C11.0913 17.8319 10.8826 17.7438 10.7231 17.5843L10.721 17.5822L7.96405 14.7417L5.19827 17.587C5.04286 17.7368 4.84074 17.8319 4.61113 17.8319C4.16136 17.8319 3.80029 17.4689 3.80029 17.0167C3.80029 16.7942 3.88454 16.6048 4.03201 16.4517L4.03298 16.4506L7.32817 13.0763C7.51142 12.8983 7.71311 12.8 7.95976 12.8C8.20941 12.8 8.42101 12.9016 8.59777 13.0784L8.59953 13.0801Z" fill="#2F3A4F"/>
</svg>
