<svg width="24" height="24" viewBox="0 0 24 24" fill="none" xmlns="http://www.w3.org/2000/svg">
<path d="M4.00009 17H20.0001V18.5H4.00009V17ZM12.5001 13H20.0001V14.5H12.5001V13ZM12.5001 9H20.0001V10.5H12.5001V9ZM4.00009 5H20.0001V6.5H4.00009V5Z" fill="#2F3A4F"/>
<path d="M7.01689 13.8319C7.26654 13.8319 7.47814 13.7303 7.6549 13.5536L10.9473 10.1776C11.0972 10.0274 11.1808 9.83672 11.1808 9.61528C11.1808 9.16299 10.8197 8.80005 10.3699 8.80005C10.1484 8.80005 9.93973 8.88809 9.78024 9.04758L7.02118 11.8902L4.25999 9.04954L4.25533 9.04504C4.09991 8.89518 3.89787 8.80005 3.66826 8.80005C3.21849 8.80005 2.85742 9.16299 2.85742 9.61528C2.85742 9.83774 2.94166 10.0271 3.08914 10.1803L6.38157 13.5519L6.38535 13.5556C6.5686 13.7336 6.77024 13.8319 7.01689 13.8319Z" fill="#2F3A4F"/>
</svg>
