<svg width="24" height="24" viewBox="0 0 24 24" fill="none" xmlns="http://www.w3.org/2000/svg">
<path d="M10.9287 10.3929C10.9287 9.74202 11.4564 9.21436 12.1073 9.21436C12.7582 9.21436 13.2859 9.74202 13.2859 10.3929C13.2859 11.0438 12.7582 11.5715 12.1073 11.5715C11.4564 11.5715 10.9287 11.0438 10.9287 10.3929Z" fill="#2F3A4F"/>
<path d="M12.1073 22.9286C12.1073 22.9286 20.7859 17.1429 20.7859 10.3929C20.7859 8.09123 19.8715 5.8838 18.244 4.25625C16.6164 2.6287 14.409 1.71436 12.1073 1.71436C9.80558 1.71436 7.59815 2.6287 5.97061 4.25625C4.34306 5.8838 3.42871 8.09123 3.42871 10.3929C3.42871 17.1429 12.1073 22.9286 12.1073 22.9286ZM12.1073 5.78578C14.6517 5.78578 16.7144 7.84847 16.7144 10.3929C16.7144 12.9374 14.6517 15.0001 12.1073 15.0001C9.56283 15.0001 7.50014 12.9374 7.50014 10.3929C7.50014 7.84847 9.56283 5.78578 12.1073 5.78578Z" fill="#2F3A4F"/>
</svg>
