<svg width="24" height="24" viewBox="0 0 24 24" fill="none" xmlns="http://www.w3.org/2000/svg">
<path d="M11.375 10.875C11.375 10.4953 11.6828 10.1875 12.0625 10.1875C12.4422 10.1875 12.75 10.4953 12.75 10.875C12.75 11.2547 12.4422 11.5625 12.0625 11.5625C11.6828 11.5625 11.375 11.2547 11.375 10.875Z" fill="#2F3A4F"/>
<path d="M12.0625 18.1875C12.0625 18.1875 17.125 14.8125 17.125 10.875C17.125 9.53234 16.5916 8.24467 15.6422 7.29527C14.6928 6.34587 13.4052 5.8125 12.0625 5.8125C10.7198 5.8125 9.43217 6.34587 8.48277 7.29527C7.53337 8.24467 7 9.53234 7 10.875C7 14.8125 12.0625 18.1875 12.0625 18.1875ZM12.0625 8.1875C13.5468 8.1875 14.75 9.39074 14.75 10.875C14.75 12.3593 13.5468 13.5625 12.0625 13.5625C10.5782 13.5625 9.375 12.3593 9.375 10.875C9.375 9.39074 10.5782 8.1875 12.0625 8.1875Z" fill="#2F3A4F"/>
</svg>
