<svg width="24" height="24" viewBox="0 0 24 24" fill="none" xmlns="http://www.w3.org/2000/svg">
<path d="M8 10V7C8 5.346 6.654 4 5 4C3.346 4 2 5.346 2 7H0C0 4.243 2.243 2 5 2C7.757 2 10 4.243 10 7V10H18C19.104 10 20 10.896 20 12V20C20 21.104 19.104 22 18 22H6C4.896 22 4 21.104 4 20V12C4 10.896 4.896 10 6 10H8ZM11.566 14.046C10.841 14.197 10.237 14.779 10.061 15.499C9.831 16.444 10.273 17.301 11 17.723V20H13V17.723C13.596 17.377 14 16.739 14 16C14 14.753 12.861 13.774 11.566 14.046Z" fill="#2F3A4F"/>
</svg>
