<svg width="24" height="25" viewBox="0 0 24 25" fill="none" xmlns="http://www.w3.org/2000/svg">
<path d="M14 3.5C14 2.94772 14.4477 2.5 15 2.5H19C19.7957 2.5 20.5587 2.81607 21.1213 3.37868C21.6839 3.94129 22 4.70435 22 5.5V19.5C22 20.2957 21.6839 21.0587 21.1213 21.6213C20.5587 22.1839 19.7957 22.5 19 22.5H15C14.4477 22.5 14 22.0523 14 21.5C14 20.9477 14.4477 20.5 15 20.5H19C19.2652 20.5 19.5196 20.3946 19.7071 20.2071C19.8946 20.0196 20 19.7652 20 19.5V5.5C20 5.23478 19.8946 4.98043 19.7071 4.79289C19.5196 4.60536 19.2652 4.5 19 4.5H15C14.4477 4.5 14 4.05228 14 3.5ZM9.29289 6.79289C9.68342 6.40237 10.3166 6.40237 10.7071 6.79289L15.7071 11.7929C16.0976 12.1834 16.0976 12.8166 15.7071 13.2071L10.7071 18.2071C10.3166 18.5976 9.68342 18.5976 9.29289 18.2071C8.90237 17.8166 8.90237 17.1834 9.29289 16.7929L12.5858 13.5H3C2.44772 13.5 2 13.0523 2 12.5C2 11.9477 2.44772 11.5 3 11.5H12.5858L9.29289 8.20711C8.90237 7.81658 8.90237 7.18342 9.29289 6.79289Z" fill="#F03D3E"/>
</svg>
