<svg width="24" height="24" viewBox="0 0 24 24" fill="none" xmlns="http://www.w3.org/2000/svg">
<path d="M20.0832 6.15876C20.3152 6.63163 20.4368 7.15097 20.439 7.67768C20.4031 8.31471 20.2407 8.93822 19.9612 9.51179L19.7224 9.87008L19.8162 10.2966C19.883 10.5557 19.9146 10.8225 19.9101 11.09C19.9281 11.8212 19.7072 12.5384 19.2807 13.1327C18.8542 13.7269 18.2456 14.1659 17.547 14.3828L17.1376 14.5023L17.3423 14.6046C17.6086 14.9441 17.7534 15.3632 17.7534 15.7947C17.7534 16.2262 17.6086 16.6452 17.3423 16.9847L16.5489 17.7781C16.5194 17.8077 16.4487 17.8819 16.3534 17.9819C15.9814 18.3726 15.2345 19.1569 15.0987 19.2113V20.9686C15.12 21.3587 15.0615 21.7491 14.9269 22.1159C14.7922 22.4827 14.5842 22.8181 14.3156 23.1018C14.0469 23.3855 13.7232 23.6115 13.3643 23.7659C13.0054 23.9204 12.6188 24 12.2281 24C11.8374 24 11.4508 23.9204 11.0919 23.7659C10.733 23.6115 10.4093 23.3855 10.1407 23.1018C9.87201 22.8181 9.66401 22.4827 9.52936 22.1159C9.39471 21.7491 9.33624 21.3587 9.35751 20.9686V18.5714H8.60681C8.44432 18.596 8.27833 18.5821 8.12222 18.5307C7.96612 18.4794 7.82425 18.3921 7.70805 18.2759C7.59184 18.1597 7.50456 18.0178 7.45323 17.8617C7.40189 17.7056 7.38794 17.5396 7.4125 17.3771C7.38644 17.214 7.39926 17.047 7.44992 16.8898C7.50058 16.7326 7.58766 16.5895 7.70405 16.4723C7.82045 16.3551 7.96287 16.267 8.11975 16.2152C8.27662 16.1634 8.4435 16.1494 8.60681 16.1743H9.00775C8.87293 16.0395 8.70917 15.9326 8.53658 15.82C8.19591 15.5977 7.82085 15.353 7.56605 14.8264L7.37838 14.4426L6.9689 14.3231C6.28297 14.1035 5.68414 13.6724 5.25815 13.0916C4.83215 12.5109 4.60085 11.8102 4.59735 11.09C4.59992 10.8336 4.6343 10.5786 4.69972 10.3307L4.79356 9.9042L4.5547 9.54591C4.19831 8.9875 4.00616 8.3401 4.0002 7.67768C3.99439 7.14482 4.116 6.6183 4.35491 6.14197C4.59381 5.66563 4.9431 5.2533 5.37365 4.93931L5.70635 4.67485V4.26538C5.78066 3.44919 6.15666 2.69004 6.76087 2.13631C7.36508 1.58259 8.15407 1.27408 8.97363 1.27108H9.66462L9.97173 0.963975C10.5685 0.356837 11.3811 0.0103163 12.2324 0C13.0874 0.00817362 13.9051 0.351193 14.5101 0.955444L14.8172 1.26255H15.2267C15.3058 1.2495 15.3864 1.2495 15.4655 1.26255C16.2821 1.26977 17.0669 1.58017 17.6675 2.13349C18.2682 2.68681 18.6417 3.44357 18.7157 4.25684L18.7669 4.68338L19.0996 4.94784C19.5149 5.27186 19.8512 5.6859 20.0832 6.15876ZM18.9285 8.83783C19.1552 8.49274 19.2795 8.09047 19.2868 7.67764C19.2908 7.33617 19.2159 6.99838 19.068 6.69061C18.92 6.38283 18.703 6.11338 18.4338 5.90325L17.8793 5.49377C17.8094 5.43863 17.7525 5.36876 17.7127 5.28914C17.6729 5.20952 17.6511 5.1221 17.6489 5.03311L17.5807 4.34212C17.5279 3.81263 17.2806 3.32153 16.8867 2.96383C16.4927 2.60613 15.9801 2.40724 15.448 2.40564H15.303L14.629 2.45682C14.5462 2.45947 14.4636 2.44577 14.386 2.41649C14.3084 2.38722 14.2374 2.34295 14.1769 2.28621L13.6992 1.80849C13.3003 1.4248 12.7683 1.21048 12.2148 1.21048C11.6614 1.21048 11.1294 1.4248 10.7305 1.80849L10.2272 2.28621C10.1124 2.39611 9.95953 2.45727 9.80064 2.45682L9.10965 2.40564H8.9305C8.40249 2.40762 7.89413 2.60619 7.50458 2.96263C7.11502 3.31907 6.87218 3.80783 6.82341 4.33359L6.75516 5.02458C6.74809 5.10625 6.723 5.18533 6.68169 5.25613C6.64039 5.32693 6.5839 5.3877 6.5163 5.43406L5.9618 5.84353C5.68908 6.05045 5.46948 6.31926 5.32115 6.62779C5.17282 6.93632 5.10001 7.27571 5.10873 7.61793C5.10955 8.04239 5.23406 8.45741 5.46702 8.81223L5.8509 9.38379C5.89697 9.45339 5.927 9.53235 5.9388 9.61497C5.9506 9.6976 5.94389 9.78181 5.91915 9.86152L5.74853 10.5354C5.70775 10.7 5.69051 10.8694 5.69735 11.0388C5.69653 11.5099 5.84692 11.9689 6.1264 12.3482C6.40588 12.7275 6.79971 13.0071 7.24994 13.1459L7.89828 13.3335C7.97854 13.3566 8.05287 13.3968 8.11618 13.4513C8.17949 13.5058 8.23029 13.5733 8.2651 13.6492L8.55515 14.2719C8.72594 14.635 8.99606 14.9422 9.33424 15.1581C9.67242 15.374 10.0648 15.4897 10.466 15.4918C10.7612 15.4972 11.0535 15.4329 11.3191 15.3041L11.9419 15.0141C12.0179 14.9833 12.0987 14.966 12.1807 14.9629C12.2624 14.9684 12.3428 14.9857 12.4196 15.0141L13.0423 15.3041C13.3116 15.422 13.6015 15.4857 13.8954 15.4918C14.0487 15.4923 14.2012 15.4693 14.3475 15.4236L15.0897 14.6729C15.2887 14.4814 15.5367 14.3486 15.8063 14.289V14.2378L16.1134 13.615C16.19 13.4713 16.3179 13.3617 16.4717 13.3079L17.12 13.1203C17.5717 12.9839 17.9671 12.7049 18.2469 12.3251C18.5268 11.9452 18.6762 11.485 18.6726 11.0132C18.6721 10.8347 18.6492 10.657 18.6044 10.4843L18.4338 9.81033C18.4133 9.72871 18.411 9.64356 18.4273 9.56098C18.4435 9.4784 18.4777 9.40042 18.5276 9.33261L18.9285 8.83783ZM8.26537 17.4029C8.26537 17.5161 8.31031 17.6245 8.3903 17.7045C8.47029 17.7845 8.57878 17.8295 8.6919 17.8295H9.26346V16.9764H8.73456C8.67533 16.9717 8.61578 16.9792 8.55957 16.9985C8.50335 17.0177 8.45168 17.0482 8.40772 17.0882C8.36376 17.1281 8.32845 17.1767 8.30397 17.2308C8.27948 17.285 8.26635 17.3435 8.26537 17.4029ZM12.9317 16.5498C12.8405 16.5303 12.819 16.5257 12.7991 16.517C12.793 16.5143 12.787 16.5112 12.7792 16.5072C12.7461 16.4901 12.68 16.456 12.4284 16.3622L12.181 16.2086L11.7971 16.3963C11.384 16.5831 10.9367 16.6818 10.4834 16.6863V20.9005C10.4834 21.353 10.6631 21.787 10.9831 22.107C11.303 22.4269 11.737 22.6067 12.1895 22.6067C12.642 22.6067 13.076 22.4269 13.3959 22.107C13.7159 21.787 13.8957 21.353 13.8957 20.9005V19.1347C13.5326 19.0534 13.2061 18.8557 12.9658 18.5716C12.7477 18.2858 12.6303 17.9359 12.6319 17.5764C12.6334 17.2168 12.7538 16.8679 12.9743 16.584L12.9317 16.5498ZM16.6596 15.0655C16.5802 14.9842 16.4853 14.9197 16.3806 14.8756C16.2758 14.8315 16.1633 14.8088 16.0497 14.8088C15.936 14.8088 15.8235 14.8315 15.7188 14.8756C15.6141 14.9197 15.5192 14.9842 15.4397 15.0655L13.8104 16.7205C13.6488 16.8875 13.5585 17.1108 13.5585 17.3432C13.5585 17.5756 13.6488 17.7989 13.8104 17.966C13.9698 18.1223 14.1842 18.2098 14.4075 18.2098C14.6308 18.2098 14.8452 18.1223 15.0047 17.966L16.634 16.311C16.8023 16.1604 16.904 15.9492 16.9168 15.7237C16.9296 15.4982 16.8524 15.2768 16.7023 15.1081L16.6596 15.0655Z" fill="#2F3A4F"/>
</svg>
