<svg width="24" height="25" viewBox="0 0 24 25" fill="none" xmlns="http://www.w3.org/2000/svg">
<path fill-rule="evenodd" clip-rule="evenodd" d="M3.10658 6.05395L12 12.2793L20.8934 6.05395C20.728 5.72692 20.388 5.5 20 5.5H4C3.61204 5.5 3.27196 5.72692 3.10658 6.05395ZM21 8.42066L12.5735 14.3192C12.2291 14.5603 11.7709 14.5603 11.4265 14.3192L3 8.42066V18.5C3 19.0477 3.45228 19.5 4 19.5H20C20.5477 19.5 21 19.0477 21 18.5V8.42066ZM1 6.5C1 4.84772 2.34772 3.5 4 3.5H20C21.6523 3.5 23 4.84772 23 6.5V18.5C23 20.1523 21.6523 21.5 20 21.5H4C2.34772 21.5 1 20.1523 1 18.5V6.5Z" fill="#2F3A4F"/>
</svg>
