<svg width="24" height="24" viewBox="0 0 24 24" fill="none" xmlns="http://www.w3.org/2000/svg">
<path d="M1.00004 5.98296C0.999882 5.99271 0.999866 6.00245 0.999992 6.01219V18C0.999992 19.6523 2.34771 21 3.99999 21H20C21.6523 21 23 19.6523 23 18V6.01245C23.0001 6.00276 23.0001 5.99306 22.9999 5.98335C22.9909 4.33867 21.6467 3 20 3H3.99999C2.35339 3 1.00927 4.33846 1.00004 5.98296ZM3.10654 5.55401C3.27191 5.22695 3.61201 5 3.99999 5H20C20.388 5 20.7281 5.22695 20.8934 5.55401L12 11.7794L3.10654 5.55401ZM21 7.92074V18C21 18.5477 20.5477 19 20 19H3.99999C3.45228 19 2.99999 18.5477 2.99999 18V7.92074L11.4265 13.8193C11.7709 14.0603 12.2291 14.0603 12.5735 13.8193L21 7.92074Z" fill="#2F3A4F"/>
</svg>
