<svg width="24" height="25" viewBox="0 0 24 25" fill="none" xmlns="http://www.w3.org/2000/svg">
<g clip-path="url(#clip0)">
<path fill-rule="evenodd" clip-rule="evenodd" d="M12 2.5C9.87827 2.5 7.84344 3.34285 6.34315 4.84315C4.84285 6.34344 4 8.37827 4 10.5C4 13.5981 6.01574 16.6042 8.22595 18.9373C9.31061 20.0822 10.3987 21.0195 11.2167 21.6708C11.5211 21.9133 11.787 22.1152 12 22.2726C12.213 22.1152 12.4789 21.9133 12.7833 21.6708C13.6013 21.0195 14.6894 20.0822 15.774 18.9373C17.9843 16.6042 20 13.5981 20 10.5C20 8.37827 19.1571 6.34344 17.6569 4.84315C16.1566 3.34285 14.1217 2.5 12 2.5ZM12 23.5C11.4453 24.3321 11.4448 24.3317 11.4448 24.3317L11.4419 24.3298L11.4352 24.3253L11.4123 24.3098C11.3928 24.2966 11.3651 24.2776 11.3296 24.253C11.2585 24.2038 11.1565 24.1321 11.0278 24.0392C10.7705 23.8534 10.4064 23.5822 9.97082 23.2354C9.10133 22.543 7.93939 21.5428 6.77405 20.3127C4.48426 17.8958 2 14.4019 2 10.5C2 7.84784 3.05357 5.3043 4.92893 3.42893C6.8043 1.55357 9.34784 0.5 12 0.5C14.6522 0.5 17.1957 1.55357 19.0711 3.42893C20.9464 5.3043 22 7.84784 22 10.5C22 14.4019 19.5157 17.8958 17.226 20.3127C16.0606 21.5428 14.8987 22.543 14.0292 23.2354C13.5936 23.5822 13.2295 23.8534 12.9722 24.0392C12.8435 24.1321 12.7415 24.2038 12.6704 24.253C12.6349 24.2776 12.6072 24.2966 12.5877 24.3098L12.5648 24.3253L12.5581 24.3298L12.556 24.3312C12.556 24.3312 12.5547 24.3321 12 23.5ZM12 23.5L12.5547 24.3321C12.2188 24.556 11.7807 24.5556 11.4448 24.3317L12 23.5Z" fill="#2F3A4F"/>
<path fill-rule="evenodd" clip-rule="evenodd" d="M12 4.3C12.3866 4.3 12.7 4.6134 12.7 5V6.3H14.5C14.8866 6.3 15.2 6.6134 15.2 7C15.2 7.3866 14.8866 7.7 14.5 7.7H12.7V9.8H13.25C13.8998 9.8 14.5229 10.0581 14.9824 10.5176C15.4419 10.977 15.7 11.6002 15.7 12.25C15.7 12.8998 15.4419 13.5229 14.9824 13.9824C14.5229 14.4419 13.8998 14.7 13.25 14.7H12.7V16C12.7 16.3866 12.3866 16.7 12 16.7C11.6134 16.7 11.3 16.3866 11.3 16V14.7H9C8.6134 14.7 8.3 14.3866 8.3 14C8.3 13.6134 8.6134 13.3 9 13.3H11.3V11.2H10.75C10.1002 11.2 9.47705 10.9419 9.01759 10.4824C8.55812 10.0229 8.3 9.39978 8.3 8.75C8.3 8.10022 8.55812 7.47705 9.01759 7.01758C9.47705 6.55812 10.1002 6.3 10.75 6.3H11.3V5C11.3 4.6134 11.6134 4.3 12 4.3ZM11.3 7.7H10.75C10.4715 7.7 10.2045 7.81062 10.0075 8.00753C9.81062 8.20445 9.7 8.47152 9.7 8.75C9.7 9.02847 9.81062 9.29555 10.0075 9.49246C10.2045 9.68937 10.4715 9.8 10.75 9.8H11.3V7.7ZM12.7 11.2V13.3H13.25C13.5285 13.3 13.7955 13.1894 13.9925 12.9925C14.1894 12.7955 14.3 12.5285 14.3 12.25C14.3 11.9715 14.1894 11.7044 13.9925 11.5075C13.7955 11.3106 13.5285 11.2 13.25 11.2H12.7Z" fill="#2F3A4F"/>
</g>
<defs>
<clipPath id="clip0">
<rect width="24" height="24" fill="white" transform="translate(0 0.5)"/>
</clipPath>
</defs>
</svg>
