<svg width="24" height="25" viewBox="0 0 24 25" fill="none" xmlns="http://www.w3.org/2000/svg">
<path fill-rule="evenodd" clip-rule="evenodd" d="M15 4.5C14.4477 4.5 14 4.05228 14 3.5C14 2.94772 14.4477 2.5 15 2.5H21C21.5523 2.5 22 2.94772 22 3.5V9.5C22 10.0523 21.5523 10.5 21 10.5C20.4477 10.5 20 10.0523 20 9.5V5.91421L14.7071 11.2071C14.3166 11.5976 13.6834 11.5976 13.2929 11.2071C12.9024 10.8166 12.9024 10.1834 13.2929 9.79289L18.5858 4.5H15ZM9.29289 13.7929C9.68342 13.4024 10.3166 13.4024 10.7071 13.7929C11.0976 14.1834 11.0976 14.8166 10.7071 15.2071L5.41421 20.5H9C9.55228 20.5 10 20.9477 10 21.5C10 22.0523 9.55228 22.5 9 22.5H3C2.44772 22.5 2 22.0523 2 21.5V15.5C2 14.9477 2.44772 14.5 3 14.5C3.55228 14.5 4 14.9477 4 15.5V19.0858L9.29289 13.7929Z" fill="#2F3A4F"/>
</svg>
