<svg width="24" height="25" viewBox="0 0 24 25" fill="none" xmlns="http://www.w3.org/2000/svg">
<path d="M0 3.5C0 1.84315 1.34315 0.5 3 0.5H21C22.6569 0.5 24 1.84315 24 3.5V21.5C24 23.1569 22.6569 24.5 21 24.5H3C1.34315 24.5 0 23.1569 0 21.5V3.5Z" fill="#2F3A4F"/>
<path fill-rule="evenodd" clip-rule="evenodd" d="M4.8457 12.6691H5.32921C6.44464 12.6691 6.53177 12.3484 6.53177 11.8936C6.53177 11.3756 6.26368 11.1229 5.71506 11.1229H4.8457V12.6691ZM11.1357 14.8531H11.8002C12.5422 14.8531 13.3015 14.6329 13.3015 12.9976C13.3015 11.3488 12.4991 11.1372 11.8002 11.1372H11.1357V14.8531ZM4.46298 16.4903H3.38298C3.17138 16.4903 3 16.318 3 16.1064V9.88298C3 9.67234 3.17138 9.5 3.38298 9.5H5.87713C7.36021 9.5 8.39713 10.4843 8.39713 11.8936C8.39713 13.3231 7.38223 14.2834 5.87234 14.2834H4.84596V16.1064C4.84596 16.318 4.67457 16.4903 4.46298 16.4903ZM11.9138 16.4903H9.67245C9.46085 16.4903 9.28947 16.318 9.28947 16.1064V9.88298C9.28947 9.67234 9.46085 9.5 9.67245 9.5H11.9138C14.0212 9.5 15.1816 10.737 15.1816 12.9841C15.1816 15.2447 14.0212 16.4903 11.9138 16.4903ZM17.6891 16.4903H16.6082C16.3966 16.4903 16.2252 16.318 16.2252 16.1064V9.88298C16.2252 9.67234 16.3966 9.5 16.6082 9.5H20.617C20.8277 9.5 21 9.67234 21 9.88298V10.7629C21 10.9745 20.8277 11.1459 20.617 11.1459H18.0721V12.2862H20.3643C20.5759 12.2862 20.7472 12.4576 20.7472 12.6691V13.5356C20.7472 13.7463 20.5759 13.9186 20.3643 13.9186H18.0721V16.1064C18.0721 16.318 17.9007 16.4903 17.6891 16.4903Z" fill="white"/>
</svg>
