<svg width="24" height="24" viewBox="0 0 24 24" fill="none" xmlns="http://www.w3.org/2000/svg">
<path d="M12.4998 2.00007C11.0241 1.99667 9.56843 2.34149 8.25107 3.00652C6.67407 3.79512 5.34764 5.00704 4.42024 6.50666C3.49266 8.00657 3.00091 9.73507 3.00003 11.4986C2.99671 12.8333 3.27825 14.1516 3.82392 15.3661L2.05134 20.6838C1.93157 21.0432 2.02509 21.4394 2.29292 21.7072C2.56075 21.975 2.95692 22.0685 3.31625 21.9488L8.63398 20.1762C9.84847 20.7219 11.1668 21.0034 12.5015 21.0001V20.9848L12.5049 21L12.5027 21.0001C16.0668 20.9978 19.4004 18.917 20.9935 15.749C21.7933 14.1647 22 12.5394 22 11.0285C22 10.9894 21.9988 10.9502 21.9965 10.9112C21.8604 8.59355 20.8784 6.40599 19.2362 4.7638C17.594 3.12162 15.4065 2.13965 13.0888 2.00349C12.8931 1.992 12.6957 2.00006 12.4998 2.00007Z" fill="#2F3A4F"/>
</svg>
