<svg width="24" height="24" viewBox="0 0 24 24" fill="none" xmlns="http://www.w3.org/2000/svg">
<path d="M12.7302 6.4924C11.6815 6.4944 10.7339 6.64649 9.86066 7.08758L9.85782 7.08901C8.92239 7.55652 8.1356 8.27523 7.58557 9.16464C7.03554 10.054 6.74399 11.079 6.74359 12.1248L6.74358 12.1264C6.74131 12.9993 6.94525 13.8604 7.33879 14.6395C7.42906 14.8182 7.44422 15.0256 7.3809 15.2155L6.42905 18.0712L9.28463 17.1193C9.47457 17.056 9.68194 17.0711 9.86066 17.1614C10.6398 17.555 11.5009 17.7589 12.3737 17.7566H12.3754C13.4212 17.7562 14.4461 17.4646 15.3355 16.9146C16.225 16.3646 16.9437 15.5778 17.4112 14.6423L17.4126 14.6395C17.8062 13.8604 18.0101 12.9993 18.0078 12.1264V12.1245V11.7703C17.9271 10.3971 17.3453 9.10094 16.3723 8.12792C15.3993 7.15497 14.1033 6.57315 12.7302 6.4924ZM9.18495 5.74626C10.3441 5.16112 11.5538 4.99048 12.7512 4.99048C12.765 4.99048 12.7788 4.99086 12.7925 4.99162C14.5424 5.08815 16.1951 5.82673 17.4343 7.06591C18.6734 8.3051 19.4121 9.95783 19.5086 11.7076C19.5093 11.7215 19.5097 11.7352 19.5097 11.749V12.1237C19.5124 13.2321 19.2535 14.3256 18.754 15.3151C18.1618 16.4994 17.2517 17.4956 16.1255 18.192C14.9991 18.8886 13.7012 19.2578 12.3768 19.2585H12.376H12.3776H12.3768C11.3745 19.261 10.3845 19.0496 9.4725 18.6398L5.47916 19.9709C5.20932 20.0609 4.91182 19.9906 4.71069 19.7895C4.50956 19.5884 4.43933 19.2909 4.52928 19.021L5.86039 15.0277C5.45062 14.1157 5.2392 13.1257 5.24169 12.1234V12.1242V12.1225V12.1234C5.24235 10.7991 5.61163 9.50105 6.3082 8.37469C7.00463 7.24855 8.00071 6.33846 9.18495 5.74626ZM9.18495 5.74626L9.18353 5.74698L9.18638 5.74556L9.18495 5.74626Z" fill="#2F3A4F"/>
</svg>
