<svg width="24" height="25" viewBox="0 0 24 25" fill="none" xmlns="http://www.w3.org/2000/svg">
<path d="M12.9721 4.50003C11.5756 4.50269 10.3137 4.70523 9.15088 5.2926L9.14709 5.29451C7.90143 5.91707 6.8537 6.87414 6.12125 8.05852C5.3888 9.2429 5.00057 10.6078 5.00003 12.0004L5.00002 12.0026C4.99699 13.165 5.26857 14.3116 5.79263 15.3491C5.91284 15.5871 5.93303 15.8633 5.84871 16.1162L4.58117 19.9189L8.3838 18.6513C8.63674 18.567 8.91289 18.5872 9.15088 18.7074C10.1884 19.2315 11.3351 19.503 12.4974 19.5H12.4996C13.8922 19.4995 15.2571 19.1112 16.4415 18.3788C17.6259 17.6463 18.583 16.5986 19.2055 15.3529L19.2074 15.3491C19.7315 14.3116 20.0031 13.165 20 12.0026V12V11.5284C19.8926 9.69975 19.1178 7.9737 17.8221 6.67797C16.5264 5.38234 14.8006 4.60756 12.9721 4.50003ZM8.25107 3.50644C9.79469 2.72724 11.4056 2.5 13 2.5C13.0184 2.5 13.0368 2.50051 13.0551 2.50152C15.3853 2.63007 17.5861 3.61359 19.2363 5.26375C20.8864 6.91392 21.87 9.11477 21.9985 11.4449C21.9995 11.4633 22 11.4816 22 11.5V11.9989C22.0036 13.475 21.6588 14.9311 20.9937 16.2488C20.2051 17.8259 18.9931 19.1524 17.4934 20.0798C15.9935 21.0074 14.2651 21.4991 12.5015 21.5H12.5004H12.5026H12.5015C11.1668 21.5033 9.84847 21.2218 8.63398 20.6761L3.31625 22.4487C2.95692 22.5685 2.56075 22.4749 2.29292 22.2071C2.02509 21.9393 1.93157 21.5431 2.05134 21.1838L3.82392 15.8661C3.27825 14.6516 2.99671 13.3332 3.00003 11.9985V11.9996V11.9974V11.9985C3.00091 10.235 3.49266 8.5065 4.42024 7.00658C5.34764 5.50696 6.67407 4.29504 8.25107 3.50644ZM8.25107 3.50644L8.24917 3.5074L8.25297 3.5055L8.25107 3.50644Z" fill="#27AE60"/>
</svg>
