<svg width="24" height="24" viewBox="0 0 24 24" fill="none" xmlns="http://www.w3.org/2000/svg">
<path d="M13.1846 9.95581C13.1846 9.5416 12.8488 9.20581 12.4346 9.20581C12.0204 9.20581 11.6846 9.5416 11.6846 9.95581V11.4558H10.1846C9.77036 11.4558 9.43457 11.7916 9.43457 12.2058C9.43457 12.62 9.77036 12.9558 10.1846 12.9558H11.6846V14.4558C11.6846 14.87 12.0204 15.2058 12.4346 15.2058C12.8488 15.2058 13.1846 14.87 13.1846 14.4558V12.9558H14.6846C15.0988 12.9558 15.4346 12.62 15.4346 12.2058C15.4346 11.7916 15.0988 11.4558 14.6846 11.4558H13.1846V9.95581Z" fill="#2F3A4F"/>
<path d="M12.7512 4.99048C11.5538 4.99048 10.3441 5.16112 9.18495 5.74626C8.0009 6.33847 7.00454 7.24869 6.3082 8.37469C5.61163 9.50105 5.24235 10.7991 5.24169 12.1234C5.2392 13.1257 5.45062 14.1157 5.86039 15.0277L4.52928 19.021C4.43933 19.2909 4.50956 19.5884 4.71069 19.7895C4.91182 19.9906 5.20932 20.0609 5.47916 19.9709L9.4725 18.6398C10.3845 19.0496 11.3745 19.261 12.3768 19.2585C13.7012 19.2578 14.9991 18.8886 16.1255 18.192C17.2517 17.4956 18.1618 16.4994 18.754 15.3151C19.2535 14.3256 19.5124 13.2321 19.5097 12.1237V11.749C19.5097 11.7352 19.5093 11.7215 19.5086 11.7076C19.4121 9.95783 18.6734 8.3051 17.4343 7.06591C16.1951 5.82673 14.5424 5.08815 12.7925 4.99162C12.7788 4.99086 12.765 4.99048 12.7512 4.99048ZM9.86066 7.08758C10.7339 6.64649 11.6815 6.4944 12.7302 6.4924C14.1033 6.57315 15.3993 7.15497 16.3723 8.12792C17.3453 9.10094 17.9271 10.3971 18.0078 11.7703V12.1264C18.0101 12.9993 17.8062 13.8604 17.4126 14.6395L17.4112 14.6423C16.9437 15.5778 16.225 16.3646 15.3355 16.9146C14.4461 17.4646 13.4212 17.7562 12.3754 17.7566H12.3737C11.5009 17.7589 10.6398 17.555 9.86066 17.1614C9.68194 17.0711 9.47457 17.056 9.28463 17.1193L6.42905 18.0712L7.3809 15.2155C7.44422 15.0256 7.42906 14.8182 7.33879 14.6395C6.94525 13.8604 6.74131 12.9993 6.74358 12.1264L6.74359 12.1248C6.74399 11.079 7.03554 10.054 7.58557 9.16464C8.1356 8.27523 8.92239 7.55652 9.85782 7.08901L9.86066 7.08758Z" fill="#2F3A4F"/>
</svg>
