<svg width="24" height="25" viewBox="0 0 24 25" fill="none" xmlns="http://www.w3.org/2000/svg">
<path fill-rule="evenodd" clip-rule="evenodd" d="M20.2929 2.79289C20.6834 2.40237 21.3166 2.40237 21.7071 2.79289C22.0976 3.18342 22.0976 3.81658 21.7071 4.20711L16.4142 9.5H20C20.5523 9.5 21 9.94772 21 10.5C21 11.0523 20.5523 11.5 20 11.5H14C13.4477 11.5 13 11.0523 13 10.5V4.5C13 3.94772 13.4477 3.5 14 3.5C14.5523 3.5 15 3.94772 15 4.5V8.08579L20.2929 2.79289ZM3 14.5C3 13.9477 3.44772 13.5 4 13.5H10C10.5523 13.5 11 13.9477 11 14.5V20.5C11 21.0523 10.5523 21.5 10 21.5C9.44772 21.5 9 21.0523 9 20.5V16.9142L3.70711 22.2071C3.31658 22.5976 2.68342 22.5976 2.29289 22.2071C1.90237 21.8166 1.90237 21.1834 2.29289 20.7929L7.58579 15.5H4C3.44772 15.5 3 15.0523 3 14.5Z" fill="#2F3A4F"/>
</svg>
