<svg width="24" height="24" viewBox="0 0 24 24" fill="none" xmlns="http://www.w3.org/2000/svg">
<path d="M3.94949 1.94949C4.49334 1.40563 5.23097 1.1001 6.0001 1.1001H14.0001C14.2388 1.1001 14.4677 1.19492 14.6365 1.3637L20.6365 7.3637C20.8053 7.53248 20.9001 7.7614 20.9001 8.0001V20.0001C20.9001 20.7692 20.5946 21.5069 20.0507 22.0507C19.5069 22.5946 18.7692 22.9001 18.0001 22.9001H6.0001C5.23097 22.9001 4.49334 22.5946 3.94949 22.0507C3.40563 21.5069 3.1001 20.7692 3.1001 20.0001V4.0001C3.1001 3.23097 3.40563 2.49334 3.94949 1.94949ZM6.0001 2.9001C5.70836 2.9001 5.42857 3.01599 5.22228 3.22228C5.01599 3.42857 4.9001 3.70836 4.9001 4.0001V20.0001C4.9001 20.2918 5.01599 20.5716 5.22228 20.7779C5.42857 20.9842 5.70836 21.1001 6.0001 21.1001H18.0001C18.2918 21.1001 18.5716 20.9842 18.7779 20.7779C18.9842 20.5716 19.1001 20.2918 19.1001 20.0001V8.9001H14.0001C13.503 8.9001 13.1001 8.49715 13.1001 8.0001V2.9001H6.0001ZM14.9001 4.17289V7.1001H17.8273L14.9001 4.17289ZM12.0001 11.1001C12.4972 11.1001 12.9001 11.503 12.9001 12.0001V14.1001H15.0001C15.4972 14.1001 15.9001 14.503 15.9001 15.0001C15.9001 15.4972 15.4972 15.9001 15.0001 15.9001H12.9001V18.0001C12.9001 18.4972 12.4972 18.9001 12.0001 18.9001C11.503 18.9001 11.1001 18.4972 11.1001 18.0001V15.9001H9.0001C8.50304 15.9001 8.1001 15.4972 8.1001 15.0001C8.1001 14.503 8.50304 14.1001 9.0001 14.1001H11.1001V12.0001C11.1001 11.503 11.503 11.1001 12.0001 11.1001Z" fill="#2F3A4F"/>
</svg>
