<svg width="24" height="25" viewBox="0 0 24 25" fill="none" xmlns="http://www.w3.org/2000/svg">
<path d="M24 6.5V17C24 17.4141 23.9219 17.8008 23.7656 18.1602C23.6094 18.5195 23.3945 18.8359 23.1211 19.1094C22.8477 19.3828 22.5273 19.5977 22.1602 19.7539C21.793 19.9102 21.4062 19.9922 21 20H2.91797C2.51953 20 2.14453 19.9219 1.79297 19.7656C1.44141 19.6094 1.13281 19.4023 0.867188 19.1445C0.601562 18.8867 0.390625 18.5781 0.234375 18.2188C0.078125 17.8594 0 17.4805 0 17.082V3.5H21V6.5H24ZM22.5 8H21V16.25C21 16.4531 20.9258 16.6289 20.7773 16.7773C20.6289 16.9258 20.4531 17 20.25 17C20.0469 17 19.8711 16.9258 19.7227 16.7773C19.5742 16.6289 19.5 16.4531 19.5 16.25V5H1.5V17.082C1.5 17.2773 1.53516 17.4609 1.60547 17.6328C1.67578 17.8047 1.77734 17.9531 1.91016 18.0781C2.04297 18.2031 2.19531 18.3047 2.36719 18.3828C2.53906 18.4609 2.72266 18.5 2.91797 18.5H21C21.2109 18.5 21.4062 18.4609 21.5859 18.3828C21.7656 18.3047 21.9219 18.1992 22.0547 18.0664C22.1875 17.9336 22.2969 17.7734 22.3828 17.5859C22.4688 17.3984 22.5078 17.2031 22.5 17V8ZM18 8H3V6.5H18V8ZM18 17H12V15.5H18V17ZM18 14H12V12.5H18V14ZM18 11H12V9.5H18V11ZM10.5 17H3V9.46484H10.5V17ZM4.5 15.5H9V10.9648H4.5V15.5Z" fill="#2F3A4F"/>
</svg>
