<svg width="24" height="24" viewBox="0 0 24 24" fill="none" xmlns="http://www.w3.org/2000/svg">
<path d="M12 1C10.1435 1 8.36302 1.7375 7.05027 3.05025C5.73751 4.36301 5.00002 6.14348 5.00002 8C5.00002 11.3527 4.28295 13.4346 3.62212 14.6461C3.29033 15.2544 2.96724 15.6535 2.74281 15.8904C2.63034 16.0091 2.54195 16.0878 2.48874 16.1322C2.46212 16.1544 2.44426 16.168 2.43656 16.1737L2.43371 16.1758C2.07522 16.4221 1.91658 16.8725 2.04292 17.2898C2.17062 17.7115 2.55935 18 3.00002 18H21C21.4407 18 21.8294 17.7115 21.9571 17.2898C22.0835 16.8725 21.9248 16.4221 21.5663 16.1758L21.5635 16.1737C21.5558 16.168 21.5379 16.1544 21.5113 16.1322C21.4581 16.0878 21.3697 16.0091 21.2572 15.8904C21.0328 15.6535 20.7097 15.2544 20.3779 14.6461C19.7171 13.4346 19 11.3527 19 8C19 6.14349 18.2625 4.36301 16.9498 3.05025C15.637 1.7375 13.8565 1 12 1ZM18.8507 16H5.14934C5.22543 15.8753 5.30181 15.7434 5.37791 15.6039C6.21708 14.0654 7.00002 11.6473 7.00002 8C7.00002 6.67392 7.5268 5.40215 8.46448 4.46447C9.40216 3.52678 10.6739 3 12 3C13.3261 3 14.5979 3.52678 15.5356 4.46447C16.4732 5.40215 17 6.67392 17 8C17 11.6473 17.7829 14.0654 18.6221 15.6039C18.6982 15.7434 18.7746 15.8753 18.8507 16Z" fill="#2F3A4F"/>
<path d="M11.135 20.4981C10.8579 20.0204 10.246 19.8578 9.76823 20.1349C9.2905 20.412 9.12788 21.024 9.405 21.5017C9.66872 21.9563 10.0472 22.3337 10.5027 22.596C10.9581 22.8583 11.4744 22.9964 12 22.9964C12.5256 22.9964 13.0419 22.8583 13.4973 22.596C13.9528 22.3337 14.3313 21.9563 14.595 21.5017C14.8721 21.024 14.7095 20.412 14.2318 20.1349C13.754 19.8578 13.1421 20.0204 12.865 20.4981C12.7771 20.6497 12.6509 20.7755 12.4991 20.8629C12.3473 20.9504 12.1752 20.9964 12 20.9964C11.8248 20.9964 11.6527 20.9504 11.5009 20.8629C11.3491 20.7755 11.2229 20.6497 11.135 20.4981Z" fill="#2F3A4F"/>
</svg>
