<svg width="24" height="24" viewBox="0 0 24 24" fill="none" xmlns="http://www.w3.org/2000/svg">
<path d="M7.05027 3.05025C8.36302 1.7375 10.1435 1 12 1C13.8565 1 15.637 1.7375 16.9498 3.05025C18.2625 4.36301 19 6.14349 19 8C19 11.3527 19.7171 13.4346 20.3779 14.6461C20.7097 15.2544 21.0328 15.6535 21.2572 15.8904C21.3697 16.0091 21.4581 16.0878 21.5113 16.1322C21.5379 16.1544 21.5558 16.168 21.5635 16.1737L21.5663 16.1758C21.9248 16.4221 22.0835 16.8725 21.9571 17.2898C21.8294 17.7115 21.4407 18 21 18H3.00002C2.55935 18 2.17062 17.7115 2.04292 17.2898C1.91658 16.8725 2.07522 16.4221 2.43371 16.1758L2.43656 16.1737C2.44426 16.168 2.46212 16.1544 2.48874 16.1322C2.54195 16.0878 2.63034 16.0091 2.74281 15.8904C2.96724 15.6535 3.29033 15.2544 3.62212 14.6461C4.28295 13.4346 5.00002 11.3527 5.00002 8C5.00002 6.14348 5.73751 4.36301 7.05027 3.05025Z" fill="#2F3A4F"/>
<path d="M13.7088 20H10.2912C10.2765 19.9997 10.2617 19.9997 10.247 20H9C9 21.6569 10.3431 23 12 23C13.6569 23 15 21.6569 15 20H13.753C13.7383 19.9997 13.7235 19.9997 13.7088 20Z" fill="#2F3A4F"/>
</svg>
