<svg width="24" height="25" viewBox="0 0 24 25" fill="none" xmlns="http://www.w3.org/2000/svg">
<path fill-rule="evenodd" clip-rule="evenodd" d="M7.11977 3.49996C7.36243 3.49757 7.59767 3.5835 7.78166 3.74172C7.96469 3.89913 8.08457 4.11741 8.11924 4.35624C8.2559 5.38919 8.50876 6.4034 8.87304 7.37961L8.87388 7.38187C8.94115 7.56083 8.95571 7.75532 8.91583 7.94231C8.87611 8.12855 8.78404 8.29957 8.65047 8.43526L7.38283 9.7029C7.06451 10.0212 6.99813 10.513 7.22064 10.9043C8.51996 13.1894 10.3284 15.1368 12.4987 16.5992L13.4462 17.2474C13.8687 17.5364 14.4375 17.4816 14.797 17.1171L15.4309 16.4833L16.0647 15.8494C16.2004 15.7159 16.3714 15.6238 16.5576 15.5841C16.7446 15.5442 16.9391 15.5588 17.1181 15.6261L17.1203 15.6269C18.0966 15.9912 19.1108 16.2441 20.1438 16.3807C20.3853 16.4157 20.6057 16.5377 20.7635 16.7239C20.9221 16.9111 21.0063 17.15 21.0002 17.3952C21 17.4035 20.9999 17.4117 20.9999 17.42V20.42L20.9999 20.4241C21.0005 20.5633 20.972 20.7011 20.9162 20.8287C20.8059 21.0811 20.5812 21.2872 20.3203 21.3754C20.1908 21.4192 20.0537 21.436 19.9175 21.4247C19.6801 21.3988 19.4434 21.3684 19.2077 21.3335C18.2022 21.1847 17.2127 20.955 16.2487 20.6475C15.0515 20.2657 13.8935 19.7641 12.7927 19.1491L11.0574 18.0603C9.05487 16.6621 7.34673 14.8795 6.03398 12.8137L6.02921 12.8063C4.42624 10.3319 3.42805 7.515 3.1153 4.58344C3.10391 4.44733 3.12051 4.3103 3.16413 4.18082C3.25178 3.92057 3.45657 3.69622 3.70777 3.58527C3.83466 3.52922 3.97183 3.50018 4.11055 3.50001L7.10993 3.50005L7.11977 3.49996ZM4.34826 13.89C5.96124 16.4272 8.11254 18.5785 10.6497 20.1915C12.2063 21.2005 13.8855 21.9931 15.6411 22.553C16.7077 22.8931 17.8024 23.1473 18.915 23.3119C19.1797 23.3511 19.4454 23.3852 19.7119 23.4142L19.7299 23.4159C20.146 23.4535 20.5653 23.4038 20.961 23.27C21.7554 23.0014 22.4127 22.3983 22.7487 21.63C22.9403 21.1918 22.9713 20.1781 22.9863 19.6899C22.9909 19.5379 22.994 19.4368 22.9999 19.42V17.4312C23.0147 16.7003 22.7622 15.989 22.2894 15.4311C21.8137 14.8696 21.1483 14.5026 20.4196 14.3998L20.4107 14.3986C19.5258 14.2819 18.6569 14.0655 17.8206 13.7535C17.284 13.5521 16.701 13.5086 16.1405 13.6281C15.5795 13.7477 15.0646 14.0257 14.6568 14.429L14.6528 14.4329L13.9357 15.15C12.0911 13.9741 10.5258 12.4089 9.34995 10.5642L10.0671 9.84712L10.071 9.84315C10.4743 9.43531 10.7522 8.92041 10.8718 8.35947C10.9914 7.79894 10.9479 7.21591 10.7464 6.67936C10.4345 5.84306 10.2181 4.97417 10.1014 4.08924L10.1001 4.08005C9.99821 3.35922 9.63769 2.70003 9.08573 2.22535C8.53515 1.75185 7.83155 1.49417 7.10551 1.50001L4.10899 1.50001C3.6925 1.5004 3.28066 1.58751 2.89968 1.75579C2.13494 2.09358 1.53559 2.75015 1.26874 3.54244C1.1358 3.93715 1.08651 4.35521 1.12399 4.77001L1.12552 4.7856C1.4702 8.03133 2.57424 11.1503 4.34826 13.89Z" fill="#2F3A4F"/>
</svg>
