<svg width="24" height="24" viewBox="0 0 24 24" fill="none" xmlns="http://www.w3.org/2000/svg">
<path d="M22.3741 16.7851V20.1601C22.3754 20.4734 22.3112 20.7835 22.1857 21.0706C22.0602 21.3577 21.8761 21.6154 21.6452 21.8272C21.4143 22.039 21.1418 22.2003 20.845 22.3007C20.5482 22.401 20.2337 22.4383 19.9216 22.4101C16.4598 22.034 13.1345 20.851 10.2129 18.9564C7.49469 17.2291 5.19013 14.9246 3.46288 12.2064C1.56161 9.27146 0.378405 5.92998 0.0091313 2.45261C-0.0189819 2.14151 0.0179906 1.82796 0.117694 1.53194C0.217398 1.23591 0.377648 0.963884 0.588243 0.733183C0.798838 0.502481 1.05516 0.318157 1.3409 0.191946C1.62663 0.0657355 1.93551 0.000403236 2.24788 0.000109071H5.62288C6.16885 -0.00526443 6.69815 0.188072 7.11211 0.544083C7.52608 0.900094 7.79647 1.39449 7.87288 1.93511C8.01533 3.01518 8.27951 4.07568 8.66038 5.09636C8.81174 5.49902 8.8445 5.93664 8.75478 6.35735C8.66505 6.77806 8.4566 7.16423 8.15413 7.47011L6.72538 8.89886C8.32688 11.7153 10.6589 14.0474 13.4754 15.6489L14.9041 14.2201C15.21 13.9176 15.5962 13.7092 16.0169 13.6195C16.4376 13.5297 16.8752 13.5625 17.2779 13.7139C18.2986 14.0947 19.3591 14.3589 20.4391 14.5014C20.9856 14.5785 21.4847 14.8537 21.8415 15.2748C22.1983 15.6959 22.3878 16.2334 22.3741 16.7851Z" fill="#2F3A4F"/>
</svg>
