<svg width="24" height="24" viewBox="0 0 24 24" fill="none" xmlns="http://www.w3.org/2000/svg">
<path d="M17.1871 14.3926V16.0801C17.1877 16.2367 17.1556 16.3918 17.0929 16.5353C17.0301 16.6789 16.938 16.8077 16.8226 16.9136C16.7072 17.0195 16.5709 17.1001 16.4225 17.1503C16.2741 17.2005 16.1168 17.2192 15.9608 17.2051C14.2299 17.017 12.5673 16.4255 11.1064 15.4782C9.74734 14.6146 8.59507 13.4623 7.73144 12.1032C6.7808 10.6357 6.1892 8.96499 6.00457 7.2263C5.99051 7.07075 6.009 6.91398 6.05885 6.76597C6.1087 6.61795 6.18882 6.48194 6.29412 6.36659C6.39942 6.25124 6.52758 6.15908 6.67045 6.09597C6.81332 6.03287 6.96776 6.0002 7.12394 6.00005H8.81144C9.08443 5.99737 9.34907 6.09404 9.55606 6.27204C9.76304 6.45005 9.89823 6.69724 9.93644 6.96755C10.0077 7.50759 10.1398 8.03784 10.3302 8.54818C10.4059 8.74951 10.4223 8.96832 10.3774 9.17867C10.3325 9.38903 10.2283 9.58212 10.0771 9.73505L9.36269 10.4494C10.1634 11.8577 11.3294 13.0237 12.7377 13.8244L13.4521 13.1101C13.605 12.9588 13.7981 12.8546 14.0084 12.8097C14.2188 12.7649 14.4376 12.7812 14.6389 12.8569C15.1493 13.0474 15.6795 13.1795 16.2196 13.2507C16.4928 13.2892 16.7424 13.4269 16.9207 13.6374C17.0991 13.8479 17.1939 14.1167 17.1871 14.3926Z" fill="#2F3A4F"/>
</svg>
