<svg width="24" height="25" viewBox="0 0 24 25" fill="none" xmlns="http://www.w3.org/2000/svg">
<path fill-rule="evenodd" clip-rule="evenodd" d="M11.2928 1.79289C11.4803 1.60536 11.7347 1.5 11.9999 1.5C13.4445 1.5 14.8749 1.78452 16.2094 2.33733C17.544 2.89013 18.7566 3.70038 19.7781 4.72183C20.7995 5.74327 21.6098 6.9559 22.1626 8.29048C22.7154 9.62506 22.9999 11.0555 22.9999 12.5C22.9999 13.0523 22.5522 13.5 21.9999 13.5H11.9999C11.4476 13.5 10.9999 13.0523 10.9999 12.5V2.5C10.9999 2.23478 11.1053 1.98043 11.2928 1.79289ZM12.9999 3.55573V11.5H20.9442C20.8504 10.6614 20.639 9.83849 20.3148 9.05585C19.8625 7.96392 19.1996 6.97177 18.3639 6.13604C17.5281 5.30031 16.536 4.63738 15.4441 4.18508C14.6614 3.8609 13.8385 3.64949 12.9999 3.55573ZM8.91645 2.93004C9.13734 3.43623 8.90606 4.02564 8.39988 4.24653C7.05247 4.83452 5.86961 5.74362 4.95472 6.89436C4.03982 8.0451 3.42075 9.40244 3.15161 10.8477C2.88248 12.293 2.97149 13.7822 3.41085 15.1851C3.85021 16.588 4.62655 17.8619 5.67199 18.8955C6.71744 19.9291 8.00016 20.6908 9.40801 21.1141C10.8159 21.5375 12.306 21.6095 13.7481 21.3238C15.1902 21.0382 16.5403 20.4037 17.6806 19.4757C18.8208 18.5477 19.7163 17.3546 20.2889 16.0005C20.504 15.4919 21.0907 15.2539 21.5994 15.469C22.1081 15.6841 22.3461 16.2708 22.131 16.7795C21.4312 18.4344 20.3366 19.8927 18.943 21.0269C17.5494 22.1611 15.8992 22.9366 14.1366 23.2857C12.3741 23.6348 10.5528 23.5468 8.83212 23.0294C7.11141 22.5121 5.54364 21.581 4.26588 20.3178C2.98811 19.0545 2.03925 17.4975 1.50225 15.7828C0.965258 14.0681 0.856474 12.248 1.18541 10.4816C1.51435 8.71513 2.271 7.05616 3.38921 5.6497C4.50741 4.24324 5.95313 3.13212 7.59996 2.41347C8.10614 2.19258 8.69556 2.42385 8.91645 2.93004Z" fill="#2F3A4F"/>
</svg>
