<svg width="24" height="24" viewBox="0 0 24 24" fill="none" xmlns="http://www.w3.org/2000/svg">
<path fill-rule="evenodd" clip-rule="evenodd" d="M12 2.18182C6.57757 2.18182 2.18182 6.57757 2.18182 12C2.18182 17.4224 6.57757 21.8182 12 21.8182C17.4224 21.8182 21.8182 17.4224 21.8182 12C21.8182 6.57757 17.4224 2.18182 12 2.18182ZM0 12C0 5.37258 5.37258 0 12 0C18.6274 0 24 5.37258 24 12C24 18.6274 18.6274 24 12 24C5.37258 24 0 18.6274 0 12Z" fill="#2F3A4F"/>
<path fill-rule="evenodd" clip-rule="evenodd" d="M9.75286 7.56211C10.0485 7.40391 10.4071 7.42125 10.6861 7.60723L16.1406 11.2436C16.3935 11.4122 16.5455 11.696 16.5455 12C16.5455 12.304 16.3935 12.5878 16.1406 12.7564L10.6861 16.3928C10.4071 16.5787 10.0485 16.5961 9.75286 16.4379C9.45726 16.2797 9.27273 15.9716 9.27273 15.6364V8.36364C9.27273 8.02837 9.45726 7.72031 9.75286 7.56211Z" fill="#2F3A4F"/>
</svg>
