<svg width="24" height="25" viewBox="0 0 24 25" fill="none" xmlns="http://www.w3.org/2000/svg">
<path d="M6.4999 10.5C6.2769 10.5 6.0629 10.534 5.8499 10.565C5.9189 10.333 5.9899 10.097 6.1039 9.88503C6.2179 9.57703 6.3959 9.31003 6.5729 9.04103C6.7209 8.75003 6.9819 8.55303 7.1739 8.30403C7.3749 8.06203 7.6489 7.90103 7.8659 7.70003C8.0789 7.49003 8.3579 7.38503 8.5799 7.23703C8.8119 7.10403 9.0139 6.95703 9.2299 6.88703C9.4379 6.80103 9.6199 6.72703 9.7689 6.66503C10.0709 6.54003 10.2429 6.46803 10.2429 6.46803L9.7579 4.53003C9.7579 4.53003 9.5399 4.58203 9.1609 4.67403C8.9699 4.72203 8.7369 4.77803 8.4719 4.84503C8.2009 4.89503 7.9119 5.03203 7.5899 5.15703C7.2719 5.29903 6.9039 5.39503 6.5619 5.62303C6.2179 5.84103 5.8209 6.02303 5.4709 6.31503C5.1319 6.61603 4.7229 6.87703 4.4209 7.26003C4.0909 7.61803 3.7649 7.99403 3.5119 8.42203C3.2189 8.83003 3.0199 9.27803 2.8099 9.72103C2.6199 10.164 2.4669 10.617 2.3419 11.057C2.1049 11.939 1.9989 12.777 1.9579 13.494C1.9239 14.212 1.9439 14.809 1.9859 15.241C2.0009 15.445 2.0289 15.643 2.0489 15.78C2.0659 15.889 2.0739 15.948 2.0739 15.948L2.0999 15.942C2.5349 17.974 4.3379 19.5 6.4999 19.5C8.9849 19.5 10.9999 17.485 10.9999 15C10.9999 12.515 8.9849 10.5 6.4999 10.5ZM17.4999 10.5C17.2769 10.5 17.0629 10.534 16.8499 10.565C16.9189 10.333 16.9899 10.097 17.1039 9.88503C17.2179 9.57703 17.3959 9.31003 17.5729 9.04103C17.7209 8.75003 17.9819 8.55303 18.1739 8.30403C18.3749 8.06203 18.6489 7.90103 18.8659 7.70003C19.0789 7.49003 19.3579 7.38503 19.5799 7.23703C19.8119 7.10403 20.0139 6.95703 20.2299 6.88703C20.4379 6.80103 20.6199 6.72703 20.7689 6.66503C21.0709 6.54003 21.2429 6.46803 21.2429 6.46803L20.7579 4.53003C20.7579 4.53003 20.5399 4.58203 20.1609 4.67403C19.9699 4.72203 19.7369 4.77803 19.4719 4.84503C19.2009 4.89503 18.9119 5.03203 18.5899 5.15703C18.2729 5.30003 17.9039 5.39503 17.5619 5.62403C17.2179 5.84203 16.8209 6.02403 16.4709 6.31603C16.1319 6.61703 15.7229 6.87803 15.4209 7.26003C15.0909 7.61803 14.7649 7.99403 14.5119 8.42203C14.2189 8.83003 14.0199 9.27803 13.8099 9.72103C13.6199 10.164 13.4669 10.617 13.3419 11.057C13.1049 11.939 12.9989 12.777 12.9579 13.494C12.9239 14.212 12.9439 14.809 12.9859 15.241C13.0009 15.445 13.0289 15.643 13.0489 15.78C13.0659 15.889 13.0739 15.948 13.0739 15.948L13.0999 15.942C13.5349 17.974 15.3379 19.5 17.4999 19.5C19.9849 19.5 21.9999 17.485 21.9999 15C21.9999 12.515 19.9849 10.5 17.4999 10.5Z" fill="#2F3A4F"/>
</svg>
