<svg width="24" height="25" viewBox="0 0 24 25" fill="none" xmlns="http://www.w3.org/2000/svg">
<path fill-rule="evenodd" clip-rule="evenodd" d="M14.2173 4.8174C12.9192 4.44191 11.547 4.40139 10.229 4.69962C8.91091 4.99785 7.68987 5.62511 6.6798 6.52288C5.66972 7.42064 4.90353 8.55965 4.45272 9.83362C4.26848 10.3542 3.69705 10.627 3.1764 10.4427C2.65576 10.2585 2.38304 9.68707 2.56728 9.16642C3.1308 7.57396 4.08854 6.15019 5.35114 5.02799C6.61373 3.90578 8.14002 3.12172 9.7876 2.74893C11.4352 2.37615 13.1503 2.4268 14.7731 2.89617C16.3906 3.36405 17.8637 4.23277 19.0559 5.42171L22 8.18816V4.50002C22 3.94772 22.4477 3.50002 23 3.50002C23.5523 3.50002 24 3.94772 24 4.50002V10.5C24 11.0523 23.5523 11.5 23 11.5H17C16.4477 11.5 16 11.0523 16 10.5C16 9.94773 16.4477 9.50002 17 9.50002H20.4755L17.6752 6.86877C17.6676 6.86162 17.6601 6.85434 17.6527 6.84695C16.6974 5.89114 15.5155 5.1929 14.2173 4.8174ZM0 14.5C0 13.9477 0.447715 13.5 1 13.5H7C7.55228 13.5 8 13.9477 8 14.5C8 15.0523 7.55228 15.5 7 15.5H3.52455L6.32478 18.1312C6.33239 18.1384 6.3399 18.1457 6.34728 18.1531C7.30262 19.1089 8.4845 19.8071 9.78267 20.1826C11.0808 20.5581 12.453 20.5986 13.771 20.3004C15.0891 20.0022 16.3101 19.3749 17.3202 18.4771C18.3303 17.5794 19.0965 16.4404 19.5473 15.1664C19.7315 14.6458 20.3029 14.373 20.8236 14.5573C21.3442 14.7415 21.617 15.3129 21.4327 15.8336C20.8692 17.4261 19.9115 18.8498 18.6489 19.972C17.3863 21.0942 15.86 21.8783 14.2124 22.2511C12.5648 22.6239 10.8497 22.5732 9.22695 22.1038C7.6094 21.636 6.13627 20.7672 4.94411 19.5783L2 16.8119V20.5C2 21.0523 1.55228 21.5 1 21.5C0.447715 21.5 0 21.0523 0 20.5V14.5Z" fill="#2F3A4F"/>
</svg>
