<svg width="24" height="25" viewBox="0 0 24 25" fill="none" xmlns="http://www.w3.org/2000/svg">
<path fill-rule="evenodd" clip-rule="evenodd" d="M14.2173 4.81739C12.9192 4.4419 11.547 4.40137 10.229 4.6996C8.91091 4.99783 7.68987 5.62509 6.6798 6.52286C5.66972 7.42062 4.90353 8.55963 4.45272 9.8336C4.26848 10.3542 3.69705 10.627 3.1764 10.4427C2.65576 10.2585 2.38304 9.68705 2.56728 9.1664C3.1308 7.57394 4.08854 6.15018 5.35114 5.02798C6.61373 3.90577 8.14002 3.1217 9.7876 2.74891C11.4352 2.37613 13.1503 2.42678 14.7731 2.89615C16.3906 3.36403 17.8637 4.23276 19.0559 5.42169L22 8.18814V4.5C22 3.94771 22.4477 3.5 23 3.5C23.5523 3.5 24 3.94771 24 4.5V10.5C24 11.0523 23.5523 11.5 23 11.5H17C16.4477 11.5 16 11.0523 16 10.5C16 9.94771 16.4477 9.5 17 9.5H20.4755L17.6752 6.86875C17.6676 6.8616 17.6601 6.85432 17.6527 6.84693C16.6974 5.89112 15.5155 5.19289 14.2173 4.81739ZM0 14.5C0 13.9477 0.447715 13.5 1 13.5H7C7.55228 13.5 8 13.9477 8 14.5C8 15.0523 7.55228 15.5 7 15.5H3.52455L6.32478 18.1312C6.33239 18.1384 6.3399 18.1457 6.34728 18.1531C7.30262 19.1089 8.4845 19.8071 9.78267 20.1826C11.0808 20.5581 12.453 20.5986 13.771 20.3004C15.0891 20.0022 16.3101 19.3749 17.3202 18.4771C18.3303 17.5794 19.0965 16.4404 19.5473 15.1664C19.7315 14.6458 20.3029 14.373 20.8236 14.5573C21.3442 14.7415 21.617 15.3129 21.4327 15.8336C20.8692 17.4261 19.9115 18.8498 18.6489 19.972C17.3863 21.0942 15.86 21.8783 14.2124 22.2511C12.5648 22.6239 10.8497 22.5732 9.22695 22.1038C7.6094 21.636 6.13627 20.7672 4.94411 19.5783L2 16.8119V20.5C2 21.0523 1.55228 21.5 1 21.5C0.447715 21.5 0 21.0523 0 20.5V14.5Z" fill="#2F3A4F"/>
</svg>
