<svg width="24" height="24" viewBox="0 0 24 24" fill="none" xmlns="http://www.w3.org/2000/svg">
<path d="M15.0847 14.5753L10.4864 17V12.1505L15.0847 14.5753Z" fill="#445370"/>
<path d="M4 4H20C21.103 4 22 4.79733 22 5.77778V18.2222C22 19.2027 21.103 20 20 20H4C2.897 20 2 19.2027 2 18.2222V5.77778C2 4.79733 2.897 4 4 4ZM19.536 9.33333H20.001L20 5.77778H16.869L19.536 9.33333ZM6.869 5.77778L9.536 9.33333H12.132L9.465 5.77778H6.869ZM11.869 5.77778L14.536 9.33333H17.132L14.465 5.77778H11.869ZM4.465 5.77778H4V9.33333H7.132L4.465 5.77778ZM4 11.1111V18.2222H20.002L20 11.1111H4Z" fill="#445370"/>
</svg>
