<svg width="24" height="24" viewBox="0 0 24 24" fill="none" xmlns="http://www.w3.org/2000/svg">
<path d="M4.80968 20H19.1903C20.1884 20 21 19.2027 21 18.2222V7.55556V5.77778C21 4.79733 20.1884 4 19.1903 4H4.80968C3.81164 4 3 4.79733 3 5.77778V18.2222C3 19.2027 3.81164 20 4.80968 20ZM4.80968 18.2222V13.7778H8.42905V18.2222H4.80968ZM13.8581 7.55556V12H10.2387V7.55556H13.8581ZM8.42905 7.55556V12H4.80968V7.55556H8.42905ZM10.2387 18.2222V13.7778H13.8581V18.2222H10.2387ZM15.6678 18.2222V13.7778H19.1912V18.2222H15.6678ZM19.1903 12H15.6678V7.55556H19.1903V12Z" fill="#445370"/>
</svg>
