<svg width="24" height="24" viewBox="0 0 24 24" fill="none" xmlns="http://www.w3.org/2000/svg">
<path d="M10.9766 21.2164L14.976 3.21636L13.0226 2.78235L9.02324 20.7824L10.9766 21.2164Z" fill="#445370"/>
<path d="M8.625 15.219L7.375 16.781L2.375 12.781C2.138 12.591 2 12.304 2 12C2 11.696 2.138 11.409 2.375 11.219L7.375 7.21896L8.625 8.78096L4.601 12L8.625 15.219Z" fill="#445370"/>
<path d="M15.375 8.78096L16.625 7.21896L21.625 11.219C21.862 11.409 22 11.696 22 12C22 12.304 21.862 12.591 21.625 12.781L16.625 16.781L15.375 15.219L19.399 12L15.375 8.78096Z" fill="#445370"/>
</svg>
