<svg width="24" height="24" viewBox="0 0 24 24" fill="none" xmlns="http://www.w3.org/2000/svg">
<path d="M22.3348 11.09V9.92389H19.452L21.032 8.28145C21.457 7.84347 21.7388 7.47118 21.8774 7.1646C22.0252 6.85801 22.0992 6.52952 22.0992 6.17913C22.0992 5.57691 21.8913 5.08965 21.4755 4.71736C21.0597 4.34508 20.4868 4.15894 19.7569 4.15894C19.2025 4.15894 18.722 4.26843 18.3155 4.48742C17.909 4.69546 17.5856 4.9911 17.3453 5.37434L18.2185 6.11344C18.3663 5.87254 18.565 5.69188 18.8144 5.57143C19.0639 5.45099 19.3457 5.39076 19.6599 5.39076C20.0572 5.39076 20.3529 5.47289 20.5469 5.63713C20.7502 5.80137 20.8518 6.01489 20.8518 6.27768C20.8518 6.47477 20.7964 6.67186 20.6855 6.86896C20.5838 7.0551 20.3898 7.30147 20.1034 7.60805L17.6225 10.1703V11.09H22.3348Z" fill="#445370"/>
<path d="M11.1067 9.87164L8.2961 5.14807H5.74102L9.77805 12.0316L5.46848 19.2784H8.02356L11.1067 14.1309L14.2069 19.2784H16.8301L12.5035 11.9306L16.5064 5.14807H13.9173L11.1067 9.87164Z" fill="#445370"/>
</svg>
