<svg width="24" height="24" viewBox="0 0 24 24" fill="none" xmlns="http://www.w3.org/2000/svg">
<path d="M16.4344 14.3948V12.8654H7.53537V14.3948H16.4344Z" fill="#445370"/>
<path d="M16.4344 17.2602V15.6543H7.53537V17.2602H16.4344Z" fill="#445370"/>
<path d="M19.9276 9.95929C19.9307 9.96838 19.9338 9.97752 19.937 9.98676C19.965 10.069 19.982 10.1532 19.987 10.2393C19.9879 10.2492 19.9907 10.2585 19.9935 10.2676C19.9968 10.2784 20 10.2889 20 10.3V18.6199C20 19.6996 19.103 20.5776 18 20.5776H6C4.897 20.5776 4 19.6996 4 18.6199V5.40588C4 4.32624 4.897 3.44824 6 3.44824H13C13.0113 3.44824 13.0221 3.45138 13.033 3.45457C13.0424 3.4573 13.0519 3.46007 13.062 3.46097C13.151 3.46586 13.237 3.48348 13.321 3.51089C13.331 3.51424 13.3409 3.51731 13.3508 3.52036C13.3727 3.5271 13.3943 3.53375 13.415 3.54319C13.521 3.59115 13.622 3.65086 13.708 3.73504L19.708 9.60795C19.794 9.69213 19.855 9.79099 19.904 9.89475C19.9132 9.91615 19.9203 9.93755 19.9276 9.95929ZM14 9.32116H16.586L14 6.78993V9.32116ZM6 5.40588V18.6199H18.002L18 11.2788H13C12.447 11.2788 12 10.8413 12 10.3V5.40588H6Z" fill="#445370"/>
</svg>
