<svg width="24" height="24" viewBox="0 0 24 24" fill="none" xmlns="http://www.w3.org/2000/svg">
<path d="M3.63094 5.63369L3 6.26734L6.48192 9.75744L9.96379 13.2475L8.75846 16.0561C8.0955 17.6008 7.54265 18.8911 7.52987 18.9233C7.51161 18.9695 7.82502 18.982 9.00451 18.982H10.5023L11.2388 17.2577C11.6438 16.3094 11.9961 15.4935 12.0215 15.4448C12.0618 15.3675 12.425 15.7144 14.8834 18.1781L17.6992 21L18.3422 20.3543L18.9852 19.7086L11.6475 12.3543C7.61183 8.30942 4.2991 5 4.28589 5C4.27269 5 3.97796 5.28518 3.63094 5.63369ZM7.00173 5.08239C7.00173 5.1279 7.63571 5.79979 8.41781 6.58316L9.83389 8.00153L11.0124 8.01392L12.191 8.0263L11.8412 8.84505L11.4913 9.66379L12.5397 10.7146L13.5881 11.7654L14.3877 9.89586L15.1873 8.0263L18.0813 8.00284L20.9753 7.97938L20.9876 6.48969L21 5H14.0009C7.35689 5 7.00173 5.00418 7.00173 5.08239Z" fill="#445370"/>
</svg>
