<svg width="24" height="24" viewBox="0 0 24 24" fill="none" xmlns="http://www.w3.org/2000/svg">
<path d="M2.46606 15.5337C1.56096 14.6286 1.00023 13.3792 1.00023 12.0003C1.00023 9.24402 3.24388 7.00037 6.00018 7.00037L10.0003 7.00107V9.00077L6.00018 9.00006C4.34626 9.00077 3.00063 10.3464 2.99993 12.0003C3.00134 13.6549 4.34838 14.9992 6.00018 15.0006L10.0003 14.9999V16.9996L6.00018 17.0003C4.62203 17.001 3.37257 16.4388 2.46606 15.5337Z" fill="#445370"/>
<path d="M22.9997 12.0003C22.999 14.7559 20.7554 16.9996 17.9998 17.0003L13.9997 16.9996V14.9999L17.9998 15.0006C19.6537 14.9999 20.9993 13.6542 21 12.0003C20.9993 10.3464 19.6523 9.00219 17.9998 9.00006L13.9997 9.00077V7.00107L17.9998 7.00037C20.7547 7.00037 22.9997 9.2426 22.9997 12.0003Z" fill="#445370"/>
<path d="M5.99899 11.0002L5.99896 13.0002L18 13.0004L18 11.0004L5.99899 11.0002Z" fill="#445370"/>
</svg>
