<svg width="24" height="24" viewBox="0 0 24 24" fill="none" xmlns="http://www.w3.org/2000/svg">
<path d="M11.1067 9.87164L8.2961 5.14807H5.74102L9.77805 12.0316L5.46848 19.2784H8.02356L11.1067 14.1309L14.2069 19.2784H16.8301L12.5035 11.9306L16.5064 5.14807H13.9173L11.1067 9.87164Z" fill="#445370"/>
<path d="M22.3348 19.2784V18.1123H19.452L21.032 16.4698C21.457 16.0319 21.7388 15.6596 21.8774 15.353C22.0252 15.0464 22.0992 14.7179 22.0992 14.3675C22.0992 13.7653 21.8913 13.278 21.4755 12.9057C21.0597 12.5335 20.4868 12.3473 19.7569 12.3473C19.2025 12.3473 18.722 12.4568 18.3155 12.6758C17.909 12.8838 17.5856 13.1795 17.3453 13.5627L18.2185 14.3018C18.3663 14.0609 18.565 13.8803 18.8144 13.7598C19.0639 13.6394 19.3457 13.5791 19.6599 13.5791C20.0572 13.5791 20.3529 13.6613 20.5469 13.8255C20.7502 13.9898 20.8518 14.2033 20.8518 14.4661C20.8518 14.6632 20.7964 14.8602 20.6855 15.0573C20.5838 15.2435 20.3898 15.4899 20.1034 15.7964L17.6225 18.3586V19.2784H22.3348Z" fill="#445370"/>
</svg>
