<svg width="24" height="25" viewBox="0 0 24 25" fill="none" xmlns="http://www.w3.org/2000/svg">
<path d="M14 12.5022C14 12.3114 13.9355 12.1473 13.8102 12.0008L10.8956 8.67748C10.797 8.56212 10.6755 8.5 10.5313 8.5C10.2353 8.5 10 8.7751 10 9.11675C10 9.28536 10.0569 9.44509 10.1632 9.56933L12.7438 12.4978L10.1632 15.4307C10.0607 15.5549 10 15.7102 10 15.8833C10 16.2249 10.2353 16.5 10.5313 16.5C10.6755 16.5 10.797 16.4379 10.8994 16.3225L13.8102 12.9992C13.9393 12.8439 14 12.6886 14 12.5022Z" fill="#2F3A4F"/>
</svg>
