<svg width="24" height="25" viewBox="0 0 24 25" fill="none" xmlns="http://www.w3.org/2000/svg">
<path d="M14.8643 12.4775C14.8643 12.2256 14.7646 12.0088 14.5713 11.8154L10.0713 7.42676C9.91895 7.27441 9.73145 7.19238 9.50879 7.19238C9.05176 7.19238 8.68848 7.55566 8.68848 8.00684C8.68848 8.22949 8.77637 8.44043 8.94043 8.60449L12.9248 12.4717L8.94043 16.3447C8.78223 16.5088 8.68848 16.7139 8.68848 16.9424C8.68848 17.3936 9.05176 17.7568 9.50879 17.7568C9.73145 17.7568 9.91895 17.6748 10.0771 17.5225L14.5713 13.1338C14.7705 12.9287 14.8643 12.7236 14.8643 12.4775Z" fill="#2F3A4F"/>
</svg>
