<svg width="20" height="21" viewBox="0 0 20 21" fill="none" xmlns="http://www.w3.org/2000/svg">
<path d="M3 0.5C2.20435 0.5 1.44129 0.81607 0.87868 1.37868C0.31607 1.94129 0 2.70435 0 3.5V17.5C0 18.2957 0.31607 19.0587 0.87868 19.6213C1.44129 20.1839 2.20435 20.5 3 20.5H17C17.7957 20.5 18.5587 20.1839 19.1213 19.6213C19.6839 19.0587 20 18.2957 20 17.5V6.5C20 6.23478 19.8946 5.98043 19.7071 5.79289L14.7071 0.79289C14.5196 0.60536 14.2652 0.5 14 0.5H3ZM3 2.5H4.2002V6.50001C4.2002 6.94184 4.55837 7.30001 5.0002 7.30001H13.0002C13.442 7.30001 13.8002 6.94184 13.8002 6.50001C13.8002 6.05818 13.442 5.70001 13.0002 5.70001H5.8002V2.5H13.5858L18 6.91421V17.5C18 17.7652 17.8946 18.0196 17.7071 18.2071C17.5196 18.3946 17.2652 18.5 17 18.5H15.8002V11.5C15.8002 11.0582 15.442 10.7 15.0002 10.7H5.0002C4.55837 10.7 4.2002 11.0582 4.2002 11.5V18.5H3C2.73478 18.5 2.48043 18.3946 2.29289 18.2071C2.10536 18.0196 2 17.7652 2 17.5V3.5C2 3.23478 2.10536 2.98043 2.29289 2.79289C2.48043 2.60536 2.73478 2.5 3 2.5ZM14.2002 18.5H5.8002V12.3H14.2002V18.5Z" fill="#2F3A4F"/>
</svg>
