<svg width="24" height="25" viewBox="0 0 24 25" fill="none" xmlns="http://www.w3.org/2000/svg">
<path fill-rule="evenodd" clip-rule="evenodd" d="M5 2.5C4.20435 2.5 3.44129 2.81607 2.87868 3.37868C2.31607 3.94129 2 4.70435 2 5.5V19.5C2 20.2957 2.31607 21.0587 2.87868 21.6213C3.44129 22.1839 4.20435 22.5 5 22.5H19C19.7957 22.5 20.5587 22.1839 21.1213 21.6213C21.6839 21.0587 22 20.2957 22 19.5V8.5C22 8.23478 21.8946 7.98043 21.7071 7.79289L16.7071 2.79289C16.5196 2.60536 16.2652 2.5 16 2.5H5ZM4.29289 4.79289C4.48043 4.60536 4.73478 4.5 5 4.5H6.2002V8.50001C6.2002 8.94184 6.55837 9.30001 7.0002 9.30001H15.0002C15.442 9.30001 15.8002 8.94184 15.8002 8.50001C15.8002 8.05818 15.442 7.70001 15.0002 7.70001H7.8002V4.5H15.5858L20 8.91421V19.5C20 19.7652 19.8946 20.0196 19.7071 20.2071C19.5196 20.3946 19.2652 20.5 19 20.5H17.8002V13.5C17.8002 13.0582 17.442 12.7 17.0002 12.7H7.0002C6.55837 12.7 6.2002 13.0582 6.2002 13.5V20.5H5C4.73478 20.5 4.48043 20.3946 4.29289 20.2071C4.10536 20.0196 4 19.7652 4 19.5V5.5C4 5.23478 4.10536 4.98043 4.29289 4.79289ZM7.8002 20.5H16.2002V14.3H7.8002V20.5Z" fill="#2F3A4F"/>
</svg>
