<svg width="24" height="25" viewBox="0 0 24 25" fill="none" xmlns="http://www.w3.org/2000/svg">
<path fill-rule="evenodd" clip-rule="evenodd" d="M10.9363 17.3871C12.2574 17.3871 13.4926 16.9405 14.4877 16.2018L17.1728 18.8902C17.5091 19.2269 18.0547 19.2269 18.3909 18.8902C18.7272 18.5535 18.7264 18.0079 18.3893 17.6721L15.7059 14.9994C16.4436 14.0031 16.8897 12.7834 16.8897 11.4436C16.8897 8.16258 14.2304 5.5 10.9534 5.5C7.67647 5.5 5 8.17975 5 11.4436C5 14.7074 7.67647 17.3871 10.9363 17.3871ZM11.0375 7.25C13.4078 7.25 15.325 9.10849 15.325 11.4062C15.325 13.704 13.4078 15.5625 11.0375 15.5625C8.66718 15.5625 6.75 13.704 6.75 11.4062C6.75 9.10849 8.6846 7.25 11.0375 7.25Z" fill="#2F3A4F"/>
</svg>
