<svg width="24" height="25" viewBox="0 0 24 25" fill="none" xmlns="http://www.w3.org/2000/svg">
<path fill-rule="evenodd" clip-rule="evenodd" d="M22.7071 1.79292C22.9788 2.06456 23.0708 2.46779 22.9439 2.83038L15.9439 22.8304C15.8084 23.2174 15.4504 23.4825 15.0408 23.4992C14.6311 23.5159 14.2527 23.2808 14.0862 22.9062L10.2424 14.2576L1.59387 10.4138C1.21919 10.2473 0.984119 9.86894 1.00084 9.45926C1.01755 9.04959 1.28265 8.69162 1.66965 8.55617L21.6697 1.55617C22.0322 1.42926 22.4355 1.52128 22.7071 1.79292ZM12.1928 13.7215L14.8894 19.789L19.6085 6.30571L12.1928 13.7215ZM18.1943 4.8915L4.71108 9.61063L10.7785 12.3073L18.1943 4.8915Z" fill="#2F3A4F"/>
</svg>
