<svg width="20" height="19" viewBox="0 0 20 19" fill="none" xmlns="http://www.w3.org/2000/svg">
<path fill-rule="evenodd" clip-rule="evenodd" d="M0.5 3.50011C0.499935 2.12088 1.61307 0.999994 2.99535 1L2.9998 1.00002L17.0059 1.00007C18.3885 1.00008 19.4999 2.12132 19.4999 3.50007V15.5C19.4999 16.8805 18.3814 18 17.0005 18L6.01016 18C6.00666 18 6.00317 18.0001 5.99967 18.0001L3.00005 18C1.61919 18 0.500733 16.8806 0.500657 15.5001L0.5 3.50011C0.5 3.50012 0.5 3.50011 0.5 3.50011ZM1.5 3.5001L1.50066 15.5001C1.5007 16.3286 2.17185 17 3.00005 17L5.49969 17V2.00007L2.99978 2.00002C2.17145 2.00001 1.5 2.67158 1.5 3.5001C1.5 3.50009 1.5 3.50011 1.5 3.5001ZM6.49969 2.00002V17L17.0005 17C17.8287 17 18.4999 16.3286 18.4999 15.5V3.50007C18.4999 2.6697 17.8323 2.00008 17.0059 2.00007L6.49969 2.00002Z" fill="#2F3A4F"/>
<path d="M9.57047 9.14355C9.57047 8.96985 9.63914 8.8204 9.77244 8.6871L12.8747 5.66157C12.9797 5.55655 13.109 5.5 13.2625 5.5C13.5776 5.5 13.828 5.75044 13.828 6.06147C13.828 6.21497 13.7674 6.36039 13.6543 6.4735L10.9075 9.13951L13.6543 11.8096C13.7634 11.9227 13.828 12.064 13.828 12.2216C13.828 12.5326 13.5776 12.7831 13.2625 12.7831C13.109 12.7831 12.9797 12.7265 12.8707 12.6215L9.77244 9.59597C9.6351 9.45459 9.57047 9.31321 9.57047 9.14355Z" fill="#2F3A4F"/>
</svg>
