<svg width="20" height="19" viewBox="0 0 20 19" fill="none" xmlns="http://www.w3.org/2000/svg">
<path fill-rule="evenodd" clip-rule="evenodd" d="M2.99534 2C2.1684 2 1.49995 2.6701 1.5 3.50008L1.50066 15.5001C1.5007 16.3286 2.17185 17 3.00005 17L13.4999 17V2.00005L2.99534 2ZM2.99535 1C1.61306 0.999994 0.499924 2.12089 0.5 3.50013L0.500657 15.5001C0.500733 16.8806 1.61919 18 3.00005 18L13.9895 18C13.9929 18 13.9964 18.0001 13.9999 18.0001L16.9995 18.0001C17.1049 18.0001 17.2087 17.9936 17.3107 17.9809C18.4568 17.8386 19.3626 16.9205 19.4856 15.7684C19.4951 15.6802 19.4999 15.5907 19.4999 15.5V3.50008C19.4999 2.12703 18.3977 1.00937 17.023 1.00013C17.0173 1.00009 17.0116 1.00007 17.0059 1.00007L2.99535 1ZM17.0125 2.00008C17.8351 2.0069 18.4999 2.67589 18.4999 3.50007V15.5C18.4999 16.2633 17.9293 16.8937 17.1915 16.9879C17.1289 16.9959 17.0652 17 17.0005 17L14.4999 17V2.00007L17.0059 2.00007C17.0081 2.00007 17.0103 2.00007 17.0125 2.00008Z" fill="#2F3A4F"/>
<path d="M10.2577 9.14355C10.2577 8.96985 10.189 8.8204 10.0557 8.6871L6.95341 5.66157C6.84839 5.55655 6.71913 5.5 6.56563 5.5C6.25056 5.5 6.00011 5.75044 6.00011 6.06147C6.00011 6.21497 6.0607 6.36039 6.17381 6.4735L8.92061 9.13951L6.17381 11.8096C6.06474 11.9227 6.00011 12.064 6.00011 12.2216C6.00011 12.5326 6.25056 12.7831 6.56563 12.7831C6.71913 12.7831 6.84839 12.7265 6.95745 12.6215L10.0557 9.59597C10.193 9.45459 10.2577 9.31321 10.2577 9.14355Z" fill="#2F3A4F"/>
</svg>
