<svg width="24" height="24" viewBox="0 0 24 24" fill="none" xmlns="http://www.w3.org/2000/svg">
<path d="M18.1909 13.2409C18.2318 12.9136 18.2727 12.6273 18.2727 12.3C18.2727 9.02727 15.6136 6.32727 12.3 6.32727C11.9727 6.32727 11.6864 6.36818 11.3591 6.40909C10.8273 6.12273 10.2545 6 9.68182 6C7.63636 6 6 7.63636 6 9.68182C6 10.2545 6.12273 10.8273 6.40909 11.3591C6.36818 11.6864 6.32727 11.9727 6.32727 12.3C6.32727 15.5727 8.98636 18.2727 12.3 18.2727C12.6273 18.2727 12.9136 18.2318 13.2409 18.1909C13.7727 18.4364 14.3455 18.6 14.9182 18.6C16.9636 18.6 18.6 16.9636 18.6 14.9182C18.6 14.3455 18.4364 13.7727 18.1909 13.2409ZM14.7955 14.4682C14.6727 14.7136 14.5091 14.9182 14.2636 15.0818C14.0182 15.2455 13.7727 15.3682 13.4455 15.45C13.1182 15.5318 12.75 15.5727 12.3409 15.5727C11.4818 15.5727 10.7864 15.3682 10.2955 15C10.0091 14.7545 9.76364 14.4682 9.64091 14.1C9.47727 13.7727 9.76364 13.3636 10.1727 13.3636H10.2955C10.5409 13.3636 10.7864 13.5273 10.8682 13.7318C10.95 13.9364 11.0727 14.1 11.2364 14.2227C11.4818 14.4273 11.85 14.5091 12.3 14.5091C12.7091 14.5091 13.0364 14.4273 13.2818 14.3045C13.5273 14.1818 13.65 13.9364 13.65 13.6909C13.65 13.5682 13.6091 13.4864 13.5682 13.4045C13.5273 13.3227 13.4045 13.2409 13.3227 13.2C13.2 13.1182 13.0773 13.0773 12.8727 13.0364C12.7091 12.9955 12.5045 12.9136 12.2591 12.8727L12.0136 12.7909C11.7273 12.7091 11.4 12.6273 11.1545 12.5455C10.8682 12.4636 10.6227 12.3409 10.4182 12.2182C10.2136 12.0955 10.05 11.9318 9.92727 11.6864C9.80455 11.4818 9.76364 11.1955 9.76364 10.8682C9.76364 10.5409 9.84545 10.2545 9.96818 10.0091C10.0909 9.76364 10.2955 9.55909 10.5 9.43636C10.7455 9.27273 10.9909 9.15 11.3182 9.10909C11.6045 9.02727 11.9318 8.98636 12.3 8.98636C12.7091 8.98636 13.0364 9.02727 13.3636 9.10909C13.6909 9.19091 13.9364 9.31364 14.1818 9.51818C14.4273 9.68182 14.5909 9.88636 14.7136 10.1727C14.9182 10.5409 14.6318 11.0318 14.1818 11.0318H14.0591C13.8136 11.0318 13.6091 10.9091 13.4864 10.7045C13.4045 10.5818 13.3227 10.4591 13.2 10.3364C12.9955 10.1727 12.6682 10.0909 12.3 10.0909C11.9318 10.0909 11.6455 10.1727 11.4409 10.2955C11.2364 10.4182 11.1545 10.6227 11.1545 10.8273C11.1545 10.95 11.1955 11.0318 11.2364 11.1136C11.2773 11.1955 11.3591 11.2773 11.4818 11.3182C11.6045 11.3591 11.7273 11.4409 11.8909 11.4818C12.0545 11.5227 12.2591 11.5636 12.5045 11.6455C12.75 11.6864 12.9545 11.7682 13.2 11.8091C13.4045 11.85 13.6091 11.9318 13.8136 11.9727C14.0182 12.0545 14.1818 12.1364 14.3455 12.2182C14.5091 12.3 14.6318 12.4227 14.7545 12.5455C14.8773 12.6682 14.9591 12.8318 15 12.9955C15.0818 13.1591 15.0818 13.4045 15.0818 13.65C15 13.9364 14.9182 14.2227 14.7955 14.4682Z" fill="#2F3A4F"/>
</svg>
