<svg width="24" height="24" viewBox="0 0 24 24" fill="none" xmlns="http://www.w3.org/2000/svg">
<path d="M22.5063 13.3678C22.5818 12.7636 22.6573 12.235 22.6573 11.6308C22.6573 5.58881 17.7482 0.604196 11.6308 0.604196C11.0266 0.604196 10.4979 0.67972 9.89371 0.755245C8.91189 0.226573 7.85454 0 6.7972 0C3.02098 0 0 3.02098 0 6.7972C0 7.85455 0.226573 8.91189 0.755245 9.89371C0.67972 10.4979 0.604196 11.0266 0.604196 11.6308C0.604196 17.6727 5.51329 22.6573 11.6308 22.6573C12.235 22.6573 12.7636 22.5818 13.3678 22.5063C14.3496 22.9594 15.407 23.2615 16.4643 23.2615C20.2406 23.2615 23.2615 20.2406 23.2615 16.4643C23.2615 15.407 22.9594 14.3497 22.5063 13.3678ZM16.2378 15.6336C16.0112 16.0867 15.7091 16.4643 15.2559 16.7664C14.8028 17.0685 14.3496 17.2951 13.7455 17.4462C13.1413 17.5972 12.4615 17.6727 11.7063 17.6727C10.1203 17.6727 8.83636 17.2951 7.93007 16.6154C7.4014 16.1622 6.94825 15.6336 6.72168 14.9538C6.41958 14.3497 6.94825 13.5944 7.7035 13.5944H7.93007C8.38322 13.5944 8.83636 13.8965 8.98741 14.2741C9.13846 14.6517 9.36503 14.9538 9.66713 15.1804C10.1203 15.558 10.8 15.7091 11.6308 15.7091C12.386 15.7091 12.9902 15.558 13.4434 15.3315C13.8965 15.1049 14.1231 14.6517 14.1231 14.1986C14.1231 13.972 14.0476 13.821 13.972 13.6699C13.8965 13.5189 13.6699 13.3678 13.5189 13.2923C13.2923 13.1413 13.0657 13.0657 12.6881 12.9902C12.386 12.9147 12.0084 12.7636 11.5552 12.6881L11.1021 12.5371C10.5734 12.386 9.96923 12.235 9.51608 12.0839C8.98741 11.9329 8.53426 11.7063 8.15664 11.4797C7.77902 11.2531 7.47692 10.951 7.25035 10.4979C7.02378 10.1203 6.94825 9.59161 6.94825 8.98741C6.94825 8.38322 7.0993 7.85455 7.32587 7.4014C7.55245 6.94825 7.93007 6.57063 8.30769 6.34406C8.76084 6.04196 9.21398 5.81538 9.81818 5.73986C10.3469 5.58881 10.951 5.51329 11.6308 5.51329C12.386 5.51329 12.9902 5.58881 13.5944 5.73986C14.1986 5.89091 14.6517 6.11748 15.1049 6.49511C15.558 6.7972 15.8601 7.17483 16.0867 7.7035C16.4643 8.38322 15.9357 9.28951 15.1049 9.28951H14.8783C14.4252 9.28951 14.0476 9.06294 13.821 8.68532C13.6699 8.45874 13.5189 8.23217 13.2923 8.0056C12.9147 7.7035 12.3105 7.55245 11.6308 7.55245C10.951 7.55245 10.4224 7.7035 10.0448 7.93007C9.66713 8.15664 9.51608 8.53427 9.51608 8.91189C9.51608 9.13846 9.59161 9.28951 9.66713 9.44056C9.74266 9.59161 9.8937 9.74266 10.1203 9.81818C10.3469 9.89371 10.5734 10.0448 10.8755 10.1203C11.1776 10.1958 11.5552 10.2713 12.0084 10.4224C12.4615 10.4979 12.8392 10.649 13.2923 10.7245C13.6699 10.8 14.0476 10.951 14.4252 11.0266C14.8028 11.1776 15.1049 11.3287 15.407 11.4797C15.7091 11.6308 15.9357 11.8573 16.1622 12.0839C16.3888 12.3105 16.5399 12.6126 16.6154 12.9147C16.7664 13.2168 16.7664 13.6699 16.7664 14.1231C16.6154 14.6517 16.4643 15.1804 16.2378 15.6336Z" fill="#2F3A4F"/>
</svg>
