<svg width="24" height="24" viewBox="0 0 24 24" fill="none" xmlns="http://www.w3.org/2000/svg">
<path d="M19.6942 15.4814L22.2268 16.9479L21.3957 18.3854L18.8629 16.9216L18.7922 17.1675C18.6719 17.5855 18.6146 18.0193 18.6222 18.4542L18.6377 19.2855L16.9751 19.3165L16.9597 18.4853C16.9459 17.7199 17.0773 16.9588 17.3467 16.2423L17.4064 16.0835L12.8313 13.4398V18.7237L12.9986 18.7514C13.7537 18.8763 14.4783 19.1431 15.1341 19.5378L15.8458 19.9665L14.9877 21.3906L14.2757 20.9617C13.9038 20.7381 13.5008 20.5708 13.0799 20.4652L12.8313 20.4029V23.05H11.1687V20.4029L10.9201 20.4652C10.4992 20.5708 10.096 20.7382 9.72414 20.9618L9.01231 21.3906L8.15422 19.9665L8.86602 19.5377C9.52176 19.1431 10.2463 18.8763 11.0014 18.7514L11.1687 18.7237V13.4398L6.59355 16.0836L6.65328 16.2423C6.92294 16.9589 7.05443 17.7203 7.04081 18.4858L7.02532 19.3169L5.36275 19.2859L5.37825 18.4546C5.3863 18.0205 5.32968 17.5876 5.21025 17.1701L5.1398 16.9239L2.60444 18.3877L1.77307 16.948L4.30862 15.4792L4.1303 15.2953C3.8284 14.984 3.48193 14.7191 3.10231 14.5095L2.37505 14.1075L3.17907 12.6525L3.90587 13.0544C4.57562 13.425 5.16902 13.9192 5.65462 14.5109L5.76228 14.6421L10.3374 12L5.76275 9.35787L5.65508 9.48906C5.16948 10.0808 4.57607 10.575 3.90629 10.9456L3.17909 11.3476L2.37509 9.89259L3.10231 9.49101C3.48196 9.28135 3.82839 9.01651 4.1303 8.70517L4.30885 8.52103L1.7732 7.05652L2.60456 5.61675L5.13942 7.0763L5.20979 6.83032C5.32921 6.41286 5.38583 5.97993 5.37778 5.5458L5.36229 4.71452L7.02485 4.68354L7.04035 5.51482C7.05406 6.28019 6.92272 7.04123 6.65327 7.75773L6.59358 7.91645L11.1687 10.5601V5.2763L11.0014 5.24862C10.2463 5.12372 9.52168 4.85686 8.86594 4.46223L8.15422 4.03346L9.01231 2.60936L9.72428 3.03828C10.0962 3.2619 10.4992 3.42922 10.9201 3.53477L11.1687 3.59713V0.95H12.8313V3.59713L13.0799 3.53477C13.5008 3.42922 13.904 3.26181 14.2759 3.03819L14.9877 2.60936L15.8458 4.03346L15.134 4.46228C14.4782 4.85691 13.7537 5.12372 12.9986 5.24862L12.8313 5.2763V10.5601L17.4063 7.91652L17.3468 7.75788C17.0782 7.04179 16.9474 6.28134 16.9615 5.51665L16.977 4.68541L18.6396 4.71639L18.6241 5.54768C18.616 5.98183 18.6727 6.41474 18.7921 6.8322L18.8625 7.0784L21.3956 5.61684L22.2268 7.05434L19.6917 8.52068L19.8702 8.7047C20.1721 9.01603 20.5185 9.28088 20.8982 9.49054L21.6254 9.89252L20.8214 11.3476L20.0942 10.9456C19.4244 10.575 18.831 10.0808 18.3454 9.48906L18.2377 9.35787L13.6626 12L18.2372 14.6421L18.3449 14.5109C18.4273 14.4106 18.5128 14.313 18.6012 14.2184C19.034 13.7551 19.5375 13.3621 20.0937 13.0544L20.8209 12.6524L21.6249 14.1075L20.8973 14.5097C20.5472 14.7042 20.2255 14.9456 19.9412 15.2272C19.9178 15.2503 19.8946 15.2738 19.8717 15.2975L19.6942 15.4814Z" fill="#2F3A4F"/>
</svg>
