<svg width="24" height="24" viewBox="0 0 24 24" fill="none" xmlns="http://www.w3.org/2000/svg">
<path d="M6 3.99L2 7.99H5V19.99H7V7.99H10L6 3.99Z" fill="#2F3A4F"/>
<path d="M17 3H15C14.583 3 14.21 3.259 14.063 3.649L11.313 10.982H13.45L14.193 9H17.806L18.549 10.981H20.686L17.936 3.648C17.79 3.259 17.417 3 17 3ZM14.943 7L15.693 5H16.306L17.056 7H14.943Z" fill="#2F3A4F"/>
<path d="M19.7069 14.689C19.9929 14.403 20.0789 13.973 19.9239 13.599C19.7699 13.226 19.4039 12.982 18.9999 12.982H11.9999V14.982H16.5859L12.2929 19.275C12.0069 19.561 11.9209 19.991 12.0759 20.365C12.2299 20.738 12.5959 20.982 12.9999 20.982H19.9999V18.982H15.4139L19.7069 14.689Z" fill="#2F3A4F"/>
</svg>
