<svg width="24" height="24" viewBox="0 0 24 24" fill="none" xmlns="http://www.w3.org/2000/svg">
<path d="M6 3.99004H4V15.99H1L5 19.99L9 15.99H6V3.99004Z" fill="#2F3A4F"/>
<path d="M17.945 3.30005V11H15.767V4.98305H14.337V3.30005H17.945Z" fill="#2F3A4F"/>
<path d="M15.6182 13.146C16.7256 13.146 17.5982 13.4724 18.2362 14.125C18.8742 14.7777 19.1932 15.7164 19.1932 16.941C19.1932 17.821 19.0209 18.58 18.6762 19.218C18.3389 19.8487 17.8586 20.3291 17.2352 20.659C16.6192 20.989 15.9042 21.154 15.0902 21.154C14.6576 21.154 14.2432 21.1027 13.8472 21C13.4512 20.9047 13.1139 20.7691 12.8352 20.5931L13.6272 19.031C14.0012 19.295 14.4742 19.427 15.0462 19.427C15.5962 19.427 16.0399 19.2767 16.3772 18.976C16.7219 18.668 16.9236 18.2244 16.9822 17.645C16.5422 18.019 15.9666 18.206 15.2552 18.206C14.7712 18.206 14.3276 18.107 13.9242 17.909C13.5209 17.7037 13.1982 17.4177 12.9562 17.051C12.7216 16.677 12.6042 16.2517 12.6042 15.775C12.6042 15.2544 12.7362 14.796 13.0002 14.4C13.2716 13.9967 13.6346 13.6887 14.0892 13.476C14.5512 13.256 15.0609 13.146 15.6182 13.146ZM15.7722 16.644C16.0876 16.644 16.3442 16.556 16.5422 16.38C16.7402 16.1967 16.8392 15.9584 16.8392 15.665C16.8392 15.379 16.7402 15.148 16.5422 14.972C16.3516 14.7887 16.0912 14.697 15.7612 14.697C15.4532 14.697 15.2002 14.785 15.0022 14.961C14.8116 15.137 14.7162 15.3754 14.7162 15.676C14.7162 15.9694 14.8116 16.204 15.0022 16.38C15.2002 16.556 15.4569 16.644 15.7722 16.644Z" fill="#2F3A4F"/>
</svg>
