<svg width="24" height="24" viewBox="0 0 24 24" fill="none" xmlns="http://www.w3.org/2000/svg">
<path d="M19.707 14.707C19.993 14.421 20.079 13.991 19.924 13.617C19.77 13.244 19.404 13 19 13H12V15H16.586L12.293 19.293C12.007 19.579 11.921 20.009 12.076 20.383C12.23 20.756 12.596 21 13 21H20V19H15.414L19.707 14.707ZM7 3.99H5V15.99H2L6 19.99L10 15.99H7V3.99ZM17 3H15C14.583 3 14.21 3.259 14.063 3.649L11.313 10.982H13.45L14.193 9H17.806L18.549 10.981H20.686L17.936 3.648C17.79 3.259 17.417 3 17 3ZM14.943 7L15.693 5H16.306L17.056 7H14.943Z" fill="#2F3A4F"/>
</svg>
