<svg width="16" height="17" viewBox="0 0 16 17" fill="none" xmlns="http://www.w3.org/2000/svg">
<path d="M7.55157 2.74163C7.73498 2.37004 8.26485 2.37004 8.44827 2.74163L9.9437 5.77119C10.0165 5.91862 10.1571 6.02084 10.3197 6.04462L13.6647 6.53354C14.0747 6.59346 14.238 7.09738 13.9412 7.38646L11.5216 9.74315C11.4037 9.85802 11.3499 10.0236 11.3777 10.1859L11.9486 13.5146C12.0187 13.9231 11.5899 14.2346 11.2231 14.0417L8.23264 12.469C8.08695 12.3924 7.91288 12.3924 7.76719 12.469L4.77673 14.0417C4.40992 14.2346 3.98115 13.9231 4.0512 13.5146L4.62213 10.1859C4.64996 10.0236 4.59613 9.85802 4.47819 9.74315L2.05859 7.38646C1.76179 7.09738 1.92519 6.59346 2.33514 6.53354L5.6801 6.04462C5.84278 6.02084 5.98337 5.91862 6.05614 5.77119L7.55157 2.74163Z" fill="#2F3A4F"/>
</svg>
