<svg width="16" height="17" viewBox="0 0 16 17" fill="none" xmlns="http://www.w3.org/2000/svg">
<path d="M7.55158 2.74164C7.73499 2.37005 8.26486 2.37005 8.44828 2.74164L9.94371 5.7712C10.0165 5.91863 10.1571 6.02085 10.3197 6.04463L13.6647 6.53355C14.0747 6.59347 14.238 7.09739 13.9412 7.38647L11.5216 9.74316C11.4037 9.85803 11.3499 10.0236 11.3777 10.1859L11.9486 13.5146C12.0187 13.9231 11.5899 14.2346 11.2231 14.0417L8.23265 12.469C8.08696 12.3924 7.91289 12.3924 7.7672 12.469L4.77674 14.0417C4.40993 14.2346 3.98116 13.9231 4.05121 13.5146L4.62214 10.1859C4.64997 10.0236 4.59614 9.85803 4.4782 9.74316L2.0586 7.38647C1.7618 7.09739 1.9252 6.59347 2.33515 6.53355L5.68011 6.04463C5.84279 6.02085 5.98338 5.91863 6.05615 5.7712L7.55158 2.74164Z" fill="#2F3A4F"/>
</svg>
