<svg width="16" height="17" viewBox="0 0 16 17" fill="none" xmlns="http://www.w3.org/2000/svg">
<path fill-rule="evenodd" clip-rule="evenodd" d="M7.9999 1.03333C8.30439 1.03333 8.58249 1.20618 8.71726 1.47923L10.5913 5.27584L14.7823 5.88841C15.0835 5.93244 15.3337 6.14364 15.4276 6.43325C15.5215 6.72285 15.4429 7.04065 15.2248 7.25308L12.1929 10.2062L12.9084 14.3781C12.9598 14.6782 12.8364 14.9816 12.5901 15.1606C12.3437 15.3395 12.017 15.3631 11.7475 15.2214L7.9999 13.2505L4.25226 15.2214C3.98273 15.3631 3.65609 15.3395 3.40971 15.1606C3.16333 14.9816 3.03993 14.6782 3.09141 14.3781L3.80695 10.2062L0.77504 7.25308C0.556946 7.04066 0.478327 6.72285 0.57223 6.43325C0.666132 6.14364 0.916276 5.93244 1.21752 5.88841L5.40849 5.27584L7.28253 1.47923C7.41731 1.20618 7.6954 1.03332 7.9999 1.03333ZM7.99989 3.64074L6.65726 6.36076C6.54083 6.59664 6.31588 6.76021 6.0556 6.79825L3.05196 7.23728L5.22475 9.35358C5.41345 9.53737 5.49958 9.80228 5.45505 10.0619L4.94245 13.0506L7.62753 11.6386C7.86064 11.516 8.13915 11.516 8.37226 11.6386L11.0574 13.0507L10.5448 10.0619C10.5003 9.80227 10.5864 9.53737 10.7751 9.35358L12.9479 7.23728L9.94418 6.79825C9.68389 6.76021 9.45894 6.59664 9.34251 6.36076L7.99989 3.64074Z" fill="#2F3A4F"/>
</svg>
