<svg width="20" height="21" viewBox="0 0 20 21" fill="none" xmlns="http://www.w3.org/2000/svg">
<path d="M9.0765 2.29199C9.4181 1.4707 10.5815 1.4707 10.9231 2.29199L12.4103 5.86753C12.5543 6.21376 12.8799 6.45033 13.2537 6.4803L17.1138 6.78976C18.0004 6.86084 18.36 7.96735 17.6844 8.54602L14.7435 11.0653C14.4587 11.3092 14.3343 11.692 14.4213 12.0568L15.3198 15.8236C15.5262 16.6888 14.585 17.3726 13.8259 16.909L10.5211 14.8904C10.2011 14.695 9.79859 14.695 9.47857 14.8904L6.17379 16.909C5.41469 17.3726 4.47344 16.6888 4.67983 15.8236L5.57835 12.0568C5.66536 11.692 5.54098 11.3092 5.2562 11.0653L2.31521 8.54602C1.63968 7.96735 1.9992 6.86084 2.88586 6.78976L6.74595 6.4803C7.11974 6.45033 7.44535 6.21376 7.58935 5.86753L9.0765 2.29199Z" fill="#2F3A4F"/>
</svg>
