<svg width="24" height="24" viewBox="0 0 24 24" fill="none" xmlns="http://www.w3.org/2000/svg">
<path d="M17.8005 7.49978C17.8005 7.84455 17.6636 8.1752 17.4198 8.41899C17.176 8.66278 16.8454 8.79974 16.5006 8.79974C16.1559 8.79974 15.8253 8.66278 15.5815 8.41899C15.3377 8.1752 15.2008 7.84455 15.2008 7.49978C15.2008 7.15501 15.3377 6.82436 15.5815 6.58058C15.8253 6.33679 16.1559 6.19983 16.5006 6.19983C16.8454 6.19983 17.176 6.33679 17.4198 6.58058C17.6636 6.82436 17.8005 7.15501 17.8005 7.49978Z" fill="#2F3A4F"/>
<path d="M11.2695 4.67277L11.9578 3.98594C14.3814 1.56206 17.6687 0.200096 21.0963 0.199951H21.3752C22.0183 0.199951 22.6351 0.455434 23.0898 0.910198C23.5445 1.36496 23.8 1.98175 23.8 2.62488V2.90388C23.7991 6.33135 22.4367 9.61828 20.0128 12.0414L19.326 12.7297C18.8588 13.197 18.3722 13.6464 17.8693 14.0749L17.799 14.1348V19.0375C17.7989 19.4516 17.6927 19.8587 17.4907 20.2201C17.2887 20.5815 16.9974 20.8852 16.6448 21.1022L12.4841 23.6626C12.3639 23.7366 12.2283 23.7822 12.0877 23.7957C11.9472 23.8092 11.8054 23.7903 11.6733 23.7406C11.5411 23.6908 11.4221 23.6115 11.3254 23.5086C11.2287 23.4057 11.1568 23.2821 11.1152 23.1471L9.66475 18.4304L9.61067 18.3912C9.5441 18.3429 9.48002 18.287 9.41713 18.2241L5.77393 14.5822C5.71365 14.5219 5.65755 14.4564 5.60844 14.3887L5.56921 14.3346L0.85279 12.884C0.717842 12.8425 0.594197 12.7706 0.491331 12.6738C0.388466 12.5771 0.309112 12.4581 0.259351 12.326C0.209591 12.1938 0.190745 12.052 0.204258 11.9115C0.217767 11.7709 0.263319 11.6353 0.337309 11.5151L2.90213 7.3541C3.11908 7.00143 3.42272 6.7102 3.78412 6.50814C4.14549 6.3061 4.55264 6.19996 4.96666 6.19983H9.86454L9.92443 6.12954C10.3529 5.6266 10.8023 5.14002 11.2695 4.67277ZM5.60429 12.4092L7.96948 8.75711C8.05532 8.62389 8.14281 8.49339 8.23146 8.36115L8.44022 8.04976H4.9651C4.86689 8.04974 4.7703 8.07488 4.68456 8.12278C4.59881 8.1707 4.52675 8.23979 4.47528 8.32346L2.53996 11.4685L5.60429 12.4092ZM15.8777 19.3166C15.9256 19.2309 15.9507 19.1342 15.9507 19.036V15.5587L15.638 15.7719C15.5083 15.8603 15.3757 15.9467 15.2431 16.0317L11.5914 18.3953L12.5337 21.4613L15.677 19.5259C15.7607 19.4744 15.8298 19.4024 15.8777 19.3166ZM7.18262 13.3737L10.6256 16.8169L14.2364 14.4791C15.601 13.5967 16.8685 12.5722 18.0173 11.4228L18.7057 10.7358C19.734 9.70727 20.5498 8.48608 21.1062 7.1423C21.6626 5.79851 21.9489 4.35829 21.9487 2.90388V2.62488C21.9487 2.47238 21.8881 2.32613 21.7803 2.21829C21.6725 2.11046 21.5262 2.04988 21.3737 2.04988H21.0948C18.1863 2.0503 15.396 3.19487 13.3255 5.23431H13.3221L12.5765 5.97988C11.4274 7.1296 10.4029 8.39758 9.52026 9.76262L7.18262 13.3737Z" fill="#2F3A4F"/>
<path d="M5.68018 21.0277C5.56815 21.2792 5.40661 21.5055 5.20522 21.6932L5.20015 21.6981C4.68632 22.2119 3.8495 22.5921 2.99324 22.8636C2.14321 23.1332 1.30211 23.2873 0.804094 23.3637L0.80123 23.3642C0.778436 23.3681 0.755053 23.3664 0.733031 23.3593C0.71101 23.3523 0.690992 23.3401 0.674647 23.3238C0.6583 23.3074 0.6461 23.2874 0.639064 23.2654C0.632028 23.2434 0.63036 23.22 0.634219 23.1972L0.63466 23.1943C0.711106 22.6963 0.865192 21.8551 1.13511 21.0055C1.40701 20.1496 1.78791 19.3138 2.30297 18.8015L2.30815 18.7959C2.49581 18.5945 2.72211 18.433 2.97356 18.3209C3.225 18.2089 3.49643 18.1486 3.77166 18.1438C4.04689 18.1389 4.32028 18.1895 4.57551 18.2926C4.83075 18.3957 5.06261 18.5492 5.25726 18.7439C5.4519 18.9385 5.60535 19.1704 5.70845 19.4257C5.81154 19.6809 5.86217 19.9543 5.85731 20.2296C5.85246 20.5048 5.79221 20.7763 5.68018 21.0277Z" fill="#2F3A4F"/>
</svg>
