<svg width="24" height="24" viewBox="0 0 24 24" fill="none" xmlns="http://www.w3.org/2000/svg">
<path d="M15.61 15.7554L15.7566 15.7748L15.95 15.5818V14.2801L20.0871 16.6673L15.95 19.0545V17.5212L15.6734 17.4996C14.1445 17.38 12.9722 16.6234 12.1289 15.8148C11.7261 15.4311 11.3686 15.0423 11.0325 14.6769L11.0317 14.6761C10.9702 14.6091 10.9093 14.543 10.849 14.4778C10.4661 14.0636 10.0982 13.6787 9.731 13.4111C9.23741 13.0504 8.81553 12.8663 8.21315 12.8587H3.3V11.1253L8.21 11.1254L8.21458 11.1253C8.81654 11.1161 9.23677 10.9322 9.72888 10.573L9.73057 10.5717C10.1832 10.2365 10.6553 9.72006 11.1595 9.16865L11.248 9.07187L11.2488 9.07095C12.2338 7.98572 13.5715 6.66043 15.6731 6.49305L15.9493 6.47105V4.94564L20.0868 7.33468L15.95 9.72365V8.18606L15.6116 8.2298C14.656 8.35329 14.0069 8.80029 13.3146 9.43088L13.3139 9.43156C13.0048 9.71502 12.7026 10.0433 12.3961 10.3762C12.3364 10.4411 12.2764 10.5062 12.2163 10.5712C11.8431 10.9742 11.4523 11.3819 11.0025 11.7569L10.7254 11.988L11.0032 12.2183C11.5047 12.6342 11.9256 13.0901 12.336 13.5347C12.3989 13.6029 12.4616 13.6708 12.5242 13.7382C13.4829 14.7698 14.296 15.5816 15.61 15.7554Z" fill="#2F3A4F"/>
</svg>
