<svg width="24" height="24" viewBox="0 0 24 24" fill="none" xmlns="http://www.w3.org/2000/svg">
<path d="M4.10004 10.0001C4.10004 6.18934 7.18927 3.1001 11 3.1001H13C16.8108 3.1001 19.9 6.18933 19.9 10.0001V10.1001L21 10.1001C22.0494 10.1001 22.9 10.9508 22.9 12.0001V16.0001C22.9 17.0495 22.0494 17.9001 21 17.9001H19.7965L19.7772 17.9752C19.3442 19.6573 17.8171 20.9001 16 20.9001H14.6748L14.6459 20.95C14.3173 21.5182 13.7032 21.9001 13 21.9001C11.9507 21.9001 11.1 21.0494 11.1 20.0001C11.1 18.9508 11.9507 18.1001 13 18.1001C13.7032 18.1001 14.3172 18.482 14.6459 19.0502L14.6748 19.1001H16C17.1578 19.1001 18.0967 18.1632 18.1 17.0063L18.1 17.0001L18.1 10.0001C18.1 7.18345 15.8167 4.9001 13 4.9001H11C8.18338 4.9001 5.90004 7.18345 5.90004 10.0001V17.9001H3.00004C1.9507 17.9001 1.10004 17.0495 1.10004 16.0001V12.0001C1.10004 10.9508 1.9507 10.1001 3.00004 10.1001H4.10004V10.0001ZM4.10004 11.9001H2.90004L2.90004 16.1001H4.10004V11.9001ZM21.1 11.9001H19.9V16.1001H21.1V11.9001Z" fill="#2F3A4F"/>
<path d="M8.60004 12.2501C8.60004 11.615 9.11491 11.1001 9.75004 11.1001C10.3852 11.1001 10.9 11.615 10.9 12.2501C10.9 12.8852 10.3852 13.4001 9.75004 13.4001C9.11491 13.4001 8.60004 12.8852 8.60004 12.2501Z" fill="#2F3A4F"/>
<path d="M13.1 12.2501C13.1 11.615 13.6149 11.1001 14.25 11.1001C14.8852 11.1001 15.4 11.615 15.4 12.2501C15.4 12.8852 14.8852 13.4001 14.25 13.4001C13.6149 13.4001 13.1 12.8852 13.1 12.2501Z" fill="#2F3A4F"/>
</svg>
