<svg width="24" height="24" viewBox="0 0 24 24" fill="none" xmlns="http://www.w3.org/2000/svg">
<path d="M0.42084 11.5811L5.93855 13.6385L8.08949 20.559C8.18301 21.0266 8.74414 21.1201 9.11822 20.8396L12.2044 18.3145C12.4849 18.034 12.9525 18.034 13.3266 18.3145L18.8443 22.3359C19.2184 22.6165 19.7795 22.4294 19.873 21.9618L23.9879 2.32261C24.0814 1.85501 23.6138 1.38742 23.1462 1.57446L0.42084 10.3653C-0.14028 10.5524 -0.14028 11.3941 0.42084 11.5811ZM7.80895 12.6098L18.6572 5.96989C18.8443 5.87637 19.0313 6.15694 18.8443 6.25046L9.9599 14.5737C9.67934 14.8543 9.39877 15.2284 9.39877 15.696L9.11822 17.9405C9.11822 18.221 8.65061 18.3145 8.55709 17.9405L7.43484 13.8256C7.15428 13.358 7.34135 12.7969 7.80895 12.6098Z" fill="#2F3A4F"/>
</svg>
