<svg width="24" height="24" viewBox="0 0 24 24" fill="none" xmlns="http://www.w3.org/2000/svg">
<path d="M6.21042 12.0244L8.96928 13.0532L10.0448 16.5134C10.0915 16.7472 10.3721 16.794 10.5591 16.6537L12.1022 15.3912C12.2425 15.2509 12.4763 15.2509 12.6633 15.3912L15.4222 17.4019C15.6092 17.5421 15.8898 17.4486 15.9365 17.2148L17.994 7.39519C18.0407 7.16139 17.8069 6.92759 17.5731 7.02111L6.21042 11.4166C5.92986 11.5101 5.92986 11.9309 6.21042 12.0244ZM9.90448 12.5388L15.3286 9.21884C15.4222 9.17208 15.5157 9.31236 15.4222 9.35912L10.98 13.5208C10.8397 13.6611 10.6994 13.8481 10.6994 14.0819L10.5591 15.2041C10.5591 15.3444 10.3253 15.3912 10.2786 15.2041L9.71743 13.1467C9.57715 12.9129 9.67068 12.6323 9.90448 12.5388Z" fill="#2F3A4F"/>
</svg>
