<svg width="24" height="25" viewBox="0 0 24 25" fill="none" xmlns="http://www.w3.org/2000/svg">
<path d="M12.0022 10.5C11.8114 10.5 11.6473 10.5645 11.5008 10.6898L8.17748 13.6044C8.06212 13.703 8 13.8245 8 13.9687C8 14.2647 8.2751 14.5 8.61675 14.5C8.78536 14.5 8.94509 14.4431 9.06933 14.3368L11.9978 11.7562L14.9307 14.3368C15.0549 14.4393 15.2102 14.5 15.3833 14.5C15.7249 14.5 16 14.2647 16 13.9687C16 13.8245 15.9379 13.703 15.8225 13.6006L12.4992 10.6898C12.3439 10.5607 12.1886 10.5 12.0022 10.5Z" fill="#2F3A4F"/>
</svg>
