<svg width="24" height="25" viewBox="0 0 24 25" fill="none" xmlns="http://www.w3.org/2000/svg">
<path d="M11.9775 9.63574C11.7256 9.63574 11.5088 9.73535 11.3154 9.92871L6.92676 14.4287C6.77441 14.5811 6.69238 14.7686 6.69238 14.9912C6.69238 15.4482 7.05566 15.8115 7.50684 15.8115C7.72949 15.8115 7.94043 15.7236 8.10449 15.5596L11.9717 11.5752L15.8447 15.5596C16.0088 15.7178 16.2139 15.8115 16.4424 15.8115C16.8936 15.8115 17.2568 15.4482 17.2568 14.9912C17.2568 14.7686 17.1748 14.5811 17.0225 14.4229L12.6338 9.92871C12.4287 9.72949 12.2236 9.63574 11.9775 9.63574Z" fill="#2F3A4F"/>
</svg>
