<svg width="16" height="17" viewBox="0 0 16 17" fill="none" xmlns="http://www.w3.org/2000/svg">
<path fill-rule="evenodd" clip-rule="evenodd" d="M2.75 3.83333C2.75 3.51117 3.01117 3.25 3.33333 3.25H12.6667C12.9888 3.25 13.25 3.51117 13.25 3.83333V13.1667C13.25 13.4888 12.9888 13.75 12.6667 13.75H3.33333C3.01117 13.75 2.75 13.4888 2.75 13.1667V3.83333ZM3.33333 1.75C2.18274 1.75 1.25 2.68274 1.25 3.83333V13.1667C1.25 14.3173 2.18274 15.25 3.33333 15.25H12.6667C13.8173 15.25 14.75 14.3173 14.75 13.1667V3.83333C14.75 2.68274 13.8173 1.75 12.6667 1.75H3.33333ZM4.6665 4.41669C4.25229 4.41669 3.9165 4.75247 3.9165 5.16669V8.50002C3.9165 8.91423 4.25229 9.25002 4.6665 9.25002H6.6665C7.08072 9.25002 7.4165 8.91423 7.4165 8.50002V5.16669C7.4165 4.75247 7.08072 4.41669 6.6665 4.41669H4.6665ZM5.4165 7.75002V5.91669H5.9165V7.75002H5.4165ZM9.33317 4.41669C8.91896 4.41669 8.58317 4.75247 8.58317 5.16669V11.1667C8.58317 11.5809 8.91896 11.9167 9.33317 11.9167H11.3332C11.7474 11.9167 12.0832 11.5809 12.0832 11.1667V5.16669C12.0832 4.75247 11.7474 4.41669 11.3332 4.41669H9.33317ZM10.0832 10.4167V5.91669H10.5832V10.4167H10.0832Z" fill="#2F3A4F"/>
</svg>
