<svg width="24" height="25" viewBox="0 0 24 25" fill="none" xmlns="http://www.w3.org/2000/svg">
<path fill-rule="evenodd" clip-rule="evenodd" d="M5 4.5C4.44772 4.5 4 4.94772 4 5.5V19.5C4 20.0523 4.44771 20.5 5 20.5H19C19.5523 20.5 20 20.0523 20 19.5V5.5C20 4.94771 19.5523 4.5 19 4.5H5ZM2 5.5C2 3.84315 3.34315 2.5 5 2.5H19C20.6569 2.5 22 3.84315 22 5.5V19.5C22 21.1569 20.6569 22.5 19 22.5H5C3.34315 22.5 2 21.1569 2 19.5V5.5ZM6 7.5C6 6.94772 6.44772 6.5 7 6.5H10C10.5523 6.5 11 6.94772 11 7.5V12.5C11 13.0523 10.5523 13.5 10 13.5H7C6.44772 13.5 6 13.0523 6 12.5V7.5ZM8 8.5V11.5H9V8.5H8ZM13 7.5C13 6.94772 13.4477 6.5 14 6.5H17C17.5523 6.5 18 6.94772 18 7.5V16.5C18 17.0523 17.5523 17.5 17 17.5H14C13.4477 17.5 13 17.0523 13 16.5V7.5ZM15 8.5V15.5H16V8.5H15Z" fill="#2F3A4F"/>
</svg>
