<svg width="24" height="25" viewBox="0 0 24 25" fill="none" xmlns="http://www.w3.org/2000/svg">
<g clip-path="url(#clip0)">
<path fill-rule="evenodd" clip-rule="evenodd" d="M17 7.5C16.4477 7.5 16 7.05228 16 6.5C16 5.94772 16.4477 5.5 17 5.5H23C23.5523 5.5 24 5.94772 24 6.5V12.5C24 13.0523 23.5523 13.5 23 13.5C22.4477 13.5 22 13.0523 22 12.5V8.91421L14.2071 16.7071C13.8166 17.0976 13.1834 17.0976 12.7929 16.7071L8.5 12.4142L1.70711 19.2071C1.31658 19.5976 0.683417 19.5976 0.292893 19.2071C-0.0976311 18.8166 -0.0976311 18.1834 0.292893 17.7929L7.79289 10.2929C8.18342 9.90237 8.81658 9.90237 9.20711 10.2929L13.5 14.5858L20.5858 7.5H17Z" fill="#2F3A4F"/>
</g>
<defs>
<clipPath id="clip0">
<rect width="24" height="24" fill="white" transform="translate(0 0.5)"/>
</clipPath>
</defs>
</svg>
