<svg width="24" height="24" viewBox="0 0 24 24" fill="none" xmlns="http://www.w3.org/2000/svg">
<path d="M17.76 8.14C17.34 8.32 16.86 8.44 16.38 8.5C16.86 8.2 17.28 7.72 17.46 7.18C16.98 7.48 16.5 7.66 15.9 7.78C15.48 7.3 14.82 7 14.16 7C12.84 7 11.76 8.08 11.76 9.4C11.76 9.58 11.76 9.76 11.82 9.94C9.84 9.82 8.04 8.86 6.84 7.42C6.66 7.78 6.54 8.2 6.54 8.62C6.54 9.46 6.96 10.18 7.62 10.6C7.2 10.6 6.84 10.48 6.54 10.3C6.54 11.44 7.37999 12.46 8.45999 12.64C8.27999 12.7 8.04 12.7 7.8 12.7C7.62 12.7 7.5 12.7 7.32 12.64C7.62 13.6 8.52 14.32 9.6 14.32C8.76 14.98 7.74 15.34 6.6 15.34C6.42 15.34 6.24 15.34 6 15.28C7.08 15.94 8.34 16.36 9.72 16.36C14.16 16.36 16.56 12.7 16.56 9.52V9.22C17.04 9.04 17.46 8.62 17.76 8.14Z" fill="#2F3A4F"/>
</svg>
