<svg width="24" height="25" viewBox="0 0 24 25" fill="none" xmlns="http://www.w3.org/2000/svg">
<path fill-rule="evenodd" clip-rule="evenodd" d="M14.5611 2.94364C15.5908 2.55064 16.7163 2.48335 17.7854 2.75086C18.6551 2.96846 19.4533 3.39904 20.1102 3.9997C20.9515 3.69625 21.749 3.28102 22.4812 2.76457C22.7877 2.54833 23.1963 2.54493 23.5064 2.75604C23.8165 2.96715 23.9632 3.34848 23.8744 3.71298C23.5323 5.11765 22.8431 6.41123 21.8731 7.47659C21.8904 7.64945 21.8994 7.82314 21.8999 7.99705L21.9 8.00002C21.8999 14.0649 18.9818 18.505 14.7978 20.732C10.6358 22.9472 5.31173 22.925 0.562868 20.2867C0.198538 20.0843 0.0208366 19.6583 0.13338 19.257C0.245924 18.8557 0.619267 18.5841 1.03572 18.6007C2.80126 18.6709 4.54835 18.3043 6.12568 17.5441C4.55147 16.6041 3.43116 15.4781 2.66148 14.2628C1.66915 12.6959 1.29379 11.0351 1.22587 9.54089C1.15813 8.05058 1.3949 6.70753 1.64424 5.74343C1.76945 5.25928 1.89931 4.86502 1.99927 4.58855C2.0493 4.45018 2.09198 4.34089 2.12307 4.26415C2.13862 4.22577 2.15128 4.19549 2.16053 4.17375L2.17178 4.14757L2.17536 4.13938L2.17662 4.13652L2.17711 4.1354C2.17749 4.13455 3.55075 4.7441 2.17711 4.1354C2.30879 3.83912 2.59007 3.63566 2.91277 3.60425C3.23548 3.57285 3.55013 3.71745 3.73647 3.98278C4.66149 5.29996 5.8979 6.36792 7.33559 7.09156C8.51148 7.68342 9.79216 8.02992 11.0999 8.11366V8.03584C11.0865 6.93599 11.4105 5.85838 12.0283 4.94825C12.6473 4.03639 13.5314 3.33664 14.5611 2.94364ZM3.34947 6.34274C3.14536 7.17525 2.97004 8.27154 3.02402 9.45915C3.0811 10.7149 3.39324 12.054 4.18216 13.2997C4.96745 14.5396 6.25938 15.7415 8.36547 16.6776C8.66409 16.8103 8.86731 17.0944 8.89638 17.4199C8.92545 17.7454 8.77579 18.0611 8.50541 18.2446C7.30045 19.0626 5.97032 19.659 4.57717 20.0162C7.88803 20.9536 11.2326 20.5905 13.9521 19.143C17.5177 17.2452 20.0994 13.4359 20.0999 8.00187C20.0991 7.77941 20.0777 7.5575 20.036 7.339C19.9795 7.04392 20.0741 6.74016 20.288 6.52922C20.5956 6.22587 20.8723 5.89535 21.1153 5.54265C20.7891 5.67366 20.4569 5.79019 20.1194 5.8918C19.7805 5.99387 19.4132 5.88775 19.1808 5.62064C18.6996 5.06726 18.06 4.67505 17.3485 4.49703C16.6371 4.31902 15.8881 4.3638 15.203 4.62531C14.5178 4.88682 13.9295 5.35246 13.5176 5.95923C13.1057 6.566 12.89 7.28464 12.8999 8.01796L12.9 8.03002L12.8999 9.03002C12.8999 9.51799 12.5111 9.91707 12.0233 9.92972C10.1175 9.97913 8.22916 9.55647 6.52632 8.69938C5.33604 8.10027 4.26224 7.3019 3.34947 6.34274Z" fill="#2F3A4F"/>
</svg>
