<svg width="24" height="25" viewBox="0 0 24 25" fill="none" xmlns="http://www.w3.org/2000/svg">
<path fill-rule="evenodd" clip-rule="evenodd" d="M14.5611 2.94361C15.5908 2.55061 16.7163 2.48332 17.7854 2.75083C18.6551 2.96843 19.4533 3.39901 20.1102 3.99967C20.9515 3.69622 21.749 3.28099 22.4812 2.76454C22.7877 2.5483 23.1963 2.5449 23.5064 2.75601C23.8165 2.96712 23.9632 3.34845 23.8744 3.71295C23.5323 5.11762 22.8431 6.4112 21.8731 7.47656C21.8904 7.64942 21.8994 7.82311 21.8999 7.99702L21.9 7.99999C21.8999 14.0649 18.9818 18.505 14.7978 20.732C10.6358 22.9472 5.31173 22.925 0.562868 20.2867C0.198538 20.0843 0.0208365 19.6583 0.13338 19.257C0.245924 18.8557 0.619267 18.5841 1.03572 18.6007C2.80126 18.6709 4.54835 18.3043 6.12568 17.5441C4.55147 16.6041 3.43116 15.4781 2.66148 14.2628C1.66915 12.6959 1.29379 11.0351 1.22587 9.54086C1.15813 8.05055 1.3949 6.7075 1.64424 5.7434C1.76945 5.25925 1.89931 4.86499 1.99927 4.58852C2.0493 4.45015 2.09198 4.34086 2.12307 4.26412C2.13862 4.22574 2.15128 4.19546 2.16053 4.17372L2.17178 4.14754L2.17536 4.13935L2.17662 4.13649L2.17711 4.13537C2.17749 4.13452 3.55075 4.74407 2.17711 4.13537C2.30879 3.83909 2.59007 3.63563 2.91277 3.60422C3.23548 3.57282 3.55013 3.71742 3.73647 3.98275C4.66149 5.29993 5.8979 6.36789 7.33559 7.09153C8.51148 7.68339 9.79216 8.02989 11.0999 8.11363V8.03581C11.0865 6.93596 11.4105 5.85835 12.0283 4.94822C12.6473 4.03636 13.5314 3.33661 14.5611 2.94361ZM3.34947 6.34271C3.14536 7.17522 2.97004 8.27151 3.02402 9.45912C3.0811 10.7149 3.39324 12.054 4.18216 13.2997C4.96745 14.5396 6.25938 15.7415 8.36547 16.6776C8.66409 16.8103 8.86731 17.0944 8.89638 17.4199C8.92545 17.7454 8.77579 18.0611 8.50541 18.2446C7.30045 19.0626 5.97032 19.659 4.57717 20.0162C7.88803 20.9536 11.2326 20.5905 13.9521 19.143C17.5177 17.2452 20.0994 13.4359 20.0999 8.00184C20.0991 7.77938 20.0777 7.55747 20.036 7.33897C19.9795 7.04389 20.0741 6.74013 20.288 6.52919C20.5956 6.22584 20.8723 5.89532 21.1153 5.54262C20.7891 5.67363 20.4569 5.79016 20.1194 5.89177C19.7805 5.99384 19.4132 5.88772 19.1808 5.62061C18.6996 5.06723 18.06 4.67502 17.3485 4.497C16.6371 4.31899 15.8881 4.36377 15.203 4.62528C14.5178 4.88679 13.9295 5.35243 13.5176 5.9592C13.1057 6.56597 12.89 7.28461 12.8999 8.01793L12.9 8.02999L12.8999 9.02999C12.8999 9.51796 12.5111 9.91704 12.0233 9.92969C10.1175 9.9791 8.22916 9.55644 6.52632 8.69935C5.33604 8.10024 4.26224 7.30187 3.34947 6.34271Z" fill="#2F3A4F"/>
</svg>
