<svg width="24" height="24" viewBox="0 0 24 24" fill="none" xmlns="http://www.w3.org/2000/svg">
<path d="M23.7602 4.92013C22.9202 5.28013 21.9602 5.52014 21.0002 5.64014C21.9602 5.04014 22.8002 4.08014 23.1602 3.00014C22.2002 3.60014 21.2402 3.96014 20.0402 4.20014C19.2002 3.24014 17.8802 2.64014 16.5602 2.64014C13.9202 2.64014 11.7602 4.80014 11.7602 7.44014C11.7602 7.80014 11.7602 8.16013 11.8802 8.52013C7.92023 8.28013 4.32023 6.36013 1.92023 3.48013C1.56023 4.20013 1.32023 5.04013 1.32023 5.88013C1.32023 7.56013 2.16023 9.00014 3.48023 9.84014C2.64023 9.84014 1.92023 9.60014 1.32023 9.24014C1.32023 11.5201 3.00022 13.5601 5.16022 13.9201C4.80022 14.0401 4.32023 14.0401 3.84023 14.0401C3.48023 14.0401 3.24023 14.0401 2.88023 13.9201C3.48023 15.8401 5.28023 17.2801 7.44023 17.2801C5.76023 18.6001 3.72023 19.3201 1.44023 19.3201C1.08023 19.3201 0.720234 19.3201 0.240234 19.2001C2.40023 20.5201 4.92023 21.3601 7.68023 21.3601C16.5602 21.3601 21.3602 14.0401 21.3602 7.68013V7.08013C22.3202 6.72013 23.1602 5.88013 23.7602 4.92013Z" fill="#2F3A4F"/>
</svg>
