<svg width="24" height="25" viewBox="0 0 24 25" fill="none" xmlns="http://www.w3.org/2000/svg">
<path fill-rule="evenodd" clip-rule="evenodd" d="M5.32921 12.6691H4.8457V11.1229H5.71506C6.26368 11.1229 6.53177 11.3756 6.53177 11.8936C6.53177 12.3484 6.44464 12.6691 5.32921 12.6691Z" fill="#2F3A4F"/>
<path fill-rule="evenodd" clip-rule="evenodd" d="M11.8002 14.8531H11.1357V11.1372H11.8002C12.4991 11.1372 13.3015 11.3488 13.3015 12.9976C13.3015 14.6329 12.5422 14.8531 11.8002 14.8531Z" fill="#2F3A4F"/>
<path fill-rule="evenodd" clip-rule="evenodd" d="M3 0.5H21C22.6569 0.5 24 1.84315 24 3.5V21.5C24 23.1569 22.6569 24.5 21 24.5H3C1.34315 24.5 0 23.1569 0 21.5V3.5C0 1.84315 1.34315 0.5 3 0.5ZM3.38298 16.4903H4.46298C4.67457 16.4903 4.84596 16.318 4.84596 16.1064V14.2834H5.87234C7.38223 14.2834 8.39713 13.3231 8.39713 11.8936C8.39713 10.4843 7.36021 9.5 5.87713 9.5H3.38298C3.17138 9.5 3 9.67234 3 9.88298V16.1064C3 16.318 3.17138 16.4903 3.38298 16.4903ZM9.67245 16.4903H11.9138C14.0212 16.4903 15.1816 15.2447 15.1816 12.9841C15.1816 10.737 14.0212 9.5 11.9138 9.5H9.67245C9.46085 9.5 9.28947 9.67234 9.28947 9.88298V16.1064C9.28947 16.318 9.46085 16.4903 9.67245 16.4903ZM16.6082 16.4903H17.6891C17.9007 16.4903 18.0721 16.318 18.0721 16.1064V13.9186H20.3643C20.5759 13.9186 20.7472 13.7463 20.7472 13.5356V12.6691C20.7472 12.4576 20.5759 12.2862 20.3643 12.2862H18.0721V11.1459H20.617C20.8277 11.1459 21 10.9745 21 10.7629V9.88298C21 9.67234 20.8277 9.5 20.617 9.5H16.6082C16.3966 9.5 16.2252 9.67234 16.2252 9.88298V16.1064C16.2252 16.318 16.3966 16.4903 16.6082 16.4903Z" fill="#2F3A4F"/>
</svg>
