<svg width="24" height="24" viewBox="0 0 24 24" fill="none" xmlns="http://www.w3.org/2000/svg">
<path d="M3 0C1.34315 0 0 1.34315 0 3V21C0 22.6569 1.34315 24 3 24H21C22.6569 24 24 22.6569 24 21V3C24 1.34315 22.6569 0 21 0H3ZM4 8C4 7.44772 4.44772 7 5 7H13C13.5523 7 14 7.44772 14 8V16C14 16.5523 13.5523 17 13 17H5C4.44772 17 4 16.5523 4 16V8ZM19.16 15.9382L16 14.4093V9.59169L19.16 8.06177C19.5406 7.87739 20 8.12806 20 8.51857V15.4814C20 15.8719 19.5406 16.1226 19.16 15.9382Z" fill="#2F3A4F"/>
</svg>
