<svg width="24" height="24" viewBox="0 0 24 24" fill="none" xmlns="http://www.w3.org/2000/svg">
<path d="M3 0C1.34315 0 0 1.34315 0 3V21C0 22.6569 1.34315 24 3 24H21C22.6569 24 24 22.6569 24 21V3C24 1.34315 22.6569 0 21 0H3ZM19 5.61884V15.2C19 16.7464 17.7464 18 16.2 18H15.8C14.2536 18 13 16.7464 13 15.2V14.8C13 13.2536 14.2536 12 15.8 12H16.2C16.478 12 16.7465 12.0405 17 12.116V8.24223L11 8.86335V16.2C11 17.7464 9.7464 19 8.2 19H7.8C6.2536 19 5 17.7464 5 16.2V15.8C5 14.2536 6.2536 13 7.8 13H8.2C8.47799 13 8.74652 13.0405 9 13.116V6.65404C9 6.27338 9.31025 5.93269 9.71918 5.89036L18.2808 5.00406C18.678 4.96294 19 5.23874 19 5.61884Z" fill="#2F3A4F"/>
</svg>
