<svg width="24" height="24" viewBox="0 0 24 24" fill="none" xmlns="http://www.w3.org/2000/svg">
<path d="M10.7207 13.3125C12.2051 13.3125 13.2354 12.3408 13.2354 10.8906C13.2354 9.42574 12.2441 8.45406 10.7939 8.45406H7.85449V15.5H9.3291V13.3125H10.7207ZM11.7363 10.8955C11.7363 11.6865 11.2432 12.1162 10.3984 12.1162H9.3291V9.665H10.4033C11.2529 9.665 11.7363 10.0947 11.7363 10.8955Z" fill="#2F3A4F"/>
<path d="M3 0C1.34315 0 0 1.34315 0 3V21C0 22.6569 1.34315 24 3 24H21C22.6569 24 24 22.6569 24 21V3C24 1.34315 22.6569 0 21 0H3ZM4 6.44633C4 6.22845 4.16031 6.04378 4.37603 6.01317L15.501 4.43435C15.7645 4.39697 16 4.60144 16 4.86751V19.1341C16 19.3996 15.7655 19.6039 15.5026 19.5675L4.37759 18.0297C4.16118 17.9998 4 17.8148 4 17.5963V6.44633ZM20 7.49999V16.5C20 16.7761 19.7761 17 19.5 17H17V6.99999H19.5C19.7761 6.99999 20 7.22384 20 7.49999Z" fill="#2F3A4F"/>
</svg>
