<svg width="24" height="24" viewBox="0 0 24 24" fill="none" xmlns="http://www.w3.org/2000/svg">
<path d="M3 0C1.34315 0 0 1.34315 0 3V21C0 22.6569 1.34315 24 3 24H21C22.6569 24 24 22.6569 24 21V3C24 1.34315 22.6569 0 21 0H3ZM11.6332 16.6361C11.4979 16.6361 11.3899 16.5271 11.3899 16.3929V8.38432C11.3899 8.24908 11.4979 8.14108 11.6332 8.14108H13.5636C13.6978 8.14108 13.8068 8.24908 13.8068 8.38432V16.3929C13.8068 16.5271 13.6978 16.6361 13.5636 16.6361H11.6332ZM15.4229 16.6361C15.2886 16.6361 15.1797 16.5271 15.1797 16.3929V8.38432C15.1797 8.24908 15.2886 8.14108 15.4229 8.14108H20.7568C20.8901 8.14108 21 8.24908 21 8.38432V9.95665C21 10.0909 20.8901 10.1999 20.7568 10.1999H17.5975V11.6204H20.4454C20.5797 11.6204 20.6886 11.7294 20.6886 11.8637V13.3825C20.6886 13.5168 20.5797 13.6257 20.4454 13.6257H17.5975V16.3929C17.5975 16.5271 17.4876 16.6361 17.3543 16.6361H15.4229ZM3 12.8435V11.8812C3 9.4867 4.45265 8 6.79265 8C9.10735 8 10.2292 9.46724 10.3148 10.9218C10.3187 10.989 10.2954 11.0551 10.2496 11.1028C10.2029 11.1524 10.1387 11.1797 10.0725 11.1797H8.1947C8.07697 11.1797 7.97676 11.096 7.95535 10.9802C7.85513 10.4295 7.4027 10.088 6.77514 10.088C5.66692 10.088 5.43438 11.0726 5.43438 11.8987V12.8376C5.43438 14.0694 5.90238 14.6941 6.82768 14.6941C7.71308 14.6941 8.02832 14.156 8.02832 13.6938V13.6024H6.87438C6.74011 13.6024 6.63113 13.4944 6.63113 13.3591V11.9863C6.63113 11.852 6.74011 11.743 6.87438 11.743H10.0901C10.2243 11.743 10.3333 11.852 10.3333 11.9863V13.5411C10.3333 15.0365 9.40411 16.7821 6.78681 16.7821C4.41568 16.7821 3 15.3099 3 12.8435Z" fill="#2F3A4F"/>
</svg>
