<svg width="24" height="24" viewBox="0 0 24 24" fill="none" xmlns="http://www.w3.org/2000/svg">
<path d="M3 0C1.34315 0 0 1.34315 0 3V21C0 22.6569 1.34315 24 3 24H21C22.6569 24 24 22.6569 24 21V3C24 1.34315 22.6569 0 21 0H3ZM8 4.0002L13.1911 4C13.7242 4 14.2352 4.21284 14.6107 4.59125L17.8549 7.86057C17.9478 7.95422 18 8.08082 18 8.21276V9.5C18 9.77614 17.7761 10 17.5 10H14C12.8954 10 12 9.10457 12 8V6.0002H8V18.0002H16V11.0052H18V18.0002C18 19.1042 17.105 20.0002 16 20.0002H8C6.895 20.0002 6 19.1042 6 18.0002V6.0002C6 4.8952 6.895 4.0002 8 4.0002Z" fill="#2F3A4F"/>
</svg>
