<svg width="24" height="24" viewBox="0 0 24 24" fill="none" xmlns="http://www.w3.org/2000/svg">
<path d="M3 0C1.34315 0 0 1.34315 0 3V21C0 22.6569 1.34315 24 3 24H21C22.6569 24 24 22.6569 24 21V3C24 1.34315 22.6569 0 21 0H3ZM6.66667 10.3333C5.19391 10.3333 4 9.13943 4 7.66667C4 6.19391 5.19391 5 6.66667 5C8.13943 5 9.33333 6.19391 9.33333 7.66667C9.33333 9.13943 8.13943 10.3333 6.66667 10.3333ZM10 17L15.2584 11.7416C15.6621 11.3379 16.3214 11.3535 16.7055 11.776L20 15.4V19H4L7.29289 15.7071C7.68342 15.3166 8.31658 15.3166 8.70711 15.7071L10 17Z" fill="#2F3A4F"/>
</svg>
