<svg width="24" height="25" viewBox="0 0 24 25" fill="none" xmlns="http://www.w3.org/2000/svg">
<path fill-rule="evenodd" clip-rule="evenodd" d="M3 4.5C3 3.94772 3.44772 3.5 4 3.5H20C20.5523 3.5 21 3.94772 21 4.5V7.5C21 8.05228 20.5523 8.5 20 8.5C19.4477 8.5 19 8.05228 19 7.5V5.5H13V19.5H15C15.5523 19.5 16 19.9477 16 20.5C16 21.0523 15.5523 21.5 15 21.5H9C8.44772 21.5 8 21.0523 8 20.5C8 19.9477 8.44772 19.5 9 19.5H11V5.5H5V7.5C5 8.05228 4.55228 8.5 4 8.5C3.44772 8.5 3 8.05228 3 7.5V4.5Z" fill="#2F3A4F"/>
</svg>
