<svg width="24" height="24" viewBox="0 0 24 24" fill="none" xmlns="http://www.w3.org/2000/svg">
<path d="M3 0C1.34315 0 0 1.34315 0 3V21C0 22.6569 1.34315 24 3 24H21C22.6569 24 24 22.6569 24 21V3C24 1.34315 22.6569 0 21 0H3ZM4.37603 6.01317L15.501 4.43435C15.7645 4.39697 16 4.60144 16 4.86751V19.1341C16 19.3996 15.7655 19.6039 15.5026 19.5675L4.37759 18.0297C4.16118 17.9998 4 17.8148 4 17.5963V6.44633C4 6.22845 4.16031 6.04378 4.37603 6.01317ZM20 7.49999V16.5C20 16.7761 19.7761 17 19.5 17H17V6.99999H19.5C19.7761 6.99999 20 7.22384 20 7.49999Z" fill="#2F3A4F"/>
<path fill-rule="evenodd" clip-rule="evenodd" d="M10.0049 11.3369H10.083L11.416 16H12.7979L14.668 8.9541H13.1445L12.0557 13.9199H11.9775L10.6689 8.9541H9.42383L8.13965 13.9199H8.06152L6.96289 8.9541H5.42969L7.29492 16H8.68652L10.0049 11.3369Z" fill="#2F3A4F"/>
</svg>
