<svg width="24" height="24" viewBox="0 0 24 24" fill="none" xmlns="http://www.w3.org/2000/svg">
<path d="M12.3881 6.17427C11.6747 6.04934 10.941 6.18621 10.317 6.56065C9.69291 6.93508 9.2188 7.52292 8.9786 8.22004C8.69774 9.03518 7.8228 9.46353 7.02438 9.17678C6.22595 8.89003 5.80639 7.99677 6.08726 7.18163C6.56766 5.78739 7.51587 4.61172 8.76395 3.86285C10.012 3.11398 11.4794 2.84023 12.9063 3.0901C14.3331 3.33996 15.6273 4.09731 16.5596 5.22801C17.4917 6.35848 18.0019 7.7892 18 9.26687C17.9993 11.6613 16.2605 13.2425 15.0188 14.0876C14.3512 14.542 13.6945 14.8762 13.2107 15.0957C12.9305 15.2228 12.6462 15.3403 12.3565 15.4429L12.3546 15.4436C11.5516 15.7168 10.6837 15.2738 10.4161 14.454C10.1486 13.6348 10.5818 12.7494 11.3837 12.4755C12.0631 12.2321 12.7206 11.891 13.3186 11.484C14.3754 10.7647 14.935 9.99945 14.935 9.26544L14.935 9.26311C14.936 8.52412 14.6809 7.80858 14.2148 7.24323C13.7486 6.67788 13.1015 6.29921 12.3881 6.17427Z" fill="#2F3A4F"/>
<path d="M11.9926 17.0885C12.8389 17.0885 13.5251 17.789 13.5251 18.6531V19.4354C13.5251 20.2995 12.8389 21 11.9926 21C11.1462 21 10.46 20.2995 10.46 19.4354V18.6531C10.46 17.789 11.1462 17.0885 11.9926 17.0885Z" fill="#2F3A4F"/>
</svg>
