<svg width="24" height="25" viewBox="0 0 24 25" fill="none" xmlns="http://www.w3.org/2000/svg">
<path d="M8.5 4.07202C6.84315 4.07202 5.5 5.41517 5.5 7.07202C5.5 8.72888 6.84315 10.072 8.5 10.072C10.1569 10.072 11.5 8.72888 11.5 7.07202C11.5 5.41517 10.1569 4.07202 8.5 4.07202ZM3.5 7.07202C3.5 4.3106 5.73858 2.07202 8.5 2.07202C11.2614 2.07202 13.5 4.3106 13.5 7.07202C13.5 9.83345 11.2614 12.072 8.5 12.072C5.73858 12.072 3.5 9.83345 3.5 7.07202ZM20 7.07202C20.5523 7.07202 21 7.51974 21 8.07202V10.072H23C23.5523 10.072 24 10.5197 24 11.072C24 11.6243 23.5523 12.072 23 12.072H21V14.072C21 14.6243 20.5523 15.072 20 15.072C19.4477 15.072 19 14.6243 19 14.072V12.072H17C16.4477 12.072 16 11.6243 16 11.072C16 10.5197 16.4477 10.072 17 10.072H19V8.07202C19 7.51974 19.4477 7.07202 20 7.07202ZM1.46447 15.5365C2.40215 14.5988 3.67392 14.072 5 14.072H12C13.3261 14.072 14.5979 14.5988 15.5355 15.5365C16.4732 16.4742 17 17.7459 17 19.072V21.072C17 21.6243 16.5523 22.072 16 22.072C15.4477 22.072 15 21.6243 15 21.072V19.072C15 18.2764 14.6839 17.5133 14.1213 16.9507C13.5587 16.3881 12.7956 16.072 12 16.072H5C4.20435 16.072 3.44129 16.3881 2.87868 16.9507C2.31607 17.5133 2 18.2764 2 19.072V21.072C2 21.6243 1.55228 22.072 1 22.072C0.447715 22.072 0 21.6243 0 21.072V19.072C0 17.7459 0.526784 16.4742 1.46447 15.5365Z" fill="#2F3A4F"/>
</svg>
