<svg width="24" height="25" viewBox="0 0 24 25" fill="none" xmlns="http://www.w3.org/2000/svg">
<path fill-rule="evenodd" clip-rule="evenodd" d="M9 4.5C7.34315 4.5 6 5.84315 6 7.5C6 9.15685 7.34315 10.5 9 10.5C10.6569 10.5 12 9.15685 12 7.5C12 5.84315 10.6569 4.5 9 4.5ZM4 7.5C4 4.73858 6.23858 2.5 9 2.5C11.7614 2.5 14 4.73858 14 7.5C14 10.2614 11.7614 12.5 9 12.5C6.23858 12.5 4 10.2614 4 7.5ZM15.0312 3.38196C15.1682 2.84694 15.713 2.52426 16.248 2.66125C17.3236 2.93663 18.2768 3.56213 18.9576 4.43914C19.6383 5.31615 20.0078 6.39479 20.0078 7.505C20.0078 8.61521 19.6383 9.69385 18.9576 10.5709C18.2768 11.4479 17.3236 12.0734 16.248 12.3488C15.713 12.4857 15.1682 12.1631 15.0312 11.628C14.8943 11.093 15.2169 10.5482 15.752 10.4113C16.3973 10.246 16.9692 9.87072 17.3777 9.34452C17.7861 8.81831 18.0078 8.17113 18.0078 7.505C18.0078 6.83887 17.7861 6.19169 17.3777 5.66548C16.9692 5.13928 16.3973 4.76398 15.752 4.59875C15.2169 4.46176 14.8943 3.91699 15.0312 3.38196ZM1.46447 15.9645C2.40215 15.0268 3.67392 14.5 5 14.5H13C14.3261 14.5 15.5979 15.0268 16.5355 15.9645C17.4732 16.9021 18 18.1739 18 19.5V21.5C18 22.0523 17.5523 22.5 17 22.5C16.4477 22.5 16 22.0523 16 21.5V19.5C16 18.7043 15.6839 17.9413 15.1213 17.3787C14.5587 16.8161 13.7956 16.5 13 16.5H5C4.20435 16.5 3.44129 16.8161 2.87868 17.3787C2.31607 17.9413 2 18.7043 2 19.5V21.5C2 22.0523 1.55228 22.5 1 22.5C0.447715 22.5 0 22.0523 0 21.5V19.5C0 18.1739 0.526784 16.9021 1.46447 15.9645ZM19.0318 15.38C19.1698 14.8453 19.7153 14.5237 20.25 14.6618C21.3227 14.9387 22.273 15.5641 22.9517 16.4396C23.6304 17.3152 23.9992 18.3914 24 19.4993V21.5C24 22.0523 23.5523 22.5 23 22.5C22.4477 22.5 22 22.0523 22 21.5V19.5007C21.9995 18.836 21.7783 18.1903 21.371 17.665C20.9638 17.1396 20.3936 16.7644 19.75 16.5982C19.2153 16.4602 18.8937 15.9147 19.0318 15.38Z" fill="#2F3A4F"/>
</svg>
