<svg width="24" height="24" viewBox="0 0 24 24" fill="none" xmlns="http://www.w3.org/2000/svg">
<path d="M15.7524 5.42765C13.4654 4.99091 11.0906 4.99091 8.80366 5.42765C7.79215 5.64601 6.51675 6.86886 6.29686 7.82967C5.90105 9.70761 5.90105 11.6292 6.29686 13.5072C6.56073 14.468 7.83612 15.6908 8.80366 15.9092C8.84764 15.9092 8.89162 15.9529 8.89162 15.9965V18.7479C8.89162 18.879 9.06754 18.9663 9.1555 18.8353L10.4749 17.4814C10.4749 17.4814 11.5304 16.3896 11.7063 16.2149C11.7063 16.2149 11.7503 16.1712 11.7942 16.1712C13.1136 16.2149 14.477 16.0839 15.7963 15.8655C16.8079 15.6472 18.0832 14.4243 18.3031 13.4635C18.699 11.5856 18.699 9.66394 18.3031 7.78599C18.0393 6.86886 16.7639 5.64601 15.7524 5.42765ZM15.7963 13.6382C15.5764 14.0749 15.3126 14.4243 14.8728 14.6427C14.7408 14.6863 14.6089 14.73 14.477 14.7737C14.301 14.73 14.1691 14.6863 14.0372 14.6427C12.6298 14.0749 11.3105 13.2888 10.255 12.1533C9.68325 11.4982 9.19948 10.7558 8.80366 9.96965C8.62775 9.57659 8.45183 9.2272 8.31989 8.83415C8.18796 8.48476 8.40785 8.13538 8.62775 7.87334C8.84764 7.6113 9.11152 7.43661 9.41937 7.30559C9.63927 7.17457 9.85916 7.26192 10.0351 7.43661C10.3869 7.87334 10.7387 8.31007 11.0026 8.79047C11.1785 9.09619 11.1346 9.44557 10.8267 9.66394C10.7387 9.70761 10.6948 9.75128 10.6068 9.83863C10.5628 9.8823 10.4749 9.92597 10.4309 10.0133C10.3429 10.1443 10.3429 10.2754 10.3869 10.4064C10.7387 11.4109 11.3984 12.197 12.4099 12.6337C12.5859 12.7211 12.7178 12.7647 12.9377 12.7647C13.2455 12.7211 13.3775 12.3717 13.5974 12.197C13.8173 12.0223 14.0811 12.0223 14.345 12.1533C14.5649 12.2843 14.7848 12.459 15.0487 12.6337C15.2686 12.8084 15.4885 12.9394 15.7084 13.1141C15.8403 13.2015 15.8843 13.4198 15.7963 13.6382ZM13.9492 10.3627C13.8613 10.3627 13.9052 10.3627 13.9492 10.3627C13.7733 10.3627 13.7293 10.2754 13.6853 10.1443C13.6853 10.057 13.6853 9.92597 13.6414 9.83863C13.5974 9.66394 13.5094 9.48924 13.3335 9.35822C13.2455 9.31455 13.1576 9.27088 13.0696 9.2272C12.9377 9.18353 12.8497 9.18353 12.7178 9.18353C12.5859 9.13986 12.5419 9.05251 12.5419 8.92149C12.5419 8.83415 12.6738 8.7468 12.7618 8.7468C13.4654 8.79047 13.9932 9.18353 14.0812 10.0133C14.0812 10.057 14.0812 10.1443 14.0812 10.188C14.0812 10.2754 14.0372 10.3627 13.9492 10.3627ZM13.5094 8.44109C13.2895 8.35374 13.0696 8.2664 12.8058 8.22272C12.7178 8.22272 12.5859 8.17905 12.4979 8.17905C12.366 8.17905 12.278 8.0917 12.322 7.96069C12.322 7.82967 12.4099 7.74232 12.5419 7.78599C12.9817 7.82967 13.3775 7.91701 13.7733 8.0917C14.5649 8.48476 15.0047 9.13986 15.1366 10.0133C15.1366 10.057 15.1366 10.1007 15.1366 10.1443C15.1366 10.2317 15.1366 10.319 15.1366 10.4501C15.1366 10.4937 15.1366 10.5374 15.1366 10.5811C15.0927 10.7558 14.7848 10.7994 14.7408 10.5811C14.7408 10.5374 14.6969 10.4501 14.6969 10.4064C14.6969 10.0133 14.6089 9.62026 14.433 9.27088C14.1691 8.87782 13.8613 8.61578 13.5094 8.44109ZM15.8843 11.0615C15.7524 11.0615 15.6644 10.9305 15.6644 10.7994C15.6644 10.5374 15.6204 10.2754 15.5764 10.0133C15.4005 8.61578 14.2571 7.48028 12.8937 7.26192C12.6738 7.21824 12.4539 7.21824 12.278 7.17457C12.1461 7.17457 11.9702 7.17457 11.9262 6.99988C11.8822 6.86886 12.0141 6.73784 12.1461 6.73784C12.1901 6.73784 12.234 6.73784 12.234 6.73784C14.0372 6.78151 12.322 6.73784 12.234 6.73784C14.0812 6.78151 15.6204 8.00436 15.9283 9.83863C15.9722 10.1443 16.0162 10.4501 16.0162 10.7994C16.1042 10.9305 16.0162 11.0615 15.8843 11.0615Z" fill="#2F3A4F"/>
</svg>
