<svg width="24" height="24" viewBox="0 0 24 24" fill="none" xmlns="http://www.w3.org/2000/svg">
<path d="M17.9185 0.732654C13.9981 -0.0160279 9.92689 -0.0160279 6.00648 0.732654C4.27244 1.10699 2.08606 3.2033 1.7091 4.8504C1.03056 8.06973 1.03056 11.3639 1.7091 14.5833C2.16145 16.2304 4.34784 18.3267 6.00648 18.701C6.08187 18.701 6.15726 18.7759 6.15726 18.8507V23.5674C6.15726 23.792 6.45883 23.9418 6.60962 23.7172L8.8714 21.3963C8.8714 21.3963 10.6808 19.5246 10.9824 19.2251C10.9824 19.2251 11.0578 19.1502 11.1332 19.1502C13.395 19.2251 15.7321 19.0005 17.9939 18.6261C19.7279 18.2518 21.9143 16.1555 22.2913 14.5084C22.9698 11.2891 22.9698 7.99487 22.2913 4.77553C21.8389 3.2033 19.6526 1.10699 17.9185 0.732654ZM17.9939 14.8079C17.6169 15.5566 17.1646 16.1555 16.4107 16.5298C16.1845 16.6047 15.9583 16.6796 15.7321 16.7544C15.4306 16.6796 15.2044 16.6047 14.9782 16.5298C12.5656 15.5566 10.3039 14.2089 8.49444 12.2624C7.51433 11.1393 6.68501 9.86657 6.00648 8.51894C5.70491 7.84513 5.40334 7.24618 5.17716 6.57237C4.95098 5.97343 5.32794 5.37448 5.7049 4.92527C6.08187 4.47606 6.53423 4.17659 7.06197 3.95198C7.43894 3.72738 7.8159 3.87712 8.11747 4.17659C8.72061 4.92527 9.32375 5.67395 9.77611 6.4975C10.0777 7.02158 10.0023 7.62052 9.47454 7.99487C9.32375 8.06973 9.24836 8.1446 9.09757 8.29434C9.02218 8.36921 8.8714 8.44407 8.796 8.59381C8.64522 8.81841 8.64522 9.04302 8.72061 9.26763C9.32375 10.9896 10.4546 12.3372 12.1887 13.0859C12.4902 13.2356 12.7164 13.3105 13.0934 13.3105C13.6211 13.2356 13.8473 12.6367 14.2243 12.3372C14.6012 12.0377 15.0536 12.0377 15.506 12.2624C15.8829 12.487 16.2599 12.7864 16.7122 13.0859C17.0892 13.3854 17.4662 13.61 17.8431 13.9095C18.0693 14.0592 18.1447 14.4335 17.9939 14.8079ZM14.8274 9.19276C14.6766 9.19276 14.752 9.19276 14.8274 9.19276C14.5258 9.19276 14.4505 9.04302 14.3751 8.81842C14.3751 8.66868 14.3751 8.44408 14.2997 8.29434C14.2243 7.99487 14.0735 7.69539 13.7719 7.47079C13.6211 7.39592 13.4703 7.32105 13.3196 7.24618C13.0934 7.17132 12.9426 7.17132 12.7164 7.17132C12.4902 7.09645 12.4149 6.94671 12.4149 6.72211C12.4149 6.57237 12.641 6.42264 12.7918 6.42264C13.9981 6.4975 14.9028 7.17131 15.0536 8.59381C15.0536 8.66868 15.0536 8.81842 15.0536 8.89328C15.0536 9.04302 14.9782 9.19276 14.8274 9.19276ZM14.0735 5.89856C13.6965 5.74882 13.3196 5.59908 12.8672 5.52422C12.7164 5.52422 12.4902 5.44935 12.3395 5.44935C12.1133 5.44935 11.9625 5.29961 12.0379 5.07501C12.0379 4.8504 12.1887 4.70067 12.4149 4.77553C13.1688 4.8504 13.8473 5.00014 14.5258 5.29961C15.8829 5.97343 16.6368 7.09645 16.863 8.59381C16.863 8.66868 16.863 8.74355 16.863 8.81842C16.863 8.96815 16.863 9.11789 16.863 9.34249C16.863 9.41736 16.863 9.49223 16.863 9.5671C16.7876 9.86657 16.2599 9.94144 16.1845 9.5671C16.1845 9.49223 16.1091 9.34249 16.1091 9.26763C16.1091 8.59381 15.9583 7.92 15.6567 7.32105C15.2044 6.64724 14.6766 6.19803 14.0735 5.89856ZM18.1447 10.3906C17.9185 10.3906 17.7677 10.166 17.7677 9.94144C17.7677 9.49223 17.6923 9.04302 17.6169 8.59381C17.3154 6.19803 15.3552 4.25146 13.018 3.87712C12.641 3.80225 12.2641 3.80225 11.9625 3.72738C11.7363 3.72738 11.4347 3.72738 11.3594 3.42791C11.284 3.2033 11.5101 2.9787 11.7363 2.9787C11.8117 2.9787 11.8871 2.9787 11.8871 2.9787C14.9782 3.05357 12.0379 2.9787 11.8871 2.9787C15.0536 3.05357 17.6923 5.14988 18.2201 8.29434C18.2955 8.81842 18.3709 9.34249 18.3709 9.94144C18.5217 10.166 18.3709 10.3906 18.1447 10.3906Z" fill="#2F3A4F"/>
</svg>
