<svg width="24" height="24" viewBox="0 0 24 24" fill="none" xmlns="http://www.w3.org/2000/svg">
<path d="M22.8754 19.1365H19.6749C17.8663 19.1365 17.5629 18.1063 16.0714 16.6183C14.7257 15.2725 13.98 16.3045 14.0109 18.2211C14.0211 18.7302 13.7691 19.1365 13.1623 19.1365C11.268 19.1365 8.544 19.404 5.784 16.428C2.96057 13.3783 0 7.25996 0 6.65825C0 6.30168 0.294857 6.14225 0.786857 6.14225H4.04057C4.90286 6.14225 4.97486 6.56911 5.21657 7.11597C6.21772 9.39768 8.61257 13.9765 9.252 11.4205C9.61886 9.95311 9.768 6.55368 8.19771 6.26054C7.30629 6.09597 8.87657 5.14282 11.1497 5.14282C11.7154 5.14282 12.3291 5.20282 12.9566 5.34854C14.1103 5.61596 14.1154 6.13368 14.0983 6.88796C14.04 9.74396 13.6954 11.664 14.448 12.1491C15.1663 12.6137 17.0554 9.57425 18.0549 7.22739C18.3274 6.57939 18.3823 6.14396 19.1571 6.14396H23.1377C25.2223 6.14396 22.8651 9.14054 21.0634 11.4788C19.6272 13.3423 19.6871 13.3978 21.3226 14.915L21.3771 14.9657C22.5789 16.0817 24 17.6057 24 18.468C24 18.876 23.6811 19.1365 22.8754 19.1365Z" fill="#2F3A4F"/>
</svg>
