<svg width="24" height="24" viewBox="0 0 24 24" fill="none" xmlns="http://www.w3.org/2000/svg">
<path d="M11.3111 2.0151C10.7409 2.04102 10.6847 2.04812 9.92547 2.1904C7.41882 2.66011 5.03534 4.20911 3.5655 6.32369C3.16948 6.89345 2.68497 7.7417 2.68497 7.86531C2.68497 7.89252 5.63195 7.90532 11.8966 7.90532C18.1613 7.90532 21.1082 7.89252 21.1082 7.86531C21.1082 7.80614 20.8509 7.30371 20.6489 6.96854C18.845 3.97539 15.6706 2.10332 12.2284 2.00257C12.0137 1.99629 11.6009 2.00191 11.3111 2.0151ZM0.000989233 9.5535C0.0368209 9.65081 0.263521 10.3569 0.518168 11.1645C0.660324 11.6153 0.800528 12.0545 0.829763 12.1403C0.858999 12.2262 0.965011 12.5599 1.06532 12.8819C1.16568 13.204 1.34366 13.7704 1.46092 14.1407L1.67411 14.814H2.33087C2.81046 14.814 2.9977 14.8009 3.02487 14.7653C3.05625 14.724 3.23342 14.0641 3.83861 11.734L3.92386 11.4059L3.96726 11.5389C3.99115 11.6121 4.06207 11.8652 4.12488 12.1013C4.4572 13.3506 4.75681 14.4634 4.80275 14.6189L4.85462 14.7945L5.5012 14.8052C5.98879 14.8133 6.15741 14.8037 6.18688 14.7662C6.20842 14.7388 6.32376 14.4091 6.44324 14.0334C6.56272 13.6577 6.82997 12.8234 7.0372 12.1794C7.71671 10.0672 7.8762 9.56459 7.87624 9.53492C7.87627 9.51884 7.56944 9.50565 7.19446 9.50565H6.51264L6.4174 9.82766C6.36502 10.0048 6.26639 10.3429 6.1982 10.579C6.13001 10.8152 6.02481 11.1753 5.96443 11.3792C5.90409 11.5831 5.77973 12.0097 5.68812 12.3271C5.59651 12.6446 5.50908 12.8905 5.49378 12.8736C5.47212 12.8497 4.87461 10.5452 4.66333 9.67068L4.62305 9.50389L3.93709 9.51455L3.25114 9.52516L2.971 10.5986C2.51264 12.3549 2.36065 12.9024 2.33782 12.8796C2.32591 12.8677 2.10245 12.1081 1.84125 11.1916L1.36634 9.52516L0.674493 9.51447C0.12722 9.50604 -0.0134918 9.51419 0.000989233 9.5535ZM7.97522 9.59347C7.98752 9.64179 8.36223 10.8318 8.8079 12.2379L9.61821 14.7945L10.2763 14.8053C10.6383 14.8112 10.948 14.8024 10.9644 14.7857C10.9909 14.759 11.32 13.5464 11.7324 11.9554C11.8089 11.6604 11.8783 11.426 11.8867 11.4344C11.8951 11.4428 11.9787 11.7368 12.0723 12.0878C12.166 12.4387 12.307 12.9629 12.3856 13.2528C12.4643 13.5426 12.5795 13.9729 12.6417 14.209C12.8193 14.8827 12.7248 14.814 13.4743 14.814C13.9037 14.814 14.1257 14.7996 14.1437 14.7706C14.1584 14.7468 14.2896 14.356 14.4351 13.9022C14.5806 13.4484 14.8692 12.5502 15.0763 11.9061C15.7573 9.78875 15.8389 9.53328 15.8389 9.51849C15.8389 9.51045 15.5286 9.50865 15.1493 9.51451L14.4597 9.52516L14.4109 9.68129C14.3182 9.97806 13.6438 12.2975 13.5625 12.599C13.5177 12.7653 13.47 12.9015 13.4565 12.9015C13.443 12.9015 13.3401 12.537 13.2277 12.0915C13.1153 11.6461 12.9224 10.8864 12.799 10.4034L12.5746 9.52516L11.8904 9.51455L11.2063 9.50389L10.9033 10.666C10.7367 11.3051 10.537 12.0696 10.4597 12.3648C10.3824 12.66 10.3074 12.9015 10.293 12.9015C10.2786 12.9015 10.2316 12.7653 10.1884 12.599C10.1452 12.4326 9.92953 11.6685 9.70908 10.9011L9.30826 9.50565H8.63054H7.95286L7.97522 9.59347ZM15.9169 9.53742C15.9169 9.57075 16.037 9.96568 16.2633 10.6766C16.3282 10.8806 16.4419 11.2406 16.516 11.4768C17.0461 13.1673 17.5616 14.7569 17.5886 14.7839C17.6063 14.8016 17.9168 14.8112 18.2787 14.8053L18.9367 14.7945L19.376 13.1161C19.6176 12.193 19.818 11.429 19.8213 11.4182C19.8245 11.4075 19.8585 11.5129 19.8968 11.6524C20.2154 12.8143 20.5236 13.9553 20.6559 14.4628L20.7424 14.7945H21.4194H22.0965L22.347 14.0139C23.156 11.4918 23.7394 9.68871 23.7836 9.57395C23.808 9.51045 23.7605 9.50565 23.1094 9.50565H22.4091L22.243 10.0814C22.1517 10.398 22.0248 10.8327 21.9611 11.0474C21.802 11.584 21.685 11.9846 21.5362 12.5025C21.4666 12.7446 21.405 12.9378 21.3992 12.9319C21.3934 12.9259 21.2104 12.2184 20.9925 11.3597C20.7747 10.501 20.5792 9.73254 20.5581 9.65202L20.5198 9.50565H19.8408C19.2284 9.50565 19.1598 9.51232 19.1405 9.57395C19.1288 9.61154 18.9944 10.1165 18.8419 10.6961C18.3644 12.5107 18.2557 12.9176 18.2458 12.9276C18.2405 12.9328 18.0473 12.2743 17.8166 11.4641C17.5858 10.6539 17.3645 9.88613 17.3249 9.75807L17.2529 9.52516L16.5849 9.51447C16.2175 9.50861 15.9169 9.51892 15.9169 9.53742ZM2.68497 16.5324C2.68497 16.5913 2.94177 17.093 3.14399 17.4292C4.79315 20.1708 7.56316 21.9579 10.7647 22.3457C11.2354 22.4027 12.5501 22.4041 13.0093 22.348C13.8584 22.2444 14.7601 22.0273 15.492 21.75C17.6232 20.9428 19.5061 19.361 20.6589 17.4097C20.8767 17.041 21.1082 16.5889 21.1082 16.5324C21.1082 16.5052 18.1613 16.4924 11.8966 16.4924C5.63195 16.4924 2.68497 16.5052 2.68497 16.5324Z" fill="#2F3A4F"/>
</svg>
