<svg width="24" height="24" viewBox="0 0 24 24" fill="none" xmlns="http://www.w3.org/2000/svg">
<path d="M3.3109 3.37153C3.69614 2.0465 4.86603 0.783224 6.11723 0.341229C7.32375 -0.0848493 16.5974 -0.123967 17.7767 0.29214C18.95 0.706138 19.7776 1.42023 20.3914 2.54794C21.2097 4.0513 21.1483 5.29866 20.1293 7.88466C19.6908 8.99799 19.3328 10.1198 19.3341 10.3775C19.3354 10.6352 19.5383 11.1991 19.7851 11.6308C21.7878 15.1324 21.2819 19.4511 18.5262 22.3798C17.9673 22.9736 17.2325 23.5769 16.8931 23.7205C16.0106 24.0935 8.07926 24.0919 7.1855 23.7186C6.83976 23.5742 6.11359 22.9986 5.57207 22.4396C2.91129 19.6937 2.30611 15.4967 4.06929 12.0175C4.44935 11.2678 4.7598 10.5094 4.75923 10.3324C4.75884 10.1552 4.4179 9.13624 4.00141 8.06798C3.02845 5.57114 2.9086 4.75561 3.3109 3.37153ZM17.9895 4.59435C17.9895 4.37805 17.7374 3.9489 17.429 3.64056L16.8685 3.08006H7.22174L6.66124 3.64056C6.3529 3.9489 6.10266 4.40182 6.10515 4.64727C6.11263 5.41544 7.32279 8.16501 7.63804 8.13011C7.79432 8.11266 8.44015 7.90365 9.07294 7.66568C10.7797 7.0233 13.3828 7.05494 15.2068 7.7397C15.9437 8.01659 16.606 8.1815 16.6785 8.10633C16.9211 7.85513 17.9895 4.99281 17.9895 4.59435ZM12.6749 15.3434L14.1006 13.7192V12.8666H9.91223V13.9082H12.5747L11.2583 15.3983V16.2683H11.8578C12.2432 16.2683 12.5404 16.3313 12.7426 16.464C12.9483 16.599 13.0502 16.8027 13.0502 17.0674C13.0502 17.3333 12.94 17.5438 12.723 17.6926C12.5085 17.8335 12.2185 17.9014 11.8578 17.9014C11.5326 17.9014 11.2133 17.8541 10.9001 17.7596L10.899 17.7592C10.611 17.6651 10.3534 17.5369 10.1266 17.3745L9.61968 18.3723C9.89925 18.567 10.2354 18.7201 10.629 18.8311C11.0446 18.9407 11.4658 18.9955 11.8928 18.9955C12.4415 18.9955 12.9002 18.9059 13.2709 18.7291C13.649 18.5515 13.927 18.318 14.1077 18.0301C14.2895 17.7346 14.3803 17.414 14.3803 17.0674C14.3803 16.6177 14.2412 16.245 13.9646 15.9457C13.688 15.641 13.2878 15.4434 12.7592 15.3572L12.6749 15.3434Z" fill="#2F3A4F"/>
</svg>
