<svg width="24" height="24" viewBox="0 0 24 24" fill="none" xmlns="http://www.w3.org/2000/svg">
<path d="M16.7561 7.53745C15.5707 6.3562 13.9902 5.69995 12.3219 5.69995C8.85366 5.69995 6.0439 8.49995 6.0439 11.9562C6.0439 13.05 6.35122 14.1437 6.87805 15.0625L6 18.3L9.33659 17.425C10.2585 17.9062 11.2683 18.1687 12.3219 18.1687C15.7902 18.1687 18.6 15.3687 18.6 11.9125C18.5561 10.2937 17.9415 8.7187 16.7561 7.53745ZM15.3512 14.1875C15.2195 14.5375 14.6049 14.8875 14.2976 14.9312C14.0341 14.975 13.6829 14.975 13.3317 14.8875C13.1122 14.8 12.8049 14.7125 12.4537 14.5375C10.8732 13.8812 9.86342 12.3062 9.77561 12.175C9.68781 12.0875 9.11707 11.3437 9.11707 10.5562C9.11707 9.7687 9.51219 9.4187 9.6439 9.2437C9.77561 9.0687 9.95122 9.0687 10.0829 9.0687C10.1707 9.0687 10.3024 9.0687 10.3902 9.0687C10.478 9.0687 10.6098 9.02495 10.7415 9.3312C10.8732 9.63745 11.1805 10.425 11.2244 10.4687C11.2683 10.5562 11.2683 10.6437 11.2244 10.7312C11.1805 10.8187 11.1366 10.9062 11.0488 10.9937C10.961 11.0812 10.8732 11.2125 10.8293 11.2562C10.7415 11.3437 10.6537 11.4312 10.7415 11.5625C10.8293 11.7375 11.1366 12.2187 11.6195 12.6562C12.2341 13.1812 12.7171 13.3562 12.8927 13.4437C13.0683 13.5312 13.1561 13.4875 13.2439 13.4C13.3317 13.3125 13.639 12.9625 13.7268 12.7875C13.8146 12.6125 13.9463 12.6562 14.078 12.7C14.2098 12.7437 15 13.1375 15.1317 13.225C15.3073 13.3125 15.3951 13.3562 15.439 13.4C15.4829 13.5312 15.4829 13.8375 15.3512 14.1875Z" fill="#2F3A4F"/>
</svg>
