<svg width="24" height="24" viewBox="0 0 24 24" fill="none" xmlns="http://www.w3.org/2000/svg">
<path d="M19.6392 4.35044C17.6072 2.32544 14.8978 1.20044 12.0378 1.20044C6.09218 1.20044 1.27546 6.00044 1.27546 11.9254C1.27546 13.8004 1.80229 15.6754 2.70542 17.2504L1.2002 22.8004L6.92006 21.3004C8.50054 22.1254 10.2316 22.5754 12.0378 22.5754C17.9835 22.5754 22.8002 17.7754 22.8002 11.8504C22.7249 9.07544 21.6713 6.37544 19.6392 4.35044ZM17.2309 15.7504C17.0051 16.3504 15.9514 16.9504 15.4246 17.0254C14.973 17.1004 14.3709 17.1004 13.7688 16.9504C13.3925 16.8004 12.8657 16.6504 12.2636 16.3504C9.5542 15.2254 7.82319 12.5254 7.67267 12.3004C7.52215 12.1504 6.54375 10.8754 6.54375 9.52544C6.54375 8.17544 7.2211 7.57544 7.44688 7.27544C7.67267 6.97544 7.97371 6.97544 8.1995 6.97544C8.35002 6.97544 8.5758 6.97544 8.72632 6.97544C8.87685 6.97544 9.10263 6.90044 9.32842 7.42544C9.5542 7.95044 10.081 9.30044 10.1563 9.37544C10.2316 9.52544 10.2316 9.67544 10.1563 9.82544C10.081 9.97544 10.0058 10.1254 9.85524 10.2754C9.70472 10.4254 9.5542 10.6504 9.47894 10.7254C9.32841 10.8754 9.17789 11.0254 9.32842 11.2504C9.47894 11.5504 10.0058 12.3754 10.8336 13.1254C11.8873 14.0254 12.7152 14.3254 13.0162 14.4754C13.3173 14.6254 13.4678 14.5504 13.6183 14.4004C13.7688 14.2504 14.2957 13.6504 14.4462 13.3504C14.5967 13.0504 14.8225 13.1254 15.0483 13.2004C15.2741 13.2754 16.6288 13.9504 16.8545 14.1004C17.1556 14.2504 17.3061 14.3254 17.3814 14.4004C17.4566 14.6254 17.4566 15.1504 17.2309 15.7504Z" fill="#2F3A4F"/>
</svg>
