<svg width="24" height="24" viewBox="0 0 24 24" fill="none" xmlns="http://www.w3.org/2000/svg">
<path d="M23.9999 12.907C23.9999 14.8495 23.7599 16.792 23.7599 16.792C23.7599 16.792 23.5259 18.445 22.8059 19.174C21.8939 20.1295 20.8709 20.134 20.4014 20.1895C17.043 20.4325 12 20.44 12 20.44C12 20.44 5.75998 20.383 3.83999 20.2C3.30599 20.0995 2.10599 20.1295 1.194 19.174C0.473998 18.445 0.239999 16.792 0.239999 16.792C0.239999 16.792 0 14.8495 0 12.907V11.086C0 9.14353 0.239999 7.20254 0.239999 7.20254C0.239999 7.20254 0.473998 5.54804 1.194 4.81904C2.10599 3.86355 3.12899 3.85905 3.59849 3.80355C6.95698 3.56055 11.9955 3.56055 11.9955 3.56055H12.0045C12.0045 3.56055 17.043 3.56055 20.4014 3.80355C20.8709 3.85905 21.8939 3.86355 22.8059 4.81904C23.5259 5.54804 23.7599 7.20254 23.7599 7.20254C23.7599 7.20254 23.9999 9.14353 23.9999 11.086V12.907ZM16.0067 11.7536L9.52073 8.36962L9.52223 15.1136L16.0067 11.7536Z" fill="#2F3A4F"/>
</svg>
