<svg width="24" height="25" viewBox="0 0 24 25" fill="none" xmlns="http://www.w3.org/2000/svg">
<path fill-rule="evenodd" clip-rule="evenodd" d="M11.9998 3.59998C11.9998 3.59998 11.9999 5.17277 11.9999 5.39998L11.9242 5.40009C11.8741 5.4002 11.8001 5.40042 11.7052 5.40086C11.5152 5.40176 11.2416 5.40354 10.9077 5.40711C10.2395 5.41426 9.33177 5.42855 8.37167 5.45708C7.41013 5.48565 6.4033 5.52831 5.53478 5.59165C4.64661 5.65644 3.97749 5.73835 3.63874 5.82775C3.32284 5.9183 3.03615 6.09008 2.8073 6.32601C2.5833 6.55694 2.42242 6.84136 2.33985 7.15198C2.03874 8.83291 1.89149 10.5378 1.89993 12.2456L1.89998 12.2557C1.8892 13.971 2.03548 15.6838 2.33706 17.3724C2.4282 17.6681 2.59098 17.9369 2.81117 18.1548C3.04038 18.3816 3.32409 18.5457 3.635 18.6312C3.97254 18.721 4.64332 18.8033 5.53478 18.8683C6.4033 18.9317 7.41013 18.9743 8.37167 19.0029C9.33177 19.0314 10.2395 19.0457 10.9077 19.0529C11.2416 19.0564 11.5152 19.0582 11.7052 19.0591C11.8001 19.0596 11.8741 19.0598 11.9242 19.0599L11.9989 19.06L11.9999 19.96C11.9999 20.86 11.9998 20.86 11.9998 20.86L11.9203 20.8599C11.8688 20.8598 11.7933 20.8595 11.6967 20.8591C11.5037 20.8582 11.2264 20.8564 10.8884 20.8528C10.2129 20.8455 9.29311 20.8311 8.3182 20.8021C7.34474 20.7732 6.30907 20.7296 5.40384 20.6636C4.52378 20.5994 3.6907 20.5094 3.16741 20.3694L3.16241 20.3681C2.55193 20.2011 1.99485 19.8794 1.54499 19.4342C1.09513 18.989 0.76771 18.4352 0.594354 17.8265C0.586219 17.7979 0.579503 17.769 0.574231 17.7398C0.247452 15.9281 0.0886758 14.0902 0.0999234 12.2494C0.0912043 10.4224 0.249968 8.59832 0.574224 6.80025C0.577783 6.78051 0.582001 6.7609 0.58687 6.74145C0.744115 6.11322 1.06436 5.5376 1.51527 5.07275C1.96618 4.6079 2.53177 4.27027 3.15493 4.09397L3.16739 4.09044C3.69067 3.95049 4.52378 3.86061 5.40384 3.79642C6.30907 3.7304 7.34474 3.6868 8.3182 3.65787C9.29311 3.6289 10.2129 3.61444 10.8884 3.60722C11.2264 3.6036 11.5037 3.60179 11.6967 3.60088C11.7933 3.60043 11.8688 3.6002 11.9203 3.60009L11.9998 3.59998ZM20.3611 18.6322C20.0224 18.7216 19.3532 18.8035 18.4651 18.8683C17.5966 18.9317 16.5897 18.9743 15.6282 19.0029C14.6681 19.0314 13.7604 19.0457 13.0922 19.0529C12.7583 19.0564 12.4846 19.0582 12.2947 19.0591C12.1997 19.0596 12.1257 19.0598 12.0756 19.0599L12.001 19.06L11.9999 19.96C11.9999 20.86 11.9998 20.86 11.9998 20.86L12.0796 20.8599C12.1311 20.8598 12.2066 20.8595 12.3031 20.8591C12.4962 20.8582 12.7735 20.8564 13.1114 20.8528C13.787 20.8455 14.7068 20.8311 15.6817 20.8021C16.6551 20.7732 17.6908 20.7296 18.596 20.6636C19.4761 20.5994 20.3092 20.5094 20.8325 20.3694L20.8449 20.366C21.4681 20.1897 22.0337 19.8521 22.4846 19.3872C22.9355 18.9224 23.2558 18.3468 23.413 17.7185C23.4179 17.6991 23.4221 17.6794 23.4257 17.6597C23.7474 15.875 23.9062 14.0647 23.8999 12.2513C23.9112 10.4102 23.7525 8.57205 23.4256 6.76021C23.4221 6.74049 23.4179 6.72089 23.413 6.70145C23.2558 6.07321 22.9355 5.4976 22.4846 5.03275C22.0337 4.5679 21.4681 4.23027 20.8449 4.05397C20.8345 4.05101 20.824 4.04824 20.8134 4.04566C20.2973 3.91963 19.4707 3.83778 18.5904 3.77915C17.6867 3.71897 16.6523 3.6792 15.6793 3.65281C14.7051 3.62637 13.7859 3.61318 13.1106 3.60658C12.7728 3.60328 12.4957 3.60163 12.3028 3.6008C12.2063 3.60039 12.1309 3.60018 12.0794 3.60008L11.9998 3.59998C11.9998 3.59998 11.9999 5.17277 11.9999 5.39998L12.0758 5.40008L12.2951 5.40079C12.4851 5.4016 12.7589 5.40323 13.093 5.4065C13.7615 5.41303 14.6698 5.42608 15.6305 5.45215C16.5926 5.47825 17.6007 5.51723 18.4708 5.57517C19.3505 5.63376 20.0217 5.70801 20.3704 5.79043C20.6826 5.88166 20.966 6.05239 21.1926 6.28601C21.4166 6.51694 21.5775 6.80138 21.66 7.11201C21.9635 8.80568 22.1108 10.5237 22.1 12.2444L22.0999 12.2532C22.106 13.948 21.9588 15.6398 21.66 17.308C21.5775 17.6186 21.4166 17.903 21.1926 18.134C20.9637 18.3699 20.677 18.5417 20.3611 18.6322ZM9.2974 8.20202C9.57443 8.04087 9.91626 8.0392 10.1948 8.19764L15.9448 11.4677C16.2262 11.6277 16.3999 11.9264 16.3999 12.25C16.3999 12.5736 16.2262 12.8724 15.9448 13.0323L10.1948 16.3023C9.91626 16.4608 9.57443 16.4591 9.2974 16.298C9.02037 16.1368 8.84994 15.8405 8.84994 15.52V8.97998C8.84994 8.65948 9.02037 8.36317 9.2974 8.20202ZM10.6499 10.5272V13.9728L13.6794 12.25L10.6499 10.5272Z" fill="#2F3A4F"/>
</svg>
