<svg width="24" height="24" viewBox="0 0 24 24" fill="none" xmlns="http://www.w3.org/2000/svg">
<path d="M18 12.6732C18 13.6445 17.88 14.6157 17.88 14.6157C17.88 14.6157 17.763 15.4423 17.403 15.8068C16.947 16.2845 16.4355 16.2868 16.2008 16.3145C14.5215 16.436 12 16.4398 12 16.4398C12 16.4398 8.88 16.4113 7.92 16.3197C7.653 16.2695 7.053 16.2845 6.597 15.8068C6.237 15.4423 6.12 14.6157 6.12 14.6157C6.12 14.6157 6 13.6445 6 12.6732V11.7628C6 10.7915 6.12 9.821 6.12 9.821C6.12 9.821 6.237 8.99375 6.597 8.62925C7.053 8.1515 7.5645 8.14925 7.79925 8.1215C9.4785 8 11.9977 8 11.9977 8H12.0023C12.0023 8 14.5215 8 16.2008 8.1215C16.4355 8.14925 16.947 8.1515 17.403 8.62925C17.763 8.99375 17.88 9.821 17.88 9.821C17.88 9.821 18 10.7915 18 11.7628V12.6732ZM14.0034 12.0965L10.7604 10.4045L10.7611 13.7765L14.0034 12.0965Z" fill="#2F3A4F"/>
</svg>
