<svg width="24" height="25" viewBox="0 0 24 25" fill="none" xmlns="http://www.w3.org/2000/svg">
<path fill-rule="evenodd" clip-rule="evenodd" d="M11.9998 3.60001C11.9998 3.60001 11.9999 5.1728 11.9999 5.40001L11.9242 5.40012C11.8741 5.40023 11.8001 5.40045 11.7052 5.40089C11.5152 5.40179 11.2416 5.40357 10.9077 5.40714C10.2395 5.41429 9.33177 5.42858 8.37167 5.45711C7.41013 5.48568 6.4033 5.52834 5.53478 5.59168C4.64661 5.65647 3.97749 5.73838 3.63874 5.82778C3.32284 5.91833 3.03615 6.09011 2.8073 6.32604C2.5833 6.55697 2.42242 6.84139 2.33985 7.15201C2.03874 8.83294 1.89149 10.5378 1.89993 12.2456L1.89998 12.2557C1.8892 13.971 2.03548 15.6838 2.33706 17.3724C2.4282 17.6681 2.59098 17.9369 2.81117 18.1548C3.04038 18.3816 3.32409 18.5457 3.635 18.6312C3.97254 18.721 4.64332 18.8033 5.53478 18.8683C6.4033 18.9317 7.41013 18.9743 8.37167 19.0029C9.33177 19.0314 10.2395 19.0457 10.9077 19.0529C11.2416 19.0564 11.5152 19.0582 11.7052 19.0591C11.8001 19.0596 11.8741 19.0598 11.9242 19.0599L11.9989 19.06L11.9999 19.96C11.9999 20.86 11.9998 20.86 11.9998 20.86L11.9203 20.8599C11.8688 20.8598 11.7933 20.8595 11.6967 20.8591C11.5037 20.8582 11.2264 20.8564 10.8884 20.8528C10.2129 20.8455 9.29311 20.8311 8.3182 20.8021C7.34474 20.7732 6.30907 20.7296 5.40384 20.6636C4.52378 20.5994 3.6907 20.5094 3.16741 20.3694L3.16241 20.3681C2.55193 20.2011 1.99485 19.8794 1.54499 19.4342C1.09513 18.989 0.76771 18.4352 0.594354 17.8265C0.586219 17.7979 0.579503 17.769 0.574231 17.7398C0.247452 15.9281 0.0886758 14.0902 0.0999234 12.2494C0.0912043 10.4224 0.249968 8.59835 0.574224 6.80028C0.577783 6.78054 0.582001 6.76093 0.58687 6.74148C0.744115 6.11325 1.06436 5.53763 1.51527 5.07278C1.96618 4.60793 2.53177 4.2703 3.15493 4.094L3.16739 4.09047C3.69067 3.95052 4.52378 3.86064 5.40384 3.79645C6.30907 3.73043 7.34474 3.68683 8.3182 3.6579C9.29311 3.62893 10.2129 3.61447 10.8884 3.60725C11.2264 3.60363 11.5037 3.60182 11.6967 3.60091C11.7933 3.60046 11.8688 3.60023 11.9203 3.60012L11.9998 3.60001ZM20.3611 18.6322C20.0224 18.7216 19.3532 18.8035 18.4651 18.8683C17.5966 18.9317 16.5897 18.9743 15.6282 19.0029C14.6681 19.0314 13.7604 19.0457 13.0922 19.0529C12.7583 19.0564 12.4846 19.0582 12.2947 19.0591C12.1997 19.0596 12.1257 19.0598 12.0756 19.0599L12.001 19.06L11.9999 19.96C11.9999 20.86 11.9998 20.86 11.9998 20.86L12.0796 20.8599C12.1311 20.8598 12.2066 20.8595 12.3031 20.8591C12.4962 20.8582 12.7735 20.8564 13.1114 20.8528C13.787 20.8455 14.7068 20.8311 15.6817 20.8021C16.6551 20.7732 17.6908 20.7296 18.596 20.6636C19.4761 20.5994 20.3092 20.5094 20.8325 20.3694L20.8449 20.366C21.4681 20.1897 22.0337 19.8521 22.4846 19.3872C22.9355 18.9224 23.2558 18.3468 23.413 17.7185C23.4179 17.6991 23.4221 17.6794 23.4257 17.6597C23.7474 15.875 23.9062 14.0647 23.8999 12.2513C23.9112 10.4102 23.7525 8.57208 23.4256 6.76024C23.4221 6.74052 23.4179 6.72092 23.413 6.70148C23.2558 6.07324 22.9355 5.49763 22.4846 5.03278C22.0337 4.56793 21.4681 4.2303 20.8449 4.054C20.8345 4.05104 20.824 4.04827 20.8134 4.04569C20.2973 3.91966 19.4707 3.83781 18.5904 3.77918C17.6867 3.719 16.6523 3.67923 15.6793 3.65284C14.7051 3.6264 13.7859 3.61321 13.1106 3.60661C12.7728 3.60331 12.4957 3.60166 12.3028 3.60083C12.2063 3.60042 12.1309 3.60021 12.0794 3.60011L11.9998 3.60001C11.9998 3.60001 11.9999 5.1728 11.9999 5.40001L12.0758 5.40011L12.2951 5.40082C12.4851 5.40163 12.7589 5.40326 13.093 5.40653C13.7615 5.41306 14.6698 5.42611 15.6305 5.45218C16.5926 5.47828 17.6007 5.51726 18.4708 5.5752C19.3505 5.63379 20.0217 5.70804 20.3704 5.79046C20.6826 5.88169 20.966 6.05242 21.1926 6.28604C21.4166 6.51697 21.5775 6.80141 21.66 7.11204C21.9635 8.80571 22.1108 10.5237 22.1 12.2444L22.0999 12.2532C22.106 13.948 21.9588 15.6398 21.66 17.308C21.5775 17.6186 21.4166 17.903 21.1926 18.134C20.9637 18.3699 20.677 18.5417 20.3611 18.6322ZM9.2974 8.20205C9.57443 8.0409 9.91626 8.03923 10.1948 8.19767L15.9448 11.4677C16.2262 11.6277 16.3999 11.9264 16.3999 12.25C16.3999 12.5736 16.2262 12.8724 15.9448 13.0323L10.1948 16.3023C9.91626 16.4608 9.57443 16.4591 9.2974 16.298C9.02037 16.1368 8.84994 15.8405 8.84994 15.52V8.98001C8.84994 8.65951 9.02037 8.3632 9.2974 8.20205ZM10.6499 10.5272V13.9728L13.6794 12.25L10.6499 10.5272Z" fill="#2F3A4F"/>
</svg>
