<svg width="24" height="25" viewBox="0 0 24 25" fill="none" xmlns="http://www.w3.org/2000/svg">
<path fill-rule="evenodd" clip-rule="evenodd" d="M13.3982 1.58275C13.8054 1.75952 14.0474 2.18359 13.9923 2.62409L13.1328 9.50006H21C21.388 9.50006 21.741 9.72452 21.9056 10.0759C22.0702 10.4273 22.0166 10.8422 21.7682 11.1402L11.7682 23.1402C11.484 23.4813 11.009 23.5941 10.6018 23.4174C10.1946 23.2406 9.95267 22.8165 10.0077 22.376L10.8672 15.5001H3.00001C2.61199 15.5001 2.259 15.2756 2.09442 14.9242C1.92984 14.5728 1.98339 14.158 2.23179 13.8599L12.2318 1.85987C12.516 1.51884 12.991 1.40599 13.3982 1.58275ZM5.13505 13.5001H12C12.2868 13.5001 12.5599 13.6232 12.7497 13.8383C12.9395 14.0533 13.0279 14.3395 12.9923 14.6241L12.4154 19.2396L18.865 11.5001H12C11.7132 11.5001 11.4402 11.3769 11.2503 11.1619C11.0605 10.9468 10.9722 10.6606 11.0077 10.376L11.5847 5.76051L5.13505 13.5001Z" fill="#27AE60"/>
</svg>
