<?xml version="1.0" standalone="no"?> 
<!DOCTYPE svg PUBLIC "-//W3C//DTD SVG 1.1//EN" "http://www.w3.org/Graphics/SVG/1.1/DTD/svg11.dtd" >
<svg xmlns="http://www.w3.org/2000/svg">
<defs>
  <font id="icons" horiz-adv-x="26">
    <font-face font-family="icons"
      units-per-em="1000" ascent="1000"
      descent="0" />
    <missing-glyph horiz-adv-x="0" />
    <glyph glyph-name="admin"
      unicode="&#xF101;"
      horiz-adv-x="960" d=" M380 580C344.3880000000001 580 309.5764000000001 590.564 279.9696 610.354C250.3632 630.1444 227.292 658.2724000000001 213.6764 691.1788C200.0604 724.0848000000001 196.5112 760.2904 203.4784 795.2144C210.4452 830.138 227.6152 862.2103999999999 252.8152 887.3732C278.0152 912.536 310.1128 929.6584 345.0472 936.5736C379.9812 943.4888 416.18 939.8864 449.068 926.2216C481.952 912.5572 510.048 889.4448 529.792 859.8088C549.54 830.1728 560.052 795.3456 560 759.7336C559.86 712.0624 540.84 666.388 507.108 632.7044000000001C473.372 599.02 427.6720000000001 580.072 380 580zM380 886.4792C354.932 886.4792 330.4268 879.0456 309.5836 865.1188C288.7404 851.1916 272.4952 831.3968 262.9024 808.2372C253.3092 785.0776000000001 250.7992 759.5932 255.6896 735.0068C260.58 710.4208 272.6516000000001 687.8368 290.3772 670.1112C308.1028 652.3856000000001 330.6868 640.314 355.2732000000001 635.4236000000001C379.8592 630.5332 405.344 633.0432 428.504 642.636C451.664 652.2292 471.456 668.4744000000001 485.384 689.3176000000001C499.312 710.1608 506.744 734.6656 506.744 759.7336C506.744 793.3488 493.392 825.5868 469.624 849.3564C445.852 873.1256 413.6160000000001 886.4792 380 886.4792z M432.38 108.836C426.432 114.876 421.848 122.1479999999999 418.932 130.1560000000001C416.02 138.164 414.852 146.72 415.512 155.232H94.4216V314.8480000000001C133.004 356.6280000000001 179.8016 389.7240000000001 231.7848 411.9840000000001C283.768 434.248 339.7784000000001 445.184 396.1904 444.088H415.784C414.5320000000001 453.348 415.404 462.772 418.332 471.636C421.256 480.496 426.16 488.552 432.652 495.176L435.92 498.216C423.1280000000001 498.216 408.7080000000001 499.872 396.1904 499.872C329.8068 501.472 263.9024 488.08 203.2428 460.668C142.5832 433.2520000000001 88.6836 392.5 45.442 341.3599999999999C41.9096 336.5800000000001 40 330.7640000000001 40 324.788V155.232C40 140.5840000000001 45.7336 126.536 55.9396 116.1759999999999C66.146 105.8199999999999 79.9884 100 94.4216 100H440L432.38 108.836z M955.672 358.8160000000001L902.64 376.36C898.852 390.432 893.696 404.024 887.264 416.9120000000001L913.776 470.408C914.64 472.548 914.848 474.932 914.372 477.208C913.892 479.484 912.756 481.5359999999999 911.128 483.0599999999999L872.6800000000001 524.764C871.228 526.472 869.284 527.5999999999999 867.1680000000001 527.9639999999999C865.052 528.328 862.884 527.912 861.0120000000001 526.776L812.2280000000001 498.016C800.2160000000001 505.344 787.5 511.224 774.312 515.56L758.136 573.0799999999999C757.452 575.2 756.148 577.016 754.4280000000001 578.26C752.708 579.508 750.6600000000001 580.1120000000001 748.592 579.9839999999999H694.2359999999999C692.1479999999999 580.008 690.1120000000001 579.292 688.4359999999999 577.9399999999999C686.76 576.592 685.5360000000001 574.6800000000001 684.9559999999999 572.504L668.784 514.9839999999999C655.5039999999999 510.796 642.6959999999999 505.008 630.604 497.728L582.348 526.488C580.516 527.5999999999999 578.3919999999999 528.008 576.324 527.6400000000001C574.252 527.2760000000001 572.356 526.16 570.944 524.476L531.704 483.0599999999999C530.248 481.4 529.312 479.284 529.028 477.0119999999999C528.74 474.74 529.12 472.432 530.1120000000001 470.408L556.6279999999999 418.064C549.616 405.1 544.0079999999999 391.3000000000001 539.924 376.9360000000001L486.896 359.6800000000001C484.888 359.0519999999999 483.128 357.7280000000001 481.884 355.908C480.636 354.092 479.976 351.88 480 349.616V290.6560000000001C480.156 288.5800000000001 480.904 286.604 482.14 285.0080000000001C483.376 283.4120000000001 485.036 282.2680000000001 486.896 281.74L539.924 264.1960000000001C543.844 250.088 549.176 236.492 555.832 223.644L529.316 168.712C528.304 166.744 527.912 164.472 528.2 162.24C528.4879999999999 160.0080000000001 529.44 157.94 530.908 156.348L569.356 114.644C570.856 113.0200000000001 572.792 111.948 574.8879999999999 111.588C576.98 111.228 579.1279999999999 111.592 581.02 112.632L630.604 141.3920000000001C642.404 134.5080000000001 654.8480000000001 129.0120000000001 667.724 124.996L683.6320000000001 67.4760000000001C684.284 65.3480000000001 685.5240000000001 63.4879999999999 687.184 62.1519999999999C688.844 60.8119999999999 690.844 60.064 692.912 60H747.268C749.3439999999999 60.02 751.3639999999999 60.756 753.032 62.0999999999999C754.696 63.444 755.928 65.324 756.548 67.4760000000001L772.72 126.436C785.428 130.452 797.6959999999999 135.9480000000001 809.312 142.828L859.4240000000001 114.068C861.264 113.0079999999999 863.376 112.6279999999999 865.4359999999999 112.992C867.496 113.356 869.388 114.4400000000001 870.8240000000001 116.0840000000001L911.128 155.1959999999999C912.208 156.884 912.792 158.8920000000001 912.792 160.9480000000001C912.792 163.0039999999999 912.208 165.012 911.128 166.7000000000001L884.6120000000001 220.768C891.048 233.456 896.2040000000001 246.8600000000002 899.992 260.7439999999999L953.02 278.288C955.0239999999998 278.92 956.784 280.2440000000001 958.032 282.0600000000001C959.276 283.8800000000001 959.936 286.092 959.912 288.356V348.7520000000001C960.156 350.692 959.888 352.668 959.136 354.452C958.384 356.232 957.184 357.7480000000001 955.672 358.8160000000001zM721.548 224.22C704.0120000000001 224.164 686.852 229.756 672.248 240.288C657.644 250.8240000000001 646.2520000000001 265.82 639.516 283.3880000000001C632.78 300.952 631.004 320.288 634.412 338.9480000000001C637.8199999999999 357.6080000000001 646.26 374.752 658.664 388.204C671.064 401.656 686.868 410.808 704.072 414.504C721.2760000000001 418.204 739.1039999999999 416.2760000000001 755.296 408.972C771.4879999999999 401.664 785.316 389.308 795.0279999999999 373.4680000000001C804.7360000000001 357.628 809.8919999999999 339.0160000000001 809.8399999999999 319.992C809.7719999999999 294.616 800.448 270.3 783.904 252.356C767.36 234.4119999999999 744.944 224.2959999999999 721.548 224.22z M0 980H960V20H0V980z" />
    <glyph glyph-name="admin-1"
      unicode="&#x61;&#x64;&#x6D;&#x69;&#x6E;"
      horiz-adv-x="960" d=" M380 580C344.3880000000001 580 309.5764000000001 590.564 279.9696 610.354C250.3632 630.1444 227.292 658.2724000000001 213.6764 691.1788C200.0604 724.0848000000001 196.5112 760.2904 203.4784 795.2144C210.4452 830.138 227.6152 862.2103999999999 252.8152 887.3732C278.0152 912.536 310.1128 929.6584 345.0472 936.5736C379.9812 943.4888 416.18 939.8864 449.068 926.2216C481.952 912.5572 510.048 889.4448 529.792 859.8088C549.54 830.1728 560.052 795.3456 560 759.7336C559.86 712.0624 540.84 666.388 507.108 632.7044000000001C473.372 599.02 427.6720000000001 580.072 380 580zM380 886.4792C354.932 886.4792 330.4268 879.0456 309.5836 865.1188C288.7404 851.1916 272.4952 831.3968 262.9024 808.2372C253.3092 785.0776000000001 250.7992 759.5932 255.6896 735.0068C260.58 710.4208 272.6516000000001 687.8368 290.3772 670.1112C308.1028 652.3856000000001 330.6868 640.314 355.2732000000001 635.4236000000001C379.8592 630.5332 405.344 633.0432 428.504 642.636C451.664 652.2292 471.456 668.4744000000001 485.384 689.3176000000001C499.312 710.1608 506.744 734.6656 506.744 759.7336C506.744 793.3488 493.392 825.5868 469.624 849.3564C445.852 873.1256 413.6160000000001 886.4792 380 886.4792z M432.38 108.836C426.432 114.876 421.848 122.1479999999999 418.932 130.1560000000001C416.02 138.164 414.852 146.72 415.512 155.232H94.4216V314.8480000000001C133.004 356.6280000000001 179.8016 389.7240000000001 231.7848 411.9840000000001C283.768 434.248 339.7784000000001 445.184 396.1904 444.088H415.784C414.5320000000001 453.348 415.404 462.772 418.332 471.636C421.256 480.496 426.16 488.552 432.652 495.176L435.92 498.216C423.1280000000001 498.216 408.7080000000001 499.872 396.1904 499.872C329.8068 501.472 263.9024 488.08 203.2428 460.668C142.5832 433.2520000000001 88.6836 392.5 45.442 341.3599999999999C41.9096 336.5800000000001 40 330.7640000000001 40 324.788V155.232C40 140.5840000000001 45.7336 126.536 55.9396 116.1759999999999C66.146 105.8199999999999 79.9884 100 94.4216 100H440L432.38 108.836z M955.672 358.8160000000001L902.64 376.36C898.852 390.432 893.696 404.024 887.264 416.9120000000001L913.776 470.408C914.64 472.548 914.848 474.932 914.372 477.208C913.892 479.484 912.756 481.5359999999999 911.128 483.0599999999999L872.6800000000001 524.764C871.228 526.472 869.284 527.5999999999999 867.1680000000001 527.9639999999999C865.052 528.328 862.884 527.912 861.0120000000001 526.776L812.2280000000001 498.016C800.2160000000001 505.344 787.5 511.224 774.312 515.56L758.136 573.0799999999999C757.452 575.2 756.148 577.016 754.4280000000001 578.26C752.708 579.508 750.6600000000001 580.1120000000001 748.592 579.9839999999999H694.2359999999999C692.1479999999999 580.008 690.1120000000001 579.292 688.4359999999999 577.9399999999999C686.76 576.592 685.5360000000001 574.6800000000001 684.9559999999999 572.504L668.784 514.9839999999999C655.5039999999999 510.796 642.6959999999999 505.008 630.604 497.728L582.348 526.488C580.516 527.5999999999999 578.3919999999999 528.008 576.324 527.6400000000001C574.252 527.2760000000001 572.356 526.16 570.944 524.476L531.704 483.0599999999999C530.248 481.4 529.312 479.284 529.028 477.0119999999999C528.74 474.74 529.12 472.432 530.1120000000001 470.408L556.6279999999999 418.064C549.616 405.1 544.0079999999999 391.3000000000001 539.924 376.9360000000001L486.896 359.6800000000001C484.888 359.0519999999999 483.128 357.7280000000001 481.884 355.908C480.636 354.092 479.976 351.88 480 349.616V290.6560000000001C480.156 288.5800000000001 480.904 286.604 482.14 285.0080000000001C483.376 283.4120000000001 485.036 282.2680000000001 486.896 281.74L539.924 264.1960000000001C543.844 250.088 549.176 236.492 555.832 223.644L529.316 168.712C528.304 166.744 527.912 164.472 528.2 162.24C528.4879999999999 160.0080000000001 529.44 157.94 530.908 156.348L569.356 114.644C570.856 113.0200000000001 572.792 111.948 574.8879999999999 111.588C576.98 111.228 579.1279999999999 111.592 581.02 112.632L630.604 141.3920000000001C642.404 134.5080000000001 654.8480000000001 129.0120000000001 667.724 124.996L683.6320000000001 67.4760000000001C684.284 65.3480000000001 685.5240000000001 63.4879999999999 687.184 62.1519999999999C688.844 60.8119999999999 690.844 60.064 692.912 60H747.268C749.3439999999999 60.02 751.3639999999999 60.756 753.032 62.0999999999999C754.696 63.444 755.928 65.324 756.548 67.4760000000001L772.72 126.436C785.428 130.452 797.6959999999999 135.9480000000001 809.312 142.828L859.4240000000001 114.068C861.264 113.0079999999999 863.376 112.6279999999999 865.4359999999999 112.992C867.496 113.356 869.388 114.4400000000001 870.8240000000001 116.0840000000001L911.128 155.1959999999999C912.208 156.884 912.792 158.8920000000001 912.792 160.9480000000001C912.792 163.0039999999999 912.208 165.012 911.128 166.7000000000001L884.6120000000001 220.768C891.048 233.456 896.2040000000001 246.8600000000002 899.992 260.7439999999999L953.02 278.288C955.0239999999998 278.92 956.784 280.2440000000001 958.032 282.0600000000001C959.276 283.8800000000001 959.936 286.092 959.912 288.356V348.7520000000001C960.156 350.692 959.888 352.668 959.136 354.452C958.384 356.232 957.184 357.7480000000001 955.672 358.8160000000001zM721.548 224.22C704.0120000000001 224.164 686.852 229.756 672.248 240.288C657.644 250.8240000000001 646.2520000000001 265.82 639.516 283.3880000000001C632.78 300.952 631.004 320.288 634.412 338.9480000000001C637.8199999999999 357.6080000000001 646.26 374.752 658.664 388.204C671.064 401.656 686.868 410.808 704.072 414.504C721.2760000000001 418.204 739.1039999999999 416.2760000000001 755.296 408.972C771.4879999999999 401.664 785.316 389.308 795.0279999999999 373.4680000000001C804.7360000000001 357.628 809.8919999999999 339.0160000000001 809.8399999999999 319.992C809.7719999999999 294.616 800.448 270.3 783.904 252.356C767.36 234.4119999999999 744.944 224.2959999999999 721.548 224.22z M0 980H960V20H0V980z" />
    <glyph glyph-name="alert-circle"
      unicode="&#xF102;"
      horiz-adv-x="960" d=" M480 860C281.1776 860 120 698.8224 120 500C120 301.176 281.1776 140 480 140C678.8240000000001 140 840 301.176 840 500C840 698.8224 678.8240000000001 860 480 860zM40 500C40 743.0052000000001 236.9948 940 480 940C723.0039999999999 940 920 743.0052000000001 920 500C920 256.9960000000001 723.0039999999999 60 480 60C236.9948 60 40 256.9960000000001 40 500zM480 700C502.092 700 520 682.0912 520 660V500C520 477.908 502.092 460 480 460C457.908 460 440 477.908 440 500V660C440 682.0912 457.908 700 480 700zM440 340C440 362.092 457.908 380 480 380H480.4C502.492 380 520.4 362.092 520.4 340C520.4 317.908 502.492 300 480.4 300H480C457.908 300 440 317.908 440 340z" />
    <glyph glyph-name="alert-circle-1"
      unicode="&#x61;&#x6C;&#x65;&#x72;&#x74;&#x2D;&#x63;&#x69;&#x72;&#x63;&#x6C;&#x65;"
      horiz-adv-x="960" d=" M480 860C281.1776 860 120 698.8224 120 500C120 301.176 281.1776 140 480 140C678.8240000000001 140 840 301.176 840 500C840 698.8224 678.8240000000001 860 480 860zM40 500C40 743.0052000000001 236.9948 940 480 940C723.0039999999999 940 920 743.0052000000001 920 500C920 256.9960000000001 723.0039999999999 60 480 60C236.9948 60 40 256.9960000000001 40 500zM480 700C502.092 700 520 682.0912 520 660V500C520 477.908 502.092 460 480 460C457.908 460 440 477.908 440 500V660C440 682.0912 457.908 700 480 700zM440 340C440 362.092 457.908 380 480 380H480.4C502.492 380 520.4 362.092 520.4 340C520.4 317.908 502.492 300 480.4 300H480C457.908 300 440 317.908 440 340z" />
    <glyph glyph-name="android"
      unicode="&#xF103;"
      horiz-adv-x="960" d=" M733.76 631.5996C705.48 631.5996 682.6 608.7196 682.6 580.48V399.28C682.6 370.92 705.48 348.0800000000001 733.76 348.0800000000001C762.04 348.0800000000001 784.9200000000001 370.92 784.9200000000001 399.28V580.48C784.9200000000001 608.7196 762.04 631.5996 733.76 631.5996zM226.238 631.5996C197.958 631.5996 175.078 608.7196 175.078 580.48V399.28C175.078 370.92 197.958 348.0800000000001 226.238 348.0800000000001C254.518 348.0800000000001 277.398 370.92 277.398 399.28V580.48C277.438 608.7196 254.518 631.5996 226.238 631.5996zM581.8 783.9596L612.52 839.4796C616.36 846.1596 613.84 854.5596 607.2 858.2796C600.48 862.0396000000001 592.04 859.5996 588.36 852.8796L556.8 796.0796C533.28 805.4796 507.36 810.7996 480 810.7996C452.64 810.7996 426.72 805.5196000000001 403.2 796.1196L371.6380000000001 852.8396C368.038 859.5596 359.598 861.9996 352.798 858.2396C346.158 854.5196 343.718 846.1196 347.478 839.4396L378.198 783.9196C322.878 752.3996 285.918 696.0396000000001 285.918 631.5996C285.918 631.1596 285.918 630.7596000000001 285.998 630.2396C285.918 629.9996 285.918 629.7196 285.918 629.4796V629.4395999999999H674.04V629.4796C674.04 629.7196 674.04 629.9996 674.04 630.2396C674.04 630.7596000000001 674.04 631.1596 674.04 631.5996C674.08 696.0396000000001 637.12 752.3596 581.8 783.9596zM390.398 705.2396C382.838 705.2396 376.6380000000001 711.4796 376.6380000000001 719.0796C376.6380000000001 726.6795999999999 382.798 732.9196 390.398 732.9196C398.038 732.9196 404.3200000000001 726.7196 404.3200000000001 719.0796C404.28 711.4796 398.038 705.2396 390.398 705.2396zM569.6 705.2396C561.96 705.2396 555.76 711.4796 555.76 719.0796C555.76 726.6795999999999 561.92 732.9196 569.6 732.9196C577.16 732.9196 583.36 726.7196 583.36 719.0796C583.36 711.4796 577.2 705.2396 569.6 705.2396zM285.918 335.2C285.918 309.3600000000002 306.918 288.36 332.878 288.36H356.318V192.3199999999999C356.318 164.04 379.278 141.2000000000001 407.48 141.2000000000001C435.68 141.2000000000001 458.64 164.04 458.64 192.3199999999999V288.36H501.28V192.3199999999999C501.28 164.04 524.16 141.2000000000001 552.36 141.2000000000001C580.72 141.2000000000001 603.6 164.04 603.6 192.3199999999999V288.36H627.04C652.96 288.36 674 309.3200000000001 674 335.2V618.8796H285.918V335.2z" />
    <glyph glyph-name="android-1"
      unicode="&#x61;&#x6E;&#x64;&#x72;&#x6F;&#x69;&#x64;"
      horiz-adv-x="960" d=" M733.76 631.5996C705.48 631.5996 682.6 608.7196 682.6 580.48V399.28C682.6 370.92 705.48 348.0800000000001 733.76 348.0800000000001C762.04 348.0800000000001 784.9200000000001 370.92 784.9200000000001 399.28V580.48C784.9200000000001 608.7196 762.04 631.5996 733.76 631.5996zM226.238 631.5996C197.958 631.5996 175.078 608.7196 175.078 580.48V399.28C175.078 370.92 197.958 348.0800000000001 226.238 348.0800000000001C254.518 348.0800000000001 277.398 370.92 277.398 399.28V580.48C277.438 608.7196 254.518 631.5996 226.238 631.5996zM581.8 783.9596L612.52 839.4796C616.36 846.1596 613.84 854.5596 607.2 858.2796C600.48 862.0396000000001 592.04 859.5996 588.36 852.8796L556.8 796.0796C533.28 805.4796 507.36 810.7996 480 810.7996C452.64 810.7996 426.72 805.5196000000001 403.2 796.1196L371.6380000000001 852.8396C368.038 859.5596 359.598 861.9996 352.798 858.2396C346.158 854.5196 343.718 846.1196 347.478 839.4396L378.198 783.9196C322.878 752.3996 285.918 696.0396000000001 285.918 631.5996C285.918 631.1596 285.918 630.7596000000001 285.998 630.2396C285.918 629.9996 285.918 629.7196 285.918 629.4796V629.4395999999999H674.04V629.4796C674.04 629.7196 674.04 629.9996 674.04 630.2396C674.04 630.7596000000001 674.04 631.1596 674.04 631.5996C674.08 696.0396000000001 637.12 752.3596 581.8 783.9596zM390.398 705.2396C382.838 705.2396 376.6380000000001 711.4796 376.6380000000001 719.0796C376.6380000000001 726.6795999999999 382.798 732.9196 390.398 732.9196C398.038 732.9196 404.3200000000001 726.7196 404.3200000000001 719.0796C404.28 711.4796 398.038 705.2396 390.398 705.2396zM569.6 705.2396C561.96 705.2396 555.76 711.4796 555.76 719.0796C555.76 726.6795999999999 561.92 732.9196 569.6 732.9196C577.16 732.9196 583.36 726.7196 583.36 719.0796C583.36 711.4796 577.2 705.2396 569.6 705.2396zM285.918 335.2C285.918 309.3600000000002 306.918 288.36 332.878 288.36H356.318V192.3199999999999C356.318 164.04 379.278 141.2000000000001 407.48 141.2000000000001C435.68 141.2000000000001 458.64 164.04 458.64 192.3199999999999V288.36H501.28V192.3199999999999C501.28 164.04 524.16 141.2000000000001 552.36 141.2000000000001C580.72 141.2000000000001 603.6 164.04 603.6 192.3199999999999V288.36H627.04C652.96 288.36 674 309.3200000000001 674 335.2V618.8796H285.918V335.2z" />
    <glyph glyph-name="android2"
      unicode="&#xF104;"
      horiz-adv-x="960" d=" M704 600.8L777.6 728C784 740.4 779.2 755.6 767.2 762C761.5640000000001 764.9372 755.0360000000001 765.6628000000001 748.896 764.0348C742.752 762.4068 737.44 758.5424 734 753.2L658.8 623.6C602.232 647.5548 541.428 659.8984 480 659.8984C418.572 659.8984 357.7668 647.5548 301.2 623.6L226 753.2C222.3636 758.7796000000001 216.7052 762.7312 210.2144 764.2232C203.724 765.7152 196.9076 764.6315999999999 191.2 761.2C180 754 176.4 739.6 182.4 728L256 600.8C194.9344 565.9159999999999 143.328 516.624 105.6792 457.224C68.0304 397.82 45.4824 330.1120000000001 40 260H920C914.516 330.1120000000001 891.968 397.82 854.32 457.224C816.6719999999999 516.624 765.064 565.9159999999999 704 600.8zM280 370C266.7392 370 254.0216 375.2680000000001 244.6448 384.644C235.2680000000001 394.02 230 406.74 230 420C230 433.26 235.2680000000001 445.98 244.6448 455.356C254.0216 464.732 266.7392 470 280 470C293.2608 470 305.9784 464.732 315.3552 455.356C324.732 445.98 330 433.26 330 420C330 406.74 324.732 394.02 315.3552 384.644C305.9784 375.2680000000001 293.2608 370 280 370zM680 370C666.74 370 654.02 375.2680000000001 644.644 384.644C635.268 394.02 630 406.74 630 420C630 433.26 635.268 445.98 644.644 455.356C654.02 464.732 666.74 470 680 470C693.26 470 705.98 464.732 715.356 455.356C724.7320000000001 445.98 730 433.26 730 420C730 406.74 724.7320000000001 394.02 715.356 384.644C705.98 375.2680000000001 693.26 370 680 370z" />
    <glyph glyph-name="android2-1"
      unicode="&#x61;&#x6E;&#x64;&#x72;&#x6F;&#x69;&#x64;&#x32;"
      horiz-adv-x="960" d=" M704 600.8L777.6 728C784 740.4 779.2 755.6 767.2 762C761.5640000000001 764.9372 755.0360000000001 765.6628000000001 748.896 764.0348C742.752 762.4068 737.44 758.5424 734 753.2L658.8 623.6C602.232 647.5548 541.428 659.8984 480 659.8984C418.572 659.8984 357.7668 647.5548 301.2 623.6L226 753.2C222.3636 758.7796000000001 216.7052 762.7312 210.2144 764.2232C203.724 765.7152 196.9076 764.6315999999999 191.2 761.2C180 754 176.4 739.6 182.4 728L256 600.8C194.9344 565.9159999999999 143.328 516.624 105.6792 457.224C68.0304 397.82 45.4824 330.1120000000001 40 260H920C914.516 330.1120000000001 891.968 397.82 854.32 457.224C816.6719999999999 516.624 765.064 565.9159999999999 704 600.8zM280 370C266.7392 370 254.0216 375.2680000000001 244.6448 384.644C235.2680000000001 394.02 230 406.74 230 420C230 433.26 235.2680000000001 445.98 244.6448 455.356C254.0216 464.732 266.7392 470 280 470C293.2608 470 305.9784 464.732 315.3552 455.356C324.732 445.98 330 433.26 330 420C330 406.74 324.732 394.02 315.3552 384.644C305.9784 375.2680000000001 293.2608 370 280 370zM680 370C666.74 370 654.02 375.2680000000001 644.644 384.644C635.268 394.02 630 406.74 630 420C630 433.26 635.268 445.98 644.644 455.356C654.02 464.732 666.74 470 680 470C693.26 470 705.98 464.732 715.356 455.356C724.7320000000001 445.98 730 433.26 730 420C730 406.74 724.7320000000001 394.02 715.356 384.644C705.98 375.2680000000001 693.26 370 680 370z" />
    <glyph glyph-name="apple"
      unicode="&#xF105;"
      horiz-adv-x="960" d=" M786.596 307.56C775.116 281 761.5160000000001 256.5600000000001 745.756 234.0800000000001C724.276 203.4000000000001 706.636 182.2000000000001 693.116 170.4000000000001C672.116 151.1199999999999 649.556 141.2000000000001 625.4359999999999 140.6399999999999C608.1560000000001 140.6399999999999 587.2760000000001 145.56 562.956 155.56C538.556 165.5200000000001 516.156 170.4000000000001 495.636 170.4000000000001C474.1559999999999 170.4000000000001 451.116 165.5200000000001 426.436 155.56C401.796 145.56 381.8760000000001 140.3199999999999 366.636 139.8399999999999C343.5560000000001 138.84 320.476 149 297.476 170.4000000000001C282.796 183.1999999999999 264.436 205.1999999999999 242.396 236.3200000000001C218.796 269.4799999999999 199.396 308.0800000000001 184.196 351.9600000000001C167.916 399.4400000000001 159.756 445.36 159.756 489.84C159.756 540.76 170.756 584.72 192.796 621.5204C210.156 651.1204 233.1960000000001 674.4404 261.996 691.5604000000001C290.836 708.7203999999999 322.036 717.4803999999999 355.596 718.0404C373.996 718.0404 398.116 712.3604 427.996 701.1604C457.876 689.9603999999999 477.076 684.2804 485.436 684.2804C491.756 684.2804 512.996 690.9603999999999 549.156 704.2004C583.276 716.4804 612.076 721.5604000000001 635.6759999999999 719.5604000000001C699.676 714.4004 747.7160000000001 689.2004 779.676 643.7604C722.4760000000001 609.0804 694.196 560.56 694.756 498.28C695.236 449.76 712.876 409.4 747.436 377.36C763.116 362.48 780.596 351 800.0360000000001 342.8400000000001C795.796 330.56 791.316 318.8400000000001 786.596 307.56zM639.9159999999999 884.8004C639.9159999999999 846.8004 625.996 811.2804 598.356 778.4404C564.9159999999999 739.4004 524.516 716.8004000000001 480.716 720.3604C480.156 724.9204 479.876 729.7203999999999 479.876 734.7604C479.876 771.2804 495.716 810.3204 523.996 842.2804C538.076 858.4404 555.996 871.9204 577.716 882.6404C599.396 893.2004 619.876 899.0404 639.156 900.0404C639.6759999999999 894.9204 639.9159999999999 889.8404 639.9159999999999 884.8004z" />
    <glyph glyph-name="apple-1"
      unicode="&#x61;&#x70;&#x70;&#x6C;&#x65;"
      horiz-adv-x="960" d=" M786.596 307.56C775.116 281 761.5160000000001 256.5600000000001 745.756 234.0800000000001C724.276 203.4000000000001 706.636 182.2000000000001 693.116 170.4000000000001C672.116 151.1199999999999 649.556 141.2000000000001 625.4359999999999 140.6399999999999C608.1560000000001 140.6399999999999 587.2760000000001 145.56 562.956 155.56C538.556 165.5200000000001 516.156 170.4000000000001 495.636 170.4000000000001C474.1559999999999 170.4000000000001 451.116 165.5200000000001 426.436 155.56C401.796 145.56 381.8760000000001 140.3199999999999 366.636 139.8399999999999C343.5560000000001 138.84 320.476 149 297.476 170.4000000000001C282.796 183.1999999999999 264.436 205.1999999999999 242.396 236.3200000000001C218.796 269.4799999999999 199.396 308.0800000000001 184.196 351.9600000000001C167.916 399.4400000000001 159.756 445.36 159.756 489.84C159.756 540.76 170.756 584.72 192.796 621.5204C210.156 651.1204 233.1960000000001 674.4404 261.996 691.5604000000001C290.836 708.7203999999999 322.036 717.4803999999999 355.596 718.0404C373.996 718.0404 398.116 712.3604 427.996 701.1604C457.876 689.9603999999999 477.076 684.2804 485.436 684.2804C491.756 684.2804 512.996 690.9603999999999 549.156 704.2004C583.276 716.4804 612.076 721.5604000000001 635.6759999999999 719.5604000000001C699.676 714.4004 747.7160000000001 689.2004 779.676 643.7604C722.4760000000001 609.0804 694.196 560.56 694.756 498.28C695.236 449.76 712.876 409.4 747.436 377.36C763.116 362.48 780.596 351 800.0360000000001 342.8400000000001C795.796 330.56 791.316 318.8400000000001 786.596 307.56zM639.9159999999999 884.8004C639.9159999999999 846.8004 625.996 811.2804 598.356 778.4404C564.9159999999999 739.4004 524.516 716.8004000000001 480.716 720.3604C480.156 724.9204 479.876 729.7203999999999 479.876 734.7604C479.876 771.2804 495.716 810.3204 523.996 842.2804C538.076 858.4404 555.996 871.9204 577.716 882.6404C599.396 893.2004 619.876 899.0404 639.156 900.0404C639.6759999999999 894.9204 639.9159999999999 889.8404 639.9159999999999 884.8004z" />
    <glyph glyph-name="arrow-down-right"
      unicode="&#xF106;"
      horiz-adv-x="960" d=" M251.7156 728.2844C267.3368 743.9051999999999 292.6632 743.9051999999999 308.2844 728.2844L640 396.568V700C640 722.0912 657.908 740 680 740C702.092 740 720 722.0912 720 700V300C720 277.908 702.092 260 680 260H280C257.9088000000001 260 240 277.908 240 300C240 322.092 257.9088000000001 340 280 340H583.432L251.7156 671.7156C236.0948 687.3368 236.0948 712.6632 251.7156 728.2844z" />
    <glyph glyph-name="arrow-down-right-1"
      unicode="&#x61;&#x72;&#x72;&#x6F;&#x77;&#x2D;&#x64;&#x6F;&#x77;&#x6E;&#x2D;&#x72;&#x69;&#x67;&#x68;&#x74;"
      horiz-adv-x="960" d=" M251.7156 728.2844C267.3368 743.9051999999999 292.6632 743.9051999999999 308.2844 728.2844L640 396.568V700C640 722.0912 657.908 740 680 740C702.092 740 720 722.0912 720 700V300C720 277.908 702.092 260 680 260H280C257.9088000000001 260 240 277.908 240 300C240 322.092 257.9088000000001 340 280 340H583.432L251.7156 671.7156C236.0948 687.3368 236.0948 712.6632 251.7156 728.2844z" />
    <glyph glyph-name="arrow-dyn-down"
      unicode="&#xF107;"
      horiz-adv-x="941.1764705882352" d=" M243.3188235294118 727.2729411764706C260.5476470588236 744.5023529411765 288.4811764705883 744.5023529411765 305.7105882352941 727.2729411764706L622.5529411764705 410.4294117647059L622.5529411764705 617.6458823529413C622.5529411764705 642.0111764705882 642.3058823529411 661.7635294117647 666.6705882352941 661.7635294117647C691.035294117647 661.7635294117647 710.7882352941176 642.0111764705882 710.7882352941176 617.6458823529413V303.9176470588236C710.7882352941176 279.5529411764707 691.035294117647 259.8000000000001 666.6705882352941 259.8000000000001H352.9458823529411C328.5805882352941 259.8000000000001 308.8282352941177 279.5529411764707 308.8282352941177 303.9176470588236C308.8282352941177 328.2882352941176 328.5805882352941 348.0352941176472 352.9458823529411 348.0352941176472H560.1617647058823L243.3188235294118 664.8811764705882C226.0894117647059 682.1105882352941 226.0894117647059 710.0441176470588 243.3188235294118 727.2729411764706z" />
    <glyph glyph-name="arrow-dyn-down-1"
      unicode="&#x61;&#x72;&#x72;&#x6F;&#x77;&#x2D;&#x64;&#x79;&#x6E;&#x2D;&#x64;&#x6F;&#x77;&#x6E;"
      horiz-adv-x="941.1764705882352" d=" M243.3188235294118 727.2729411764706C260.5476470588236 744.5023529411765 288.4811764705883 744.5023529411765 305.7105882352941 727.2729411764706L622.5529411764705 410.4294117647059L622.5529411764705 617.6458823529413C622.5529411764705 642.0111764705882 642.3058823529411 661.7635294117647 666.6705882352941 661.7635294117647C691.035294117647 661.7635294117647 710.7882352941176 642.0111764705882 710.7882352941176 617.6458823529413V303.9176470588236C710.7882352941176 279.5529411764707 691.035294117647 259.8000000000001 666.6705882352941 259.8000000000001H352.9458823529411C328.5805882352941 259.8000000000001 308.8282352941177 279.5529411764707 308.8282352941177 303.9176470588236C308.8282352941177 328.2882352941176 328.5805882352941 348.0352941176472 352.9458823529411 348.0352941176472H560.1617647058823L243.3188235294118 664.8811764705882C226.0894117647059 682.1105882352941 226.0894117647059 710.0441176470588 243.3188235294118 727.2729411764706z" />
    <glyph glyph-name="arrow-dyn-up"
      unicode="&#xF108;"
      horiz-adv-x="941.1764705882352" d=" M308.8282352941177 696.0770588235293C308.8282352941177 720.4429411764706 328.5805882352941 740.194705882353 352.9458823529411 740.194705882353H666.6705882352941C691.035294117647 740.194705882353 710.7882352941176 720.4429411764706 710.7882352941176 696.0770588235293V382.3529411764706C710.7882352941176 357.9882352941178 691.035294117647 338.2352941176471 666.6705882352941 338.2352941176471C642.3058823529411 338.2352941176471 622.5529411764705 357.9882352941178 622.5529411764705 382.3529411764706L622.5529411764705 589.5676470588235L305.7105882352941 272.7235294117648C288.4811764705883 255.494117647059 260.5476470588236 255.494117647059 243.3188235294118 272.7235294117648C226.0894117647059 289.9529411764707 226.0894117647059 317.8882352941177 243.3188235294118 335.1176470588236L560.1617647058823 651.9594117647059H352.9458823529411C328.5805882352941 651.9594117647059 308.8282352941177 671.7117647058824 308.8282352941177 696.0770588235293z" />
    <glyph glyph-name="arrow-dyn-up-1"
      unicode="&#x61;&#x72;&#x72;&#x6F;&#x77;&#x2D;&#x64;&#x79;&#x6E;&#x2D;&#x75;&#x70;"
      horiz-adv-x="941.1764705882352" d=" M308.8282352941177 696.0770588235293C308.8282352941177 720.4429411764706 328.5805882352941 740.194705882353 352.9458823529411 740.194705882353H666.6705882352941C691.035294117647 740.194705882353 710.7882352941176 720.4429411764706 710.7882352941176 696.0770588235293V382.3529411764706C710.7882352941176 357.9882352941178 691.035294117647 338.2352941176471 666.6705882352941 338.2352941176471C642.3058823529411 338.2352941176471 622.5529411764705 357.9882352941178 622.5529411764705 382.3529411764706L622.5529411764705 589.5676470588235L305.7105882352941 272.7235294117648C288.4811764705883 255.494117647059 260.5476470588236 255.494117647059 243.3188235294118 272.7235294117648C226.0894117647059 289.9529411764707 226.0894117647059 317.8882352941177 243.3188235294118 335.1176470588236L560.1617647058823 651.9594117647059H352.9458823529411C328.5805882352941 651.9594117647059 308.8282352941177 671.7117647058824 308.8282352941177 696.0770588235293z" />
    <glyph glyph-name="arrow-up-right"
      unicode="&#xF109;"
      horiz-adv-x="960" d=" M280 660C257.9088000000001 660 240 677.9088 240 700C240 722.0912 257.9088000000001 740 280 740H680C702.092 740 720 722.0912 720 700V300C720 277.908 702.092 260 680 260C657.908 260 640 277.908 640 300V603.4316L308.2844 271.716C292.6632 256.096 267.3368 256.096 251.7156 271.716C236.0948 287.336 236.0948 312.664 251.7156 328.284L583.432 660H280z" />
    <glyph glyph-name="arrow-up-right-1"
      unicode="&#x61;&#x72;&#x72;&#x6F;&#x77;&#x2D;&#x75;&#x70;&#x2D;&#x72;&#x69;&#x67;&#x68;&#x74;"
      horiz-adv-x="960" d=" M280 660C257.9088000000001 660 240 677.9088 240 700C240 722.0912 257.9088000000001 740 280 740H680C702.092 740 720 722.0912 720 700V300C720 277.908 702.092 260 680 260C657.908 260 640 277.908 640 300V603.4316L308.2844 271.716C292.6632 256.096 267.3368 256.096 251.7156 271.716C236.0948 287.336 236.0948 312.664 251.7156 328.284L583.432 660H280z" />
    <glyph glyph-name="bar-chart"
      unicode="&#xF10A;"
      horiz-adv-x="960" d=" M800 820V180H640V820H800zM560 580V180H400V580H560zM320 340V180H160V340H320z" />
    <glyph glyph-name="bar-chart-1"
      unicode="&#x62;&#x61;&#x72;&#x2D;&#x63;&#x68;&#x61;&#x72;&#x74;"
      horiz-adv-x="960" d=" M800 820V180H640V820H800zM560 580V180H400V580H560zM320 340V180H160V340H320z" />
    <glyph glyph-name="bell"
      unicode="&#xF10B;"
      horiz-adv-x="960" d=" M282.0132 857.99C334.5236 910.5 405.744 940 480.004 940C554.264 940 625.484 910.5 677.992 857.99C730.5039999999999 805.4796 760.004 734.2604 760.004 660C760.004 525.892 788.684 442.616 815.12 394.156C828.392 369.824 841.316 353.8599999999999 850.292 344.384C854.792 339.636 858.3240000000001 336.488 860.4559999999999 334.712C861.52 333.8240000000001 862.2320000000001 333.28 862.5400000000001 333.052C862.588 333.016 862.6279999999999 332.9880000000001 862.6560000000001 332.9680000000001C876.9960000000001 323.116 883.34 305.1 878.288 288.408C873.18 271.54 857.6279999999999 260 840.004 260H120.0032C102.3764 260 86.8272 271.54 81.7196 288.408C76.6656 305.1 83.0112 323.116 97.3508 332.9680000000001C97.3788 332.9880000000001 97.4168 333.016 97.4652 333.052C97.7728 333.28 98.4872 333.8240000000001 99.552 334.712C101.6808 336.488 105.216 339.636 109.7152 344.384C118.692 353.8599999999999 131.6156 369.824 144.8872 394.156C171.3204 442.616 200.0032 525.892 200.0032 660C200.0032 734.2608 229.5032 805.4796 282.0132 857.99zM97.7552 333.24C97.758 333.2439999999999 97.7612 333.248 97.7644 333.248C97.7644 333.248 97.764 333.248 97.764 333.248L97.7552 333.24zM205.976 340H754.0319999999999C750.9879999999999 344.9880000000001 747.932 350.2639999999999 744.8879999999999 355.8440000000001C711.32 417.384 680.004 514.108 680.004 660C680.004 713.0432000000001 658.9319999999999 763.914 621.424 801.4212C583.9159999999999 838.9288 533.048 860 480.004 860C426.96 860 376.0892 838.9288 338.5816 801.4212C301.0744000000001 763.914 280.0032 713.0432000000001 280.0032 660C280.0032 514.108 248.686 417.384 215.1188 355.8440000000001C212.0752 350.2639999999999 209.0196 344.9880000000001 205.976 340zM390.7324 174.5999999999999C409.8400000000001 185.684 434.3200000000001 179.1800000000001 445.404 160.072C448.92 154.0080000000001 453.968 148.976 460.04 145.48C466.112 141.984 472.996 140.14 480.004 140.14C487.012 140.14 493.896 141.984 499.968 145.48C506.04 148.976 511.088 154.0080000000001 514.604 160.072C525.688 179.1800000000001 550.164 185.684 569.2719999999999 174.5999999999999C588.384 163.5160000000001 594.8879999999999 139.04 583.804 119.928C573.256 101.744 558.112 86.652 539.8960000000001 76.156C521.68 65.664 501.024 60.14 480.004 60.14C458.98 60.14 438.328 65.664 420.1080000000001 76.156C401.892 86.652 386.7516 101.744 376.2032 119.928C365.1184 139.04 371.6232 163.5160000000001 390.7324 174.5999999999999z" />
    <glyph glyph-name="bell-1"
      unicode="&#x62;&#x65;&#x6C;&#x6C;"
      horiz-adv-x="960" d=" M282.0132 857.99C334.5236 910.5 405.744 940 480.004 940C554.264 940 625.484 910.5 677.992 857.99C730.5039999999999 805.4796 760.004 734.2604 760.004 660C760.004 525.892 788.684 442.616 815.12 394.156C828.392 369.824 841.316 353.8599999999999 850.292 344.384C854.792 339.636 858.3240000000001 336.488 860.4559999999999 334.712C861.52 333.8240000000001 862.2320000000001 333.28 862.5400000000001 333.052C862.588 333.016 862.6279999999999 332.9880000000001 862.6560000000001 332.9680000000001C876.9960000000001 323.116 883.34 305.1 878.288 288.408C873.18 271.54 857.6279999999999 260 840.004 260H120.0032C102.3764 260 86.8272 271.54 81.7196 288.408C76.6656 305.1 83.0112 323.116 97.3508 332.9680000000001C97.3788 332.9880000000001 97.4168 333.016 97.4652 333.052C97.7728 333.28 98.4872 333.8240000000001 99.552 334.712C101.6808 336.488 105.216 339.636 109.7152 344.384C118.692 353.8599999999999 131.6156 369.824 144.8872 394.156C171.3204 442.616 200.0032 525.892 200.0032 660C200.0032 734.2608 229.5032 805.4796 282.0132 857.99zM97.7552 333.24C97.758 333.2439999999999 97.7612 333.248 97.7644 333.248C97.7644 333.248 97.764 333.248 97.764 333.248L97.7552 333.24zM205.976 340H754.0319999999999C750.9879999999999 344.9880000000001 747.932 350.2639999999999 744.8879999999999 355.8440000000001C711.32 417.384 680.004 514.108 680.004 660C680.004 713.0432000000001 658.9319999999999 763.914 621.424 801.4212C583.9159999999999 838.9288 533.048 860 480.004 860C426.96 860 376.0892 838.9288 338.5816 801.4212C301.0744000000001 763.914 280.0032 713.0432000000001 280.0032 660C280.0032 514.108 248.686 417.384 215.1188 355.8440000000001C212.0752 350.2639999999999 209.0196 344.9880000000001 205.976 340zM390.7324 174.5999999999999C409.8400000000001 185.684 434.3200000000001 179.1800000000001 445.404 160.072C448.92 154.0080000000001 453.968 148.976 460.04 145.48C466.112 141.984 472.996 140.14 480.004 140.14C487.012 140.14 493.896 141.984 499.968 145.48C506.04 148.976 511.088 154.0080000000001 514.604 160.072C525.688 179.1800000000001 550.164 185.684 569.2719999999999 174.5999999999999C588.384 163.5160000000001 594.8879999999999 139.04 583.804 119.928C573.256 101.744 558.112 86.652 539.8960000000001 76.156C521.68 65.664 501.024 60.14 480.004 60.14C458.98 60.14 438.328 65.664 420.1080000000001 76.156C401.892 86.652 386.7516 101.744 376.2032 119.928C365.1184 139.04 371.6232 163.5160000000001 390.7324 174.5999999999999z" />
    <glyph glyph-name="bm"
      unicode="&#xF10C;"
      horiz-adv-x="960" d=" M480 818.24L458.6079999999999 821.12L188.2872 360.8C199.956 350.7200000000001 207.7348 337.76 211.138 323.36H748.8599999999999C752.264 337.76 760.0440000000001 350.7200000000001 771.712 360.8L501.3920000000001 821.12L480 818.24zM217.4584 282.56L425.548 161.1199999999999C439.648 174.0800000000001 459.092 181.76 480 181.76C500.908 181.76 520.3520000000001 174.0800000000001 534.452 161.1199999999999L742.5400000000001 282.56H217.4584zM480 20C458.336 20 437.56 28.496 422.2440000000001 43.6199999999999C406.924 58.74 398.3204 79.2520000000001 398.3204 100.6399999999999L402.696 127.52L193.6352 249.9200000000001C178.5636 232.64 156.6852 222.0799999999999 131.8896 222.0799999999999C110.2268 222.0799999999999 89.4512 230.5759999999999 74.1332 245.7C58.8156 260.82 50.21 281.332 50.21 302.7200000000001C50.21 340.6399999999999 75.978 372.32 111.4696 381.44V626.72C71.116 632 40 666.0799999999999 40 707.36C40 728.7472 48.6056 749.258 63.9232 764.3812C79.2412 779.504 100.0168 788 121.6796 788C148.42 788 171.7568 775.52 186.8288 756.32L401.2360000000001 877.76L398.3204 899.36C398.3204 944 434.784 980 480 980C525.216 980 561.68 944 561.68 899.36L558.764 877.76L773.172 756.32C788.2439999999999 775.52 811.58 788 838.3199999999999 788C859.984 788 880.76 779.504 896.076 764.3812C911.396 749.258 920 728.7472 920 707.36C920 666.0799999999999 888.884 632 848.532 626.72V381.44C884.024 372.32 909.792 340.6399999999999 909.792 302.7200000000001C909.792 281.332 901.184 260.82 885.8679999999999 245.7C870.548 230.5759999999999 849.7719999999999 222.0799999999999 828.112 222.0799999999999C803.3159999999999 222.0799999999999 781.436 232.64 766.3639999999999 249.9200000000001L557.3040000000001 127.52L561.68 100.6399999999999C561.68 79.2520000000001 553.076 58.74 537.756 43.6199999999999C522.44 28.496 501.664 20 480 20zM421.656 842.72L202.8728 718.88L203.8452 707.36C203.8452 673.28 182.4532 644 152.3096 632L153.768 380L421.656 842.72zM538.344 842.72L806.232 380L807.692 632C777.548 644 756.156 673.28 756.156 707.36L757.128 718.88L538.344 842.72z M0 980H960V20H0V980z" />
    <glyph glyph-name="bm-1"
      unicode="&#x62;&#x6D;"
      horiz-adv-x="960" d=" M480 818.24L458.6079999999999 821.12L188.2872 360.8C199.956 350.7200000000001 207.7348 337.76 211.138 323.36H748.8599999999999C752.264 337.76 760.0440000000001 350.7200000000001 771.712 360.8L501.3920000000001 821.12L480 818.24zM217.4584 282.56L425.548 161.1199999999999C439.648 174.0800000000001 459.092 181.76 480 181.76C500.908 181.76 520.3520000000001 174.0800000000001 534.452 161.1199999999999L742.5400000000001 282.56H217.4584zM480 20C458.336 20 437.56 28.496 422.2440000000001 43.6199999999999C406.924 58.74 398.3204 79.2520000000001 398.3204 100.6399999999999L402.696 127.52L193.6352 249.9200000000001C178.5636 232.64 156.6852 222.0799999999999 131.8896 222.0799999999999C110.2268 222.0799999999999 89.4512 230.5759999999999 74.1332 245.7C58.8156 260.82 50.21 281.332 50.21 302.7200000000001C50.21 340.6399999999999 75.978 372.32 111.4696 381.44V626.72C71.116 632 40 666.0799999999999 40 707.36C40 728.7472 48.6056 749.258 63.9232 764.3812C79.2412 779.504 100.0168 788 121.6796 788C148.42 788 171.7568 775.52 186.8288 756.32L401.2360000000001 877.76L398.3204 899.36C398.3204 944 434.784 980 480 980C525.216 980 561.68 944 561.68 899.36L558.764 877.76L773.172 756.32C788.2439999999999 775.52 811.58 788 838.3199999999999 788C859.984 788 880.76 779.504 896.076 764.3812C911.396 749.258 920 728.7472 920 707.36C920 666.0799999999999 888.884 632 848.532 626.72V381.44C884.024 372.32 909.792 340.6399999999999 909.792 302.7200000000001C909.792 281.332 901.184 260.82 885.8679999999999 245.7C870.548 230.5759999999999 849.7719999999999 222.0799999999999 828.112 222.0799999999999C803.3159999999999 222.0799999999999 781.436 232.64 766.3639999999999 249.9200000000001L557.3040000000001 127.52L561.68 100.6399999999999C561.68 79.2520000000001 553.076 58.74 537.756 43.6199999999999C522.44 28.496 501.664 20 480 20zM421.656 842.72L202.8728 718.88L203.8452 707.36C203.8452 673.28 182.4532 644 152.3096 632L153.768 380L421.656 842.72zM538.344 842.72L806.232 380L807.692 632C777.548 644 756.156 673.28 756.156 707.36L757.128 718.88L538.344 842.72z M0 980H960V20H0V980z" />
    <glyph glyph-name="builds"
      unicode="&#xF10D;"
      horiz-adv-x="960" d=" M320 780C320 846.274 373.8956000000001 900 439.876 900H560.124C612.3 900 656.6880000000001 866.5492 673.1600000000001 820H739.076C815.7479999999999 820 877.96 757.8232 877.96 681.232V603.0324C877.96 526.2639999999999 815.992 464.264 738.98 464.264H674.576C659.332 415.4440000000001 613.716 380 560.124 380H439.876C387.7004 380 343.3112 413.452 326.84 460H258.882C226.3852 460 200 433.6280000000001 200 401.232V323.0320000000001C200 290.44 226.1612 264.264 258.98 264.264H328.4476C346.0988 308.6320000000001 389.4592 340 439.876 340H560.124C626.332 340 680 286.1400000000001 680 220C680 153.7239999999999 626.104 100 560.124 100H439.876C386.1204 100 340.63 135.5079999999999 325.4208 184.264H258.98C181.9692 184.264 120 246.264 120 323.0320000000001V401.232C120 477.8240000000001 182.2128 540 258.882 540H326.8452C343.3528 586.608 387.8588 620 439.876 620H560.124C610.692 620 653.9480000000001 588.5799999999999 671.5600000000001 544.264H738.98C771.8000000000001 544.264 797.96 570.4399999999999 797.96 603.0324V681.232C797.96 713.63 771.576 740 739.076 740H673.1560000000001C656.648 693.3924 612.14 660 560.124 660H439.876C373.6696 660 320 713.8607999999999 320 780zM400 780C400 757.9644000000001 417.932 740 439.876 740H560.124C582.004 740 600 757.9911999999999 600 780C600 802.0355999999999 582.068 820 560.124 820H439.876C417.996 820 400 802.0088000000001 400 780zM439.876 460C417.932 460 400 477.9639999999999 400 500C400 522.008 417.996 540 439.876 540H560.124C582.068 540 600 522.0360000000001 600 500C600 477.992 582.004 460 560.124 460H439.876zM439.876 180C417.932 180 400 197.9640000000001 400 220C400 242.0080000000001 417.996 260 439.876 260H560.124C582.068 260 600 242.036 600 220C600 197.992 582.004 180 560.124 180H439.876z" />
    <glyph glyph-name="builds-1"
      unicode="&#x62;&#x75;&#x69;&#x6C;&#x64;&#x73;"
      horiz-adv-x="960" d=" M320 780C320 846.274 373.8956000000001 900 439.876 900H560.124C612.3 900 656.6880000000001 866.5492 673.1600000000001 820H739.076C815.7479999999999 820 877.96 757.8232 877.96 681.232V603.0324C877.96 526.2639999999999 815.992 464.264 738.98 464.264H674.576C659.332 415.4440000000001 613.716 380 560.124 380H439.876C387.7004 380 343.3112 413.452 326.84 460H258.882C226.3852 460 200 433.6280000000001 200 401.232V323.0320000000001C200 290.44 226.1612 264.264 258.98 264.264H328.4476C346.0988 308.6320000000001 389.4592 340 439.876 340H560.124C626.332 340 680 286.1400000000001 680 220C680 153.7239999999999 626.104 100 560.124 100H439.876C386.1204 100 340.63 135.5079999999999 325.4208 184.264H258.98C181.9692 184.264 120 246.264 120 323.0320000000001V401.232C120 477.8240000000001 182.2128 540 258.882 540H326.8452C343.3528 586.608 387.8588 620 439.876 620H560.124C610.692 620 653.9480000000001 588.5799999999999 671.5600000000001 544.264H738.98C771.8000000000001 544.264 797.96 570.4399999999999 797.96 603.0324V681.232C797.96 713.63 771.576 740 739.076 740H673.1560000000001C656.648 693.3924 612.14 660 560.124 660H439.876C373.6696 660 320 713.8607999999999 320 780zM400 780C400 757.9644000000001 417.932 740 439.876 740H560.124C582.004 740 600 757.9911999999999 600 780C600 802.0355999999999 582.068 820 560.124 820H439.876C417.996 820 400 802.0088000000001 400 780zM439.876 460C417.932 460 400 477.9639999999999 400 500C400 522.008 417.996 540 439.876 540H560.124C582.068 540 600 522.0360000000001 600 500C600 477.992 582.004 460 560.124 460H439.876zM439.876 180C417.932 180 400 197.9640000000001 400 220C400 242.0080000000001 417.996 260 439.876 260H560.124C582.068 260 600 242.036 600 220C600 197.992 582.004 180 560.124 180H439.876z" />
    <glyph glyph-name="calendar"
      unicode="&#xF10E;"
      horiz-adv-x="960" d=" M320 940C342.0912 940 360 922.0912 360 900V860H600V900C600 922.0912 617.908 940 640 940C662.092 940 680 922.0912 680 900V860H760C826.2760000000001 860 880 806.274 880 740V180C880 113.7239999999999 826.2760000000001 60 760 60H200C133.726 60 80 113.7239999999999 80 180V740C80 806.274 133.726 860 200 860H280V900C280 922.0912 297.9088000000001 940 320 940zM280 780H200C177.9088 780 160 762.0912 160 740V620H800V740C800 762.0916 782.092 780 760 780H680V740C680 717.9088 662.092 700 640 700C617.908 700 600 717.9088 600 740V780H360V740C360 717.9088 342.0912 700 320 700C297.9088000000001 700 280 717.9088 280 740V780zM800 540H160V180C160 157.908 177.9084 140 200 140H760C782.092 140 800 157.908 800 180V540z" />
    <glyph glyph-name="calendar-1"
      unicode="&#x63;&#x61;&#x6C;&#x65;&#x6E;&#x64;&#x61;&#x72;"
      horiz-adv-x="960" d=" M320 940C342.0912 940 360 922.0912 360 900V860H600V900C600 922.0912 617.908 940 640 940C662.092 940 680 922.0912 680 900V860H760C826.2760000000001 860 880 806.274 880 740V180C880 113.7239999999999 826.2760000000001 60 760 60H200C133.726 60 80 113.7239999999999 80 180V740C80 806.274 133.726 860 200 860H280V900C280 922.0912 297.9088000000001 940 320 940zM280 780H200C177.9088 780 160 762.0912 160 740V620H800V740C800 762.0916 782.092 780 760 780H680V740C680 717.9088 662.092 700 640 700C617.908 700 600 717.9088 600 740V780H360V740C360 717.9088 342.0912 700 320 700C297.9088000000001 700 280 717.9088 280 740V780zM800 540H160V180C160 157.908 177.9084 140 200 140H760C782.092 140 800 157.908 800 180V540z" />
    <glyph glyph-name="camera"
      unicode="&#xF10F;"
      horiz-adv-x="960" d=" M326.718 882.188C334.1368 893.316 346.626 900 360 900H600C613.376 900 625.864 893.316 633.284 882.188L701.408 780H840C871.828 780 902.348 767.3572 924.852 744.8528C947.356 722.3484 960 691.826 960 660V220C960 188.172 947.356 157.6519999999999 924.852 135.1479999999999C902.348 112.644 871.828 100 840 100H120C88.174 100 57.6516 112.644 35.1472 135.1479999999999C12.64284 157.6519999999999 0 188.172 0 220V660C0 691.826 12.64284 722.3484 35.1472 744.8528C57.6516 767.3572 88.174 780 120 780H258.5928L326.718 882.188zM381.4072 820L313.282 717.812C305.8632 706.684 293.374 700 280 700H120C109.3912 700 99.2172 695.7855999999999 91.7156 688.2844C84.2144 680.7828 80 670.6088 80 660V220C80 209.3920000000001 84.2144 199.216 91.7156 191.716C99.2172 184.216 109.3912 180 120 180H840C850.608 180 860.784 184.216 868.284 191.716C875.784 199.216 880 209.3920000000001 880 220V660C880 670.6088 875.784 680.7828 868.284 688.2844C860.784 695.7855999999999 850.608 700 840 700H680C666.624 700 654.136 706.684 646.716 717.812L578.592 820H381.4072zM480 580C413.724 580 360 526.2760000000001 360 460C360 393.724 413.724 340 480 340C546.2760000000001 340 600 393.724 600 460C600 526.2760000000001 546.2760000000001 580 480 580zM280 460C280 570.456 369.5432 660 480 660C590.456 660 680 570.456 680 460C680 349.5440000000001 590.456 260 480 260C369.5432 260 280 349.5440000000001 280 460z" />
    <glyph glyph-name="camera-1"
      unicode="&#x63;&#x61;&#x6D;&#x65;&#x72;&#x61;"
      horiz-adv-x="960" d=" M326.718 882.188C334.1368 893.316 346.626 900 360 900H600C613.376 900 625.864 893.316 633.284 882.188L701.408 780H840C871.828 780 902.348 767.3572 924.852 744.8528C947.356 722.3484 960 691.826 960 660V220C960 188.172 947.356 157.6519999999999 924.852 135.1479999999999C902.348 112.644 871.828 100 840 100H120C88.174 100 57.6516 112.644 35.1472 135.1479999999999C12.64284 157.6519999999999 0 188.172 0 220V660C0 691.826 12.64284 722.3484 35.1472 744.8528C57.6516 767.3572 88.174 780 120 780H258.5928L326.718 882.188zM381.4072 820L313.282 717.812C305.8632 706.684 293.374 700 280 700H120C109.3912 700 99.2172 695.7855999999999 91.7156 688.2844C84.2144 680.7828 80 670.6088 80 660V220C80 209.3920000000001 84.2144 199.216 91.7156 191.716C99.2172 184.216 109.3912 180 120 180H840C850.608 180 860.784 184.216 868.284 191.716C875.784 199.216 880 209.3920000000001 880 220V660C880 670.6088 875.784 680.7828 868.284 688.2844C860.784 695.7855999999999 850.608 700 840 700H680C666.624 700 654.136 706.684 646.716 717.812L578.592 820H381.4072zM480 580C413.724 580 360 526.2760000000001 360 460C360 393.724 413.724 340 480 340C546.2760000000001 340 600 393.724 600 460C600 526.2760000000001 546.2760000000001 580 480 580zM280 460C280 570.456 369.5432 660 480 660C590.456 660 680 570.456 680 460C680 349.5440000000001 590.456 260 480 260C369.5432 260 280 349.5440000000001 280 460z" />
    <glyph glyph-name="chart"
      unicode="&#xF110;"
      horiz-adv-x="941.1764705882352" d=" M470.5882352941176 872.5476470588235C503.075294117647 872.5476470588235 529.4117647058823 846.2117647058824 529.4117647058823 813.7241176470588V186.2705882352942C529.4117647058823 153.7882352941177 503.075294117647 127.4470588235295 470.5882352941176 127.4470588235295C438.1011764705883 127.4470588235295 411.764705882353 153.7882352941177 411.764705882353 186.2705882352942V813.7241176470588C411.764705882353 846.2117647058824 438.1011764705883 872.5476470588235 470.5882352941176 872.5476470588235zM705.8823529411765 637.2535294117647C738.3705882352941 637.2535294117647 764.7058823529411 610.9176470588236 764.7058823529411 578.4300000000001V186.2705882352942C764.7058823529411 153.7882352941177 738.3705882352941 127.4470588235295 705.8823529411765 127.4470588235295C673.3941176470588 127.4470588235295 647.0588235294117 153.7882352941177 647.0588235294117 186.2705882352942V578.4300000000001C647.0588235294117 610.9176470588236 673.3941176470588 637.2535294117647 705.8823529411765 637.2535294117647zM235.2941176470588 480.3911764705883C267.7811764705882 480.3911764705883 294.1176470588236 454.054705882353 294.1176470588236 421.5676470588236V186.2705882352942C294.1176470588236 153.7882352941177 267.7811764705882 127.4470588235295 235.2941176470588 127.4470588235295C202.8070588235294 127.4470588235295 176.4705882352941 153.7882352941177 176.4705882352941 186.2705882352942V421.5676470588236C176.4705882352941 454.054705882353 202.8070588235294 480.3911764705883 235.2941176470588 480.3911764705883z" />
    <glyph glyph-name="chart-1"
      unicode="&#x63;&#x68;&#x61;&#x72;&#x74;"
      horiz-adv-x="941.1764705882352" d=" M470.5882352941176 872.5476470588235C503.075294117647 872.5476470588235 529.4117647058823 846.2117647058824 529.4117647058823 813.7241176470588V186.2705882352942C529.4117647058823 153.7882352941177 503.075294117647 127.4470588235295 470.5882352941176 127.4470588235295C438.1011764705883 127.4470588235295 411.764705882353 153.7882352941177 411.764705882353 186.2705882352942V813.7241176470588C411.764705882353 846.2117647058824 438.1011764705883 872.5476470588235 470.5882352941176 872.5476470588235zM705.8823529411765 637.2535294117647C738.3705882352941 637.2535294117647 764.7058823529411 610.9176470588236 764.7058823529411 578.4300000000001V186.2705882352942C764.7058823529411 153.7882352941177 738.3705882352941 127.4470588235295 705.8823529411765 127.4470588235295C673.3941176470588 127.4470588235295 647.0588235294117 153.7882352941177 647.0588235294117 186.2705882352942V578.4300000000001C647.0588235294117 610.9176470588236 673.3941176470588 637.2535294117647 705.8823529411765 637.2535294117647zM235.2941176470588 480.3911764705883C267.7811764705882 480.3911764705883 294.1176470588236 454.054705882353 294.1176470588236 421.5676470588236V186.2705882352942C294.1176470588236 153.7882352941177 267.7811764705882 127.4470588235295 235.2941176470588 127.4470588235295C202.8070588235294 127.4470588235295 176.4705882352941 153.7882352941177 176.4705882352941 186.2705882352942V421.5676470588236C176.4705882352941 454.054705882353 202.8070588235294 480.3911764705883 235.2941176470588 480.3911764705883z" />
    <glyph glyph-name="check-square"
      unicode="&#xF111;"
      horiz-adv-x="960" d=" M200 820C189.3912 820 179.2172 815.7855999999999 171.7156 808.2844C164.2144 800.7828 160 790.6088 160 780V220C160 209.3920000000001 164.2144 199.216 171.7156 191.716C179.2172 184.216 189.3912 180 200 180H760C770.608 180 780.784 184.216 788.284 191.716C795.784 199.216 800 209.3920000000001 800 220V500C800 522.0920000000001 817.908 540 840 540C862.092 540 880 522.0920000000001 880 500V220C880 188.172 867.356 157.6519999999999 844.8520000000001 135.1479999999999C822.3480000000001 112.644 791.828 100 760 100H200C168.174 100 137.6516 112.644 115.1472 135.1479999999999C92.6428 157.6519999999999 80 188.172 80 220V780C80 811.826 92.6428 842.3484 115.1472 864.8528C137.6516 887.3572 168.174 900 200 900H640C662.092 900 680 882.0912 680 860C680 837.9088 662.092 820 640 820H200zM851.716 848.2844C867.336 863.9052 892.664 863.9052 908.284 848.2844C923.904 832.6632 923.904 807.3368 908.284 791.7156L508.284 391.716C492.664 376.096 467.336 376.096 451.716 391.716L331.7156 511.716C316.0948 527.336 316.0948 552.664 331.7156 568.284C347.3368 583.904 372.6632 583.904 388.2844 568.284L480 476.568L851.716 848.2844z" />
    <glyph glyph-name="check-square-1"
      unicode="&#x63;&#x68;&#x65;&#x63;&#x6B;&#x2D;&#x73;&#x71;&#x75;&#x61;&#x72;&#x65;"
      horiz-adv-x="960" d=" M200 820C189.3912 820 179.2172 815.7855999999999 171.7156 808.2844C164.2144 800.7828 160 790.6088 160 780V220C160 209.3920000000001 164.2144 199.216 171.7156 191.716C179.2172 184.216 189.3912 180 200 180H760C770.608 180 780.784 184.216 788.284 191.716C795.784 199.216 800 209.3920000000001 800 220V500C800 522.0920000000001 817.908 540 840 540C862.092 540 880 522.0920000000001 880 500V220C880 188.172 867.356 157.6519999999999 844.8520000000001 135.1479999999999C822.3480000000001 112.644 791.828 100 760 100H200C168.174 100 137.6516 112.644 115.1472 135.1479999999999C92.6428 157.6519999999999 80 188.172 80 220V780C80 811.826 92.6428 842.3484 115.1472 864.8528C137.6516 887.3572 168.174 900 200 900H640C662.092 900 680 882.0912 680 860C680 837.9088 662.092 820 640 820H200zM851.716 848.2844C867.336 863.9052 892.664 863.9052 908.284 848.2844C923.904 832.6632 923.904 807.3368 908.284 791.7156L508.284 391.716C492.664 376.096 467.336 376.096 451.716 391.716L331.7156 511.716C316.0948 527.336 316.0948 552.664 331.7156 568.284C347.3368 583.904 372.6632 583.904 388.2844 568.284L480 476.568L851.716 848.2844z" />
    <glyph glyph-name="check"
      unicode="&#xF112;"
      horiz-adv-x="960" d=" M828.284 768.2844C843.904 752.6632 843.904 727.3368 828.284 711.7156L388.2844 271.716C372.6632 256.096 347.3368 256.096 331.7156 271.716L131.7156 471.716C116.0948 487.336 116.0948 512.664 131.7156 528.284C147.3368 543.904 172.6632 543.904 188.2844 528.284L360 356.568L771.716 768.2844C787.336 783.9051999999999 812.664 783.9051999999999 828.284 768.2844z" />
    <glyph glyph-name="check-1"
      unicode="&#x63;&#x68;&#x65;&#x63;&#x6B;"
      horiz-adv-x="960" d=" M828.284 768.2844C843.904 752.6632 843.904 727.3368 828.284 711.7156L388.2844 271.716C372.6632 256.096 347.3368 256.096 331.7156 271.716L131.7156 471.716C116.0948 487.336 116.0948 512.664 131.7156 528.284C147.3368 543.904 172.6632 543.904 188.2844 528.284L360 356.568L771.716 768.2844C787.336 783.9051999999999 812.664 783.9051999999999 828.284 768.2844z" />
    <glyph glyph-name="checkbox"
      unicode="&#xF113;"
      horiz-adv-x="960" d=" M759.86 744.8444C784.628 722.8296 786.8600000000001 684.9051999999999 764.8439999999999 660.138L444.844 300.14C433.868 287.788 418.2800000000001 280.512 401.764 280.0239999999999C385.2448 279.54 369.2584 285.8880000000001 357.5736 297.572L217.5736 437.572C194.142 461.004 194.142 498.996 217.5736 522.428C241.0052 545.856 278.9948 545.856 302.4264 522.428L397.4308 427.42L675.1560000000001 739.8616C697.172 764.6288 735.096 766.8596 759.86 744.8444z" />
    <glyph glyph-name="checkbox-1"
      unicode="&#x63;&#x68;&#x65;&#x63;&#x6B;&#x62;&#x6F;&#x78;"
      horiz-adv-x="960" d=" M759.86 744.8444C784.628 722.8296 786.8600000000001 684.9051999999999 764.8439999999999 660.138L444.844 300.14C433.868 287.788 418.2800000000001 280.512 401.764 280.0239999999999C385.2448 279.54 369.2584 285.8880000000001 357.5736 297.572L217.5736 437.572C194.142 461.004 194.142 498.996 217.5736 522.428C241.0052 545.856 278.9948 545.856 302.4264 522.428L397.4308 427.42L675.1560000000001 739.8616C697.172 764.6288 735.096 766.8596 759.86 744.8444z" />
    <glyph glyph-name="close"
      unicode="&#xF114;"
      horiz-adv-x="960" d=" M211.7156 768.2844C227.3368 783.9051999999999 252.6632 783.9051999999999 268.2844 768.2844L480 556.568L691.716 768.2844C707.336 783.9051999999999 732.664 783.9051999999999 748.284 768.2844C763.904 752.6632 763.904 727.3368 748.284 711.7156L536.568 500L748.284 288.284C763.904 272.664 763.904 247.336 748.284 231.716C732.664 216.096 707.336 216.096 691.716 231.716L480 443.432L268.2844 231.716C252.6632 216.096 227.3368 216.096 211.7156 231.716C196.0948 247.336 196.0948 272.664 211.7156 288.284L423.432 500L211.7156 711.7156C196.0948 727.3368 196.0948 752.6632 211.7156 768.2844z" />
    <glyph glyph-name="close-1"
      unicode="&#x63;&#x6C;&#x6F;&#x73;&#x65;"
      horiz-adv-x="960" d=" M211.7156 768.2844C227.3368 783.9051999999999 252.6632 783.9051999999999 268.2844 768.2844L480 556.568L691.716 768.2844C707.336 783.9051999999999 732.664 783.9051999999999 748.284 768.2844C763.904 752.6632 763.904 727.3368 748.284 711.7156L536.568 500L748.284 288.284C763.904 272.664 763.904 247.336 748.284 231.716C732.664 216.096 707.336 216.096 691.716 231.716L480 443.432L268.2844 231.716C252.6632 216.096 227.3368 216.096 211.7156 231.716C196.0948 247.336 196.0948 272.664 211.7156 288.284L423.432 500L211.7156 711.7156C196.0948 727.3368 196.0948 752.6632 211.7156 768.2844z" />
    <glyph glyph-name="columns"
      unicode="&#xF115;"
      horiz-adv-x="960" d=" M200 900C168.174 900 137.6516 887.3572 115.1472 864.8528C92.6428 842.3484 80 811.826 80 780V220C80 188.172 92.6428 157.6519999999999 115.1472 135.1479999999999C137.6516 112.644 168.174 100 200 100H760C791.828 100 822.3480000000001 112.644 844.8520000000001 135.1479999999999C867.356 157.6519999999999 880 188.172 880 220V780C880 811.826 867.356 842.3484 844.8520000000001 864.8528C822.3480000000001 887.3572 791.828 900 760 900H200zM171.7156 808.2844C179.2172 815.7855999999999 189.3912 820 200 820H320L320 180H200C189.3912 180 179.2172 184.216 171.7156 191.716C164.2144 199.216 160 209.3920000000001 160 220V780C160 790.6088 164.2144 800.7828 171.7156 808.2844zM400 180H560V820H400L400 180zM640 820V180H760C770.608 180 780.784 184.216 788.284 191.716C795.784 199.216 800 209.3920000000001 800 220V780C800 790.6088 795.784 800.7828 788.284 808.2844C780.784 815.7855999999999 770.608 820 760 820H640z" />
    <glyph glyph-name="columns-1"
      unicode="&#x63;&#x6F;&#x6C;&#x75;&#x6D;&#x6E;&#x73;"
      horiz-adv-x="960" d=" M200 900C168.174 900 137.6516 887.3572 115.1472 864.8528C92.6428 842.3484 80 811.826 80 780V220C80 188.172 92.6428 157.6519999999999 115.1472 135.1479999999999C137.6516 112.644 168.174 100 200 100H760C791.828 100 822.3480000000001 112.644 844.8520000000001 135.1479999999999C867.356 157.6519999999999 880 188.172 880 220V780C880 811.826 867.356 842.3484 844.8520000000001 864.8528C822.3480000000001 887.3572 791.828 900 760 900H200zM171.7156 808.2844C179.2172 815.7855999999999 189.3912 820 200 820H320L320 180H200C189.3912 180 179.2172 184.216 171.7156 191.716C164.2144 199.216 160 209.3920000000001 160 220V780C160 790.6088 164.2144 800.7828 171.7156 808.2844zM400 180H560V820H400L400 180zM640 820V180H760C770.608 180 780.784 184.216 788.284 191.716C795.784 199.216 800 209.3920000000001 800 220V780C800 790.6088 795.784 800.7828 788.284 808.2844C780.784 815.7855999999999 770.608 820 760 820H640z" />
    <glyph glyph-name="compare"
      unicode="&#xF116;"
      horiz-adv-x="960" d=" M240.4004 900C163.2004 900 100.4004 837.2 100.4004 760C100.4004 696.8 142.8004 643.88 200.4004 626.52V340.12C200.3604 332.9600000000001 201.4804 268.8800000000001 247.3604 222.88C275.6804 194.4 313.6004000000001 180 360.0004 180V100L520 220L360.0004 340V260C287.0804 260 280.6404 321.3599999999999 280.4004 340V626.52C338.0004 643.88 380.4004 696.8 380.4004 760C380.4004 837.2 317.5604 900 240.4004 900zM240.4004 700C207.3204 700 180.4004 726.9200000000001 180.4004 760C180.4004 793.0799999999999 207.3204 820 240.4004 820C273.4804000000001 820 300.4004 793.0799999999999 300.4004 760C300.4004 726.9200000000001 273.4804000000001 700 240.4004 700zM760.4000000000001 373.48V660.12C760.1999999999999 724.36 717.3199999999999 820 600 820V900L440 780L600 660V740C673.1600000000001 740 680.0400000000001 678.44 680.4000000000001 660V373.48C622.8 356.1199999999999 580.4 303.2 580.4 240C580.4 162.8 643.1999999999999 100 720.4000000000001 100C797.6 100 860.4000000000001 162.8 860.4000000000001 240C860.4000000000001 303.2 818 356.1199999999999 760.4000000000001 373.48zM720.4000000000001 180C687.3199999999999 180 660.4000000000001 206.92 660.4000000000001 240C660.4000000000001 273.0800000000001 687.3199999999999 300 720.4000000000001 300C753.48 300 780.4000000000001 273.0800000000001 780.4000000000001 240C780.4000000000001 206.92 753.48 180 720.4000000000001 180z" />
    <glyph glyph-name="compare-1"
      unicode="&#x63;&#x6F;&#x6D;&#x70;&#x61;&#x72;&#x65;"
      horiz-adv-x="960" d=" M240.4004 900C163.2004 900 100.4004 837.2 100.4004 760C100.4004 696.8 142.8004 643.88 200.4004 626.52V340.12C200.3604 332.9600000000001 201.4804 268.8800000000001 247.3604 222.88C275.6804 194.4 313.6004000000001 180 360.0004 180V100L520 220L360.0004 340V260C287.0804 260 280.6404 321.3599999999999 280.4004 340V626.52C338.0004 643.88 380.4004 696.8 380.4004 760C380.4004 837.2 317.5604 900 240.4004 900zM240.4004 700C207.3204 700 180.4004 726.9200000000001 180.4004 760C180.4004 793.0799999999999 207.3204 820 240.4004 820C273.4804000000001 820 300.4004 793.0799999999999 300.4004 760C300.4004 726.9200000000001 273.4804000000001 700 240.4004 700zM760.4000000000001 373.48V660.12C760.1999999999999 724.36 717.3199999999999 820 600 820V900L440 780L600 660V740C673.1600000000001 740 680.0400000000001 678.44 680.4000000000001 660V373.48C622.8 356.1199999999999 580.4 303.2 580.4 240C580.4 162.8 643.1999999999999 100 720.4000000000001 100C797.6 100 860.4000000000001 162.8 860.4000000000001 240C860.4000000000001 303.2 818 356.1199999999999 760.4000000000001 373.48zM720.4000000000001 180C687.3199999999999 180 660.4000000000001 206.92 660.4000000000001 240C660.4000000000001 273.0800000000001 687.3199999999999 300 720.4000000000001 300C753.48 300 780.4000000000001 273.0800000000001 780.4000000000001 240C780.4000000000001 206.92 753.48 180 720.4000000000001 180z" />
    <glyph glyph-name="crosshair"
      unicode="&#xF117;"
      horiz-adv-x="960" d=" M920 500C920 256.9960000000001 723.0039999999999 60 480 60C236.9948 60 40 256.9960000000001 40 500C40 743.0052000000001 236.9948 940 480 940C723.0039999999999 940 920 743.0052000000001 920 500zM520 857.8027999999999V740C520 717.9088 502.092 700 480 700C457.908 700 440 717.9088 440 740V857.8027999999999C273.1352 839.3568 140.6432 706.8648000000001 122.1972 540H240C262.0912 540 280 522.0920000000001 280 500C280 477.908 262.0912 460 240 460H122.1972C140.6432 293.136 273.1352 160.644 440 142.196V260C440 282.092 457.908 300 480 300C502.092 300 520 282.092 520 260V142.196C686.864 160.644 819.356 293.136 837.804 460H720C697.908 460 680 477.908 680 500C680 522.0920000000001 697.908 540 720 540H837.804C819.356 706.8648000000001 686.864 839.3568 520 857.8027999999999z" />
    <glyph glyph-name="crosshair-1"
      unicode="&#x63;&#x72;&#x6F;&#x73;&#x73;&#x68;&#x61;&#x69;&#x72;"
      horiz-adv-x="960" d=" M920 500C920 256.9960000000001 723.0039999999999 60 480 60C236.9948 60 40 256.9960000000001 40 500C40 743.0052000000001 236.9948 940 480 940C723.0039999999999 940 920 743.0052000000001 920 500zM520 857.8027999999999V740C520 717.9088 502.092 700 480 700C457.908 700 440 717.9088 440 740V857.8027999999999C273.1352 839.3568 140.6432 706.8648000000001 122.1972 540H240C262.0912 540 280 522.0920000000001 280 500C280 477.908 262.0912 460 240 460H122.1972C140.6432 293.136 273.1352 160.644 440 142.196V260C440 282.092 457.908 300 480 300C502.092 300 520 282.092 520 260V142.196C686.864 160.644 819.356 293.136 837.804 460H720C697.908 460 680 477.908 680 500C680 522.0920000000001 697.908 540 720 540H837.804C819.356 706.8648000000001 686.864 839.3568 520 857.8027999999999z" />
    <glyph glyph-name="diamond"
      unicode="&#xF118;"
      horiz-adv-x="960" d=" M252.2168 580L347.8416 760H225.0292L90.0292 580H252.2168z M99.4044 520L391.4356 208.28L250.8104 520H99.4044z M480.028 158.124L643.6239999999999 520H316.4356L480.028 158.124z M320.1856 580H639.8720000000001L544.2479999999999 760H415.812L320.1856 580z M707.84 580H870.0279999999999L735.0279999999999 760H612.216L707.84 580z M568.624 208.28L860.6560000000001 520H709.248L568.624 208.28z" />
    <glyph glyph-name="diamond-1"
      unicode="&#x64;&#x69;&#x61;&#x6D;&#x6F;&#x6E;&#x64;"
      horiz-adv-x="960" d=" M252.2168 580L347.8416 760H225.0292L90.0292 580H252.2168z M99.4044 520L391.4356 208.28L250.8104 520H99.4044z M480.028 158.124L643.6239999999999 520H316.4356L480.028 158.124z M320.1856 580H639.8720000000001L544.2479999999999 760H415.812L320.1856 580z M707.84 580H870.0279999999999L735.0279999999999 760H612.216L707.84 580z M568.624 208.28L860.6560000000001 520H709.248L568.624 208.28z" />
    <glyph glyph-name="dollar"
      unicode="&#xF119;"
      horiz-adv-x="960" d=" M480 980C502.092 980 520 962.0914 520 940V820H680C702.092 820 720 802.0912 720 780C720 757.9088 702.092 740 680 740H520V540H580C627.74 540 673.524 521.0360000000001 707.28 487.28C741.0360000000001 453.524 760 407.74 760 360C760 312.26 741.0360000000001 266.476 707.28 232.7200000000001C673.524 198.964 627.74 180 580 180H520V60C520 37.908 502.092 20 480 20C457.908 20 440 37.908 440 60V180H240C217.9088 180 200 197.908 200 220C200 242.092 217.9088 260 240 260H440V460H380C332.2612000000001 460 286.4772 478.9639999999999 252.7208 512.72C218.9644 546.476 200 592.26 200 640C200 687.7388 218.9644 733.5228 252.7208 767.2792C286.4772 801.0356 332.2612000000001 820 380 820H440V940C440 962.0914 457.908 980 480 980zM440 740H380C353.4784 740 328.0428 729.4644000000001 309.2892 710.7108000000001C290.5356 691.9572000000001 280 666.5216 280 640C280 613.4784 290.5356 588.044 309.2892 569.288C328.0428 550.5360000000001 353.4784 540 380 540H440V740zM520 460V260H580C606.52 260 631.956 270.5360000000001 650.712 289.288C669.4639999999999 308.044 680 333.48 680 360C680 386.52 669.4639999999999 411.956 650.712 430.712C631.956 449.464 606.52 460 580 460H520z M0 980H960V20H0V980z" />
    <glyph glyph-name="dollar-1"
      unicode="&#x64;&#x6F;&#x6C;&#x6C;&#x61;&#x72;"
      horiz-adv-x="960" d=" M480 980C502.092 980 520 962.0914 520 940V820H680C702.092 820 720 802.0912 720 780C720 757.9088 702.092 740 680 740H520V540H580C627.74 540 673.524 521.0360000000001 707.28 487.28C741.0360000000001 453.524 760 407.74 760 360C760 312.26 741.0360000000001 266.476 707.28 232.7200000000001C673.524 198.964 627.74 180 580 180H520V60C520 37.908 502.092 20 480 20C457.908 20 440 37.908 440 60V180H240C217.9088 180 200 197.908 200 220C200 242.092 217.9088 260 240 260H440V460H380C332.2612000000001 460 286.4772 478.9639999999999 252.7208 512.72C218.9644 546.476 200 592.26 200 640C200 687.7388 218.9644 733.5228 252.7208 767.2792C286.4772 801.0356 332.2612000000001 820 380 820H440V940C440 962.0914 457.908 980 480 980zM440 740H380C353.4784 740 328.0428 729.4644000000001 309.2892 710.7108000000001C290.5356 691.9572000000001 280 666.5216 280 640C280 613.4784 290.5356 588.044 309.2892 569.288C328.0428 550.5360000000001 353.4784 540 380 540H440V740zM520 460V260H580C606.52 260 631.956 270.5360000000001 650.712 289.288C669.4639999999999 308.044 680 333.48 680 360C680 386.52 669.4639999999999 411.956 650.712 430.712C631.956 449.464 606.52 460 580 460H520z M0 980H960V20H0V980z" />
    <glyph glyph-name="dot"
      unicode="&#xF11A;"
      horiz-adv-x="960" d=" M560 480C560 446.8640000000001 533.136 420 500 420C466.864 420 440 446.8640000000001 440 480C440 513.136 466.864 540 500 540C533.136 540 560 513.136 560 480z" />
    <glyph glyph-name="dot-1"
      unicode="&#x64;&#x6F;&#x74;"
      horiz-adv-x="960" d=" M560 480C560 446.8640000000001 533.136 420 500 420C466.864 420 440 446.8640000000001 440 480C440 513.136 466.864 540 500 540C533.136 540 560 513.136 560 480z" />
    <glyph glyph-name="down-micro"
      unicode="&#xF11B;"
      horiz-adv-x="960" d=" M479.912 420C487.544 420 494.108 422.5800000000001 499.968 427.592L632.9 544.1759999999999C637.5160000000001 548.12 640 552.98 640 558.748C640 570.588 628.996 580 615.332 580C608.5840000000001 580 602.196 577.7239999999999 597.228 573.472L480.088 470.248L362.7732000000001 573.472C357.8036 577.572 351.5916 580 344.67 580C331.004 580 320 570.588 320 558.748C320 552.98 322.4848 548.12 327.0992 544.024L460.032 427.592C466.244 422.428 472.456 420 479.912 420z" />
    <glyph glyph-name="down-micro-1"
      unicode="&#x64;&#x6F;&#x77;&#x6E;&#x2D;&#x6D;&#x69;&#x63;&#x72;&#x6F;"
      horiz-adv-x="960" d=" M479.912 420C487.544 420 494.108 422.5800000000001 499.968 427.592L632.9 544.1759999999999C637.5160000000001 548.12 640 552.98 640 558.748C640 570.588 628.996 580 615.332 580C608.5840000000001 580 602.196 577.7239999999999 597.228 573.472L480.088 470.248L362.7732000000001 573.472C357.8036 577.572 351.5916 580 344.67 580C331.004 580 320 570.588 320 558.748C320 552.98 322.4848 548.12 327.0992 544.024L460.032 427.592C466.244 422.428 472.456 420 479.912 420z" />
    <glyph glyph-name="down"
      unicode="&#xF11C;"
      horiz-adv-x="960" d=" M480.9 385.428C490.976 385.428 499.648 389.4160000000001 507.384 397.1479999999999L682.928 577.1479999999999C689.024 583.2439999999999 692.3040000000001 590.7439999999999 692.3040000000001 599.6479999999999C692.3040000000001 617.9295999999999 677.7719999999999 632.4608000000001 659.7280000000001 632.4608000000001C650.8199999999999 632.4608000000001 642.384 628.9452 635.82 622.3828000000001L481.132 463.008L326.2108 622.3828000000001C319.6484 628.7108000000001 311.4452 632.4608000000001 302.3048 632.4608000000001C284.258 632.4608000000001 269.7264 617.9295999999999 269.7264 599.6479999999999C269.7264 590.7439999999999 273.008 583.2439999999999 279.1016 576.9159999999999L454.648 397.1479999999999C462.852 389.18 471.056 385.428 480.9 385.428z" />
    <glyph glyph-name="down-1"
      unicode="&#x64;&#x6F;&#x77;&#x6E;"
      horiz-adv-x="960" d=" M480.9 385.428C490.976 385.428 499.648 389.4160000000001 507.384 397.1479999999999L682.928 577.1479999999999C689.024 583.2439999999999 692.3040000000001 590.7439999999999 692.3040000000001 599.6479999999999C692.3040000000001 617.9295999999999 677.7719999999999 632.4608000000001 659.7280000000001 632.4608000000001C650.8199999999999 632.4608000000001 642.384 628.9452 635.82 622.3828000000001L481.132 463.008L326.2108 622.3828000000001C319.6484 628.7108000000001 311.4452 632.4608000000001 302.3048 632.4608000000001C284.258 632.4608000000001 269.7264 617.9295999999999 269.7264 599.6479999999999C269.7264 590.7439999999999 273.008 583.2439999999999 279.1016 576.9159999999999L454.648 397.1479999999999C462.852 389.18 471.056 385.428 480.9 385.428z" />
    <glyph glyph-name="download"
      unicode="&#xF11D;"
      horiz-adv-x="960" d=" M480 900C502.092 900 520 882.0912 520 860V476.568L651.716 608.2844C667.336 623.9052 692.664 623.9052 708.284 608.2844C723.904 592.664 723.904 567.336 708.284 551.716L508.284 351.716C492.664 336.096 467.336 336.096 451.716 351.716L251.7156 551.716C236.0948 567.336 236.0948 592.664 251.7156 608.2844C267.3368 623.9052 292.6632 623.9052 308.2844 608.2844L440 476.568V860C440 882.0912 457.908 900 480 900zM120 420C142.0912 420 160 402.092 160 380V220C160 209.3920000000001 164.2144 199.216 171.7156 191.716C179.2172 184.216 189.3912 180 200 180H760C770.608 180 780.784 184.216 788.284 191.716C795.784 199.216 800 209.3920000000001 800 220V380C800 402.092 817.908 420 840 420C862.092 420 880 402.092 880 380V220C880 188.172 867.356 157.6519999999999 844.8520000000001 135.1479999999999C822.3480000000001 112.644 791.828 100 760 100H200C168.174 100 137.6516 112.644 115.1472 135.1479999999999C92.6428 157.6519999999999 80 188.172 80 220V380C80 402.092 97.9088 420 120 420z" />
    <glyph glyph-name="download-1"
      unicode="&#x64;&#x6F;&#x77;&#x6E;&#x6C;&#x6F;&#x61;&#x64;"
      horiz-adv-x="960" d=" M480 900C502.092 900 520 882.0912 520 860V476.568L651.716 608.2844C667.336 623.9052 692.664 623.9052 708.284 608.2844C723.904 592.664 723.904 567.336 708.284 551.716L508.284 351.716C492.664 336.096 467.336 336.096 451.716 351.716L251.7156 551.716C236.0948 567.336 236.0948 592.664 251.7156 608.2844C267.3368 623.9052 292.6632 623.9052 308.2844 608.2844L440 476.568V860C440 882.0912 457.908 900 480 900zM120 420C142.0912 420 160 402.092 160 380V220C160 209.3920000000001 164.2144 199.216 171.7156 191.716C179.2172 184.216 189.3912 180 200 180H760C770.608 180 780.784 184.216 788.284 191.716C795.784 199.216 800 209.3920000000001 800 220V380C800 402.092 817.908 420 840 420C862.092 420 880 402.092 880 380V220C880 188.172 867.356 157.6519999999999 844.8520000000001 135.1479999999999C822.3480000000001 112.644 791.828 100 760 100H200C168.174 100 137.6516 112.644 115.1472 135.1479999999999C92.6428 157.6519999999999 80 188.172 80 220V380C80 402.092 97.9088 420 120 420z" />
    <glyph glyph-name="dyn-down"
      unicode="&#xF11E;"
      horiz-adv-x="960" d=" M480 740C502.092 740 520 722.0912 520 700L520 356.568L571.716 408.284C587.336 423.904 612.664 423.904 628.284 408.284C643.904 392.664 643.904 367.336 628.284 351.716L508.284 231.716C500.784 224.216 490.608 220 480 220C469.392 220 459.216 224.216 451.716 231.716L331.7156 351.716C316.0948 367.336 316.0948 392.664 331.7156 408.284C347.3368 423.904 372.6632 423.904 388.2844 408.284L440 356.568L440 700C440 722.0912 457.908 740 480 740z" />
    <glyph glyph-name="dyn-down-1"
      unicode="&#x64;&#x79;&#x6E;&#x2D;&#x64;&#x6F;&#x77;&#x6E;"
      horiz-adv-x="960" d=" M480 740C502.092 740 520 722.0912 520 700L520 356.568L571.716 408.284C587.336 423.904 612.664 423.904 628.284 408.284C643.904 392.664 643.904 367.336 628.284 351.716L508.284 231.716C500.784 224.216 490.608 220 480 220C469.392 220 459.216 224.216 451.716 231.716L331.7156 351.716C316.0948 367.336 316.0948 392.664 331.7156 408.284C347.3368 423.904 372.6632 423.904 388.2844 408.284L440 356.568L440 700C440 722.0912 457.908 740 480 740z" />
    <glyph glyph-name="dyn-up"
      unicode="&#xF11F;"
      horiz-adv-x="960" d=" M480 780C490.608 780 500.784 775.7855999999999 508.284 768.2844L628.284 648.2844C643.904 632.6632 643.904 607.3368 628.284 591.716C612.664 576.096 587.336 576.096 571.716 591.716L520 643.4316L520 300C520 277.908 502.092 260 480 260C457.908 260 440 277.908 440 300L440 643.4316L388.2844 591.716C372.6632 576.096 347.3368 576.096 331.7156 591.716C316.0948 607.3368 316.0948 632.6632 331.7156 648.2844L451.716 768.2844C459.216 775.7855999999999 469.392 780 480 780z" />
    <glyph glyph-name="dyn-up-1"
      unicode="&#x64;&#x79;&#x6E;&#x2D;&#x75;&#x70;"
      horiz-adv-x="960" d=" M480 780C490.608 780 500.784 775.7855999999999 508.284 768.2844L628.284 648.2844C643.904 632.6632 643.904 607.3368 628.284 591.716C612.664 576.096 587.336 576.096 571.716 591.716L520 643.4316L520 300C520 277.908 502.092 260 480 260C457.908 260 440 277.908 440 300L440 643.4316L388.2844 591.716C372.6632 576.096 347.3368 576.096 331.7156 591.716C316.0948 607.3368 316.0948 632.6632 331.7156 648.2844L451.716 768.2844C459.216 775.7855999999999 469.392 780 480 780z" />
    <glyph glyph-name="edit (2)"
      unicode="&#xF120;"
      horiz-adv-x="960" d=" M720.032 824.8536C708.136 824.8536 696.7239999999999 820.1279999999999 688.3159999999999 811.7164L196.1488 319.552L175.0048 234.9760000000001L259.58 256.1199999999999L751.744 748.2848C755.912 752.45 759.216 757.3944 761.468 762.8363999999999C763.7239999999999 768.278 764.884 774.1104 764.884 780.0008C764.884 785.8908 763.7239999999999 791.7232 761.468 797.1652C759.216 802.6068 755.912 807.5516 751.744 811.7164C747.5799999999999 815.8815999999999 742.636 819.1852 737.196 821.4392C731.7520000000001 823.6931999999999 725.92 824.8536 720.032 824.8536zM631.744 868.2848C655.1600000000001 891.6996 686.9159999999999 904.8536 720.032 904.8536C736.4279999999999 904.8536 752.6600000000001 901.624 767.808 895.3496C782.9559999999999 889.0752 796.72 879.8788 808.3159999999999 868.2848C819.9079999999999 856.6912 829.1039999999999 842.9276 835.38 827.78C841.652 812.6320000000001 844.884 796.3968 844.884 780.0008C844.884 763.6048 841.652 747.3696 835.38 732.2216C829.1039999999999 717.0735999999999 819.9079999999999 703.31 808.3159999999999 691.7164L308.3144 191.716C303.188 186.592 296.7648000000001 182.952 289.7316 181.196L129.7316 141.196C116.1004 137.788 101.6812 141.78 91.746 151.716C81.8108 161.6520000000001 77.8168 176.0720000000001 81.2244 189.704L121.2244 349.704C122.9828 356.7359999999999 126.6196 363.1600000000001 131.746 368.284L631.744 868.2848zM440.032 180C440.032 202.092 457.9399999999999 220 480.032 220H840.032C862.12 220 880.032 202.092 880.032 180C880.032 157.908 862.12 140 840.032 140H480.032C457.9399999999999 140 440.032 157.908 440.032 180z" />
    <glyph glyph-name="edit (2)-1"
      unicode="&#x65;&#x64;&#x69;&#x74;&#x20;&#x28;&#x32;&#x29;"
      horiz-adv-x="960" d=" M720.032 824.8536C708.136 824.8536 696.7239999999999 820.1279999999999 688.3159999999999 811.7164L196.1488 319.552L175.0048 234.9760000000001L259.58 256.1199999999999L751.744 748.2848C755.912 752.45 759.216 757.3944 761.468 762.8363999999999C763.7239999999999 768.278 764.884 774.1104 764.884 780.0008C764.884 785.8908 763.7239999999999 791.7232 761.468 797.1652C759.216 802.6068 755.912 807.5516 751.744 811.7164C747.5799999999999 815.8815999999999 742.636 819.1852 737.196 821.4392C731.7520000000001 823.6931999999999 725.92 824.8536 720.032 824.8536zM631.744 868.2848C655.1600000000001 891.6996 686.9159999999999 904.8536 720.032 904.8536C736.4279999999999 904.8536 752.6600000000001 901.624 767.808 895.3496C782.9559999999999 889.0752 796.72 879.8788 808.3159999999999 868.2848C819.9079999999999 856.6912 829.1039999999999 842.9276 835.38 827.78C841.652 812.6320000000001 844.884 796.3968 844.884 780.0008C844.884 763.6048 841.652 747.3696 835.38 732.2216C829.1039999999999 717.0735999999999 819.9079999999999 703.31 808.3159999999999 691.7164L308.3144 191.716C303.188 186.592 296.7648000000001 182.952 289.7316 181.196L129.7316 141.196C116.1004 137.788 101.6812 141.78 91.746 151.716C81.8108 161.6520000000001 77.8168 176.0720000000001 81.2244 189.704L121.2244 349.704C122.9828 356.7359999999999 126.6196 363.1600000000001 131.746 368.284L631.744 868.2848zM440.032 180C440.032 202.092 457.9399999999999 220 480.032 220H840.032C862.12 220 880.032 202.092 880.032 180C880.032 157.908 862.12 140 840.032 140H480.032C457.9399999999999 140 440.032 157.908 440.032 180z" />
    <glyph glyph-name="edit"
      unicode="&#xF121;"
      horiz-adv-x="960" d=" M720 824.8528C708.104 824.8528 696.696 820.1272 688.284 811.716L196.1196 319.552L174.9756 234.9760000000001L259.5508 256.1199999999999L751.716 748.2844C755.8799999999999 752.4492 759.1840000000001 757.394 761.44 762.8356C763.692 768.2776 764.8520000000001 774.11 764.8520000000001 780C764.8520000000001 785.8904 763.692 791.7228 761.44 797.1644C759.1840000000001 802.6064 755.8799999999999 807.5508 751.716 811.716C747.552 815.8808 742.6080000000001 819.1848 737.164 821.4388C731.7239999999999 823.6928 725.892 824.8528 720 824.8528zM631.716 868.2844C655.132 891.6988 686.888 904.8528 720 904.8528C736.396 904.8528 752.632 901.6236 767.7800000000001 895.3492C782.928 889.0748 796.692 879.878 808.284 868.2844C819.88 856.6908 829.076 842.9272 835.3480000000001 827.7792C841.624 812.6312 844.8520000000001 796.396 844.8520000000001 780C844.8520000000001 763.604 841.624 747.3688 835.3480000000001 732.2208C829.076 717.0732 819.88 703.3096 808.284 691.716L308.2852000000001 191.716C303.1588 186.588 296.7356 182.952 289.7024 181.196L129.7024 141.196C116.0712 137.788 101.6516 141.78 91.7164 151.716C81.7812 161.6520000000001 77.7872 176.0720000000001 81.1952 189.7000000000001L121.1952 349.7000000000001C122.9536 356.7359999999999 126.5904 363.1560000000001 131.7164 368.284L631.716 868.2844zM440 180C440 202.092 457.908 220 480 220H840C862.092 220 880 202.092 880 180C880 157.908 862.092 140 840 140H480C457.908 140 440 157.908 440 180z" />
    <glyph glyph-name="edit-1"
      unicode="&#x65;&#x64;&#x69;&#x74;"
      horiz-adv-x="960" d=" M720 824.8528C708.104 824.8528 696.696 820.1272 688.284 811.716L196.1196 319.552L174.9756 234.9760000000001L259.5508 256.1199999999999L751.716 748.2844C755.8799999999999 752.4492 759.1840000000001 757.394 761.44 762.8356C763.692 768.2776 764.8520000000001 774.11 764.8520000000001 780C764.8520000000001 785.8904 763.692 791.7228 761.44 797.1644C759.1840000000001 802.6064 755.8799999999999 807.5508 751.716 811.716C747.552 815.8808 742.6080000000001 819.1848 737.164 821.4388C731.7239999999999 823.6928 725.892 824.8528 720 824.8528zM631.716 868.2844C655.132 891.6988 686.888 904.8528 720 904.8528C736.396 904.8528 752.632 901.6236 767.7800000000001 895.3492C782.928 889.0748 796.692 879.878 808.284 868.2844C819.88 856.6908 829.076 842.9272 835.3480000000001 827.7792C841.624 812.6312 844.8520000000001 796.396 844.8520000000001 780C844.8520000000001 763.604 841.624 747.3688 835.3480000000001 732.2208C829.076 717.0732 819.88 703.3096 808.284 691.716L308.2852000000001 191.716C303.1588 186.588 296.7356 182.952 289.7024 181.196L129.7024 141.196C116.0712 137.788 101.6516 141.78 91.7164 151.716C81.7812 161.6520000000001 77.7872 176.0720000000001 81.1952 189.7000000000001L121.1952 349.7000000000001C122.9536 356.7359999999999 126.5904 363.1560000000001 131.7164 368.284L631.716 868.2844zM440 180C440 202.092 457.908 220 480 220H840C862.092 220 880 202.092 880 180C880 157.908 862.092 140 840 140H480C457.908 140 440 157.908 440 180z" />
    <glyph glyph-name="Error"
      unicode="&#xF122;"
      horiz-adv-x="960" d=" M421.128 888.6759999999999C439.1 898.7944 459.376 904.11 480 904.11C500.624 904.11 520.9000000000001 898.7944 538.872 888.6759999999999C556.8439999999999 878.558 571.904 863.9788 582.6 846.3452L582.716 846.1552L921.516 280.5560000000001L921.84 280.004C932.32 261.856 937.864 241.284 937.92 220.3319999999999C937.98 199.38 932.552 178.7760000000001 922.176 160.5719999999999C911.8 142.3680000000001 896.836 127.196 878.7760000000001 116.572C860.72 105.944 840.192 100.232 819.24 100.004L818.8 99.996L140.7612 100C119.8088 100.232 99.2824 105.944 81.2236 116.572C63.1648 127.196 48.2028 142.3680000000001 37.8268 160.5719999999999C27.45068 178.7760000000001 22.02188 199.38 22.08056 220.3319999999999C22.1392 241.284 27.68332 261.856 38.1612 280.004L38.48612 280.5560000000001L377.4004 846.3456C388.0964 863.9792 403.1560000000001 878.558 421.128 888.6759999999999zM480 824.11C473.128 824.11 466.368 822.338 460.376 818.9652C454.412 815.6076 449.4120000000001 810.7768 445.848 804.9344L107.3084 239.7680000000001C103.9012 233.7760000000001 102.0996 227.004 102.0804 220.1080000000001C102.0608 213.124 103.8704 206.2560000000001 107.3288 200.188C110.7876 194.1200000000001 115.7752 189.0640000000001 121.7948 185.5200000000001C127.7616 182.0080000000001 134.5368 180.1080000000001 141.4568 180H818.544C825.464 180.1080000000001 832.24 182.0080000000001 838.2080000000001 185.5200000000001C844.228 189.0640000000001 849.212 194.1200000000001 852.672 200.188C856.1320000000001 206.2560000000001 857.9399999999999 213.124 857.9200000000001 220.1080000000001C857.904 227.004 856.1 233.7720000000001 852.6959999999999 239.764L514.2 804.8548C514.184 804.8815999999999 514.168 804.908 514.152 804.9344C510.592 810.7768 505.588 815.6076 499.624 818.9652C493.636 822.338 486.876 824.11 480 824.11zM480 660C502.092 660 520 642.0916 520 620V460C520 437.908 502.092 420 480 420C457.908 420 440 437.908 440 460V620C440 642.0916 457.908 660 480 660zM480 380C502.092 380 520 362.092 520 340V320C520 297.908 502.092 280 480 280C457.908 280 440 297.908 440 320V340C440 362.092 457.908 380 480 380z" />
    <glyph glyph-name="Error-1"
      unicode="&#x45;&#x72;&#x72;&#x6F;&#x72;"
      horiz-adv-x="960" d=" M421.128 888.6759999999999C439.1 898.7944 459.376 904.11 480 904.11C500.624 904.11 520.9000000000001 898.7944 538.872 888.6759999999999C556.8439999999999 878.558 571.904 863.9788 582.6 846.3452L582.716 846.1552L921.516 280.5560000000001L921.84 280.004C932.32 261.856 937.864 241.284 937.92 220.3319999999999C937.98 199.38 932.552 178.7760000000001 922.176 160.5719999999999C911.8 142.3680000000001 896.836 127.196 878.7760000000001 116.572C860.72 105.944 840.192 100.232 819.24 100.004L818.8 99.996L140.7612 100C119.8088 100.232 99.2824 105.944 81.2236 116.572C63.1648 127.196 48.2028 142.3680000000001 37.8268 160.5719999999999C27.45068 178.7760000000001 22.02188 199.38 22.08056 220.3319999999999C22.1392 241.284 27.68332 261.856 38.1612 280.004L38.48612 280.5560000000001L377.4004 846.3456C388.0964 863.9792 403.1560000000001 878.558 421.128 888.6759999999999zM480 824.11C473.128 824.11 466.368 822.338 460.376 818.9652C454.412 815.6076 449.4120000000001 810.7768 445.848 804.9344L107.3084 239.7680000000001C103.9012 233.7760000000001 102.0996 227.004 102.0804 220.1080000000001C102.0608 213.124 103.8704 206.2560000000001 107.3288 200.188C110.7876 194.1200000000001 115.7752 189.0640000000001 121.7948 185.5200000000001C127.7616 182.0080000000001 134.5368 180.1080000000001 141.4568 180H818.544C825.464 180.1080000000001 832.24 182.0080000000001 838.2080000000001 185.5200000000001C844.228 189.0640000000001 849.212 194.1200000000001 852.672 200.188C856.1320000000001 206.2560000000001 857.9399999999999 213.124 857.9200000000001 220.1080000000001C857.904 227.004 856.1 233.7720000000001 852.6959999999999 239.764L514.2 804.8548C514.184 804.8815999999999 514.168 804.908 514.152 804.9344C510.592 810.7768 505.588 815.6076 499.624 818.9652C493.636 822.338 486.876 824.11 480 824.11zM480 660C502.092 660 520 642.0916 520 620V460C520 437.908 502.092 420 480 420C457.908 420 440 437.908 440 460V620C440 642.0916 457.908 660 480 660zM480 380C502.092 380 520 362.092 520 340V320C520 297.908 502.092 280 480 280C457.908 280 440 297.908 440 320V340C440 362.092 457.908 380 480 380z" />
    <glyph glyph-name="Error2"
      unicode="&#xF123;"
      horiz-adv-x="952.3809523809524" d=" M419.7276190476191 882.1342857142857C436.962380952381 891.8371428571429 456.4071428571429 896.9347619047619 476.1857142857143 896.9347619047619C495.9619047619048 896.9347619047619 515.4095238095239 891.8371428571429 532.6428571428571 882.1342857142857C549.8761904761905 872.4309523809524 564.3190476190476 858.4495238095238 574.5761904761905 841.5390476190476L574.6809523809525 841.3690476190476L911.0857142857142 279.7666666666667C921.1333333333334 262.3666666666667 926.4476190476192 242.6333333333334 926.504761904762 222.5380952380953C926.5619047619048 202.447619047619 921.352380952381 182.6857142857143 911.404761904762 165.2285714285714C901.452380952381 147.7714285714286 887.104761904762 133.2238095238095 869.7857142857143 123.0333333333333C852.4666666666668 112.8428571428572 832.7809523809524 107.3666666666667 812.6904761904763 107.1476190476191L812.2952380952381 107.1428571428571L139.6819047619048 107.1428571428571C119.5890476190476 107.3619047619047 99.9038095238095 112.8428571428572 82.5857142857143 123.0333333333333C65.2671428571429 133.2238095238095 50.9190476190476 147.7714285714286 40.9682857142857 165.2285714285714C31.0176666666667 182.6857142857143 25.8114761904762 202.447619047619 25.8677142857143 222.5380952380953C25.924 242.6333333333334 31.2407619047619 262.3619047619048 41.289 279.7666666666667L41.5751904761905 280.2619047619048L377.792380952381 841.5390476190476C388.0500000000001 858.4495238095238 402.4933333333334 872.4309523809524 419.7276190476191 882.1342857142857zM476.1857142857143 825.5061904761905C468.6833333333333 825.5061904761905 461.307619047619 823.5728571428572 454.7704761904762 819.892380952381C448.2576190476191 816.2252380952381 442.7957142857143 810.9480952380952 438.9076190476191 804.5661904761905C438.8933333333334 804.5419047619048 438.8785714285715 804.5180952380952 438.8642857142858 804.4938095238095L103.0238095238095 243.8333333333333C99.2909523809524 237.2857142857144 97.3171428571429 229.8809523809524 97.2961904761905 222.3380952380952C97.2747619047619 214.7190476190476 99.2495238095238 207.2238095238096 103.0238095238095 200.5999999999999C106.7980952380952 193.9809523809523 112.2409523809524 188.4619047619048 118.8095238095238 184.5952380952381C125.3314285714286 180.7571428571429 132.7376190476191 178.6857142857143 140.3014285714286 178.5714285714286H812.0714285714286C819.6333333333333 178.6857142857143 827.0380952380953 180.7571428571429 833.5619047619048 184.5952380952381C840.1285714285715 188.4619047619048 845.5714285714287 193.9809523809523 849.3476190476191 200.5999999999999C853.1238095238097 207.2238095238096 855.0952380952382 214.7190476190476 855.0761904761906 222.3380952380952C855.052380952381 229.8809523809524 853.0809523809525 237.2857142857144 849.3476190476191 243.8333333333333L513.504761904762 804.4938095238095C513.4904761904762 804.5180952380952 513.4761904761905 804.5419047619048 513.4619047619047 804.5661904761905C509.5761904761905 810.9480952380952 504.1142857142857 816.2252380952381 497.6 819.892380952381C491.0619047619048 823.5728571428572 483.6857142857144 825.5061904761905 476.1857142857143 825.5061904761905zM476.1857142857143 654.7623809523809C495.9095238095238 654.7623809523809 511.9 638.7728571428571 511.9 619.0480952380951V460.3190476190476C511.9 440.5952380952381 495.9095238095238 424.6047619047619 476.1857142857143 424.6047619047619C456.4614285714285 424.6047619047619 440.4714285714286 440.5952380952381 440.4714285714286 460.3190476190476V619.0480952380951C440.4714285714286 638.7728571428571 456.4614285714285 654.7623809523809 476.1857142857143 654.7623809523809zM476.1857142857143 376.9857142857143C495.9095238095238 376.9857142857143 511.9 360.9952380952381 511.9 341.2714285714286V321.4285714285715C511.9 301.7047619047619 495.9095238095238 285.7142857142857 476.1857142857143 285.7142857142857C456.4614285714285 285.7142857142857 440.4714285714286 301.7047619047619 440.4714285714286 321.4285714285715V341.2714285714286C440.4714285714286 360.9952380952381 456.4614285714285 376.9857142857143 476.1857142857143 376.9857142857143z" />
    <glyph glyph-name="Error2-1"
      unicode="&#x45;&#x72;&#x72;&#x6F;&#x72;&#x32;"
      horiz-adv-x="952.3809523809524" d=" M419.7276190476191 882.1342857142857C436.962380952381 891.8371428571429 456.4071428571429 896.9347619047619 476.1857142857143 896.9347619047619C495.9619047619048 896.9347619047619 515.4095238095239 891.8371428571429 532.6428571428571 882.1342857142857C549.8761904761905 872.4309523809524 564.3190476190476 858.4495238095238 574.5761904761905 841.5390476190476L574.6809523809525 841.3690476190476L911.0857142857142 279.7666666666667C921.1333333333334 262.3666666666667 926.4476190476192 242.6333333333334 926.504761904762 222.5380952380953C926.5619047619048 202.447619047619 921.352380952381 182.6857142857143 911.404761904762 165.2285714285714C901.452380952381 147.7714285714286 887.104761904762 133.2238095238095 869.7857142857143 123.0333333333333C852.4666666666668 112.8428571428572 832.7809523809524 107.3666666666667 812.6904761904763 107.1476190476191L812.2952380952381 107.1428571428571L139.6819047619048 107.1428571428571C119.5890476190476 107.3619047619047 99.9038095238095 112.8428571428572 82.5857142857143 123.0333333333333C65.2671428571429 133.2238095238095 50.9190476190476 147.7714285714286 40.9682857142857 165.2285714285714C31.0176666666667 182.6857142857143 25.8114761904762 202.447619047619 25.8677142857143 222.5380952380953C25.924 242.6333333333334 31.2407619047619 262.3619047619048 41.289 279.7666666666667L41.5751904761905 280.2619047619048L377.792380952381 841.5390476190476C388.0500000000001 858.4495238095238 402.4933333333334 872.4309523809524 419.7276190476191 882.1342857142857zM476.1857142857143 825.5061904761905C468.6833333333333 825.5061904761905 461.307619047619 823.5728571428572 454.7704761904762 819.892380952381C448.2576190476191 816.2252380952381 442.7957142857143 810.9480952380952 438.9076190476191 804.5661904761905C438.8933333333334 804.5419047619048 438.8785714285715 804.5180952380952 438.8642857142858 804.4938095238095L103.0238095238095 243.8333333333333C99.2909523809524 237.2857142857144 97.3171428571429 229.8809523809524 97.2961904761905 222.3380952380952C97.2747619047619 214.7190476190476 99.2495238095238 207.2238095238096 103.0238095238095 200.5999999999999C106.7980952380952 193.9809523809523 112.2409523809524 188.4619047619048 118.8095238095238 184.5952380952381C125.3314285714286 180.7571428571429 132.7376190476191 178.6857142857143 140.3014285714286 178.5714285714286H812.0714285714286C819.6333333333333 178.6857142857143 827.0380952380953 180.7571428571429 833.5619047619048 184.5952380952381C840.1285714285715 188.4619047619048 845.5714285714287 193.9809523809523 849.3476190476191 200.5999999999999C853.1238095238097 207.2238095238096 855.0952380952382 214.7190476190476 855.0761904761906 222.3380952380952C855.052380952381 229.8809523809524 853.0809523809525 237.2857142857144 849.3476190476191 243.8333333333333L513.504761904762 804.4938095238095C513.4904761904762 804.5180952380952 513.4761904761905 804.5419047619048 513.4619047619047 804.5661904761905C509.5761904761905 810.9480952380952 504.1142857142857 816.2252380952381 497.6 819.892380952381C491.0619047619048 823.5728571428572 483.6857142857144 825.5061904761905 476.1857142857143 825.5061904761905zM476.1857142857143 654.7623809523809C495.9095238095238 654.7623809523809 511.9 638.7728571428571 511.9 619.0480952380951V460.3190476190476C511.9 440.5952380952381 495.9095238095238 424.6047619047619 476.1857142857143 424.6047619047619C456.4614285714285 424.6047619047619 440.4714285714286 440.5952380952381 440.4714285714286 460.3190476190476V619.0480952380951C440.4714285714286 638.7728571428571 456.4614285714285 654.7623809523809 476.1857142857143 654.7623809523809zM476.1857142857143 376.9857142857143C495.9095238095238 376.9857142857143 511.9 360.9952380952381 511.9 341.2714285714286V321.4285714285715C511.9 301.7047619047619 495.9095238095238 285.7142857142857 476.1857142857143 285.7142857142857C456.4614285714285 285.7142857142857 440.4714285714286 301.7047619047619 440.4714285714286 321.4285714285715V341.2714285714286C440.4714285714286 360.9952380952381 456.4614285714285 376.9857142857143 476.1857142857143 376.9857142857143z" />
    <glyph glyph-name="eye-off"
      unicode="&#xF124;"
      horiz-adv-x="960" d=" M68.2844 968.28428C52.6632 983.90524 27.33668 983.90524 11.71572 968.28428C-3.905244 952.6632 -3.905244 927.3368 11.71572 911.7156L182.7396 740.692C110.388 678.4128 50.0144 603.2592 4.75376 518.912C-1.391576 507.46 -1.589548 493.736 4.22292 482.112C4.22292 482.112 4.20984 482.136 4.2548 482.048L4.30156 481.952L4.4396 481.6799999999999L4.89352 480.792C5.275 480.048 5.81428 479.0120000000001 6.51016 477.6959999999999C7.9016 475.068 9.92096 471.328 12.55884 466.64C17.83168 457.264 25.594 444.06 35.77344 428.2960000000001C56.0828 396.852 86.2732 354.824 125.8184 312.64C204.1792 229.0560000000001 324.0196000000001 140 480 140L480.652 140.004C563.3919999999999 141.356 643.848 165.856 713.044 210.3879999999999L891.716 31.716C907.336 16.096 932.664 16.096 948.284 31.716C963.904 47.336 963.904 72.664 948.284 88.284L68.2844 968.28428zM654.856 268.576L561.9879999999999 361.44C555.64 357.4599999999999 549.004 353.92 542.124 350.856C522.5 342.1120000000001 501.312 337.4079999999999 479.828 337.032C458.3440000000001 336.6520000000001 437.0080000000001 340.6040000000001 417.084 348.6520000000001C397.1608 356.6960000000001 379.0628000000001 368.6760000000001 363.8696 383.8680000000001C348.6764 399.06 336.6988 417.16 328.6516000000001 437.084C320.6044 457.004 316.6524 478.3440000000001 317.0316000000001 499.828C317.4108 521.312 322.1128 542.5 330.858 562.124C333.9220000000001 569.0039999999999 337.4608 575.64 341.4416 581.988L239.484 683.9464C178.0124 631.944 125.974 569.672 85.7028 499.872C90.066 492.336 95.8368 482.756 102.9764 471.7C121.4172 443.148 148.7268 405.1760000000001 184.1816 367.356C255.758 291.0080000000001 355.8048 220.124 479.672 220C541.492 221.064 601.7479999999999 237.904 654.856 268.576zM401.1160000000001 522.316C398.5488000000001 514.616 397.1628 506.56 397.0192 498.416C396.8296000000001 487.676 398.8056000000001 477.004 402.8280000000001 467.044C406.8520000000001 457.0839999999999 412.84 448.032 420.44 440.4359999999999C428.0360000000001 432.8400000000001 437.084 426.852 447.044 422.828C457.008 418.804 467.676 416.828 478.416 417.02C486.56 417.16 494.62 418.548 502.316 421.116L401.1160000000001 522.316z M479.908 779.9992C454.728 780.0584 429.632 777.19 405.116 771.4516C383.6064 766.4168 362.0876 779.7724 357.0528000000001 801.2824C352.018 822.7924 365.3736 844.3112 386.8836 849.3464C417.42 856.494 448.6840000000001 860.0688 480.048 859.9988C636.004 859.9816000000001 755.8280000000001 770.9331999999999 834.1800000000001 687.3568C873.728 645.1751999999999 903.916 603.1464 924.228 571.7C934.404 555.94 942.1680000000002 542.732 947.44 533.36C950.08 528.668 952.1 524.932 953.488 522.3C954.184 520.9879999999999 954.724 519.948 955.108 519.208L955.56 518.316L955.7 518.044L955.744 517.952L955.776 517.888C961.58 506.284 961.392 492.584 955.276 481.144C929.684 433.264 899.16 388.188 864.208 346.644C849.984 329.74 824.748 327.568 807.8480000000001 341.7919999999999C790.944 356.0160000000001 788.772 381.2480000000001 802.992 398.152C829.756 429.956 853.6239999999999 464.072 874.32 500.088C869.952 507.628 864.1759999999999 517.2239999999999 857.024 528.296C838.5840000000001 556.8520000000001 811.272 594.824 775.8199999999999 632.6412C704.1800000000001 709.0563999999999 604.02 779.9992 480 779.9992L479.908 779.9992z M0 980H960V20H0V980z" />
    </font>
</defs>
</svg>
